<svg width="36" height="34" viewBox="0 0 36 34" fill="none" xmlns="http://www.w3.org/2000/svg">
<g clip-path="url(#clip0_2123_796)">
<path d="M34.5743 5.19768V32.4426C34.5743 32.6385 34.4966 32.8264 34.3584 32.9651C34.2201 33.1038 34.0324 33.1821 33.8365 33.1827H1.69656C1.59929 33.1828 1.50295 33.1638 1.41306 33.1266C1.32316 33.0895 1.24147 33.035 1.17265 32.9662C1.10383 32.8975 1.04924 32.8159 1.01199 32.726C0.974738 32.6362 0.955566 32.5398 0.955566 32.4426V5.19768C0.955781 4.6086 1.18989 4.04372 1.60642 3.62718C2.02296 3.21064 2.58785 2.97653 3.17692 2.97632H32.3578C32.946 2.97782 33.5097 3.21249 33.9252 3.62889C34.3406 4.04529 34.5741 4.60944 34.5743 5.19768Z" fill="white"/>
<path d="M34.5798 5.19768V32.4426C34.5798 32.5398 34.5606 32.6362 34.5234 32.726C34.4861 32.8159 34.4315 32.8975 34.3627 32.9662C34.2939 33.035 34.2122 33.0895 34.1223 33.1266C34.0324 33.1638 33.9361 33.1828 33.8388 33.1827H32.3495C32.4468 33.1828 32.5431 33.1638 32.633 33.1266C32.7229 33.0895 32.8046 33.035 32.8734 32.9662C32.9422 32.8975 32.9968 32.8159 33.0341 32.726C33.0713 32.6362 33.0905 32.5398 33.0905 32.4426V5.19768C33.0903 4.6086 32.8562 4.04372 32.4397 3.62718C32.0231 3.21064 31.4582 2.97653 30.8691 2.97632H32.3617C32.9502 2.97739 33.5142 3.21187 33.9301 3.62832C34.3459 4.04477 34.5796 4.60916 34.5798 5.19768Z" fill="#D9DFE9"/>
<path d="M34.4659 6.00353V14.4479H0.847168V6.00353C0.847168 4.33102 1.84191 2.97632 3.06853 2.97632H32.2494C33.4752 2.97632 34.4683 4.33102 34.4691 6.00353H34.4659Z" fill="#FFC843"/>
<path d="M4.67376 18.2567H5.7804C5.9995 18.2567 6.20961 18.1697 6.36454 18.0148C6.51947 17.8598 6.60651 17.6497 6.60651 17.4306C6.60651 17.2115 6.51947 17.0014 6.36454 16.8465C6.20961 16.6915 5.9995 16.6045 5.7804 16.6045H4.67376C4.45466 16.6045 4.24455 16.6915 4.08962 16.8465C3.9347 17.0014 3.84766 17.2115 3.84766 17.4306C3.84766 17.6497 3.9347 17.8598 4.08962 18.0148C4.24455 18.1697 4.45466 18.2567 4.67376 18.2567Z" fill="#C2C7D0"/>
<path d="M10.1059 18.2567H11.2125C11.4316 18.2567 11.6418 18.1697 11.7967 18.0148C11.9516 17.8598 12.0387 17.6497 12.0387 17.4306C12.0387 17.2115 11.9516 17.0014 11.7967 16.8465C11.6418 16.6915 11.4316 16.6045 11.2125 16.6045H10.1059C9.88681 16.6045 9.67668 16.6915 9.52175 16.8465C9.36683 17.0014 9.27979 17.2115 9.27979 17.4306C9.27979 17.6497 9.36683 17.8598 9.52175 18.0148C9.67668 18.1697 9.88681 18.2567 10.1059 18.2567Z" fill="#C2C7D0"/>
<path d="M15.538 18.2567H16.6447C16.8638 18.2567 17.0739 18.1697 17.2288 18.0148C17.3837 17.8598 17.4708 17.6497 17.4708 17.4306C17.4708 17.2115 17.3837 17.0014 17.2288 16.8465C17.0739 16.6915 16.8638 16.6045 16.6447 16.6045H15.538C15.3189 16.6045 15.1088 16.6915 14.9539 16.8465C14.799 17.0014 14.7119 17.2115 14.7119 17.4306C14.7119 17.6497 14.799 17.8598 14.9539 18.0148C15.1088 18.1697 15.3189 18.2567 15.538 18.2567Z" fill="#C2C7D0"/>
<path d="M20.9731 18.2567H22.0797C22.2988 18.2567 22.509 18.1697 22.6639 18.0148C22.8188 17.8598 22.9058 17.6497 22.9058 17.4306C22.9058 17.2115 22.8188 17.0014 22.6639 16.8465C22.509 16.6915 22.2988 16.6045 22.0797 16.6045H20.9731C20.754 16.6045 20.5439 16.6915 20.3889 16.8465C20.234 17.0014 20.147 17.2115 20.147 17.4306C20.147 17.6497 20.234 17.8598 20.3889 18.0148C20.5439 18.1697 20.754 18.2567 20.9731 18.2567Z" fill="#C2C7D0"/>
<path d="M4.67376 22.517H5.7804C5.9995 22.517 6.20961 22.43 6.36454 22.275C6.51947 22.1201 6.60651 21.91 6.60651 21.6909C6.60651 21.4718 6.51947 21.2616 6.36454 21.1067C6.20961 20.9518 5.9995 20.8647 5.7804 20.8647H4.67376C4.45466 20.8647 4.24455 20.9518 4.08962 21.1067C3.9347 21.2616 3.84766 21.4718 3.84766 21.6909C3.84766 21.91 3.9347 22.1201 4.08962 22.275C4.24455 22.43 4.45466 22.517 4.67376 22.517Z" fill="#C2C7D0"/>
<path d="M10.1059 22.517H11.2125C11.4316 22.517 11.6418 22.43 11.7967 22.275C11.9516 22.1201 12.0387 21.91 12.0387 21.6909C12.0387 21.4718 11.9516 21.2616 11.7967 21.1067C11.6418 20.9518 11.4316 20.8647 11.2125 20.8647H10.1059C9.88681 20.8647 9.67668 20.9518 9.52175 21.1067C9.36683 21.2616 9.27979 21.4718 9.27979 21.6909C9.27979 21.91 9.36683 22.1201 9.52175 22.275C9.67668 22.43 9.88681 22.517 10.1059 22.517Z" fill="#C2C7D0"/>
<path d="M15.538 22.517H16.6447C16.8638 22.517 17.0739 22.43 17.2288 22.275C17.3837 22.1201 17.4708 21.91 17.4708 21.6909C17.4708 21.4718 17.3837 21.2616 17.2288 21.1067C17.0739 20.9518 16.8638 20.8647 16.6447 20.8647H15.538C15.3189 20.8647 15.1088 20.9518 14.9539 21.1067C14.799 21.2616 14.7119 21.4718 14.7119 21.6909C14.7119 21.91 14.799 22.1201 14.9539 22.275C15.1088 22.43 15.3189 22.517 15.538 22.517Z" fill="#C2C7D0"/>
<path d="M20.9731 22.517H22.0797C22.2988 22.517 22.509 22.43 22.6639 22.275C22.8188 22.1201 22.9058 21.91 22.9058 21.6909C22.9058 21.4718 22.8188 21.2616 22.6639 21.1067C22.509 20.9518 22.2988 20.8647 22.0797 20.8647H20.9731C20.754 20.8647 20.5439 20.9518 20.3889 21.1067C20.234 21.2616 20.147 21.4718 20.147 21.6909C20.147 21.91 20.234 22.1201 20.3889 22.275C20.5439 22.43 20.754 22.517 20.9731 22.517Z" fill="#C2C7D0"/>
<path d="M4.67376 26.7765H5.7804C5.9995 26.7765 6.20961 26.6895 6.36454 26.5346C6.51947 26.3796 6.60651 26.1695 6.60651 25.9504C6.60651 25.7313 6.51947 25.5212 6.36454 25.3662C6.20961 25.2113 5.9995 25.1243 5.7804 25.1243H4.67376C4.45466 25.1243 4.24455 25.2113 4.08962 25.3662C3.9347 25.5212 3.84766 25.7313 3.84766 25.9504C3.84766 26.1695 3.9347 26.3796 4.08962 26.5346C4.24455 26.6895 4.45466 26.7765 4.67376 26.7765Z" fill="#C2C7D0"/>
<path d="M10.1059 26.7766H11.2125C11.4316 26.7766 11.6418 26.6896 11.7967 26.5347C11.9516 26.3798 12.0387 26.1696 12.0387 25.9505C12.0387 25.7314 11.9516 25.5213 11.7967 25.3664C11.6418 25.2114 11.4316 25.1244 11.2125 25.1244H10.1059C9.88681 25.1244 9.67668 25.2114 9.52175 25.3664C9.36683 25.5213 9.27979 25.7314 9.27979 25.9505C9.27979 26.1696 9.36683 26.3798 9.52175 26.5347C9.67668 26.6896 9.88681 26.7766 10.1059 26.7766Z" fill="#C2C7D0"/>
<path d="M15.538 26.7765H16.6447C16.8638 26.7765 17.0739 26.6895 17.2288 26.5346C17.3837 26.3796 17.4708 26.1695 17.4708 25.9504C17.4708 25.7313 17.3837 25.5212 17.2288 25.3662C17.0739 25.2113 16.8638 25.1243 16.6447 25.1243H15.538C15.3189 25.1243 15.1088 25.2113 14.9539 25.3662C14.799 25.5212 14.7119 25.7313 14.7119 25.9504C14.7119 26.1695 14.799 26.3796 14.9539 26.5346C15.1088 26.6895 15.3189 26.7765 15.538 26.7765Z" fill="#C2C7D0"/>
<path d="M20.9731 26.7765H22.0797C22.2988 26.7765 22.509 26.6895 22.6639 26.5346C22.8188 26.3796 22.9058 26.1695 22.9058 25.9504C22.9058 25.7313 22.8188 25.5212 22.6639 25.3662C22.509 25.2113 22.2988 25.1243 22.0797 25.1243H20.9731C20.754 25.1243 20.5439 25.2113 20.3889 25.3662C20.234 25.5212 20.147 25.7313 20.147 25.9504C20.147 26.1695 20.234 26.3796 20.3889 26.5346C20.5439 26.6895 20.754 26.7765 20.9731 26.7765Z" fill="#C2C7D0"/>
<path d="M4.67376 31.0344H5.7804C5.9995 31.0344 6.20961 30.9474 6.36454 30.7925C6.51947 30.6375 6.60651 30.4274 6.60651 30.2083C6.60651 29.9892 6.51947 29.7791 6.36454 29.6241C6.20961 29.4692 5.9995 29.3822 5.7804 29.3822H4.67376C4.45466 29.3822 4.24455 29.4692 4.08962 29.6241C3.9347 29.7791 3.84766 29.9892 3.84766 30.2083C3.84766 30.4274 3.9347 30.6375 4.08962 30.7925C4.24455 30.9474 4.45466 31.0344 4.67376 31.0344Z" fill="#C2C7D0"/>
<path d="M10.1059 31.0346H11.2125C11.4316 31.0346 11.6418 30.9475 11.7967 30.7926C11.9516 30.6377 12.0387 30.4275 12.0387 30.2084C12.0387 29.9893 11.9516 29.7792 11.7967 29.6243C11.6418 29.4693 11.4316 29.3823 11.2125 29.3823H10.1059C9.88681 29.3823 9.67668 29.4693 9.52175 29.6243C9.36683 29.7792 9.27979 29.9893 9.27979 30.2084C9.27979 30.4275 9.36683 30.6377 9.52175 30.7926C9.67668 30.9475 9.88681 31.0346 10.1059 31.0346Z" fill="#C2C7D0"/>
<path d="M15.538 31.0344H16.6447C16.8638 31.0344 17.0739 30.9474 17.2288 30.7925C17.3837 30.6375 17.4708 30.4274 17.4708 30.2083C17.4708 29.9892 17.3837 29.7791 17.2288 29.6241C17.0739 29.4692 16.8638 29.3822 16.6447 29.3822H15.538C15.3189 29.3822 15.1088 29.4692 14.9539 29.6241C14.799 29.7791 14.7119 29.9892 14.7119 30.2083C14.7119 30.4274 14.799 30.6375 14.9539 30.7925C15.1088 30.9474 15.3189 31.0344 15.538 31.0344Z" fill="#C2C7D0"/>
<path d="M20.9731 31.0344H22.0797C22.2988 31.0344 22.509 30.9474 22.6639 30.7925C22.8188 30.6375 22.9058 30.4274 22.9058 30.2083C22.9058 29.9892 22.8188 29.7791 22.6639 29.6241C22.509 29.4692 22.2988 29.3822 22.0797 29.3822H20.9731C20.754 29.3822 20.5439 29.4692 20.3889 29.6241C20.234 29.7791 20.147 29.9892 20.147 30.2083C20.147 30.4274 20.234 30.6375 20.3889 30.7925C20.5439 30.9474 20.754 31.0344 20.9731 31.0344Z" fill="#C2C7D0"/>
<path d="M4.67376 35.2964H5.7804C5.9995 35.2964 6.20961 35.2094 6.36454 35.0544C6.51947 34.8995 6.60651 34.6894 6.60651 34.4703C6.60651 34.2512 6.51947 34.0411 6.36454 33.8861C6.20961 33.7312 5.9995 33.6442 5.7804 33.6442H4.67376C4.45466 33.6442 4.24455 33.7312 4.08962 33.8861C3.9347 34.0411 3.84766 34.2512 3.84766 34.4703C3.84766 34.6894 3.9347 34.8995 4.08962 35.0544C4.24455 35.2094 4.45466 35.2964 4.67376 35.2964Z" fill="#C2C7D0"/>
<path d="M10.1059 35.2964H11.2125C11.4316 35.2964 11.6418 35.2094 11.7967 35.0544C11.9516 34.8995 12.0387 34.6894 12.0387 34.4703C12.0387 34.2512 11.9516 34.0411 11.7967 33.8861C11.6418 33.7312 11.4316 33.6442 11.2125 33.6442H10.1059C9.88681 33.6442 9.67668 33.7312 9.52175 33.8861C9.36683 34.0411 9.27979 34.2512 9.27979 34.4703C9.27979 34.6894 9.36683 34.8995 9.52175 35.0544C9.67668 35.2094 9.88681 35.2964 10.1059 35.2964Z" fill="#C2C7D0"/>
<path d="M15.538 35.2964H16.6447C16.8638 35.2964 17.0739 35.2094 17.2288 35.0544C17.3837 34.8995 17.4708 34.6894 17.4708 34.4703C17.4708 34.2512 17.3837 34.0411 17.2288 33.8861C17.0739 33.7312 16.8638 33.6442 16.6447 33.6442H15.538C15.3189 33.6442 15.1088 33.7312 14.9539 33.8861C14.799 34.0411 14.7119 34.2512 14.7119 34.4703C14.7119 34.6894 14.799 34.8995 14.9539 35.0544C15.1088 35.2094 15.3189 35.2964 15.538 35.2964Z" fill="#C2C7D0"/>
<path d="M20.9731 35.2964H22.0797C22.2988 35.2964 22.509 35.2094 22.6639 35.0544C22.8188 34.8995 22.9058 34.6894 22.9058 34.4703C22.9058 34.2512 22.8188 34.0411 22.6639 33.8861C22.509 33.7312 22.2988 33.6442 22.0797 33.6442H20.9731C20.754 33.6442 20.5439 33.7312 20.3889 33.8861C20.234 34.0411 20.147 34.2512 20.147 34.4703C20.147 34.6894 20.234 34.8995 20.3889 35.0544C20.5439 35.2094 20.754 35.2964 20.9731 35.2964Z" fill="#C2C7D0"/>
<path d="M26.4379 18.2567H27.5446C27.7637 18.2567 27.9738 18.1697 28.1287 18.0148C28.2836 17.8598 28.3707 17.6497 28.3707 17.4306C28.3707 17.2115 28.2836 17.0014 28.1287 16.8465C27.9738 16.6915 27.7637 16.6045 27.5446 16.6045H26.4379C26.2188 16.6045 26.0087 16.6915 25.8538 16.8465C25.6989 17.0014 25.6118 17.2115 25.6118 17.4306C25.6118 17.6497 25.6989 17.8598 25.8538 18.0148C26.0087 18.1697 26.2188 18.2567 26.4379 18.2567Z" fill="#C2C7D0"/>
<path d="M31.8706 18.2567H32.9772C33.1963 18.2567 33.4064 18.1697 33.5613 18.0148C33.7163 17.8598 33.8033 17.6497 33.8033 17.4306C33.8033 17.2115 33.7163 17.0014 33.5613 16.8465C33.4064 16.6915 33.1963 16.6045 32.9772 16.6045H31.8706C31.6515 16.6045 31.4413 16.6915 31.2864 16.8465C31.1315 17.0014 31.0444 17.2115 31.0444 17.4306C31.0444 17.6497 31.1315 17.8598 31.2864 18.0148C31.4413 18.1697 31.6515 18.2567 31.8706 18.2567Z" fill="#C2C7D0"/>
<path d="M26.4379 22.517H27.5446C27.7637 22.517 27.9738 22.43 28.1287 22.275C28.2836 22.1201 28.3707 21.91 28.3707 21.6909C28.3707 21.4718 28.2836 21.2616 28.1287 21.1067C27.9738 20.9518 27.7637 20.8647 27.5446 20.8647H26.4379C26.2188 20.8647 26.0087 20.9518 25.8538 21.1067C25.6989 21.2616 25.6118 21.4718 25.6118 21.6909C25.6118 21.91 25.6989 22.1201 25.8538 22.275C26.0087 22.43 26.2188 22.517 26.4379 22.517Z" fill="#C2C7D0"/>
<path d="M31.8706 22.517H32.9772C33.1963 22.517 33.4064 22.43 33.5613 22.275C33.7163 22.1201 33.8033 21.91 33.8033 21.6909C33.8033 21.4718 33.7163 21.2616 33.5613 21.1067C33.4064 20.9518 33.1963 20.8647 32.9772 20.8647H31.8706C31.6515 20.8647 31.4413 20.9518 31.2864 21.1067C31.1315 21.2616 31.0444 21.4718 31.0444 21.6909C31.0444 21.91 31.1315 22.1201 31.2864 22.275C31.4413 22.43 31.6515 22.517 31.8706 22.517Z" fill="#C2C7D0"/>
<path d="M26.4379 26.7765H27.5446C27.7637 26.7765 27.9738 26.6895 28.1287 26.5346C28.2836 26.3796 28.3707 26.1695 28.3707 25.9504C28.3707 25.7313 28.2836 25.5212 28.1287 25.3662C27.9738 25.2113 27.7637 25.1243 27.5446 25.1243H26.4379C26.2188 25.1243 26.0087 25.2113 25.8538 25.3662C25.6989 25.5212 25.6118 25.7313 25.6118 25.9504C25.6118 26.1695 25.6989 26.3796 25.8538 26.5346C26.0087 26.6895 26.2188 26.7765 26.4379 26.7765Z" fill="#C2C7D0"/>
<path d="M31.8706 26.7765H32.9772C33.1963 26.7765 33.4064 26.6895 33.5613 26.5346C33.7163 26.3796 33.8033 26.1695 33.8033 25.9504C33.8033 25.7313 33.7163 25.5212 33.5613 25.3662C33.4064 25.2113 33.1963 25.1243 32.9772 25.1243H31.8706C31.6515 25.1243 31.4413 25.2113 31.2864 25.3662C31.1315 25.5212 31.0444 25.7313 31.0444 25.9504C31.0444 26.1695 31.1315 26.3796 31.2864 26.5346C31.4413 26.6895 31.6515 26.7765 31.8706 26.7765Z" fill="#C2C7D0"/>
<path d="M26.4379 31.0344H27.5446C27.7637 31.0344 27.9738 30.9474 28.1287 30.7925C28.2836 30.6375 28.3707 30.4274 28.3707 30.2083C28.3707 29.9892 28.2836 29.7791 28.1287 29.6241C27.9738 29.4692 27.7637 29.3822 27.5446 29.3822H26.4379C26.2188 29.3822 26.0087 29.4692 25.8538 29.6241C25.6989 29.7791 25.6118 29.9892 25.6118 30.2083C25.6118 30.4274 25.6989 30.6375 25.8538 30.7925C26.0087 30.9474 26.2188 31.0344 26.4379 31.0344Z" fill="#C2C7D0"/>
<path d="M31.8706 31.0346H32.9772C33.1963 31.0346 33.4064 30.9475 33.5613 30.7926C33.7163 30.6377 33.8033 30.4275 33.8033 30.2084C33.8033 29.9893 33.7163 29.7792 33.5613 29.6243C33.4064 29.4693 33.1963 29.3823 32.9772 29.3823H31.8706C31.6515 29.3823 31.4413 29.4693 31.2864 29.6243C31.1315 29.7792 31.0444 29.9893 31.0444 30.2084C31.0444 30.4275 31.1315 30.6377 31.2864 30.7926C31.4413 30.9475 31.6515 31.0346 31.8706 31.0346Z" fill="#C2C7D0"/>
<path d="M26.4379 35.2963H27.5446C27.7637 35.2963 27.9738 35.2092 28.1287 35.0543C28.2836 34.8994 28.3707 34.6892 28.3707 34.4701C28.3707 34.251 28.2836 34.0409 28.1287 33.886C27.9738 33.7311 27.7637 33.644 27.5446 33.644H26.4379C26.2188 33.644 26.0087 33.7311 25.8538 33.886C25.6989 34.0409 25.6118 34.251 25.6118 34.4701C25.6118 34.6892 25.6989 34.8994 25.8538 35.0543C26.0087 35.2092 26.2188 35.2963 26.4379 35.2963Z" fill="#C2C7D0"/>
<path d="M31.8706 35.2964H32.9772C33.1963 35.2964 33.4064 35.2094 33.5613 35.0544C33.7163 34.8995 33.8033 34.6894 33.8033 34.4703C33.8033 34.2512 33.7163 34.0411 33.5613 33.8861C33.4064 33.7312 33.1963 33.6442 32.9772 33.6442H31.8706C31.6515 33.6442 31.4413 33.7312 31.2864 33.8861C31.1315 34.0411 31.0444 34.2512 31.0444 34.4703C31.0444 34.6894 31.1315 34.8995 31.2864 35.0544C31.4413 35.2094 31.6515 35.2964 31.8706 35.2964Z" fill="#C2C7D0"/>
<path d="M7.45801 2.46887H3.17662C2.45314 2.46973 1.75954 2.75751 1.24797 3.26909C0.736392 3.78066 0.448612 4.47426 0.447754 5.19774L0.447754 14.7115C0.447754 14.8461 0.501223 14.9752 0.596399 15.0703C0.691576 15.1655 0.820662 15.219 0.955261 15.219C1.08986 15.219 1.21895 15.1655 1.31412 15.0703C1.4093 14.9752 1.46277 14.8461 1.46277 14.7115V5.19774C1.46341 4.74339 1.64418 4.30784 1.96545 3.98657C2.28672 3.6653 2.72228 3.48453 3.17662 3.48389H7.45801C7.5926 3.48389 7.72169 3.43042 7.81687 3.33524C7.91204 3.24007 7.96551 3.11098 7.96551 2.97638C7.96551 2.84178 7.91204 2.71269 7.81687 2.61752C7.72169 2.52234 7.5926 2.46887 7.45801 2.46887Z" fill="black"/>
<path d="M32.3584 2.46887H9.67059C9.53599 2.46887 9.40691 2.52234 9.31173 2.61752C9.21655 2.71269 9.16309 2.84178 9.16309 2.97638C9.16309 3.11098 9.21655 3.24007 9.31173 3.33524C9.40691 3.43042 9.53599 3.48389 9.67059 3.48389H32.3576C32.8123 3.48432 33.2481 3.66511 33.5696 3.98657C33.8911 4.30804 34.0719 4.74392 34.0723 5.19855V28.1085C34.0723 28.1752 34.0854 28.2412 34.1109 28.3028C34.1364 28.3643 34.1738 28.4203 34.221 28.4674C34.2681 28.5145 34.324 28.5519 34.3856 28.5774C34.4472 28.6029 34.5132 28.616 34.5798 28.616C34.6465 28.616 34.7125 28.6029 34.774 28.5774C34.8356 28.5519 34.8915 28.5145 34.9387 28.4674C34.9858 28.4203 35.0232 28.3643 35.0487 28.3028C35.0742 28.2412 35.0873 28.1752 35.0873 28.1085V5.19855C35.0867 4.47493 34.799 3.78112 34.2874 3.26937C33.7758 2.75762 33.0821 2.46973 32.3584 2.46887V2.46887Z" fill="#050F2A"/>
<path d="M34.5789 29.8094C34.4443 29.8094 34.3152 29.8629 34.22 29.9581C34.1248 30.0532 34.0713 30.1823 34.0713 30.3169V32.4442C34.0713 32.5062 34.0467 32.5656 34.003 32.6093C33.9592 32.6531 33.8998 32.6777 33.8379 32.6777H1.69625C1.63433 32.6777 1.57494 32.6531 1.53116 32.6093C1.48737 32.5656 1.46277 32.5062 1.46277 32.4442V16.9199C1.46277 16.7853 1.4093 16.6562 1.31412 16.561C1.21895 16.4658 1.08986 16.4124 0.955261 16.4124C0.820662 16.4124 0.691576 16.4658 0.596399 16.561C0.501223 16.6562 0.447754 16.7853 0.447754 16.9199L0.447754 32.4442C0.44904 32.7746 0.58112 33.091 0.815097 33.3242C1.04907 33.5574 1.3659 33.6885 1.69625 33.6887H33.8395C34.1705 33.6885 34.488 33.5569 34.7221 33.3228C34.9562 33.0887 35.0878 32.7712 35.088 32.4402V30.3161C35.0879 30.2494 35.0746 30.1834 35.049 30.1218C35.0233 30.0602 34.9858 30.0043 34.9385 29.9572C34.8912 29.9101 34.8351 29.8729 34.7734 29.8475C34.7117 29.8221 34.6456 29.8092 34.5789 29.8094Z" fill="black"/>
<path d="M5.40936 29.3815C5.34271 29.3812 5.27666 29.394 5.21496 29.4192C5.15327 29.4444 5.09714 29.4815 5.04978 29.5284C5.00243 29.5753 4.96478 29.6311 4.93898 29.6925C4.91318 29.754 4.89974 29.8199 4.89942 29.8865C4.8991 29.9532 4.91191 30.0193 4.93712 30.081C4.96233 30.1427 4.99944 30.1988 5.04634 30.2461C5.09325 30.2935 5.14901 30.3311 5.21046 30.3569C5.27192 30.3827 5.33785 30.3962 5.4045 30.3965H5.41666C5.55126 30.3971 5.6806 30.3443 5.77623 30.2496C5.87186 30.1548 5.92595 30.026 5.92659 29.8914C5.92724 29.7568 5.87439 29.6275 5.77967 29.5319C5.68495 29.4362 5.55612 29.3821 5.42152 29.3815H5.40936Z" fill="#C2C7D0"/>
<path d="M6.81231 29.3814H6.80745C6.67802 29.3887 6.5563 29.4453 6.46726 29.5395C6.37822 29.6337 6.32861 29.7584 6.32861 29.8881C6.32861 30.0177 6.37822 30.1424 6.46726 30.2366C6.5563 30.3309 6.67802 30.3874 6.80745 30.3948H6.81961C6.95421 30.3954 7.08355 30.3426 7.17918 30.2478C7.27481 30.1531 7.3289 30.0243 7.32954 29.8897C7.33019 29.7551 7.27734 29.6257 7.18262 29.5301C7.0879 29.4345 6.95907 29.3804 6.82447 29.3798L6.81231 29.3814Z" fill="#C2C7D0"/>
<path d="M11.661 12.1243H11.2247C10.5972 12.1243 10.1951 11.7877 10.0182 11.1146C9.8956 11.4027 9.76297 11.5467 9.62037 11.5467C9.35513 11.5467 9.04995 11.4768 8.70485 11.3371C8.24566 11.1517 8.01607 10.9107 8.01607 10.6141C8.01607 10.2918 8.13301 9.96523 8.36688 9.63439C8.38684 9.60587 8.73765 9.29499 9.4193 8.70176L9.33801 8.33384L10.3348 7.32848C10.3747 7.28855 10.4075 7.26859 10.4332 7.26859C10.4646 7.26859 10.4874 7.30567 10.5017 7.37982L10.9081 9.58305C10.9822 9.98235 11.1391 10.182 11.3787 10.182H11.661V12.1243ZM9.83855 10.2248L9.59898 9.35204C9.20254 9.64865 9.00432 9.85686 9.00432 9.97664C9.00432 10.1107 9.2824 10.1934 9.83855 10.2248ZM15.6226 10.5285C15.6226 10.8194 15.5299 11.1374 15.3445 11.4825C15.1135 11.9132 14.8311 12.1285 14.4974 12.1285C14.2579 12.1285 13.8614 11.9417 13.3081 11.5681C12.9031 11.9389 12.5281 12.1243 12.183 12.1243H11.4129V10.182H11.9134C11.8507 10.0765 11.8193 9.94955 11.8193 9.80124C11.8193 9.42476 11.9577 9.17235 12.2343 9.04401L11.9819 8.88144L12.5552 7.58517C12.6179 7.44257 12.6864 7.37126 12.7605 7.37126C12.8004 7.37126 12.886 7.40834 13.0172 7.4825C13.7901 7.91601 14.3705 8.32386 14.7584 8.70604C15.3345 9.2736 15.6226 9.8811 15.6226 10.5285ZM14.7969 10.6954C14.7969 10.5043 14.5901 10.2647 14.1766 9.97664C14.1823 10.0023 14.1851 10.0308 14.1851 10.0622C14.1851 10.3446 14.0896 10.5385 13.8985 10.644C13.9755 10.7068 14.0882 10.7781 14.2365 10.8579C14.4076 10.9492 14.5288 10.9948 14.6001 10.9948C14.7313 10.9948 14.7969 10.895 14.7969 10.6954ZM13.5391 9.83974C13.5391 9.73992 13.4892 9.6515 13.3894 9.5745C13.2924 9.49464 13.194 9.45471 13.0942 9.45471C12.9858 9.45471 12.8746 9.48608 12.7605 9.54883C12.6293 9.62298 12.5637 9.70855 12.5637 9.80552C12.5637 9.88538 12.6364 9.96951 12.7819 10.0579C12.916 10.1406 13.0272 10.182 13.1156 10.182C13.2069 10.182 13.2996 10.1463 13.3937 10.075C13.4906 10.0037 13.5391 9.92531 13.5391 9.83974ZM18.3905 12.12H17.9285C16.859 12.12 16.3242 11.561 16.3242 10.443C16.3242 9.96666 16.3071 9.34063 16.2729 8.56486C16.2358 7.74631 16.1973 7.20442 16.1573 6.93917C16.1374 6.80798 16.1602 6.71386 16.2258 6.65682L17.4707 5.7798C17.5563 5.71991 17.6148 5.68996 17.6461 5.68996C17.6832 5.68996 17.7017 5.72419 17.7017 5.79264V9.56166C17.7017 9.97807 17.8857 10.1863 18.2536 10.1863H18.3905V12.12ZM21.6162 10.7809C21.6162 11.1546 21.4964 11.474 21.2569 11.7392C21.0116 12.0159 20.7036 12.1542 20.3328 12.1542C19.8651 12.1542 19.4843 11.9289 19.1905 11.4783C18.9937 11.9089 18.7314 12.1243 18.4034 12.1243H18.1296V10.182H18.2707C18.6301 10.182 18.8169 10.0693 18.8312 9.84402C18.8483 9.54455 18.9324 9.28216 19.0836 9.05685C19.3118 8.7146 19.6511 8.54347 20.1018 8.54347C20.6437 8.54347 21.0501 8.82868 21.321 9.3991C21.5178 9.81265 21.6162 10.2733 21.6162 10.7809ZM20.9403 10.4344C20.9403 10.2519 20.8904 10.0551 20.7906 9.84402C20.6708 9.59019 20.531 9.46327 20.3713 9.46327C20.2857 9.46327 20.2144 9.49749 20.1574 9.56594C20.1004 9.63154 20.0718 9.70855 20.0718 9.79696C20.0718 10.0137 20.1189 10.2248 20.213 10.4301C20.3328 10.6925 20.4954 10.8237 20.7007 10.8237C20.8604 10.8237 20.9403 10.6939 20.9403 10.4344Z" fill="#082A20"/>
<path d="M28.4461 7.43544C28.4461 7.56663 28.3891 7.86182 28.275 8.32101C28.1524 8.81442 28.0583 9.08822 27.9927 9.14241C27.8387 9.19375 27.6875 9.24794 27.5392 9.30498C26.8975 9.55311 26.2058 10.1592 25.4643 11.1232C25.2561 11.397 24.9937 11.7849 24.6771 12.2868C24.4803 12.6006 24.3149 12.7574 24.1809 12.7574C24.044 12.7574 23.9755 12.6063 23.9755 12.3039C23.9755 12.2298 23.9784 12.1628 23.9841 12.1029C24.0183 11.7521 24.2037 11.1973 24.5402 10.4387C24.7028 10.0736 24.9538 9.6786 25.2932 9.25364C24.5488 9.07966 24.1766 8.60194 24.1766 7.82047C24.1766 7.43829 24.399 6.98195 24.844 6.45147C25.4486 5.72989 25.9919 5.3691 26.4739 5.3691C26.762 5.3691 27.0486 5.48746 27.3338 5.72419C27.6304 5.97232 27.7788 6.23756 27.7788 6.51992C27.7788 6.73097 27.7018 6.8365 27.5477 6.8365C27.465 6.8365 27.2882 6.79229 27.0173 6.70388C26.7463 6.61546 26.5381 6.57125 26.3926 6.57125C26.0475 6.57125 25.7395 6.65682 25.4686 6.82794C25.2204 6.98481 25.0964 7.13739 25.0964 7.2857C25.0964 7.50531 25.2589 7.68785 25.5841 7.8333C25.8522 7.95309 26.1117 8.01298 26.3627 8.01298C26.5338 8.01298 26.8789 7.85612 27.398 7.54239C27.9171 7.22581 28.2051 7.06752 28.2622 7.06752C28.3848 7.06752 28.4461 7.19016 28.4461 7.43544Z" fill="#082A20"/>
</g>
<defs>
<clipPath id="clip0_2123_796">
<rect width="34.6402" height="33.2393" fill="white" transform="translate(0.447754 0.453491)"/>
</clipPath>
</defs>
</svg>
