<svg width="63" height="62" viewBox="0 0 63 62" fill="none" xmlns="http://www.w3.org/2000/svg">
<path d="M54.5244 30.7347C54.5244 43.6343 44.0298 54.1289 31.1302 54.1289C18.2305 54.1289 7.7373 43.6343 7.7373 30.7347C7.7373 17.8364 18.2305 7.3418 31.1302 7.3418C44.0298 7.3418 54.5244 17.8364 54.5244 30.7347Z" fill="#E91B24"/>
<path d="M62.0272 30.7347C62.0272 29.8935 61.7371 29.0509 61.1556 28.3692C60.582 27.6954 60.284 26.8528 60.284 26.001C60.284 25.4973 60.3869 24.991 60.6005 24.5137C60.8154 24.0324 60.9183 23.5261 60.9183 23.0263C60.9183 21.8277 60.3262 20.6647 59.2674 19.9725C58.2284 19.2934 57.6166 18.1397 57.6166 16.9213C57.6166 16.7578 57.6271 16.5943 57.6495 16.4308C57.6719 16.2647 57.6825 16.0998 57.6825 15.9376C57.6825 14.3501 56.6461 12.9181 55.0915 12.4487C54.419 12.2456 53.8336 11.8566 53.3905 11.3464C52.9475 10.8348 52.6468 10.2018 52.5414 9.50562C52.4069 8.61954 51.9599 7.84949 51.323 7.29701C50.6874 6.74452 49.8594 6.41224 48.9641 6.40565C48.2613 6.40037 47.5901 6.19336 47.0218 5.82679C46.4522 5.46155 45.9854 4.93807 45.6874 4.3012C45.0769 2.99053 43.7702 2.19411 42.383 2.19411C42.0521 2.19411 41.7145 2.24026 41.3822 2.3352C41.0526 2.42882 40.7164 2.47497 40.3841 2.47497C39.3516 2.47497 38.3495 2.03588 37.6454 1.23683C36.4613 -0.106805 34.4755 -0.392936 32.9605 0.564351C32.3658 0.938827 31.6907 1.12738 31.0143 1.12738C30.3378 1.12738 29.6614 0.938827 29.0667 0.563032C28.4655 0.183282 27.7903 0 27.1205 0C26.1026 0 25.0965 0.4259 24.3818 1.23683C23.679 2.03588 22.6769 2.47365 21.6444 2.47365C21.3109 2.47365 20.9746 2.4275 20.645 2.33388C20.3127 2.23894 19.9764 2.19411 19.6455 2.19411C18.2583 2.19411 16.9516 2.98922 16.3398 4.29988C15.7451 5.57495 14.4701 6.39378 13.0645 6.40565H13.0631C12.1678 6.41224 11.3411 6.74452 10.7042 7.29701C10.0673 7.84817 9.62166 8.61954 9.48717 9.50562C9.38168 10.2005 9.07973 10.8348 8.638 11.345C8.19496 11.8566 7.60951 12.2456 6.93704 12.4487C5.22157 12.9669 4.1377 14.6547 4.37768 16.4295V16.4308C4.40009 16.5943 4.41064 16.7578 4.41064 16.9213C4.41064 18.1397 3.79882 19.2934 2.75978 19.9725C1.70096 20.6647 1.10892 21.8277 1.10892 23.0263C1.10892 23.5261 1.21177 24.0324 1.4267 24.5137C2.00028 25.798 1.78404 27.2985 0.87158 28.3679V28.3692C0.291406 29.0509 0 29.8935 0 30.7347C0 31.5773 0.291406 32.4199 0.87158 33.1016C1.78404 34.1723 2.00028 35.6715 1.4267 36.9558V36.9571C1.21177 37.4384 1.10892 37.9434 1.10892 38.4431C1.10892 39.6417 1.70096 40.8047 2.75978 41.497C3.79882 42.1773 4.41064 43.3311 4.41064 44.5495C4.41064 44.713 4.40009 44.8765 4.37768 45.04C4.1377 46.8161 5.22157 48.5026 6.93572 49.0221H6.93704C7.60951 49.2265 8.19496 49.6141 8.638 50.1244C9.07973 50.636 9.38168 51.2703 9.48717 51.9651C9.62166 52.8499 10.0673 53.6213 10.7042 54.1738C11.3411 54.7249 12.1678 55.0572 13.0631 55.0638C13.7673 55.0704 14.4371 55.2774 15.0067 55.6427C15.575 56.0092 16.0431 56.5314 16.3398 57.1696C16.9516 58.4802 18.2583 59.2753 19.6455 59.2753C19.9764 59.2753 20.3127 59.2305 20.645 59.1356C20.9746 59.0419 21.3109 58.9958 21.6431 58.9958C22.6756 58.9958 23.679 59.4349 24.3818 60.2326C25.0965 61.0435 26.1026 61.4694 27.1205 61.4694C27.7903 61.4694 28.4655 61.2862 29.0667 60.9064C29.6614 60.5319 30.3378 60.3434 31.0143 60.3434C31.6894 60.3434 32.3658 60.5319 32.9605 60.9064C33.5618 61.2862 34.2369 61.4694 34.9067 61.4694C35.9246 61.4694 36.9307 61.0435 37.6454 60.2326C38.3482 59.4349 39.3516 58.9958 40.3841 58.9958C40.7164 58.9958 41.0526 59.0419 41.3822 59.1356C41.7145 59.2305 42.0508 59.2753 42.383 59.2753C43.7689 59.2753 45.0756 58.4802 45.6874 57.1696C45.9854 56.5314 46.4522 56.0092 47.0218 55.6427C47.5901 55.2774 48.2613 55.0704 48.9641 55.0638C49.8594 55.0572 50.6874 54.7249 51.323 54.1738C51.9599 53.6213 52.4055 52.8499 52.54 51.9651C52.7523 50.574 53.7439 49.4295 55.0902 49.0221H55.0915C56.6461 48.5513 57.6825 47.1194 57.6825 45.5318C57.6825 45.3696 57.6719 45.2048 57.6495 45.04C57.461 43.6462 58.0899 42.2683 59.2674 41.4983V41.497C60.7666 40.5173 61.3323 38.5921 60.6005 36.9571V36.9558C60.3869 36.4785 60.284 35.9721 60.284 35.4697C60.284 34.6179 60.582 33.7754 61.1556 33.1016C61.7371 32.4199 62.0272 31.5773 62.0272 30.7347ZM31.1303 56.7661C16.7776 56.7661 5.10026 45.0888 5.10026 30.7347C5.10026 16.382 16.7776 4.70468 31.1303 4.70468C45.4843 4.70468 57.1617 16.382 57.1617 30.7347C57.1617 45.0888 45.4843 56.7661 31.1303 56.7661Z" fill="#E91B24"/>
<path d="M21.0638 19.9515L18.5005 21.6006L17.3711 19.7543L21.279 17.1552H23.5376V28.9862H21.0638V19.9515Z" fill="white"/>
<path d="M27.6425 27.7042C26.8896 26.7303 26.5132 25.174 26.5132 23.0346C26.5132 20.8955 26.8896 19.3392 27.6425 18.3649C28.3953 17.391 29.5485 16.9039 31.1022 16.9039C32.6555 16.9039 33.809 17.391 34.5618 18.3649C35.3148 19.339 35.6911 20.8955 35.6911 23.0346C35.6911 25.174 35.3148 26.7303 34.5618 27.7042C33.809 28.6785 32.6555 29.1652 31.1022 29.1652C29.5485 29.1652 28.3955 28.6785 27.6425 27.7042ZM32.2854 26.6288C32.5839 26.3719 32.8021 25.9538 32.9397 25.3739C33.0769 24.7944 33.1458 24.0146 33.1458 23.0346C33.1458 22.0548 33.0769 21.2751 32.9397 20.6953C32.8021 20.1158 32.5839 19.6977 32.2854 19.4404C31.9865 19.1836 31.5922 19.055 31.1022 19.055C30.6121 19.055 30.2177 19.1836 29.9191 19.4404C29.6201 19.6975 29.4021 20.1158 29.2648 20.6953C29.1273 21.2751 29.0587 22.0549 29.0587 23.0346C29.0587 24.0147 29.1274 24.7945 29.2648 25.3739C29.4021 25.9537 29.6201 26.3718 29.9191 26.6288C30.2177 26.8859 30.612 27.0142 31.1022 27.0142C31.5921 27.0142 31.9865 26.8859 32.2854 26.6288Z" fill="white"/>
<path d="M36.3726 19.5391C36.3726 17.8065 37.0896 16.9399 38.5236 16.9399C39.9575 16.9399 40.6747 17.8065 40.6747 19.5391C40.6747 21.284 39.9576 22.1563 38.5236 22.1563C37.0895 22.1563 36.3726 21.2841 36.3726 19.5391ZM38.9181 19.5391C38.9181 18.7623 38.7865 18.3739 38.5237 18.3739C38.2608 18.3739 38.1294 18.7623 38.1294 19.5391C38.1294 20.3277 38.2608 20.7223 38.5237 20.7223C38.7865 20.7223 38.9181 20.3279 38.9181 19.5391ZM38.3623 29.1295L42.5749 16.4559L43.8834 16.922L39.671 29.5596L38.3623 29.1295ZM41.6069 26.584C41.6069 24.8513 42.324 23.9847 43.7579 23.9847C45.1919 23.9847 45.9089 24.8513 45.9089 26.584C45.9089 28.3289 45.1919 29.2012 43.7579 29.2012C42.324 29.2012 41.6069 28.3289 41.6069 26.584ZM44.1523 26.584C44.1523 25.8072 44.0207 25.4188 43.758 25.4188C43.495 25.4188 43.3637 25.8072 43.3637 26.584C43.3637 27.3726 43.495 27.7672 43.758 27.7672C44.0207 27.7672 44.1523 27.3726 44.1523 26.584Z" fill="white"/>
<path d="M18.626 44.3608C17.8848 43.9187 17.3501 43.2404 17.0217 42.3261C16.6928 41.412 16.5288 40.226 16.5288 38.768C16.5288 37.2981 16.693 36.1001 17.0217 35.1738C17.3503 34.2479 17.885 33.5547 18.626 33.0944C19.3669 32.6345 20.3528 32.4042 21.5837 32.4042C22.8145 32.4042 23.8004 32.6345 24.5415 33.0944C25.2824 33.5546 25.817 34.2477 26.1459 35.1738C26.4744 36.0999 26.6387 37.298 26.6387 38.768C26.6387 40.202 26.4802 41.3733 26.1637 42.2814C25.8469 43.1898 25.3181 43.874 24.5773 44.3339C23.8361 44.7941 22.8385 45.0241 21.5836 45.0241C20.3528 45.0241 19.3669 44.803 18.626 44.3608ZM23.0985 42.4696C23.4629 42.2007 23.7197 41.7705 23.8693 41.179C24.0186 40.5875 24.0934 39.7838 24.0934 38.768C24.0934 37.7524 24.0156 36.9425 23.8604 36.339C23.7049 35.7358 23.445 35.2874 23.0806 34.9946C22.7158 34.7019 22.217 34.5554 21.5837 34.5554C20.9501 34.5554 20.4513 34.7019 20.0869 34.9946C19.7221 35.2876 19.4622 35.7358 19.307 36.339C19.1516 36.9425 19.0739 37.7524 19.0739 38.768C19.0739 39.7121 19.1395 40.4771 19.2712 41.0624C19.4025 41.648 19.6504 42.0962 20.0151 42.4068C20.3795 42.7176 20.9024 42.8728 21.5836 42.8728C22.2291 42.873 22.7338 42.7385 23.0985 42.4696Z" fill="white"/>
<path d="M31.2276 34.7704V38.3555H35.5657V40.5065H31.2276V44.8087H28.7539V32.6193H36.5336V34.7703H31.2276V34.7704Z" fill="white"/>
<path d="M40.7467 34.7704V38.3555H45.0847V40.5065H40.7467V44.8087H38.2729V32.6193H46.0527V34.7703H40.7467V34.7704Z" fill="white"/>
</svg>
