<svg width="65" height="63" viewBox="0 0 65 63" fill="none" xmlns="http://www.w3.org/2000/svg">
<path fill-rule="evenodd" clip-rule="evenodd" d="M64.104 8.49897L55.605 0H17.415V62.2841H64.104V8.49897Z" fill="#E9E9FF"/>
<path d="M17.415 0H19.5975V62.2843H17.415V0Z" fill="#D3D3F2"/>
<path fill-rule="evenodd" clip-rule="evenodd" d="M64.104 8.49875H55.605V0L64.104 8.49875Z" fill="#BCBEE2"/>
<path fill-rule="evenodd" clip-rule="evenodd" d="M39.8097 30.4533C39.1803 30.4533 38.6699 29.9429 38.6699 29.3135C38.6699 28.6842 39.1803 28.1738 39.8097 28.1738H58.324C58.9533 28.1738 59.4637 28.6842 59.4637 29.3135C59.4637 29.9429 58.9533 30.4533 58.324 30.4533H39.8097ZM39.8097 44.5911C39.1803 44.5911 38.6699 44.0807 38.6699 43.4514C38.6699 42.822 39.1803 42.3116 39.8097 42.3116H58.324C58.9533 42.3116 59.4637 42.822 59.4637 43.4514C59.4637 44.0807 58.9533 44.5911 58.324 44.5911H39.8097ZM39.8097 37.5223C39.1803 37.5223 38.6699 37.0119 38.6699 36.3826C38.6699 35.7532 39.1803 35.2428 39.8097 35.2428H58.324C58.9533 35.2428 59.4637 35.7532 59.4637 36.3826C59.4637 37.0119 58.9533 37.5223 58.324 37.5223H39.8097ZM39.8097 23.3845C39.1803 23.3845 38.6699 22.8741 38.6699 22.2447C38.6699 21.6154 39.1803 21.105 39.8097 21.105H58.324C58.9533 21.105 59.4637 21.6154 59.4637 22.2447C59.4637 22.8741 58.9533 23.3845 58.324 23.3845H39.8097ZM39.8097 16.3155C39.1803 16.3155 38.6699 15.8051 38.6699 15.1757C38.6699 14.5463 39.1803 14.0359 39.8097 14.0359H58.324C58.9533 14.0359 59.4637 14.5463 59.4637 15.1757C59.4637 15.8051 58.9533 16.3155 58.324 16.3155H39.8097Z" fill="#5D689E"/>
<path fill-rule="evenodd" clip-rule="evenodd" d="M40.3259 56.9789C39.7678 57.2641 39.084 57.0428 38.7988 56.4847C38.5136 55.9267 38.735 55.2429 39.293 54.9577C43.2149 52.9538 44.1527 53.1724 48.9345 54.288L48.991 54.3012C49.3961 54.3956 49.7809 54.438 50.1435 54.4366C50.5306 54.4348 50.9095 54.3837 51.2746 54.293C51.4458 54.2506 51.612 54.1993 51.7729 54.1409C51.7372 54.0436 51.7043 53.9453 51.6742 53.8464C51.4784 53.2015 51.403 52.5275 51.4253 51.8915C51.4871 50.1221 52.1436 49.0264 52.9542 48.4957C52.9882 48.4704 53.024 48.4465 53.0616 48.4246C53.5188 48.1574 54.0169 48.0583 54.5036 48.1077C54.9859 48.1567 55.4432 48.3505 55.8241 48.6696C56.5677 49.2926 57.0384 50.4018 56.7701 51.8021C56.585 52.7684 56.0031 53.8061 55.117 54.6702C55.3833 54.776 55.6971 54.8412 56.0644 54.8542C56.6023 54.8731 57.2415 54.7835 57.9947 54.5549C58.5946 54.373 59.2286 54.7117 59.4105 55.3117C59.5924 55.9117 59.2537 56.5456 58.6537 56.7275C57.6468 57.0332 56.7635 57.1517 55.9933 57.1248C54.7746 57.0822 53.8254 56.686 53.1074 56.0822L53.0816 56.0603C52.6854 56.2411 52.2633 56.3908 51.8183 56.5014C51.2947 56.6313 50.738 56.7047 50.1529 56.7072C49.6026 56.7097 49.0412 56.6505 48.4749 56.5185L48.4184 56.5052C44.3057 55.5458 43.4992 55.3577 40.3263 56.9792L40.3259 56.9789ZM53.755 52.8058C54.1767 52.333 54.4482 51.8274 54.5348 51.3747C54.6283 50.8862 54.5344 50.558 54.3636 50.4148C54.3308 50.3872 54.3021 50.3717 54.2806 50.3695C54.2636 50.3679 54.2394 50.3752 54.2098 50.3925C54.1961 50.4005 54.1822 50.4082 54.168 50.4155C53.9262 50.5935 53.7265 51.0743 53.6955 51.9628C53.6859 52.2414 53.7042 52.5273 53.7548 52.806L53.755 52.8058Z" fill="#5D689E"/>
<path d="M18.1215 47.7825C27.3026 47.3689 34.4101 39.5909 33.9966 30.4098C33.583 21.2287 25.805 14.1212 16.6239 14.5347C7.44276 14.9483 0.33526 22.7263 0.748823 31.9074C1.16239 41.0886 8.94041 48.1961 18.1215 47.7825Z" fill="#3BD97D"/>
<path fill-rule="evenodd" clip-rule="evenodd" d="M19.3646 14.6197C27.6199 15.6001 34.0222 22.6229 34.0222 31.1421C34.0222 39.6614 27.6199 46.6841 19.3646 47.6646C11.1093 46.6841 4.70703 39.6612 4.70703 31.1421C4.70703 22.6231 11.1093 15.6001 19.3646 14.6197Z" fill="#4FE88E"/>
<path fill-rule="evenodd" clip-rule="evenodd" d="M23.4844 27.6415C23.4844 28.2709 22.974 28.7813 22.3446 28.7813C21.7153 28.7813 21.2049 28.2709 21.2049 27.6415C21.2049 26.6005 20.7781 25.6533 20.0906 24.966C19.4034 24.2788 18.456 23.852 17.4149 23.852C16.9292 23.852 16.4703 23.9409 16.0534 24.1028C15.6173 24.2719 15.2166 24.5236 14.8701 24.8388C14.3665 25.297 14.0143 25.8696 13.8835 26.4728C13.7691 26.9998 13.8261 27.5565 14.1051 28.0799C14.6216 29.0489 16.0746 29.4904 17.5663 29.9438C19.0952 30.4082 20.6557 30.8825 21.8019 31.9578C22.9941 33.0764 23.5286 34.6497 23.1726 36.293C22.9405 37.363 22.3408 38.3562 21.4914 39.1287C20.9448 39.6261 20.3031 40.0266 19.5958 40.3011C19.2602 40.4312 18.9121 40.5327 18.5547 40.6022V42.5393C18.5547 43.1687 18.0443 43.6791 17.4149 43.6791C16.7856 43.6791 16.2752 43.1687 16.2752 42.5393V40.604C15.06 40.3711 13.9708 39.7731 13.1276 38.9302C12.0282 37.8308 11.3457 36.313 11.3457 34.6431C11.3457 34.0137 11.8561 33.5033 12.4855 33.5033C13.1148 33.5033 13.6252 34.0137 13.6252 34.6431C13.6252 35.6841 14.052 36.6313 14.7395 37.3185C15.4267 38.0058 16.3741 38.4325 17.4152 38.4325C17.9007 38.4325 18.3598 38.3436 18.7767 38.1818C19.2128 38.0127 19.6133 37.761 19.96 37.4457C20.4638 36.9876 20.816 36.4149 20.9466 35.812C21.0601 35.2882 21.0045 34.7352 20.73 34.2145C20.0574 33.0736 18.4615 32.5885 16.9075 32.1164C14.9587 31.5245 13.0608 30.9475 12.1018 29.1485C11.5495 28.1122 11.4346 27.0201 11.6575 25.9921C11.8896 24.922 12.4893 23.9289 13.3387 23.1561C13.8853 22.6587 14.527 22.2584 15.2343 21.9837C15.5699 21.8536 15.918 21.7521 16.2756 21.6826V19.7455C16.2756 19.1161 16.786 18.6057 17.4154 18.6057C18.0448 18.6057 18.5552 19.1161 18.5552 19.7455V21.6808C19.7704 21.9138 20.8595 22.5117 21.7027 23.3546C22.8021 24.4541 23.4846 25.9718 23.4846 27.6417L23.4844 27.6415Z" fill="white"/>
</svg>
