<svg width="58" height="54" viewBox="0 0 58 54" fill="none" xmlns="http://www.w3.org/2000/svg">
<path fill-rule="evenodd" clip-rule="evenodd" d="M5.34903 0L38.5511 0.0946064C35.5968 0.0946064 33.2021 3.42028 33.2021 5.351C33.2021 7.28172 33.4059 7.11311 33.8619 7.88681H0.717127C0.261131 7.11311 0 6.21475 0 5.2564C0 2.35332 2.39479 0 5.34903 0Z" fill="#D1D1D6"/>
<path fill-rule="evenodd" clip-rule="evenodd" d="M43.8301 42.6511C43.8301 46.1412 46.7092 48.9704 50.2608 48.9704L17.0587 48.8691C14.0083 48.8597 11.7802 45.7547 11.7802 42.651C11.7802 30.4129 11.7802 18.5497 11.7802 6.31926C11.7802 2.82919 8.90118 0 5.34961 0L38.5517 0.101323C41.6021 0.110659 43.8301 3.2157 43.8301 6.31938V42.6511Z" fill="#ECEFF1"/>
<path fill-rule="evenodd" clip-rule="evenodd" d="M43.8301 42.6511C43.8301 46.1412 46.7092 48.9704 50.2608 48.9704L48.8786 48.9662C45.4306 48.8504 42.6715 46.0675 42.6715 42.6511V6.31938C42.6715 3.21582 40.4434 0.110659 37.393 0.101323L5.5732 0.00421239C5.49894 0.00170777 5.42457 0 5.34961 0L38.5517 0.101323C41.6021 0.110659 43.8301 3.2157 43.8301 6.31938V42.6511Z" fill="#D1D1D6"/>
<path fill-rule="evenodd" clip-rule="evenodd" d="M50.2602 48.9704L17.0581 48.8758C20.0123 48.8758 22.4071 45.5501 22.4071 43.6194C22.4071 41.6886 22.2032 41.8573 21.7472 41.0836H54.8919C55.3479 41.8573 55.6091 42.7556 55.6091 43.714C55.6092 46.6171 53.2144 48.9704 50.2602 48.9704Z" fill="#D1D1D6"/>
<path fill-rule="evenodd" clip-rule="evenodd" d="M16.2862 34.1803C15.7744 34.1803 15.3594 33.7725 15.3594 33.2695C15.3594 32.7666 15.7744 32.3588 16.2862 32.3588H34.3702C34.882 32.3588 35.297 32.7666 35.297 33.2695C35.297 33.7725 34.882 34.1803 34.3702 34.1803H16.2862ZM16.2862 25.0723C15.7744 25.0723 15.3594 24.6645 15.3594 24.1615C15.3594 23.6585 15.7744 23.2507 16.2862 23.2507H23.5303C24.0422 23.2507 24.4572 23.6585 24.4572 24.1615C24.4572 24.6645 24.0422 25.0723 23.5303 25.0723H16.2862ZM16.1724 30.0001C15.6606 30.0001 15.2456 29.5923 15.2456 29.0893C15.2456 28.5864 15.6606 28.1786 16.1724 28.1786H27.6236C28.1355 28.1786 28.5505 28.5864 28.5505 29.0893C28.5505 29.5923 28.1355 30.0001 27.6236 30.0001H16.1724Z" fill="#A79BA7"/>
<path d="M47.5036 51.5066C53.1604 50.1926 56.6623 44.621 55.3251 39.062C53.9879 33.5031 48.3181 30.0619 42.6612 31.376C37.0043 32.69 33.5025 38.2617 34.8397 43.8206C36.1768 49.3795 41.8467 52.8207 47.5036 51.5066Z" fill="#685E68"/>
<path fill-rule="evenodd" clip-rule="evenodd" d="M45.0827 31.1191C50.8967 31.1191 55.6097 35.7505 55.6097 41.4638C55.6097 47.177 50.8967 51.8084 45.0827 51.8084C44.8779 51.8084 44.6746 51.802 44.4727 51.7907C50.0026 51.4801 54.3896 46.9758 54.3896 41.4637C54.3896 35.9517 50.0026 31.4472 44.4727 31.1368C44.6746 31.1255 44.8779 31.1191 45.0827 31.1191Z" fill="#544854"/>
<path fill-rule="evenodd" clip-rule="evenodd" d="M45.0826 42.4614C47.1297 42.4614 48.7994 40.8207 48.7994 38.809C48.7994 36.7973 47.1297 35.1566 45.0826 35.1566C43.0355 35.1566 41.3657 36.7973 41.3657 38.809C41.3657 40.8207 43.0354 42.4614 45.0826 42.4614Z" fill="#F6DCCD"/>
<path fill-rule="evenodd" clip-rule="evenodd" d="M45.0825 35.1566C47.1353 35.1566 48.7993 36.7919 48.7993 38.809C48.7993 40.8261 47.1352 42.4614 45.0825 42.4614C44.9229 42.4614 44.7656 42.4514 44.6113 42.4323C46.4416 42.2047 47.8571 40.6692 47.8571 38.809C47.8571 36.9486 46.4417 35.4132 44.6113 35.1857C44.7656 35.1665 44.923 35.1566 45.0825 35.1566Z" fill="#F1CBBC"/>
<path fill-rule="evenodd" clip-rule="evenodd" d="M52.203 49.0829C52.1197 48.7641 52.0147 48.4537 51.8899 48.1534C51.1442 46.3599 49.6858 44.9268 47.8608 44.194C47.0037 43.8499 46.0656 43.6602 45.0824 43.6602C41.6554 43.6602 38.7764 45.9648 37.9619 49.0829C39.8362 50.7753 42.3365 51.8084 45.0824 51.8084C47.8284 51.8084 50.3287 50.7753 52.203 49.0829Z" fill="#9BC9FF"/>
<path fill-rule="evenodd" clip-rule="evenodd" d="M52.2031 49.0829C52.1198 48.7641 52.0148 48.4537 51.89 48.1534C51.1443 46.3599 49.6859 44.9268 47.8609 44.194C47.0038 43.8499 46.0657 43.6602 45.0825 43.6602C42.7625 43.6602 40.6938 44.7167 39.3467 46.3665C40.6854 44.9879 42.5732 44.1289 44.6654 44.1289C45.6485 44.1289 46.5865 44.3186 47.4437 44.6627C49.2689 45.3955 50.7271 46.8286 51.4728 48.6221C51.5857 48.8936 51.6823 49.1733 51.7613 49.4602C51.912 49.3384 52.0594 49.2126 52.2031 49.0829Z" fill="#60B7FF"/>
<path d="M31.025 18.8029C35.0101 17.8609 37.4771 13.8666 36.535 9.8815C35.593 5.89637 31.5988 3.42944 27.6137 4.37145C23.6285 5.31346 21.1616 9.3077 22.1036 13.2928C23.0456 17.278 27.0399 19.7449 31.025 18.8029Z" fill="#FFC338"/>
<path fill-rule="evenodd" clip-rule="evenodd" d="M29.3229 4.18213C33.4186 4.18213 36.7389 7.50234 36.7389 11.5981C36.7389 15.6938 33.4186 19.014 29.3229 19.014C29.109 19.014 28.8974 19.0045 28.688 18.9867C32.4865 18.6645 35.469 15.4799 35.469 11.5981C35.469 7.71626 32.4864 4.53164 28.688 4.20945C28.8974 4.19181 29.109 4.18213 29.3229 4.18213Z" fill="#F5B829"/>
<path fill-rule="evenodd" clip-rule="evenodd" d="M32.2959 9.01402C32.4788 9.45028 32.2736 9.95234 31.8373 10.1354C31.401 10.3184 30.899 10.1131 30.7159 9.67683C30.5257 9.22372 30.1647 8.96222 29.7684 8.86181C29.5096 8.79623 29.2398 8.79202 28.9894 8.84245C28.7492 8.89084 28.5292 8.98772 28.3583 9.12661C28.1577 9.28964 28.0304 9.52417 28.0445 9.81379C28.0569 10.0693 28.1925 10.2461 28.3818 10.3696C28.6704 10.558 29.0773 10.6641 29.4666 10.728C30.0673 10.8266 30.7246 10.9921 31.2792 11.3269C31.9338 11.7222 32.4276 12.3174 32.5388 13.2337C32.547 13.3016 32.5523 13.3857 32.5546 13.4844C32.5748 14.3292 32.1906 14.9577 31.6131 15.3958C31.2 15.7093 30.6905 15.9117 30.1795 16.0151V16.291C30.1795 16.7642 29.7958 17.1479 29.3226 17.1479C28.8493 17.1479 28.4656 16.7642 28.4656 16.291V15.9979C28.0592 15.9043 27.6726 15.7444 27.3327 15.5181C26.7495 15.1296 26.3026 14.5562 26.1133 13.7972C26.0005 13.3387 26.2808 12.8757 26.7393 12.7629C27.1977 12.6502 27.6609 12.9303 27.7736 13.3888C27.8502 13.6963 28.0348 13.931 28.2766 14.0921C28.5879 14.2994 28.9898 14.3983 29.3993 14.3885C29.465 14.3869 29.5491 14.3799 29.6513 14.3676C29.9998 14.3254 30.344 14.2176 30.5823 14.0369C30.7446 13.9137 30.8528 13.7441 30.8475 13.5247C30.8473 13.5129 30.8442 13.4832 30.8383 13.4347C30.802 13.1356 30.6278 12.9334 30.3956 12.7931C30.0633 12.5927 29.6147 12.4845 29.1921 12.4151C28.6092 12.3193 27.9747 12.144 27.4511 11.8022C26.8283 11.3957 26.3809 10.7933 26.3373 9.89417C26.2941 9.0048 26.6768 8.29189 27.2804 7.8011C27.6187 7.52605 28.0277 7.32659 28.4656 7.2124V6.90547C28.4656 6.43222 28.8493 6.04855 29.3226 6.04855C29.7958 6.04855 30.1795 6.43222 30.1795 6.90547V7.20056L30.1833 7.20147C31.0683 7.42575 31.8733 8.00739 32.2959 9.01402Z" fill="#FFE177"/>
</svg>
