<svg width="62" height="62" viewBox="0 0 62 62" fill="none" xmlns="http://www.w3.org/2000/svg">
<path d="M31 59C46.464 59 59 46.464 59 31C59 15.536 46.464 3 31 3C15.536 3 3 15.536 3 31C3 46.464 15.536 59 31 59Z" fill="#F3A766"/>
<path d="M30.8634 3C30.2371 3 29.6162 3.02256 29 3.06264C43.6704 4.01747 55.2732 16.1593 55.2732 31C55.2732 45.8407 43.6704 57.9825 29.0001 58.9374C29.6162 58.9774 30.2372 59 30.8635 59C46.4029 59 59 46.464 59 31C59 15.536 46.4027 3 30.8634 3Z" fill="#F7B519"/>
<path d="M31 53C43.1503 53 53 43.1503 53 31C53 18.8497 43.1503 9 31 9C18.8497 9 9 18.8497 9 31C9 43.1503 18.8497 53 31 53Z" fill="#EFEDEF"/>
<path d="M30.8911 9C30.254 9 29.6236 9.0285 29 9.08135C40.3089 10.0392 49.2178 19.5032 49.2178 31C49.2178 42.4968 40.3089 51.9608 29 52.9187C29.6235 52.9715 30.254 53 30.8911 53C43.082 53 53 43.1309 53 31C53 18.8691 43.082 9 30.8911 9Z" fill="#E5E1E5"/>
<path d="M16.9248 34.1172C16.923 34.1172 16.9212 34.1172 16.9195 34.1172C16.2614 34.1208 15.5547 34.1235 15.0171 34.124V26.9401C15.0171 26.4233 14.5983 26.0045 14.0816 26.0045C13.5649 26.0045 13.146 26.4234 13.146 26.9401V35.0528C13.146 35.5082 13.4739 35.8974 13.9226 35.9748C13.9897 35.9864 16.0072 35.9935 16.9301 35.9885C17.4468 35.9855 17.8633 35.5643 17.8604 35.0476C17.8574 34.5327 17.4391 34.1172 16.9248 34.1172Z" fill="#0D4E83"/>
<path d="M36.9564 30.0644H34.5275C34.0108 30.0644 33.5919 30.4833 33.5919 31C33.5919 31.5167 34.0108 31.9356 34.5275 31.9356H35.9238C35.6785 33.0821 34.9439 34.1241 33.4518 34.1241C31.7291 34.1241 30.3277 32.7227 30.3277 30.9999C30.3277 29.2772 31.7291 27.8757 33.4518 27.8757C34.0778 27.8757 34.6816 28.06 35.198 28.4087C35.6261 28.6978 36.2079 28.5854 36.4969 28.1572C36.7862 27.7291 36.6736 27.1475 36.2454 26.8582C35.4187 26.2996 34.4526 26.0045 33.4519 26.0045C30.6975 26.0045 28.4565 28.2455 28.4565 31C28.4565 33.7545 30.6975 35.9955 33.4519 35.9955C36.0662 35.9955 37.8922 33.9412 37.8922 31C37.8919 30.4832 37.4731 30.0644 36.9564 30.0644Z" fill="#0D4E83"/>
<path d="M22.49 26.0045C19.7356 26.0045 17.4946 28.2455 17.4946 31C17.4946 33.7545 19.7356 35.9955 22.49 35.9955C25.2444 35.9955 27.4853 33.7545 27.4853 31C27.4853 28.2455 25.2444 26.0045 22.49 26.0045ZM22.49 34.1242C20.7673 34.1242 19.3659 32.7228 19.3659 31C19.3659 29.2773 20.7673 27.8758 22.49 27.8758C24.2127 27.8758 25.6141 29.2772 25.6141 31C25.6141 32.7227 24.2127 34.1242 22.49 34.1242Z" fill="#0D4E83"/>
<path d="M43.8582 26.0045C41.1038 26.0045 38.8628 28.2455 38.8628 31C38.8628 33.7545 41.1038 35.9955 43.8582 35.9955C46.6126 35.9955 48.8535 33.7545 48.8535 31C48.8535 28.2455 46.6126 26.0045 43.8582 26.0045ZM43.8582 34.1242C42.1355 34.1242 40.7341 32.7228 40.7341 31C40.7341 29.2773 42.1355 27.8758 43.8582 27.8758C45.5808 27.8758 46.9822 29.2772 46.9822 31C46.9822 32.7227 45.5807 34.1242 43.8582 34.1242Z" fill="#0D4E83"/>
<path d="M59.2557 3.68004H2.74465C2.22795 3.68004 1.80908 3.26118 1.80908 2.74447C1.80908 2.22776 2.22795 1.8089 2.74465 1.8089H59.2557C59.7724 1.8089 60.1913 2.22776 60.1913 2.74447C60.1913 3.26118 59.7724 3.68004 59.2557 3.68004Z" fill="#EFEDEF"/>
<path d="M0 2.74447C0 1.22874 1.22874 0 2.74447 0C4.2602 0 5.48894 1.22874 5.48894 2.74447C5.48894 4.2602 4.2602 5.48894 2.74447 5.48894C1.22874 5.48894 0 4.2602 0 2.74447Z" fill="#26A6FE"/>
<path d="M56.5107 2.74447C56.5107 1.22874 57.7395 0 59.2552 0C60.7709 0 61.9997 1.22874 61.9997 2.74447C61.9997 4.2602 60.7709 5.48894 59.2552 5.48894C57.7395 5.48894 56.5107 4.2602 56.5107 2.74447Z" fill="#26A6FE"/>
<path d="M28.2554 4.86518V0.623754C28.2554 0.279242 28.5346 0 28.8791 0H33.1206C33.4651 0 33.7443 0.279242 33.7443 0.623754V4.86518C33.7443 5.20969 33.4651 5.48894 33.1206 5.48894H28.8791C28.5346 5.48894 28.2554 5.20969 28.2554 4.86518Z" fill="#26A6FE"/>
<path d="M59.2557 60.1912H2.74465C2.22795 60.1912 1.80908 59.7723 1.80908 59.2556C1.80908 58.7388 2.22795 58.32 2.74465 58.32H59.2557C59.7724 58.32 60.1913 58.7389 60.1913 59.2556C60.1913 59.7724 59.7724 60.1912 59.2557 60.1912Z" fill="#EFEDEF"/>
<path d="M0 59.2556C0 57.7398 1.22874 56.5111 2.74447 56.5111C4.2602 56.5111 5.48894 57.7398 5.48894 59.2556C5.48894 60.7713 4.2602 62 2.74447 62C1.22874 62 0 60.7713 0 59.2556Z" fill="#26A6FE"/>
<path d="M56.5107 59.2556C56.5107 57.7398 57.7395 56.5111 59.2552 56.5111C60.7709 56.5111 61.9997 57.7398 61.9997 59.2556C61.9997 60.7713 60.7709 62 59.2552 62C57.7395 62 56.5107 60.7713 56.5107 59.2556Z" fill="#26A6FE"/>
<path d="M28.2554 61.3763V57.1349C28.2554 56.7904 28.5346 56.5111 28.8791 56.5111H33.1206C33.4651 56.5111 33.7443 56.7904 33.7443 57.1349V61.3763C33.7443 61.7208 33.4651 62 33.1206 62H28.8791C28.5346 62 28.2554 61.7208 28.2554 61.3763Z" fill="#26A6FE"/>
</svg>
