<svg width="67" height="59" viewBox="0 0 67 59" fill="none" xmlns="http://www.w3.org/2000/svg">
<path d="M25.5215 58.8959C22.2736 58.8959 19.6318 56.2537 19.6318 53.0062C19.6318 49.7582 22.2736 47.1165 25.5215 47.1165C28.769 47.1165 31.4107 49.7582 31.4107 53.0062C31.4107 56.2537 28.769 58.8959 25.5215 58.8959Z" fill="#697C86"/>
<path d="M25.5215 54.9691C24.4383 54.9691 23.5581 54.0894 23.5581 53.0062C23.5581 51.9231 24.4383 51.0428 25.5215 51.0428C26.6047 51.0428 27.4844 51.9231 27.4844 53.0062C27.4844 54.0894 26.6047 54.9691 25.5215 54.9691Z" fill="#465A61"/>
<path d="M53.2681 58.8959C50.0206 58.8959 47.3784 56.2537 47.3784 53.0062C47.3784 49.7582 50.0206 47.1165 53.2681 47.1165C56.5156 47.1165 59.1578 49.7582 59.1578 53.0062C59.1578 56.2537 56.5156 58.8959 53.2681 58.8959Z" fill="#596C76"/>
<path d="M53.2681 54.9691C52.1849 54.9691 51.3047 54.0894 51.3047 53.0062C51.3047 51.9231 52.1849 51.0428 53.2681 51.0428C54.3513 51.0428 55.231 51.9231 55.231 53.0062C55.231 54.0894 54.3513 54.9691 53.2681 54.9691Z" fill="#3B4A51"/>
<path d="M59.4714 45.1531C59.4714 46.2526 58.6076 47.1165 57.5085 47.1165H19.9463C16.6871 47.1165 14.0566 44.4855 14.0566 41.2268C14.0566 38.2431 16.2552 35.769 19.1607 35.4158C19.3963 35.3371 19.6713 35.3371 19.9463 35.3371C20.4171 35.3371 20.8884 35.5339 21.2028 35.8478L20.0245 39.2639C19.9857 39.2639 19.9857 39.2639 19.9463 39.2639C18.8468 39.2639 17.9829 40.1273 17.9829 41.2268C17.9829 42.3263 18.8468 43.1902 19.9463 43.1902H57.5085C58.6076 43.1902 59.4714 44.0535 59.4714 45.1531Z" fill="#465A61"/>
<path d="M13.0287 7.85718C13.1534 8.0141 15.2676 8.96897 17.3961 9.9039C17.4038 9.7347 17.4252 9.56703 17.3869 9.39426L15.6597 1.54117C15.4618 0.639983 14.6644 0 13.7423 0H1.9634C0.878188 0 0 0.878188 0 1.9634C0 3.0481 0.878188 3.92629 1.9634 3.92629H12.1643L13.0287 7.85718Z" fill="#465A61"/>
<path d="M59.4714 45.1531C59.4714 46.2527 58.6075 47.1165 57.5085 47.1165H39.041V43.1902H57.5085C58.6075 43.1902 59.4714 44.0536 59.4714 45.1531Z" fill="#3B4A51"/>
<path d="M66.6174 8.63827C66.2248 8.12761 65.6748 7.8526 65.0466 7.8526H13.0352L19.1605 35.4158L20.0244 39.2639H57.194C58.0579 39.2639 58.843 38.6745 59.0787 37.85L66.9313 10.3655C67.0887 9.77664 66.9706 9.10905 66.6174 8.63827Z" fill="#FDBF00"/>
<path d="M66.9314 10.3655L59.0788 37.85C58.8432 38.6745 58.058 39.2639 57.1942 39.2639H39.041V7.8526H65.0467C65.675 7.8526 66.225 8.12761 66.6175 8.63827C66.9708 9.10905 67.0888 9.77664 66.9314 10.3655Z" fill="#FF9F00"/>
</svg>
