<svg width="49" height="62" viewBox="0 0 49 62" fill="none" xmlns="http://www.w3.org/2000/svg">
<path d="M25.4989 43.8491C25.4989 37.4641 30.6935 32.2695 37.0786 32.2695C37.1266 32.2695 37.1744 32.2704 37.2223 32.2712L37.3836 32.2739V27.2998L31.9867 21.9028C30.8001 20.7162 30.1465 19.1385 30.1465 17.4604C30.1465 15.7822 30.7999 14.2045 31.9867 13.0179C32.1902 12.8145 32.4607 12.7025 32.7484 12.7025C33.0362 12.7025 33.3067 12.8145 33.5102 13.0179L39.9457 19.4535V5.13658C39.9457 2.80036 38.0519 0.906494 35.7157 0.906494H10.4903C8.15412 0.906494 6.26025 2.80036 6.26025 5.13658V15.4852H6.81609C8.41542 15.4852 9.71672 16.7865 9.71672 18.3858V19.9444C9.71672 21.5437 8.41542 22.845 6.81609 22.845V23.0868C8.41542 23.0868 9.71672 24.3881 9.71672 25.9874V27.546C9.71672 29.1453 8.41542 30.4466 6.81609 30.4466V30.6883C8.41542 30.6883 9.71672 31.9896 9.71672 33.589V35.1476C9.71672 36.7469 8.41542 38.0482 6.81609 38.0482V38.2899C8.41542 38.2899 9.71672 39.5912 9.71672 41.1905V42.7492C9.71672 44.3485 8.41542 45.6498 6.81609 45.6498H6.26025V53.7911H31.1483C27.7673 51.7668 25.4989 48.0682 25.4989 43.8491Z" fill="#F2FBFF"/>
<path d="M34.8697 5.13658V14.2068L39.9455 19.2826V5.13658C39.9455 2.80036 38.0516 0.906494 35.7154 0.906494H30.6396C32.9759 0.906494 34.8697 2.80036 34.8697 5.13658Z" fill="#DFF6FD"/>
<path d="M37.2625 32.2718V27.3498L34.8696 24.9569V32.4816C35.5849 32.3429 36.3231 32.2694 37.0783 32.2694C37.1507 32.2694 37.2226 32.2715 37.2948 32.2728C37.284 32.2728 37.2734 32.2721 37.2625 32.2718Z" fill="#DFF6FD"/>
<path d="M37.0785 55.4287C34.83 55.4287 32.7295 54.7838 30.9511 53.6703H6.26025V56.7436C6.26025 59.0798 8.15412 60.9737 10.4903 60.9737H35.7155C38.0518 60.9737 39.9456 59.0798 39.9456 56.7436V55.0692C39.0284 55.3037 38.0678 55.4287 37.0785 55.4287Z" fill="#8379C1"/>
<path d="M37.0784 55.4287C36.3233 55.4287 35.585 55.3552 34.8697 55.2164V56.7436C34.8697 59.0798 32.9759 60.9737 30.6396 60.9737H35.7154C38.0516 60.9737 39.9455 59.0798 39.9455 56.7436V55.0692C39.0284 55.3037 38.0678 55.4287 37.0784 55.4287Z" fill="#6E61B6"/>
<path d="M6.8158 15.4851C6.9346 15.4851 7.05135 15.4931 7.16641 15.5071V5.13653C7.16641 3.30382 8.65733 1.81289 10.49 1.81289H35.7152C37.548 1.81289 39.0389 3.30382 39.0389 5.13653V18.5469L40.8518 20.3598V5.13653C40.8518 2.30419 38.5476 0 35.7152 0H10.49C7.6577 0 5.35352 2.30419 5.35352 5.13653V15.4851H6.8158Z" fill="#54469C"/>
<path d="M39.0389 55.2618V56.7436C39.0389 58.5763 37.548 60.0672 35.7152 60.0672H10.49C8.65733 60.0672 7.16641 58.5763 7.16641 56.7436V45.6277C7.05135 45.6416 6.93448 45.6497 6.8158 45.6497H5.35352V56.7436C5.35352 59.5759 7.6577 61.8801 10.49 61.8801H35.7152C38.5476 61.8801 40.8518 59.5759 40.8518 56.7436V54.7968C40.2672 54.9988 39.6614 55.1552 39.0389 55.2618Z" fill="#54469C"/>
<path d="M9.83724 19.9444V18.3858C9.83724 16.7171 8.48446 15.3643 6.81575 15.3643H3.02149C1.35278 15.3643 0 16.7171 0 18.3858V19.9444C0 21.6131 1.35278 22.9659 3.02149 22.9659C1.35278 22.9659 0 24.3187 0 25.9874V27.546C0 29.2147 1.35278 30.5675 3.02149 30.5675C1.35278 30.5675 0 31.9203 0 33.589V35.1476C0 36.8163 1.35278 38.1691 3.02149 38.1691C1.35278 38.1691 0 39.5218 0 41.1906V42.7492C0 44.4179 1.35278 45.7706 3.02149 45.7706H6.81587C8.48458 45.7706 9.83736 44.4179 9.83736 42.7492V41.1906C9.83736 39.5218 8.48458 38.1691 6.81587 38.1691C8.48458 38.1691 9.83736 36.8163 9.83736 35.1476V33.589C9.83736 31.9203 8.48458 30.5675 6.81587 30.5675C8.48458 30.5675 9.83736 29.2147 9.83736 27.546V25.9874C9.83736 24.3187 8.48458 22.9659 6.81587 22.9659C8.48446 22.9659 9.83724 21.6131 9.83724 19.9444Z" fill="#FFCEBF"/>
<path d="M6.81574 15.3643H3.04492C4.71363 15.3643 6.06641 16.7171 6.06641 18.3858V19.9444C6.06641 21.6131 4.71363 22.9659 3.04492 22.9659H6.81586C8.48457 22.9659 9.83735 21.6131 9.83735 19.9444V18.3858C9.83723 16.7171 8.48445 15.3643 6.81574 15.3643Z" fill="#FFB09E"/>
<path d="M6.81574 22.9659H3.04492C4.71363 22.9659 6.06641 24.3187 6.06641 25.9874V27.546C6.06641 29.2147 4.71363 30.5675 3.04492 30.5675H6.81586C8.48457 30.5675 9.83735 29.2147 9.83735 27.546V25.9874C9.83723 24.3187 8.48445 22.9659 6.81574 22.9659Z" fill="#FFB09E"/>
<path d="M6.81574 30.5675H3.04492C4.71363 30.5675 6.06641 31.9203 6.06641 33.589V35.1476C6.06641 36.8163 4.71363 38.1691 3.04492 38.1691H6.81586C8.48457 38.1691 9.83735 36.8163 9.83735 35.1476V33.589C9.83723 31.9203 8.48445 30.5675 6.81574 30.5675Z" fill="#FFB09E"/>
<path d="M6.81574 38.169H3.04492C4.71363 38.169 6.06641 39.5218 6.06641 41.1905V42.7491C6.06641 44.4178 4.71363 45.7706 3.04492 45.7706H6.81586C8.48457 45.7706 9.83735 44.4178 9.83735 42.7491V41.1905C9.83723 39.5218 8.48445 38.169 6.81574 38.169Z" fill="#FFB09E"/>
<path d="M30.5551 6.46963H15.6501C15.1494 6.46963 14.7437 6.06378 14.7437 5.56318C14.7437 5.06258 15.1494 4.65674 15.6501 4.65674H30.555C31.0557 4.65674 31.4614 5.06258 31.4614 5.56318C31.4614 6.06378 31.0557 6.46963 30.5551 6.46963Z" fill="#8379C1"/>
<path d="M30.1464 17.4604C30.1464 15.7985 30.7882 14.2356 31.9533 13.0529H14.0164C13.6827 13.0529 13.4121 13.3235 13.4121 13.6572V18.4106C13.4121 18.7443 13.6827 19.0149 14.0164 19.0149H30.3396C30.2124 18.5129 30.1464 17.9917 30.1464 17.4604Z" fill="#A2E62E"/>
<path d="M27.1689 19.0149H30.3392C30.2119 18.5129 30.1461 17.9917 30.1461 17.4604C30.1461 15.7985 30.7878 14.2356 31.9529 13.0529H27.1689C27.5026 13.0529 27.7732 13.3235 27.7732 13.6572V18.4106C27.7732 18.7443 27.5026 19.0149 27.1689 19.0149Z" fill="#97D729"/>
<path d="M32.1895 28.6836H14.0164C13.6827 28.6836 13.4121 28.413 13.4121 28.0793V23.3259C13.4121 22.9922 13.6827 22.7216 14.0164 22.7216H32.1895C32.5231 22.7216 32.7937 22.9922 32.7937 23.3259V28.0793C32.7937 28.413 32.5231 28.6836 32.1895 28.6836Z" fill="#A2E62E"/>
<path d="M32.1891 22.7216H27.1689C27.5026 22.7216 27.7732 22.9922 27.7732 23.3259V28.0793C27.7732 28.413 27.5026 28.6836 27.1689 28.6836H32.1891C32.5228 28.6836 32.7934 28.413 32.7934 28.0793V23.3259C32.7934 22.9922 32.5228 22.7216 32.1891 22.7216Z" fill="#97D729"/>
<path d="M37.2624 27.3498V32.2718C41.681 32.3411 45.5067 34.897 47.3978 38.5994V29.0517C47.3978 27.5683 46.8085 26.1456 45.7595 25.0967L33.5952 12.9323C33.1274 12.4645 32.3688 12.4645 31.9009 12.9323C29.4002 15.433 29.4002 19.4875 31.9009 21.9882L37.2624 27.3498Z" fill="#FFCEBF"/>
<path d="M43.6064 30.2956V34.29C45.2027 35.3835 46.5127 36.8656 47.3982 38.5994V29.0517C47.3982 27.5683 46.8089 26.1456 45.76 25.0967L33.5957 12.9323C33.1279 12.4645 32.3692 12.4645 31.9014 12.9323C31.3111 13.5226 30.862 14.2 30.5503 14.9226L41.9683 26.3406C43.0171 27.3895 43.6064 28.8122 43.6064 30.2956Z" fill="#FFB09E"/>
<path d="M37.0779 55.5495C43.5398 55.5495 48.7783 50.3111 48.7783 43.8491C48.7783 37.3871 43.5398 32.1487 37.0779 32.1487C30.6159 32.1487 25.3774 37.3871 25.3774 43.8491C25.3774 50.3111 30.6159 55.5495 37.0779 55.5495Z" fill="#0ED2B3"/>
<path d="M37.0782 32.1487C36.2108 32.1487 35.3659 32.2439 34.5522 32.4229C39.8 33.5778 43.7268 38.2545 43.7268 43.8491C43.7268 49.4437 39.8 54.1203 34.5522 55.2753C35.3658 55.4543 36.2108 55.5495 37.0782 55.5495C43.5402 55.5495 48.7786 50.3111 48.7786 43.8491C48.7786 37.3871 43.5402 32.1487 37.0782 32.1487Z" fill="#0AB69F"/>
<path d="M35.8779 48.6946C35.646 48.6946 35.414 48.6061 35.2369 48.4291L30.7255 43.9176C30.3715 43.5636 30.3715 42.9897 30.7255 42.6358C31.0796 42.2818 31.6534 42.2818 32.0074 42.6358L35.8778 46.5063L42.2296 40.1545C42.5837 39.8005 43.1576 39.8005 43.5116 40.1545C43.8656 40.5085 43.8656 41.0825 43.5116 41.4364L36.5189 48.4291C36.3419 48.606 36.1099 48.6946 35.8779 48.6946Z" fill="white"/>
<path d="M19.0357 38.96H15.7799C14.974 38.96 14.3184 38.3045 14.3184 37.4986V36.8079C14.3184 36.0021 14.974 35.3464 15.7799 35.3464H19.0357C19.8414 35.3464 20.4971 36.002 20.4971 36.8079C20.4971 37.3085 20.9028 37.7143 21.4035 37.7143C21.9043 37.7143 22.31 37.3085 22.31 36.8079C22.31 35.0025 20.8412 33.5336 19.0357 33.5336H18.3141V32.2695C18.3141 31.7689 17.9084 31.363 17.4077 31.363C16.907 31.363 16.5012 31.7689 16.5012 32.2695V33.5336H15.7798C13.9743 33.5336 12.5054 35.0024 12.5054 36.8079V37.4986C12.5054 39.304 13.9742 40.7729 15.7798 40.7729H19.0355C19.8413 40.7729 20.497 41.4285 20.497 42.2344V42.9249C20.497 43.7307 19.8413 44.3864 19.0355 44.3864H15.7798C14.9739 44.3864 14.3183 43.7307 14.3183 42.9249C14.3183 42.4243 13.9125 42.0185 13.4118 42.0185C12.9111 42.0185 12.5054 42.4243 12.5054 42.9249C12.5054 44.7305 13.9742 46.1993 15.7798 46.1993H16.5012V47.4633C16.5012 47.9639 16.907 48.3698 17.4077 48.3698C17.9084 48.3698 18.3141 47.9639 18.3141 47.4633V46.1993H19.0357C20.8411 46.1993 22.31 44.7305 22.31 42.9249V42.2344C22.31 40.4288 20.8412 38.96 19.0357 38.96Z" fill="#0AB69F"/>
</svg>
