<svg width="64" height="62" viewBox="0 0 64 62" fill="none" xmlns="http://www.w3.org/2000/svg">
<path fill-rule="evenodd" clip-rule="evenodd" d="M63.0595 17.6566V53.3104H11.0859V17.6566L24.0762 8.82832L37.079 0L50.0693 8.82832L63.0595 17.6566Z" fill="#DD6E42"/>
<path fill-rule="evenodd" clip-rule="evenodd" d="M16.2568 21.8185H57.9013V53.2978H16.2568V21.8185Z" fill="#CCCCCB"/>
<path fill-rule="evenodd" clip-rule="evenodd" d="M16.2568 21.8185H57.9013V31.1513H16.2568V21.8185Z" fill="#969696"/>
<path fill-rule="evenodd" clip-rule="evenodd" d="M33.4092 43.6876H45.6553V53.2978H33.4092V43.6876Z" fill="#E2BC81"/>
<path fill-rule="evenodd" clip-rule="evenodd" d="M38.29 43.6876H40.7872V50.9772H38.29V43.6876Z" fill="#E5175E"/>
<path fill-rule="evenodd" clip-rule="evenodd" d="M45.6553 43.6876H57.9014V53.2978H45.6553V43.6876Z" fill="#B69867"/>
<path fill-rule="evenodd" clip-rule="evenodd" d="M50.5229 43.6876H53.0201V50.9772H50.5229V43.6876Z" fill="#BA1E4E"/>
<path fill-rule="evenodd" clip-rule="evenodd" d="M45.6553 34.0773H57.9014V43.6876H45.6553V34.0773Z" fill="#CBA974"/>
<path fill-rule="evenodd" clip-rule="evenodd" d="M50.5229 34.0773H53.0201V41.367H50.5229V34.0773Z" fill="#CF1D56"/>
<path fill-rule="evenodd" clip-rule="evenodd" d="M45.6553 24.4671H57.9014V34.0899H45.6553V24.4671Z" fill="#E2BC81"/>
<path fill-rule="evenodd" clip-rule="evenodd" d="M50.5229 24.4671H53.0201V31.7567H50.5229V24.4671Z" fill="#E5175E"/>
<path fill-rule="evenodd" clip-rule="evenodd" d="M33.4092 34.0773H45.6553V43.6876H33.4092V34.0773Z" fill="#FBD18F"/>
<path fill-rule="evenodd" clip-rule="evenodd" d="M38.29 34.0773H40.7872V41.367H38.29V34.0773Z" fill="#ED1968"/>
<path fill-rule="evenodd" clip-rule="evenodd" d="M37.0788 20.2547C39.8661 20.2547 42.1362 17.9845 42.1362 15.1973C42.1362 12.4101 39.8535 10.14 37.0788 10.14C34.2916 10.14 32.0215 12.4101 32.0215 15.1973C32.0215 17.9845 34.2916 20.2547 37.0788 20.2547Z" fill="#80311A"/>
<path fill-rule="evenodd" clip-rule="evenodd" d="M37.0788 18.0854C39.8661 18.0854 42.1362 15.8153 42.1362 13.0281C42.1362 10.2408 39.8661 7.9707 37.0788 7.9707C34.2916 7.9707 32.0215 10.2408 32.0215 13.0281C32.0215 15.8153 34.2916 18.0854 37.0788 18.0854Z" fill="#FDCC9A"/>
<path fill-rule="evenodd" clip-rule="evenodd" d="M8.28613 43.2966H25.0852V56.4886H8.28613V43.2966Z" fill="#FCB13B"/>
<path fill-rule="evenodd" clip-rule="evenodd" d="M8.28613 30.1046H25.0852V43.2966H8.28613V30.1046Z" fill="#FCB13B"/>
<path fill-rule="evenodd" clip-rule="evenodd" d="M8.286 27.8344V56.476H22.3356V58.8723H8.286H5.82669V56.476V28.3768C5.82669 27.8975 5.43572 27.5065 4.95647 27.5065H0V25.0851H5.17087C6.93653 25.0851 8.286 25.9174 8.286 27.8344Z" fill="#B3B4B4"/>
<path fill-rule="evenodd" clip-rule="evenodd" d="M7.03757 62C9.28248 62 11.1112 60.1713 11.1112 57.9264C11.1112 55.6814 9.28248 53.8527 7.03757 53.8527C4.79265 53.8527 2.96393 55.6814 2.96393 57.9264C2.95132 60.1713 4.79265 62 7.03757 62Z" fill="#5E5F5F"/>
<path fill-rule="evenodd" clip-rule="evenodd" d="M7.03756 59.1875C7.73121 59.1875 8.29874 58.62 8.29874 57.9263C8.29874 57.2327 7.73121 56.6652 7.03756 56.6652C6.3439 56.6652 5.77637 57.2327 5.77637 57.9263C5.77637 58.62 6.3439 59.1875 7.03756 59.1875Z" fill="#E6E6E6"/>
<path fill-rule="evenodd" clip-rule="evenodd" d="M8.28613 43.2966H25.0852V47.118H8.28613V43.2966Z" fill="#FBD18F"/>
<path fill-rule="evenodd" clip-rule="evenodd" d="M8.28613 30.1046H25.0852V33.926H8.28613V30.1046Z" fill="#FBD18F"/>
<path fill-rule="evenodd" clip-rule="evenodd" d="M14.9702 43.2966H18.4006V53.2978H14.9702V43.2966Z" fill="#ED1968"/>
<path fill-rule="evenodd" clip-rule="evenodd" d="M14.9702 30.1046H18.4006V40.1058H14.9702V30.1046Z" fill="#ED1968"/>
</svg>
