<svg width="63" height="62" viewBox="0 0 63 62" fill="none" xmlns="http://www.w3.org/2000/svg">
<path d="M62.4648 6.06048V24.0624C62.4648 27.4092 59.7519 30.1228 56.4043 30.1228H53.0909V37.7598C53.0909 39.2654 51.2936 40.0441 50.1948 39.0148L40.7073 30.1228H27.7714C24.4246 30.1228 21.7109 27.4099 21.7109 24.0624V6.06048C21.7109 2.71366 24.4239 0 27.7714 0H56.4043C59.7519 0 62.4648 2.71366 62.4648 6.06048Z" fill="#9ABBFE"/>
<path d="M40.7532 30.1541V46.5609C40.7532 49.9163 38.0523 52.6165 34.6955 52.6165H21.7682L12.2743 61.5361C11.1698 62.559 9.36969 61.781 9.36969 60.2684V52.6165H6.05552C2.70088 52.6165 0 49.9163 0 46.5609V28.5591C0 25.2037 2.70088 22.5036 6.05552 22.5036H21.7263V24.0581C21.7263 27.4134 24.4272 30.1136 27.7818 30.1136H40.7113L40.7532 30.1541Z" fill="#FFBC45"/>
<path d="M50.2708 12.889H33.9051C32.775 12.889 31.8594 11.974 31.8594 10.8433C31.8594 9.71251 32.775 8.79755 33.9051 8.79755H50.2708C51.4009 8.79755 52.3165 9.71251 52.3165 10.8433C52.3165 11.974 51.4009 12.889 50.2708 12.889Z" fill="#587FB7"/>
<path d="M50.2708 21.0718H33.9051C32.775 21.0718 31.8594 20.1569 31.8594 19.0261C31.8594 17.8954 32.775 16.9804 33.9051 16.9804H50.2708C51.4009 16.9804 52.3165 17.8954 52.3165 19.0261C52.3165 20.1569 51.4009 21.0718 50.2708 21.0718Z" fill="#587FB7"/>
<path d="M13.0125 39.5039C12.7257 39.5039 12.4801 39.4237 12.2353 39.3399C11.9897 39.2164 11.7441 39.0524 11.5801 38.8927C11.3757 38.6847 11.2124 38.481 11.1308 38.2375C11.008 37.9898 10.9668 37.7059 10.9668 37.4184C10.9668 36.8867 11.1712 36.3558 11.5801 35.9838C12.3176 35.2087 13.667 35.2087 14.4442 35.9838C14.6487 36.1918 14.8126 36.3955 14.895 36.639C15.0178 36.8867 15.0589 37.1707 15.0589 37.4184C15.0589 37.7059 15.0178 37.9898 14.895 38.2375C14.8133 38.481 14.6494 38.6847 14.4442 38.8927C14.0765 39.2597 13.5442 39.5039 13.0125 39.5039Z" fill="#9B7B15"/>
<path d="M21.1956 39.5039C20.9088 39.5039 20.6632 39.4237 20.4184 39.3399C20.1728 39.2164 19.9272 39.0524 19.7632 38.8927C19.3543 38.5215 19.1499 37.9898 19.1499 37.4184C19.1499 37.1707 19.1911 36.8868 19.3139 36.639C19.3955 36.3956 19.5588 36.1918 19.7632 35.9839C19.9272 35.7801 20.1728 35.6602 20.4184 35.5367C21.1544 35.2492 22.0957 35.4132 22.6266 35.9839C23.0362 36.3551 23.2406 36.8868 23.2406 37.4184C23.2406 37.9898 23.0362 38.5215 22.6266 38.8927C22.4641 39.0524 22.2178 39.2164 21.9722 39.3399C21.7273 39.4237 21.4824 39.5039 21.1956 39.5039Z" fill="#9B7B15"/>
<path d="M29.3782 39.5039C28.8459 39.5039 28.3142 39.2604 27.9458 38.8927C27.5369 38.5215 27.3325 37.9898 27.3325 37.4184C27.3325 36.8867 27.5369 36.3558 27.9458 35.9838C28.6833 35.2087 30.0732 35.2087 30.8099 35.9838C31.0144 36.1918 31.1784 36.3955 31.2607 36.639C31.3835 36.8867 31.4247 37.1707 31.4247 37.4184C31.4247 37.9898 31.2202 38.5215 30.8107 38.8927C30.4423 39.2597 29.9099 39.5039 29.3782 39.5039Z" fill="#9B7B15"/>
<path d="M13.0121 14.9347H8.92071C7.79067 14.9347 6.875 14.0197 6.875 12.889C6.875 11.7582 7.79067 10.8433 8.92071 10.8433H13.0121C14.1422 10.8433 15.0579 11.7582 15.0579 12.889C15.0579 14.0197 14.1415 14.9347 13.0121 14.9347Z" fill="#E07B2F"/>
<path d="M53.9262 51.7583H49.8348C48.7047 51.7583 47.7891 50.8433 47.7891 49.7126C47.7891 48.5818 48.7047 47.6669 49.8348 47.6669H53.9262C55.0563 47.6669 55.9719 48.5818 55.9719 49.7126C55.9719 50.8433 55.0563 51.7583 53.9262 51.7583Z" fill="#E07B2F"/>
</svg>
