<svg width="67" height="56" viewBox="0 0 67 56" fill="none" xmlns="http://www.w3.org/2000/svg">
<path d="M54.2948 47.9107C54.2948 47.9161 54.2948 47.9216 54.2948 47.9284C48.8029 52.9088 41.5127 55.9424 33.5162 55.9424C25.5185 55.9424 18.2281 52.9088 12.7363 47.9284C12.7363 47.9216 12.7363 47.9162 12.7363 47.9107C12.7363 39.6273 17.5834 32.4771 24.5949 29.1401C27.2299 31.7683 30.3153 33.1845 33.5164 33.1845C36.7188 33.1845 39.8027 31.7683 42.4392 29.1401C49.4504 32.4771 54.2948 39.6272 54.2948 47.9107Z" fill="#1EA6C6"/>
<path d="M33.5164 2.97705C39.864 2.97705 45.0103 8.12207 45.0103 14.4697C45.0103 20.8186 39.864 29.5006 33.5164 29.5006C27.1688 29.5006 22.0225 20.8186 22.0225 14.4697C22.0225 8.12207 27.1688 2.97705 33.5164 2.97705Z" fill="#FCD09F"/>
<path d="M23.8298 25.4598C24.1821 25.9618 24.5468 26.4325 24.9236 26.8745L23.7768 27.42C19.9596 29.2361 16.73 32.0779 14.4351 35.638C12.5686 38.5343 11.3987 41.7993 10.9919 45.203C6.8441 44.0724 3.0948 41.9762 0 39.1696V39.1547C0 31.9365 4.22403 25.7059 10.3335 22.7973C12.6298 25.0882 15.3179 26.3221 18.1067 26.3221C19.9337 26.3221 21.7185 25.7929 23.3769 24.7835C23.5224 25.0122 23.6747 25.238 23.8298 25.4598Z" fill="#EF806F"/>
<path d="M20.119 14.4692C20.119 16.8553 20.7394 19.4809 21.8439 21.9486C20.689 22.6806 19.4279 23.1117 18.1069 23.1117C12.5756 23.1117 8.0918 15.5466 8.0918 10.0138C8.0918 4.48252 12.5756 0 18.1069 0C21.1746 0 23.9213 1.37945 25.7577 3.55195C22.3472 5.9844 20.119 9.97172 20.119 14.4692Z" fill="#EFC59C"/>
<path d="M43.1705 25.4598C42.8182 25.9618 42.4535 26.4325 42.0767 26.8745L43.2235 27.42C47.0407 29.2361 50.2703 32.0779 52.5652 35.638C54.4317 38.5343 55.6016 41.7993 56.0084 45.203C60.1562 44.0724 63.9055 41.9762 67.0003 39.1696V39.1547C67.0003 31.9365 62.7763 25.7059 56.6668 22.7973C54.3705 25.0882 51.6824 26.3221 48.8936 26.3221C47.0666 26.3221 45.2818 25.7929 43.6234 24.7835C43.4779 25.0122 43.3256 25.238 43.1705 25.4598Z" fill="#EF806F"/>
<path d="M46.881 14.4692C46.881 16.8553 46.2606 19.4809 45.156 21.9486C46.311 22.6806 47.5721 23.1117 48.893 23.1117C54.4243 23.1117 58.9081 15.5466 58.9081 10.0138C58.9081 4.48252 54.4243 0 48.893 0C45.8254 0 43.0786 1.37945 41.2422 3.55195C44.6527 5.9844 46.881 9.97172 46.881 14.4692Z" fill="#EFC59C"/>
</svg>
