<svg width="28" height="19" viewBox="0 0 28 19" fill="none" xmlns="http://www.w3.org/2000/svg">
<path fill-rule="evenodd" clip-rule="evenodd" d="M1.95194 7.54085H25.2542C25.7719 7.54085 26.2684 7.7465 26.6345 8.11256C27.0005 8.47862 27.2062 8.9751 27.2062 9.49279C27.2062 10.0105 27.0005 10.507 26.6345 10.873C26.2684 11.2391 25.7719 11.4447 25.2542 11.4447H1.95194C1.43425 11.4447 0.937768 11.2391 0.571709 10.873C0.20565 10.507 0 10.0105 0 9.49279C0 8.9751 0.20565 8.47862 0.571709 8.11256C0.937768 7.7465 1.43425 7.54085 1.95194 7.54085ZM25.2542 9.22806H1.95194C1.88171 9.22806 1.81436 9.25595 1.76471 9.30561C1.71505 9.35527 1.68715 9.42262 1.68715 9.49284C1.68715 9.56307 1.71505 9.63042 1.76471 9.68007C1.81436 9.72973 1.88171 9.75763 1.95194 9.75763H25.2542C25.3245 9.75763 25.3918 9.72973 25.4415 9.68007C25.4911 9.63042 25.519 9.56307 25.519 9.49284C25.519 9.42262 25.4911 9.35527 25.4415 9.30561C25.3918 9.25595 25.3245 9.22806 25.2542 9.22806ZM1.95194 0H25.2542C25.7702 0.00268145 26.2641 0.209517 26.6279 0.57529C26.9918 0.941063 27.1961 1.43602 27.1961 1.95196C27.1961 2.46791 26.9918 2.96286 26.6279 3.32864C26.2641 3.69441 25.7702 3.90125 25.2542 3.90393H1.95194C1.436 3.90125 0.942112 3.69441 0.578234 3.32864C0.214357 2.96286 0.0100921 2.46791 0.0100921 1.95196C0.0100921 1.43602 0.214357 0.941063 0.578234 0.57529C0.942112 0.209517 1.436 0.00268145 1.95194 0ZM25.2542 1.6872H1.95194C1.88237 1.68819 1.81598 1.71651 1.76713 1.76606C1.71827 1.8156 1.69089 1.88239 1.69089 1.95196C1.69089 2.02154 1.71827 2.08832 1.76713 2.13787C1.81598 2.18741 1.88237 2.21574 1.95194 2.21672H25.2542C25.3238 2.21574 25.3902 2.18741 25.439 2.13787C25.4879 2.08832 25.5153 2.02154 25.5153 1.95196C25.5153 1.88239 25.4879 1.8156 25.439 1.76606C25.3902 1.71651 25.3238 1.68819 25.2542 1.6872ZM1.95194 15.0817H25.2542C25.7702 15.0843 26.2641 15.2912 26.6279 15.6569C26.9918 16.0227 27.1961 16.5177 27.1961 17.0336C27.1961 17.5496 26.9918 18.0445 26.6279 18.4103C26.2641 18.7761 25.7702 18.9829 25.2542 18.9856H1.95194C1.436 18.9829 0.942112 18.7761 0.578234 18.4103C0.214357 18.0445 0.0100921 17.5496 0.0100921 17.0336C0.0100921 16.5177 0.214357 16.0227 0.578234 15.6569C0.942112 15.2912 1.436 15.0843 1.95194 15.0817ZM25.2542 16.7689H1.95194C1.88237 16.7698 1.81598 16.7982 1.76713 16.8477C1.71827 16.8973 1.69089 16.964 1.69089 17.0336C1.69089 17.1032 1.71827 17.17 1.76713 17.2195C1.81598 17.2691 1.88237 17.2974 1.95194 17.2984H25.2542C25.3238 17.2974 25.3902 17.2691 25.439 17.2195C25.4879 17.17 25.5153 17.1032 25.5153 17.0336C25.5153 16.964 25.4879 16.8973 25.439 16.8477C25.3902 16.7982 25.3238 16.7698 25.2542 16.7689ZM1.95194 2.21672H25.2542C25.3238 2.21574 25.3902 2.18741 25.439 2.13787C25.4879 2.08832 25.5153 2.02154 25.5153 1.95196C25.5153 1.88239 25.4879 1.8156 25.439 1.76606C25.3902 1.71651 25.3238 1.68819 25.2542 1.6872H1.95194C1.88237 1.68819 1.81598 1.71651 1.76713 1.76606C1.71827 1.8156 1.69089 1.88239 1.69089 1.95196C1.69089 2.02154 1.71827 2.08832 1.76713 2.13787C1.81598 2.18741 1.88237 2.21574 1.95194 2.21672ZM25.2542 9.228H1.95194C1.88171 9.228 1.81436 9.25595 1.76471 9.30561C1.71505 9.35527 1.68715 9.42256 1.68715 9.49279C1.68715 9.56302 1.71505 9.63036 1.76471 9.68002C1.81436 9.72968 1.88171 9.75758 1.95194 9.75758H25.2542C25.3245 9.75758 25.3918 9.72968 25.4415 9.68002C25.4911 9.63036 25.519 9.56302 25.519 9.49279C25.519 9.42256 25.4911 9.35527 25.4415 9.30561C25.3918 9.25595 25.3245 9.228 25.2542 9.228ZM25.2542 16.7689H1.95194C1.88237 16.7698 1.81598 16.7982 1.76713 16.8477C1.71827 16.8973 1.69089 16.964 1.69089 17.0336C1.69089 17.1032 1.71827 17.17 1.76713 17.2195C1.81598 17.2691 1.88237 17.2974 1.95194 17.2984H25.2542C25.3238 17.2974 25.3902 17.2691 25.439 17.2195C25.4879 17.17 25.5153 17.1032 25.5153 17.0336C25.5153 16.964 25.4879 16.8973 25.439 16.8477C25.3902 16.7982 25.3238 16.7698 25.2542 16.7689Z" fill="white"/>
</svg>
