<svg width="55" height="62" viewBox="0 0 55 62" fill="none" xmlns="http://www.w3.org/2000/svg">
<path d="M55 2.75274V53.1624C55 54.6822 53.7671 55.9151 52.2473 55.9151H14.1717C12.6519 55.9151 11.4189 54.6822 11.4189 53.1624V2.75274C11.4189 1.23292 12.6519 0 14.1717 0H52.2473C53.7671 0 55 1.23292 55 2.75274Z" fill="#9EAFC6"/>
<path d="M26.0891 37.9396C26.0891 38.1597 26.0643 38.3947 26.0025 38.6407C28.9321 39.8477 29.585 41.3835 29.585 42.5114V47.6904C29.585 48.8169 28.9321 50.3528 26.0025 51.5597C26.0643 51.8058 26.0891 52.0408 26.0891 52.2609V55.9151H14.1717C12.6519 55.9151 11.4189 54.6822 11.4189 53.1624V19.7476C12.8089 19.5832 14.2867 19.4966 15.7991 19.4966C19.2369 19.4966 22.4904 19.9405 24.9588 20.7469C28.7824 21.9971 29.585 23.7494 29.585 25.0008V30.1798C29.585 31.2952 28.9444 32.8113 26.0891 34.012V37.9396Z" fill="#8590A8"/>
<path d="M49.6602 7.39254V15.0237C49.6602 15.4335 49.3281 15.7656 48.9183 15.7656H17.5008C17.0909 15.7656 16.7588 15.4335 16.7588 15.0237V7.39254C16.7588 6.98272 17.0909 6.65057 17.5008 6.65057H48.9184C49.3281 6.65057 49.6602 6.98284 49.6602 7.39254Z" fill="#57D3D0"/>
<path d="M38.7789 6.65057L29.6649 15.7658H24.2251L33.3402 6.65057H38.7789Z" fill="#8CE5E1"/>
<path d="M46.8372 6.65057L37.7222 15.7658H32.2822L41.3974 6.65057H46.8372Z" fill="#8CE5E1"/>
<path d="M21.0187 25.2555H18.7223C17.7439 25.2555 16.9507 24.4623 16.9507 23.4839C16.9507 22.5054 17.7439 21.7122 18.7223 21.7122H21.0187C21.9971 21.7122 22.7904 22.5054 22.7904 23.4839C22.7902 24.4623 21.9971 25.2555 21.0187 25.2555Z" fill="#ED6294"/>
<path d="M31.6839 23.4834C31.6839 23.973 31.4847 24.4157 31.1645 24.7373C30.8442 25.0576 30.4015 25.2554 29.9118 25.2554H27.6154C26.6372 25.2554 25.8433 24.4628 25.8433 23.4834C25.8433 22.9936 26.0411 22.5509 26.3627 22.2307C26.605 21.9883 26.918 21.8164 27.2667 21.7472C27.3805 21.725 27.4967 21.7126 27.6154 21.7126H29.9118C30.89 21.7126 31.6839 22.5053 31.6839 23.4834Z" fill="#ED6294"/>
<path d="M29.5854 25.0008V25.2555H27.6154C26.6372 25.2555 25.8433 24.4629 25.8433 23.4835C25.8433 22.9937 26.0411 22.551 26.3627 22.2308C26.605 21.9884 26.918 21.8165 27.2667 21.7473C29.129 22.8293 29.5854 24.0572 29.5854 25.0008Z" fill="#DC4173"/>
<path d="M38.8038 25.2555H36.5075C35.5291 25.2555 34.7358 24.4623 34.7358 23.4839C34.7358 22.5054 35.5291 21.7122 36.5075 21.7122H38.8038C39.7823 21.7122 40.5755 22.5054 40.5755 23.4839C40.5755 24.4623 39.7823 25.2555 38.8038 25.2555Z" fill="#ED6294"/>
<path d="M47.6964 25.2555H45.4001C44.4216 25.2555 43.6284 24.4623 43.6284 23.4839C43.6284 22.5054 44.4216 21.7122 45.4001 21.7122H47.6964C48.6749 21.7122 49.4681 22.5054 49.4681 23.4839C49.4681 24.4623 48.6749 25.2555 47.6964 25.2555Z" fill="#ED6294"/>
<path d="M21.0187 34.2739H18.7223C17.7439 34.2739 16.9507 33.4807 16.9507 32.5022C16.9507 31.5238 17.7439 30.7306 18.7223 30.7306H21.0187C21.9971 30.7306 22.7904 31.5238 22.7904 32.5022C22.7902 33.4807 21.9971 34.2739 21.0187 34.2739Z" fill="#697491"/>
<path d="M31.6838 32.5022C31.6838 32.9906 31.4846 33.4345 31.1644 33.7549C30.8441 34.0765 30.4014 34.2743 29.9116 34.2743H27.6153C27.1763 34.2743 26.7719 34.1148 26.4628 33.8477C26.0831 33.5225 25.8433 33.0402 25.8433 32.5023C25.8433 32.0139 26.0411 31.5698 26.3627 31.2496C26.6829 30.9281 27.127 30.7302 27.6154 30.7302H29.9117C30.8898 30.73 31.6838 31.524 31.6838 32.5022Z" fill="#697491"/>
<path d="M25.8433 32.5022C25.8433 32.0137 26.0411 31.5697 26.3627 31.2495C26.6829 30.928 27.127 30.73 27.6154 30.73H29.5322C29.3418 31.7069 28.585 32.867 26.4629 33.8476C26.0831 33.5224 25.8433 33.0401 25.8433 32.5022Z" fill="#576384"/>
<path d="M38.8043 34.2738H36.508C35.5295 34.2738 34.7363 33.4806 34.7363 32.5022C34.7363 31.5237 35.5295 30.7305 36.508 30.7305H38.8043C39.7828 30.7305 40.576 31.5237 40.576 32.5022C40.576 33.4806 39.7828 34.2738 38.8043 34.2738Z" fill="#697491"/>
<path d="M47.6964 34.2738H45.4001C44.4216 34.2738 43.6284 33.4806 43.6284 32.5022C43.6284 31.5237 44.4216 30.7305 45.4001 30.7305H47.6964C48.6749 30.7305 49.4681 31.5237 49.4681 32.5022C49.4681 33.4806 48.6749 34.2738 47.6964 34.2738Z" fill="#697491"/>
<path d="M21.0187 41.5205H18.7223C17.7439 41.5205 16.9507 40.7273 16.9507 39.7488C16.9507 38.7704 17.7439 37.9772 18.7223 37.9772H21.0187C21.9971 37.9772 22.7904 38.7704 22.7904 39.7488C22.7902 40.7273 21.9971 41.5205 21.0187 41.5205Z" fill="#697491"/>
<path d="M31.6839 39.7487C31.6839 40.2371 31.4847 40.6812 31.1645 41.0014C30.8442 41.3229 30.4015 41.5208 29.9118 41.5208H27.6154C26.6372 41.5208 25.8433 40.7269 25.8433 39.7487C25.8433 39.3629 25.9669 39.0042 26.1772 38.7137C26.2329 38.6358 26.2947 38.5628 26.3627 38.4961C26.6829 38.1745 27.127 37.9767 27.6154 37.9767H29.9118C30.89 37.9767 31.6839 38.7705 31.6839 39.7487Z" fill="#697491"/>
<path d="M25.8433 39.7487C25.8433 39.3629 25.9669 39.0042 26.1772 38.7137C28.1904 39.5793 29.0758 40.6033 29.4097 41.5209H27.6154C26.6371 41.5209 25.8433 40.7269 25.8433 39.7487Z" fill="#576384"/>
<path d="M38.8043 41.5205H36.508C35.5295 41.5205 34.7363 40.7273 34.7363 39.7488C34.7363 38.7704 35.5295 37.9772 36.508 37.9772H38.8043C39.7828 37.9772 40.576 38.7704 40.576 39.7488C40.576 40.7273 39.7828 41.5205 38.8043 41.5205Z" fill="#697491"/>
<path d="M47.6964 41.5205H45.4001C44.4216 41.5205 43.6284 40.7273 43.6284 39.7488C43.6284 38.7704 44.4216 37.9772 45.4001 37.9772H47.6964C48.6749 37.9772 49.4681 38.7704 49.4681 39.7488C49.4681 40.7273 48.6749 41.5205 47.6964 41.5205Z" fill="#697491"/>
<path d="M21.0187 48.7671H18.7223C17.7439 48.7671 16.9507 47.9739 16.9507 46.9955C16.9507 46.017 17.7439 45.2238 18.7223 45.2238H21.0187C21.9971 45.2238 22.7904 46.017 22.7904 46.9955C22.7902 47.974 21.9971 48.7671 21.0187 48.7671Z" fill="#697491"/>
<path d="M31.6839 46.9954C31.6839 47.4838 31.4847 47.9278 31.1645 48.2481C30.8442 48.5697 30.4015 48.7675 29.9118 48.7675H27.6154C26.6372 48.7675 25.8433 47.9736 25.8433 46.9955C25.8433 46.5071 26.0411 46.0643 26.3627 45.7428C26.6829 45.4225 27.127 45.2247 27.6154 45.2247H29.9118C30.89 45.2244 31.6839 46.0172 31.6839 46.9954Z" fill="#697491"/>
<path d="M27.6154 45.2244H29.5854V47.6903C29.5854 48.0205 29.5297 48.3853 29.3764 48.7674H27.6154C26.6372 48.7674 25.8433 47.9734 25.8433 46.9954C25.8433 46.5069 26.0411 46.0642 26.3627 45.7426C26.6831 45.4224 27.127 45.2244 27.6154 45.2244Z" fill="#576384"/>
<path d="M38.8038 48.7671H36.5075C35.5291 48.7671 34.7358 47.9739 34.7358 46.9955C34.7358 46.017 35.5291 45.2238 36.5075 45.2238H38.8038C39.7823 45.2238 40.5755 46.017 40.5755 46.9955C40.5755 47.974 39.7823 48.7671 38.8038 48.7671Z" fill="#697491"/>
<path d="M47.6964 48.7671H45.4001C44.4216 48.7671 43.6284 47.9739 43.6284 46.9955C43.6284 46.017 44.4216 45.2238 45.4001 45.2238H47.6964C48.6749 45.2238 49.4681 46.017 49.4681 46.9955C49.4681 47.974 48.6749 48.7671 47.6964 48.7671Z" fill="#697491"/>
<path d="M0 52.2614V57.4401C0 59.6602 5.50812 61.4601 12.3027 61.4601C19.0973 61.4601 24.6054 59.6603 24.6054 57.4401V52.2614H0Z" fill="#EFAE2E"/>
<path d="M24.605 52.2609C24.605 54.4818 19.0972 56.2811 12.3032 56.2811C5.508 56.2811 0 54.4818 0 52.2609C0 51.2926 1.04986 50.4035 2.79847 49.7097C5.05401 48.8131 8.47453 48.2419 12.3032 48.2419C18.8882 48.2419 24.2663 49.9324 24.5891 52.058C24.6001 52.1249 24.605 52.1928 24.605 52.2609Z" fill="#FFE28F"/>
<path d="M24.5893 52.058C22.1705 52.7913 19.0677 53.1932 15.7994 53.1932C12.3604 53.1932 9.10689 52.7493 6.63852 51.943C4.63639 51.2888 3.46289 50.4962 2.79883 49.7097C5.05436 48.8131 8.47488 48.2419 12.3035 48.2419C18.8884 48.2419 24.2665 49.9324 24.5893 52.058Z" fill="#FFD243"/>
<path d="M3.49658 42.5109V47.6897C3.49658 49.9098 9.0047 51.7097 15.7993 51.7097C22.5939 51.7097 28.102 49.9099 28.102 47.6897V42.5109H3.49658Z" fill="#EFAE2E"/>
<path d="M28.1011 42.5113C28.1011 44.7311 22.5933 46.5303 15.7993 46.5303C9.00409 46.5303 3.49609 44.7311 3.49609 42.5113C3.49609 42.4432 3.50102 42.3753 3.51218 42.3084C3.83496 40.1814 9.21296 38.4909 15.7993 38.4909C19.6278 38.4909 23.0471 39.0622 25.3027 39.9588C27.0511 40.6527 28.1011 41.5418 28.1011 42.5113Z" fill="#FFE28F"/>
<path d="M25.3028 39.9589C24.6399 40.7454 23.4664 41.538 21.4631 42.1922C18.9949 42.9985 15.7412 43.4438 12.3034 43.4438C9.03377 43.4438 5.93112 43.0419 3.51221 42.3085C3.83499 40.1816 9.21299 38.4911 15.7993 38.4911C19.628 38.4911 23.0471 39.0624 25.3028 39.9589Z" fill="#FFD243"/>
<path d="M0 32.7605V37.9392C0 40.1594 5.50812 41.9592 12.3027 41.9592C19.0973 41.9592 24.6054 40.1595 24.6054 37.9392V32.7605H0Z" fill="#EFAE2E"/>
<path d="M24.605 32.7605C24.605 33.6373 23.7481 34.4473 22.2926 35.1076C20.0593 36.1204 16.4174 36.7807 12.3032 36.7807C5.508 36.7807 0 34.9803 0 32.7605C0 31.9418 0.749405 31.1801 2.03551 30.5458C4.23666 29.4575 8.01334 28.7403 12.3032 28.7403C19.0972 28.7403 24.605 30.5409 24.605 32.7605Z" fill="#FFE28F"/>
<path d="M24.6052 32.7605C24.6052 33.6373 23.7482 34.4473 22.2927 35.1076C20.3327 35.4823 18.1081 35.6826 15.7992 35.6826C12.3602 35.6826 9.10787 35.2387 6.63831 34.4324C3.17578 33.3009 2.19013 31.7564 2.03564 30.5457C4.2368 29.4574 8.01348 28.7401 12.3033 28.7401C19.0973 28.7403 24.6052 30.5409 24.6052 32.7605Z" fill="#FFD243"/>
<path d="M3.49658 25.0005V30.1793C3.49658 32.3994 9.0047 34.1993 15.7993 34.1993C22.5939 34.1993 28.102 32.3995 28.102 30.1793V25.0005H3.49658Z" fill="#EFAE2E"/>
<path d="M15.7989 29.0205C22.5936 29.0205 28.1017 27.2207 28.1017 25.0006C28.1017 22.7804 22.5936 20.9806 15.7989 20.9806C9.00425 20.9806 3.49609 22.7804 3.49609 25.0006C3.49609 27.2207 9.00425 29.0205 15.7989 29.0205Z" fill="#FFE28F"/>
<path d="M7.48801 19.2387H4.35223C3.84002 19.2387 3.4248 18.8235 3.4248 18.3112C3.4248 17.799 3.84002 17.3838 4.35223 17.3838H7.48801C8.00022 17.3838 8.41543 17.799 8.41543 18.3112C8.41543 18.8235 8.00022 19.2387 7.48801 19.2387Z" fill="#9EAFC6"/>
<path d="M7.48801 16.3646H4.35223C3.84002 16.3646 3.4248 15.9494 3.4248 15.4372C3.4248 14.925 3.84002 14.5097 4.35223 14.5097H7.48801C8.00022 14.5097 8.41543 14.925 8.41543 15.4372C8.41556 15.9494 8.00022 16.3646 7.48801 16.3646Z" fill="#9EAFC6"/>
<path d="M7.49447 13.1763H7.48211C6.9699 13.1763 6.55469 12.761 6.55469 12.2488C6.55469 11.7366 6.9699 11.3214 7.48211 11.3214C7.99432 11.3214 8.41578 11.7366 8.41578 12.2488C8.41578 12.7609 8.00668 13.1763 7.49447 13.1763Z" fill="#FFD243"/>
</svg>
