<svg width="34" height="29" viewBox="0 0 34 29" fill="none" xmlns="http://www.w3.org/2000/svg">
<path d="M11.7 26.9999C10.2111 26.9999 9 25.7887 9 24.2999C9 22.8109 10.2111 21.5999 11.7 21.5999C13.1888 21.5999 14.3999 22.8109 14.3999 24.2999C14.3999 25.7887 13.1888 26.9999 11.7 26.9999Z" fill="#697C86"/>
<path d="M11.6999 25.1999C11.2033 25.1999 10.7998 24.7966 10.7998 24.3C10.7998 23.8034 11.2033 23.3999 11.6999 23.3999C12.1965 23.3999 12.5998 23.8034 12.5998 24.3C12.5998 24.7966 12.1965 25.1999 11.6999 25.1999Z" fill="#465A61"/>
<path d="M24.4198 26.9999C22.931 26.9999 21.7197 25.7887 21.7197 24.2999C21.7197 22.8109 22.931 21.5999 24.4198 21.5999C25.9085 21.5999 27.1198 22.8109 27.1198 24.2999C27.1198 25.7887 25.9085 26.9999 24.4198 26.9999Z" fill="#596C76"/>
<path d="M24.4201 25.1999C23.9236 25.1999 23.52 24.7966 23.52 24.3C23.52 23.8034 23.9236 23.3999 24.4201 23.3999C24.9167 23.3999 25.32 23.8034 25.32 24.3C25.32 24.7966 24.9167 25.1999 24.4201 25.1999Z" fill="#3B4A51"/>
<path d="M27.2636 20.6998C27.2636 21.2039 26.8676 21.5999 26.3638 21.5999H9.14389C7.64975 21.5999 6.44385 20.3938 6.44385 18.8999C6.44385 17.532 7.45174 16.3978 8.78372 16.2359C8.89175 16.1998 9.01782 16.1998 9.14389 16.1998C9.35972 16.1998 9.57578 16.29 9.7199 16.4339L9.17975 18C9.16194 18 9.16194 18 9.14389 18C8.63983 18 8.2438 18.3958 8.2438 18.8999C8.2438 19.4039 8.63983 19.8 9.14389 19.8H26.3638C26.8676 19.8 27.2636 20.1958 27.2636 20.6998Z" fill="#465A61"/>
<path d="M5.97282 3.60202C6.03 3.67396 6.99922 4.1117 7.975 4.54031C7.97852 4.46274 7.98836 4.38588 7.97079 4.30667L7.17896 0.70653C7.08827 0.293392 6.7227 0 6.29995 0H0.900094C0.402593 0 0 0.402593 0 0.900094C0 1.39736 0.402593 1.79995 0.900094 1.79995H5.57655L5.97282 3.60202Z" fill="#465A61"/>
<path d="M27.264 20.6998C27.264 21.2038 26.868 21.5999 26.3641 21.5999H17.8979V19.7999H26.3641C26.868 19.7999 27.264 20.1957 27.264 20.6998Z" fill="#3B4A51"/>
<path d="M30.5396 3.96015C30.3597 3.72605 30.1075 3.59998 29.8195 3.59998H5.97559L8.78366 16.236L9.17969 18.0001H26.2196C26.6156 18.0001 26.9756 17.7299 27.0836 17.3519L30.6835 4.75198C30.7557 4.48203 30.7016 4.17598 30.5396 3.96015Z" fill="#FDBF00"/>
<path d="M30.6839 4.75198L27.084 17.3519C26.976 17.7299 26.616 18.0001 26.22 18.0001H17.8979V3.59998H29.8199C30.1079 3.59998 30.3601 3.72605 30.54 3.96015C30.702 4.17598 30.7561 4.48203 30.6839 4.75198Z" fill="#FF9F00"/>
<circle cx="24" cy="17.8235" r="9.41177" fill="white" stroke="#FF9F00" stroke-width="1.17647"/>
<path d="M28.0615 15.7402C28.0615 16.3913 27.7718 16.9447 27.1924 17.4004C26.652 17.8301 26.0498 18.0449 25.3857 18.0449C24.8844 18.0449 24.3376 17.8529 23.7451 17.4688L23.7744 23.9531H22.0068V18.8262C22.0068 16.502 21.7301 14.5879 21.1768 13.084L22.8662 12.5371L23.5693 15.418C23.7451 16.1536 24.1781 16.5215 24.8682 16.5215C25.3499 16.5215 25.7243 16.3294 25.9912 15.9453C26.18 15.6719 26.2581 15.4017 26.2256 15.1348L25.9424 13.0352C26.3005 12.918 26.8441 12.7454 27.5732 12.5176C27.8988 14.1191 28.0615 15.1934 28.0615 15.7402Z" fill="#FF0000"/>
</svg>
