<svg width="62" height="62" viewBox="0 0 62 62" fill="none" xmlns="http://www.w3.org/2000/svg">
<path d="M31 50.3266C29.9969 50.3266 29.1836 49.5133 29.1836 48.5102V25.1633C29.1836 24.1602 29.9969 23.3469 31 23.3469C32.0031 23.3469 32.8164 24.1602 32.8164 25.1633V48.5102C32.8164 49.5133 32.0033 50.3266 31 50.3266Z" fill="#15233B"/>
<path d="M53.0505 50.3265C52.0473 50.3265 51.2341 49.5132 51.2341 48.5101V38.6531H10.7666V48.5101C10.7666 49.5132 9.95334 50.3265 8.9502 50.3265C7.94706 50.3265 7.13379 49.5132 7.13379 48.5101V36.8367C7.13379 35.8335 7.94706 35.0203 8.9502 35.0203H53.0505C54.0536 35.0203 54.8669 35.8335 54.8669 36.8367V48.5101C54.8669 49.5132 54.0536 50.3265 53.0505 50.3265Z" fill="#00516A"/>
<path d="M53.0503 35.0203H31.0005V38.6531H51.2339V48.5101C51.2339 49.5132 52.0472 50.3265 53.0503 50.3265C54.0535 50.3265 54.8667 49.5132 54.8667 48.5101V36.8367C54.8667 35.8335 54.0535 35.0203 53.0503 35.0203Z" fill="#0B3A53"/>
<path d="M40.7282 26.9797H21.2726C15.9711 26.9797 11.6738 22.6914 11.6738 17.3809V9.59874C11.6738 4.29798 15.9621 0 21.2726 0H40.7283C46.0298 0 50.3271 4.28829 50.3271 9.59874V17.3811C50.327 22.6818 46.0387 26.9797 40.7282 26.9797Z" fill="#34C4FF"/>
<path d="M50.3267 17.3809V9.59874C50.3267 4.28829 46.0294 0 40.7279 0H31V26.9797H40.7279C46.0384 26.9797 50.3267 22.6818 50.3267 17.3809Z" fill="#0097FF"/>
<path d="M38.1342 62.0001H23.8667C22.8636 62.0001 22.0503 61.1868 22.0503 60.1837V48.5103C22.0503 47.5071 22.8636 46.6938 23.8667 46.6938H38.1342C39.1373 46.6938 39.9506 47.5071 39.9506 48.5103V60.1837C39.9506 61.1868 39.1373 62.0001 38.1342 62.0001Z" fill="#FFDC87"/>
<path d="M36.837 19.1974H21.2725C20.2693 19.1974 19.4561 18.3841 19.4561 17.381C19.4561 16.3778 20.2693 15.5646 21.2725 15.5646H36.837C37.8401 15.5646 38.6534 16.3778 38.6534 17.381C38.6534 18.3841 37.8401 19.1974 36.837 19.1974Z" fill="#F8F8FA"/>
<path d="M40.7281 11.4152H21.2725C20.2693 11.4152 19.4561 10.6019 19.4561 9.59875C19.4561 8.59561 20.2693 7.78235 21.2725 7.78235H40.7282C41.7314 7.78235 42.5446 8.59561 42.5446 9.59875C42.5446 10.6019 41.7314 11.4152 40.7281 11.4152Z" fill="#F8F8FA"/>
<path d="M39.9506 60.1837V48.5103C39.9506 47.5071 39.1374 46.6938 38.1342 46.6938H31V62.0001H38.1342C39.1374 62.0001 39.9506 61.1868 39.9506 60.1837Z" fill="#FFC349"/>
<path d="M60.1835 62.0001H45.916C44.9129 62.0001 44.0996 61.1868 44.0996 60.1837V48.5103C44.0996 47.5071 44.9129 46.6938 45.916 46.6938H60.1835C61.1867 46.6938 61.9999 47.5071 61.9999 48.5103V60.1837C61.9999 61.1868 61.1867 62.0001 60.1835 62.0001Z" fill="#A191F4"/>
<path d="M61.9995 60.1837V48.5103C61.9995 47.5071 61.1862 46.6938 60.1831 46.6938H53.0488V62.0001H60.1831C61.1862 62.0001 61.9995 61.1868 61.9995 60.1837Z" fill="#7662E9"/>
<path d="M16.0839 62.0001H1.81641C0.813266 62.0001 0 61.1868 0 60.1837V48.5103C0 47.5071 0.813266 46.6938 1.81641 46.6938H16.0839C17.0871 46.6938 17.9003 47.5071 17.9003 48.5103V60.1837C17.9003 61.1868 17.0871 62.0001 16.0839 62.0001Z" fill="#FF6791"/>
<path d="M17.9004 60.1837V48.5103C17.9004 47.5071 17.0871 46.6938 16.0839 46.6938H8.94971V62.0001H16.0839C17.0871 62.0001 17.9004 61.1868 17.9004 60.1837Z" fill="#FF3378"/>
<path d="M38.6532 17.381C38.6532 16.3778 37.84 15.5646 36.8368 15.5646H31V19.1974H36.8368C37.84 19.1974 38.6532 18.3841 38.6532 17.381Z" fill="#EEEEF3"/>
<path d="M42.5444 9.59875C42.5444 8.59561 41.7311 7.78235 40.7279 7.78235H31V11.4152H40.7279C41.7312 11.4152 42.5444 10.6019 42.5444 9.59875Z" fill="#EEEEF3"/>
</svg>
