<svg width="62" height="62" viewBox="0 0 62 62" fill="none" xmlns="http://www.w3.org/2000/svg">
<path d="M50.1344 50.6493V58.1018C50.1344 60.1959 48.4372 61.8931 46.3441 61.8931H4.06818C1.97505 61.8931 0.27832 60.1959 0.27832 58.1018V50.6493C0.27832 49.4223 0.861557 48.3315 1.76645 47.6385C2.40408 47.1494 3.20207 46.859 4.06818 46.859H46.3441C48.4372 46.859 50.1344 48.5562 50.1344 50.6493Z" fill="#1ED688"/>
<path d="M50.1341 50.6493V56.0011C49.4955 56.4902 48.697 56.7802 47.8323 56.7802H5.55644C3.46332 56.7802 1.76611 55.0834 1.76611 52.9903V47.6385C2.40375 47.1494 3.20174 46.859 4.06784 46.859H46.3437C48.4369 46.859 50.1341 48.5562 50.1341 50.6493Z" fill="#35E298"/>
<path d="M54.5025 21.6327V39.1014C54.5025 40.9079 53.0394 42.3714 51.2339 42.3714H19.4477C17.6413 42.3714 16.1777 40.9079 16.1777 39.1014V21.6327C16.1777 19.8272 17.6413 18.3641 19.4477 18.3641H51.2339C53.0394 18.3641 54.5025 19.8272 54.5025 21.6327Z" fill="#FFC14F"/>
<path d="M54.5028 21.6327V35.8343H27.1162C25.3097 35.8343 23.8467 34.3707 23.8467 32.5643V18.3641H51.2342C53.0397 18.3641 54.5028 19.8272 54.5028 21.6327Z" fill="#FFCD71"/>
<path d="M21.8904 18.3641V42.1538L21.8616 42.3714H19.4477C17.6413 42.3714 16.1777 40.9079 16.1777 39.1014V21.6327C16.1777 19.8272 17.6413 18.3641 19.4477 18.3641H21.8904Z" fill="#F29500"/>
<path d="M43.2386 2.91524V10.7698C43.2386 12.379 41.9335 13.685 40.3233 13.685H10.3044C8.69376 13.685 7.38916 12.379 7.38916 10.7698V2.91524C7.38916 1.81546 7.99747 0.858536 8.89763 0.361862C9.31483 0.130554 9.79401 0 10.3044 0H40.3233C41.9335 0 43.2386 1.30507 43.2386 2.91524Z" fill="#6990D7"/>
<path d="M43.2389 2.91524V9.04892C42.8212 9.28023 42.3425 9.41078 41.8321 9.41078H11.8132C10.203 9.41078 8.89795 8.10477 8.89795 6.49554V0.361862C9.31515 0.130554 9.79433 0 10.3047 0H40.3237C41.9338 0 43.2389 1.30507 43.2389 2.91524Z" fill="#91AEE2"/>
<path d="M49.8028 21.8319H25.2889C24.7681 21.8319 24.3462 22.2538 24.3462 22.7746C24.3462 23.2954 24.7681 23.7174 25.2889 23.7174H49.8028C50.3232 23.7174 50.7456 23.2954 50.7456 22.7746C50.7456 22.2538 50.3236 21.8319 49.8028 21.8319Z" fill="#F29500"/>
<path d="M49.8028 26.8937H25.2889C24.7681 26.8937 24.3462 27.3157 24.3462 27.8365C24.3462 28.3573 24.7681 28.7797 25.2889 28.7797H49.8028C50.3232 28.7797 50.7456 28.3573 50.7456 27.8365C50.7456 27.3157 50.3236 26.8937 49.8028 26.8937Z" fill="#F29500"/>
<path d="M49.8028 31.9555H25.2889C24.7681 31.9555 24.3462 32.3774 24.3462 32.8982C24.3462 33.419 24.7681 33.8414 25.2889 33.8414H49.8028C50.3232 33.8414 50.7456 33.419 50.7456 32.8982C50.7456 32.3774 50.3236 31.9555 49.8028 31.9555Z" fill="#F29500"/>
<path d="M49.8028 37.0173H25.2889C24.7681 37.0173 24.3462 37.4393 24.3462 37.9601C24.3462 38.4809 24.7681 38.9033 25.2889 38.9033H49.8028C50.3232 38.9033 50.7456 38.4809 50.7456 37.9601C50.7456 37.4393 50.3236 37.0173 49.8028 37.0173Z" fill="#F29500"/>
<path d="M14.0502 30.4002C14.0502 29.8789 13.6278 29.457 13.107 29.457H4.19807C2.92328 29.457 1.88547 28.4197 1.88547 27.1449V10.2689C1.88547 8.99359 2.92328 7.95625 4.19807 7.95625C4.71887 7.95625 5.14081 7.53432 5.14081 7.01352C5.14081 6.49272 4.71887 6.07031 4.19807 6.07031C1.8831 6.07031 0 7.95389 0 10.2689V27.1449C0 29.4594 1.8831 31.3429 4.19807 31.3429H13.1074C13.6278 31.3429 14.0502 30.9205 14.0502 30.4002Z" fill="#919196"/>
<path d="M12.5931 10.1411H38.0351C38.5559 10.1411 38.9778 9.71866 38.9778 9.19786C38.9778 8.67706 38.5559 8.25513 38.0351 8.25513H12.5931C12.0723 8.25513 11.6499 8.67706 11.6499 9.19786C11.6499 9.71866 12.0723 10.1411 12.5931 10.1411Z" fill="#274C91"/>
<path d="M12.5931 5.42941H38.0351C38.5559 5.42941 38.9778 5.00748 38.9778 4.48668C38.9778 3.96588 38.5559 3.54395 38.0351 3.54395H12.5931C12.0723 3.54395 11.6499 3.96588 11.6499 4.48668C11.6499 5.00748 12.0723 5.42941 12.5931 5.42941Z" fill="#274C91"/>
<path d="M36.3217 55.7887H5.35387C4.83307 55.7887 4.41113 56.2106 4.41113 56.7314C4.41113 57.2522 4.83307 57.6746 5.35387 57.6746H36.3212C36.842 57.6746 37.264 57.2522 37.264 56.7314C37.264 56.2106 36.842 55.7887 36.3217 55.7887Z" fill="#169B62"/>
<path d="M36.3217 51.0774H5.35387C4.83307 51.0774 4.41113 51.4993 4.41113 52.0201C4.41113 52.5409 4.83307 52.9629 5.35387 52.9629H36.3212C36.842 52.9629 37.264 52.5409 37.264 52.0201C37.264 51.4993 36.842 51.0774 36.3217 51.0774Z" fill="#169B62"/>
<path d="M57.9737 27.8615C57.4529 27.8615 57.0309 28.2834 57.0309 28.8042C57.0309 29.325 57.4529 29.7474 57.9737 29.7474C59.1543 29.7474 60.1146 30.7076 60.1146 31.8878V51.2921C60.1146 52.4723 59.1539 53.4326 57.9737 53.4326H53.6048C53.084 53.4326 52.6621 53.8545 52.6621 54.3753C52.6621 54.8961 53.084 55.318 53.6048 55.318H57.9737C60.194 55.318 62 53.512 62 51.2921V31.8878C62 29.6679 60.194 27.8615 57.9737 27.8615Z" fill="#919196"/>
<path d="M46.0359 49.7383C45.6041 49.4474 45.018 49.5618 44.7271 49.9937L41.2688 55.1288L40.1236 53.4283C39.8327 52.996 39.2466 52.882 38.8148 53.1729C38.3829 53.4638 38.2684 54.0499 38.5593 54.4813L40.4869 57.3435C40.6619 57.6037 40.9552 57.7598 41.2688 57.7598C41.5824 57.7598 41.8757 57.6037 42.0507 57.3435L46.2914 51.0471C46.5818 50.6153 46.4678 50.0292 46.0359 49.7383Z" fill="#169B62"/>
</svg>
