<svg width="61" height="62" viewBox="0 0 61 62" fill="none" xmlns="http://www.w3.org/2000/svg">
<path fill-rule="evenodd" clip-rule="evenodd" d="M14.5261 17.4737H2.94801C1.32225 17.4737 0 16.1509 0 14.5257V2.94801C0 1.32225 1.32224 0 2.94801 0H14.5261C16.1519 0 17.4741 1.32282 17.4741 2.94801V14.5263C17.4741 16.1509 16.1519 17.4737 14.5261 17.4737Z" fill="url(#paint0_linear_2218_1875)"/>
<path fill-rule="evenodd" clip-rule="evenodd" d="M57.9408 14.0311H26.365C24.6783 14.0311 23.3066 12.6589 23.3066 10.9722V6.50232C23.3066 4.81497 24.6789 3.44342 26.365 3.44342L57.9414 3.44356C59.6282 3.44356 60.9997 4.81568 60.9997 6.50246V10.9724C60.9997 12.6586 59.627 14.0311 57.9408 14.0311Z" fill="url(#paint1_linear_2218_1875)"/>
<path fill-rule="evenodd" clip-rule="evenodd" d="M14.5261 39.7042H2.94801C1.32225 39.7042 0 38.3814 0 36.7559V25.1785C0 23.5527 1.32224 22.2305 2.94801 22.2305H14.5261C16.1519 22.2305 17.4741 23.5533 17.4741 25.1785V36.7556C17.4741 38.3814 16.1519 39.7042 14.5261 39.7042Z" fill="url(#paint2_linear_2218_1875)"/>
<path fill-rule="evenodd" clip-rule="evenodd" d="M57.9408 36.2614H26.365C24.6783 36.2614 23.3066 34.8882 23.3066 33.203V28.7329C23.3066 27.0451 24.6789 25.6734 26.365 25.6734L57.9413 25.674C59.6279 25.674 60.9996 27.0461 60.9996 28.7329V33.203C60.9997 34.8892 59.627 36.2614 57.9408 36.2614Z" fill="url(#paint3_linear_2218_1875)"/>
<path fill-rule="evenodd" clip-rule="evenodd" d="M14.5261 61.9347H2.94801C1.32225 61.9347 0 60.6118 0 58.9862V47.4089C0 45.7832 1.32224 44.4609 2.94801 44.4609H14.5261C16.1519 44.4609 17.4741 45.7832 17.4741 47.4089V58.9872C17.4741 60.6118 16.1519 61.9347 14.5261 61.9347Z" fill="url(#paint4_linear_2218_1875)"/>
<path fill-rule="evenodd" clip-rule="evenodd" d="M57.9408 58.4924H26.365C24.6783 58.4924 23.3066 57.1196 23.3066 55.4335V50.9635C23.3066 49.2768 24.6789 47.9053 26.365 47.9053H57.9414C59.6282 47.9053 60.9997 49.278 60.9997 50.9635V55.4335C60.9997 57.1201 59.627 58.4924 57.9408 58.4924Z" fill="url(#paint5_linear_2218_1875)"/>
<defs>
<linearGradient id="paint0_linear_2218_1875" x1="-0.000998151" y1="8.74198" x2="17.4576" y2="8.74198" gradientUnits="userSpaceOnUse">
<stop stop-color="#E9AB00"/>
<stop offset="1" stop-color="#FFD314"/>
</linearGradient>
<linearGradient id="paint1_linear_2218_1875" x1="23.301" y1="8.74201" x2="61.0129" y2="8.74201" gradientUnits="userSpaceOnUse">
<stop stop-color="#07487D"/>
<stop offset="1" stop-color="#2F70A5"/>
</linearGradient>
<linearGradient id="paint2_linear_2218_1875" x1="-0.000998151" y1="30.9553" x2="17.4576" y2="30.9553" gradientUnits="userSpaceOnUse">
<stop stop-color="#E7381A"/>
<stop offset="1" stop-color="#FF6042"/>
</linearGradient>
<linearGradient id="paint3_linear_2218_1875" x1="23.301" y1="30.9554" x2="61.0129" y2="30.9554" gradientUnits="userSpaceOnUse">
<stop stop-color="#07487D"/>
<stop offset="1" stop-color="#2F70A5"/>
</linearGradient>
<linearGradient id="paint4_linear_2218_1875" x1="-0.000998151" y1="53.205" x2="17.4576" y2="53.205" gradientUnits="userSpaceOnUse">
<stop stop-color="#00C3CB"/>
<stop offset="1" stop-color="#14EBF3"/>
</linearGradient>
<linearGradient id="paint5_linear_2218_1875" x1="23.301" y1="53.2051" x2="61.0129" y2="53.2051" gradientUnits="userSpaceOnUse">
<stop stop-color="#07487D"/>
<stop offset="1" stop-color="#2F70A5"/>
</linearGradient>
</defs>
</svg>
