<svg width="61" height="62" viewBox="0 0 61 62" fill="none" xmlns="http://www.w3.org/2000/svg">
<path fill-rule="evenodd" clip-rule="evenodd" d="M14.7615 44.0425L10.9595 41.8329L10.922 46.9477C10.922 47.316 10.5571 47.8445 10.1752 47.8445C10.0252 47.8445 9.87512 47.7934 9.72508 47.7457L6.38336 45.7986C6.08329 45.6486 5.93326 45.3519 5.93326 45.0518V38.9242L1.74588 36.5134V51.6841L14.7615 59.1962V44.0425ZM35.013 21.3086V16.1971L31.3201 18.3283V33.5093L44.3391 25.9972V10.8504L40.1006 13.2714V19.3649C40.1006 19.9889 39.5107 20.1969 39.0538 20.4629L36.3634 21.9974C35.753 22.3486 35.013 22.0076 35.013 21.3086ZM36.7589 15.2253V19.815L38.4025 18.8671V14.25L36.7589 15.2253ZM34.2628 14.6797L21.7791 6.89826L17.4622 9.3875L23.4909 12.8315L30.4744 16.8723L34.2628 14.6797ZM29.9766 0.112527C30.2255 -0.0375091 30.5733 -0.0375091 30.8734 0.112527L45.6861 8.64073C45.935 8.79076 46.1362 9.09084 46.1362 9.39091V26.0279L60.5499 34.3276C60.7988 34.4777 61 34.7777 61 35.0778V52.1854C61 52.482 60.85 52.7821 60.5499 52.9321L45.6861 61.5115C45.4235 61.6513 45.103 61.6308 44.837 61.5115L30.4574 53.2288L16.1084 61.5115C15.8493 61.6513 15.4776 61.6308 15.2116 61.5115L0.446699 52.9321C0.197775 52.7821 0 52.482 0 52.1854V35.0778C0 34.7777 0.150036 34.4777 0.446699 34.3276L14.7138 26.1166V9.43865C14.7138 9.13858 14.8638 8.84191 15.1605 8.69188C20.098 5.83096 25.0356 2.97345 29.9766 0.112527ZM26.8054 3.99642L39.2822 11.7744L43.3946 9.39091L30.4233 1.90955L26.8054 3.99642ZM23.4739 5.91962L35.9098 13.6806L37.5057 12.7804L25.0492 5.00917L23.4739 5.91962ZM29.5265 33.4956V18.3556L22.5941 14.3285L16.5074 10.8504V25.9972L29.5265 33.4956ZM49.8769 46.9955V41.9556L46.1839 44.1005V59.1962L59.203 51.6841V36.5952L55.019 38.9856L55.0633 45.0007C55.0633 45.6451 54.4427 45.8429 53.9653 46.0987L51.2238 47.6945C50.6611 48.0696 49.8769 47.6706 49.8769 46.9955ZM50.7634 39.3607L52.3695 38.4195L39.9301 30.6551L38.3172 31.5929L50.7634 39.3607ZM51.6227 40.9429V45.4508L53.2663 44.5028V39.9847L51.6227 40.9429ZM49.1267 40.3666L36.6259 32.5749L32.3431 35.0608L45.3383 42.5592L49.1267 40.3666ZM41.7067 29.6254L54.2279 37.4272L58.2993 35.1017L45.2871 27.5453L41.7067 29.6254ZM44.3903 59.1962V44.0425L31.4224 36.5441V51.7148L44.3903 59.1962ZM2.71429 35.0608L6.86075 37.4511L19.3172 29.6901L15.6276 27.5624L2.71429 35.0608ZM24.3468 32.5886L11.8904 40.353L15.7095 42.5592L28.674 35.1017L24.3468 32.5886ZM29.5776 36.5952L16.5586 44.1005V59.1962L29.5776 51.6841V36.5952ZM22.6282 31.5929L21.046 30.6858L8.59981 38.4536L10.1752 39.3641L22.6282 31.5929ZM9.32612 40.919L7.67913 39.9642V44.554L9.32612 45.5019V40.919Z" fill="#4D4D4D"/>
<path fill-rule="evenodd" clip-rule="evenodd" d="M38.3174 31.5929L50.7636 39.3607L52.3696 38.4195L39.9303 30.6552L38.3174 31.5929Z" fill="#FF700D"/>
<path fill-rule="evenodd" clip-rule="evenodd" d="M51.6226 40.9429V45.4508L53.2661 44.5029V39.9847L51.6226 40.9429Z" fill="#FF700D"/>
<path fill-rule="evenodd" clip-rule="evenodd" d="M45.338 42.5592L49.1264 40.3666L36.6256 32.575L32.3428 35.0608L45.338 42.5592Z" fill="#F3A766"/>
<path fill-rule="evenodd" clip-rule="evenodd" d="M41.7065 29.6255L54.2278 37.4273L58.2992 35.1018L45.287 27.5454L41.7065 29.6255Z" fill="#F3A766"/>
<path fill-rule="evenodd" clip-rule="evenodd" d="M38.4024 18.867V14.25L36.7588 15.2252V19.815L38.4024 18.867Z" fill="#FF700D"/>
<path fill-rule="evenodd" clip-rule="evenodd" d="M39.054 20.4629L36.3636 21.9974C35.7532 22.3486 35.0133 22.0076 35.0133 21.3086V16.1971L31.3203 18.3283V33.5092L44.3394 25.9972V10.8503L40.1008 13.2714V19.3649C40.1008 19.9889 39.5109 20.1969 39.054 20.4629Z" fill="#F3A766"/>
<path fill-rule="evenodd" clip-rule="evenodd" d="M23.4736 5.9196L35.9096 13.6806L37.5054 12.7804L25.049 5.00916L23.4736 5.9196Z" fill="#FF700D"/>
<path fill-rule="evenodd" clip-rule="evenodd" d="M26.8057 3.99641L39.2825 11.7744L43.3949 9.3909L30.4236 1.90955L26.8057 3.99641Z" fill="#F3A766"/>
<path fill-rule="evenodd" clip-rule="evenodd" d="M34.2631 14.6796L21.7794 6.89819L17.4624 9.38743L23.4911 12.8314L30.4746 16.8722L34.2631 14.6796Z" fill="#F3A766"/>
<path fill-rule="evenodd" clip-rule="evenodd" d="M29.5264 18.3556L22.594 14.3285L16.5073 10.8503V25.9972L29.5264 33.4956V18.3556Z" fill="#F3A766"/>
<path fill-rule="evenodd" clip-rule="evenodd" d="M24.3466 32.5886L11.8901 40.353L15.7092 42.5592L28.6737 35.1017L24.3466 32.5886Z" fill="#F3A766"/>
<path fill-rule="evenodd" clip-rule="evenodd" d="M10.175 39.364L22.628 31.5928L21.0458 30.6858L8.59961 38.4536L10.175 39.364Z" fill="#FF700D"/>
<path fill-rule="evenodd" clip-rule="evenodd" d="M6.86081 37.4511L19.3172 29.6902L15.6277 27.5624L2.71436 35.0608L6.86081 37.4511Z" fill="#F3A766"/>
<path fill-rule="evenodd" clip-rule="evenodd" d="M5.93298 45.0519V38.9242L1.74561 36.5134V51.6841L14.7613 59.1962V44.0425L10.9592 41.8329L10.9217 46.9478C10.9217 47.316 10.5568 47.8446 10.1749 47.8446C10.0249 47.8446 9.87485 47.7934 9.72481 47.7457L6.38309 45.7986C6.08302 45.6486 5.93298 45.3519 5.93298 45.0519Z" fill="#F3A766"/>
<path fill-rule="evenodd" clip-rule="evenodd" d="M7.67871 39.9642V44.554L9.3257 45.5019V40.919L7.67871 39.9642Z" fill="#FF700D"/>
<path fill-rule="evenodd" clip-rule="evenodd" d="M29.5777 36.5952L16.5586 44.1004V59.1961L29.5777 51.6841V36.5952Z" fill="#F3A766"/>
<path fill-rule="evenodd" clip-rule="evenodd" d="M31.4224 36.5441V51.7148L44.3903 59.1961V44.0425L31.4224 36.5441Z" fill="#F3A766"/>
<path fill-rule="evenodd" clip-rule="evenodd" d="M46.1841 44.1004V59.1961L59.2031 51.6841V36.5952L55.0192 38.9856L55.0635 45.0007C55.0635 45.6451 54.4429 45.8429 53.9655 46.0987L51.2239 47.6945C50.6613 48.0696 49.877 47.6706 49.877 46.9955V41.9556L46.1841 44.1004Z" fill="#F3A766"/>
</svg>
