<svg width="30" height="31" viewBox="0 0 30 31" fill="none" xmlns="http://www.w3.org/2000/svg">
<path d="M15 0.531494C6.7166 0.531494 0 7.24677 0 15.5308C0 23.8149 6.71594 30.5302 15 30.5302C23.2847 30.5302 30 23.8149 30 15.5308C30 7.24677 23.2847 0.531494 15 0.531494ZM15 5.01647C17.7409 5.01647 19.962 7.23821 19.962 9.97782C19.962 12.7181 17.7409 14.9392 15 14.9392C12.2604 14.9392 10.0393 12.7181 10.0393 9.97782C10.0393 7.23821 12.2604 5.01647 15 5.01647ZM14.9967 26.6085C12.263 26.6085 9.75929 25.613 7.82812 23.9651C7.35768 23.5639 7.08623 22.9755 7.08623 22.3581C7.08623 19.5796 9.33497 17.3559 12.1141 17.3559H17.8872C20.667 17.3559 22.9072 19.5796 22.9072 22.3581C22.9072 22.9761 22.637 23.5632 22.1659 23.9645C20.2354 25.613 17.731 26.6085 14.9967 26.6085Z" fill="white"/>
</svg>
