<svg width="107" height="25" viewBox="0 0 107 25" fill="none" xmlns="http://www.w3.org/2000/svg">
<rect width="106.533" height="24.5845" rx="4.4126" fill="#00A611"/>
<path d="M44.3796 13.426C44.3796 14.0006 44.16 14.4808 43.7209 14.8665C43.2982 15.24 42.7955 15.4267 42.2127 15.4267C41.6094 15.4267 41.1128 15.2215 40.723 14.8111C40.3372 14.3966 40.1443 13.8857 40.1443 13.2783C40.1443 12.6463 40.565 11.9096 41.4063 11.0683L41.0862 10.7113L41.8372 9.96023L43.8625 12.0533C44.2072 12.4103 44.3796 12.8679 44.3796 13.426ZM43.2777 13.3583C43.2777 13.1326 43.2182 12.9582 43.0992 12.8351L42.2065 11.8932C41.5458 12.5211 41.2154 13.0198 41.2154 13.3891C41.2154 13.6723 41.3221 13.9062 41.5355 14.0909C41.749 14.2715 42.0014 14.3618 42.2927 14.3618C42.5841 14.3618 42.8201 14.2674 43.0007 14.0786C43.1853 13.8898 43.2777 13.6497 43.2777 13.3583ZM50.5233 15.3036C49.9651 15.3036 49.5691 15.1292 49.3352 14.7804C49.3352 15.7079 49.1053 16.4774 48.6457 17.0889C48.1409 17.766 47.4371 18.1046 46.5342 18.1046H45.0999L44.9213 16.9965H46.448C46.9241 16.9965 47.3324 16.8467 47.6731 16.5471C48.0301 16.2352 48.2086 15.8433 48.2086 15.3713V11.8255H49.3167V13.4199C49.3167 13.9206 49.7189 14.1791 50.5233 14.1955V15.3036ZM55.1095 15.3036C54.658 15.3077 54.3195 15.2893 54.0937 15.2482C53.9173 15.1784 53.7305 15.0533 53.5335 14.8727C53.1806 15.16 52.8297 15.3036 52.4809 15.3036H50.0924V14.1955H52.1423C52.4501 14.1955 52.6635 14.134 52.7825 14.0109C52.9015 13.8836 52.961 13.662 52.961 13.346V11.8255H54.0691V13.346C54.0691 13.7113 54.1553 13.9514 54.3277 14.0663C54.459 14.1525 54.7196 14.1955 55.1095 14.1955V15.3036ZM54.1245 17.4151C54.1245 17.6039 54.0568 17.7599 53.9214 17.883C53.7859 18.0061 53.6238 18.0677 53.4351 18.0677C53.2257 18.0677 53.0472 18.0102 52.8995 17.8953C52.7353 17.7722 52.6532 17.6121 52.6532 17.4151C52.6532 17.0088 52.8892 16.8057 53.3612 16.8057C53.8701 16.8057 54.1245 17.0088 54.1245 17.4151ZM52.0007 17.4151C52.0007 17.6039 51.933 17.7599 51.7976 17.883C51.6621 18.0061 51.5 18.0677 51.3112 18.0677C51.1019 18.0677 50.9234 18.0102 50.7757 17.8953C50.6115 17.7722 50.5294 17.6121 50.5294 17.4151C50.5294 17.0088 50.7654 16.8057 51.2374 16.8057C51.7463 16.8057 52.0007 17.0088 52.0007 17.4151ZM58.8892 8.89525C58.8892 9.10455 58.8133 9.28513 58.6615 9.43697C58.5096 9.58882 58.3291 9.66474 58.1197 9.66474C57.5616 9.66474 57.2825 9.40825 57.2825 8.89525C57.2825 8.45202 57.5513 8.2304 58.089 8.2304C58.6225 8.2304 58.8892 8.45202 58.8892 8.89525ZM61.0254 13.1613L58.4891 14.608C57.894 14.9486 57.2702 15.16 56.6177 15.2421C56.2935 15.2831 55.6307 15.3036 54.6293 15.3036V14.1955C56.0616 14.1955 57.0732 14.056 57.6642 13.7769C57.7094 13.7564 57.9761 13.6169 58.4645 13.3583C58.7682 13.1942 59.2196 12.9418 59.8188 12.6011C59.6752 12.2975 59.4371 12.1046 59.1047 12.0225C58.9611 11.9897 58.6348 11.9732 58.1259 11.9732L56.1868 11.9609L56.0329 10.8775H58.7661C60.2723 10.8775 61.0254 11.6388 61.0254 13.1613ZM64.879 8.10728C64.879 8.32479 64.8051 8.50947 64.6574 8.66132C64.5097 8.80906 64.327 8.88294 64.1095 8.88294C63.5514 8.88294 63.2723 8.62438 63.2723 8.10728C63.2723 7.67226 63.5411 7.45475 64.0787 7.45475C64.6123 7.45475 64.879 7.67226 64.879 8.10728ZM67.0398 13.82C67.0398 14.2838 66.8818 14.6511 66.5657 14.9219C66.2662 15.1764 65.8804 15.3036 65.4084 15.3036H61.9734L61.8195 14.1955H65.3407C65.747 14.1955 65.9502 14.0519 65.9502 13.7646C65.9502 13.6169 65.8927 13.4835 65.7778 13.3645L63.2846 10.7113L64.0356 9.96023L66.535 12.6011C66.8715 12.9582 67.0398 13.3645 67.0398 13.82Z" fill="white"/>
</svg>
