<svg width="62" height="62" viewBox="0 0 62 62" fill="none" xmlns="http://www.w3.org/2000/svg">
<path d="M61.5644 35.5705C61.83 35.448 62 35.1821 62 34.8896V27.1142C62 26.8216 61.83 26.5557 61.5644 26.4332L55.7629 23.7548L53.6364 18.6142L55.8424 12.6216C55.9434 12.3472 55.8758 12.0391 55.669 11.8323L50.1716 6.33136C49.9647 6.12435 49.6563 6.05659 49.3817 6.15772L43.3858 8.3671L38.2454 6.23723L35.5706 0.436025C35.4481 0.17026 35.1822 0 34.8895 0H27.1104C26.8179 0 26.552 0.17001 26.4295 0.43565L23.751 6.23723L18.6139 8.36697L12.6181 6.1576C12.3437 6.05659 12.0353 6.1241 11.8284 6.33098L6.32748 11.8319C6.1206 12.0388 6.05284 12.3472 6.1541 12.6217L8.36335 18.6139L6.23348 23.7546L0.435525 26.433C0.17001 26.5556 0 26.8214 0 27.1139V34.8893C0 35.1817 0.17001 35.4476 0.435525 35.5703L6.23348 38.2487L8.36347 43.3893L7.00877 47.0658L1.63734 52.4383C0.581533 53.492 0.000125058 54.8995 0.000125058 56.4014C0.000125058 57.9034 0.581283 59.3112 1.63684 60.3668C2.72978 61.4596 4.16524 62.006 5.60069 62.006C7.03627 62.006 8.47185 61.4595 9.56467 60.3666L14.9422 54.988L18.6138 53.6364L23.751 55.7663L26.4295 61.5678C26.552 61.8335 26.8179 62.0035 27.1104 62.0035H34.8895C35.1821 62.0035 35.448 61.8332 35.5706 61.5675L38.2453 55.7664L42.457 54.0237C43.3386 58.5642 47.3429 62.0035 52.1372 62.0035C57.5755 62.0035 61.9998 57.5791 61.9998 52.1409C61.9998 47.3465 58.5604 43.3422 54.0199 42.4608L55.7628 38.2489L61.5642 35.5705H61.5644ZM31 45.6849C29.0055 45.6849 27.1029 45.2845 25.3676 44.5609L27.8638 42.0641C28.8835 42.3531 29.9356 42.4995 30.9981 42.4995C37.338 42.4995 42.4958 37.3417 42.4958 31.0019C42.4958 29.7766 42.3048 28.572 41.928 27.422C41.8469 27.1744 41.6431 26.9866 41.3896 26.926C41.1359 26.8653 40.8694 26.9408 40.6851 27.1249L35.6418 32.1649L29.8353 26.3585L34.8782 21.3188C35.0626 21.1346 35.1381 20.8678 35.0776 20.6142C35.0171 20.3606 34.8292 20.1566 34.5816 20.0755C33.424 19.6964 32.2183 19.5042 30.998 19.5042C24.6581 19.5042 19.5004 24.662 19.5004 31.0019C19.5004 32.0644 19.6466 33.1166 19.9358 34.1364L17.4401 36.6326C16.7171 34.8976 16.3168 32.9957 16.3168 31.0019C16.3168 22.9055 22.9035 16.3188 30.9999 16.3188C39.0962 16.3188 45.683 22.9055 45.683 31.0019C45.683 39.0982 39.0962 45.6849 30.9999 45.6849H31Z" fill="#FFC250"/>
<path d="M41.9279 27.4221C41.8467 27.1745 41.643 26.9867 41.3895 26.9261C41.1358 26.8653 40.8693 26.9408 40.6849 27.125L35.6416 32.165L29.8352 26.3585L34.8781 21.3189C35.0625 21.1346 35.138 20.8678 35.0775 20.6142C35.017 20.3607 34.8291 20.1567 34.5815 20.0756C33.4239 19.6964 32.2182 19.5043 30.9979 19.5043C24.658 19.5043 19.5002 24.6621 19.5002 31.0019C19.5002 32.0645 19.6465 33.1167 19.9356 34.1365L1.63722 52.4386C0.581408 53.4923 0 54.8998 0 56.4017C0 57.9037 0.581158 59.3115 1.63672 60.3671C2.72965 61.4599 4.16511 62.0063 5.60057 62.0063C7.03615 62.0063 8.47173 61.4598 9.56454 60.367L27.8637 42.0642C28.8834 42.3532 29.9354 42.4996 30.998 42.4996C37.3379 42.4996 42.4956 37.3418 42.4956 31.0019C42.4956 29.7766 42.3046 28.572 41.9279 27.4221Z" fill="#4A80AA"/>
<path d="M41.9282 27.4221C41.8471 27.1745 41.6434 26.9867 41.3898 26.9261C41.274 26.8984 41.1557 26.9004 41.0434 26.9269C41.1783 27.6362 41.248 28.3596 41.248 29.0909C41.248 35.4307 36.0902 40.5885 29.7503 40.5885C28.6877 40.5885 27.6356 40.4423 26.616 40.1531L8.31685 58.4559C7.22391 59.5487 5.78833 60.0951 4.35288 60.0952C2.91742 60.0952 1.48184 59.5488 0.389028 58.456C0.387402 58.4544 0.385902 58.4526 0.384277 58.451C0.661543 59.1617 1.08332 59.8132 1.6371 60.3671C2.73003 61.4599 4.16549 62.0063 5.60095 62.0063C7.03653 62.0063 8.47211 61.4598 9.56492 60.367L27.8641 42.0642C28.8838 42.3532 29.9358 42.4996 30.9984 42.4996C37.3382 42.4996 42.496 37.3418 42.496 31.002C42.496 29.7766 42.305 28.5721 41.9282 27.4221Z" fill="#407093"/>
<path d="M28.2612 24.7842L29.8409 26.3639L34.8786 21.3189C35.063 21.1346 35.1385 20.8679 35.078 20.6142C35.0175 20.3607 34.8296 20.1567 34.582 20.0756C34.1609 19.9377 33.7333 19.8252 33.3011 19.7371L28.2612 24.7843V24.7842Z" fill="#407093"/>
<path d="M30.9982 13.3187C21.2476 13.3187 13.3149 21.2514 13.3149 31.002C13.3149 33.743 13.9565 36.4607 15.1738 38.8995L17.4368 36.6362C16.7004 34.8598 16.3151 32.9383 16.3151 31.002C16.3151 22.9056 22.9019 16.3189 30.9982 16.3189C39.0945 16.3189 45.6849 22.9056 45.6849 31.002C45.6849 39.0983 39.0964 45.6851 30.9982 45.6851C29.0618 45.6851 27.1402 45.3002 25.364 44.5645L23.1009 46.8281C25.5395 48.0443 28.257 48.6852 30.9982 48.6852C40.7507 48.6852 48.6851 40.7525 48.6851 31.002C48.6851 21.2514 40.7507 13.3187 30.9982 13.3187Z" fill="#F2B149"/>
<path d="M52.137 62.0036C57.5839 62.0036 61.9995 57.5879 61.9995 52.141C61.9995 46.6941 57.5839 42.2784 52.137 42.2784C46.69 42.2784 42.2744 46.6941 42.2744 52.141C42.2744 57.5879 46.69 62.0036 52.137 62.0036Z" fill="#80B4FB"/>
<path d="M52.1368 42.2784C51.8629 42.2784 51.5925 42.2926 51.3242 42.3146C56.3835 42.7295 60.3742 46.9766 60.3742 52.141C60.3742 57.3054 56.3834 61.5525 51.3242 61.9674C51.5925 61.9894 51.8629 62.0036 52.1368 62.0036C57.5751 62.0036 61.9993 57.5792 61.9993 52.141C61.9993 46.7028 57.5749 42.2784 52.1368 42.2784Z" fill="#61A2F9"/>
<path d="M50.7024 56.3916C50.3181 56.3916 49.9342 56.2449 49.6416 55.9522L46.7748 53.0854C46.189 52.4995 46.189 51.5499 46.7748 50.9639C47.3607 50.378 48.3104 50.378 48.8963 50.9639L50.724 52.7917L55.4009 48.3044C55.9988 47.731 56.9482 47.7505 57.5219 48.3483C58.0954 48.9461 58.0758 49.8958 57.478 50.4693L51.7408 55.9739C51.4503 56.2525 51.0762 56.3915 50.7023 56.3915L50.7024 56.3916Z" fill="#E4F6FF"/>
<path d="M32.8209 0.43615L35.4957 6.23735L41.9306 8.9035L43.3862 8.3671L38.2457 6.23723L35.571 0.436025C35.4485 0.17026 35.1826 0 34.8898 0H32.1396C32.4323 0 32.6982 0.17026 32.8208 0.436025L32.8209 0.43615Z" fill="#F2B149"/>
<path d="M61.5649 26.4333L55.7635 23.7549L53.637 18.6143L55.843 12.6217C55.944 12.3473 55.8763 12.0392 55.6696 11.8324L50.1721 6.33145C49.9653 6.12444 49.6569 6.05669 49.3822 6.15782L47.8228 6.73248L52.9194 11.8324C53.1261 12.0392 53.1937 12.3473 53.0928 12.6217L50.8868 18.6143L53.0133 23.7549L58.8147 26.4333C59.0804 26.5558 59.2504 26.8217 59.2504 27.1143V34.8897C59.2504 35.1822 59.0804 35.4481 58.8147 35.5706L53.0133 38.249L51.3311 42.3142C51.5975 42.2926 51.866 42.2785 52.1377 42.2785C52.7817 42.2785 53.4107 42.3425 54.0205 42.4609L55.7633 38.249L61.5648 35.5706C61.8304 35.4481 62.0004 35.1822 62.0004 34.8897V27.1143C62.0004 26.8217 61.8304 26.5558 61.5648 26.4333H61.5649Z" fill="#F2B149"/>
<path d="M41.4679 53.2952L35.4955 55.7666L32.8208 61.5676C32.6983 61.8334 32.4324 62.0037 32.1396 62.0037H34.8898C35.1824 62.0037 35.4483 61.8334 35.571 61.5676L38.2456 55.7666L42.4574 54.0238C42.4211 53.8374 42.3909 53.6489 42.3656 53.4589L41.4679 53.2953V53.2952Z" fill="#F2B149"/>
</svg>
