<svg width="56" height="62" viewBox="0 0 56 62" fill="none" xmlns="http://www.w3.org/2000/svg">
<path d="M56 24.0634L37.3173 42.7269L28 52.0634L18.6827 42.7461L0 24.0634L26.4551 0.582934C27.3379 -0.194311 28.6621 -0.194311 29.5353 0.582934L56 24.0634Z" fill="#F15A2F"/>
<path d="M48.429 44.9723H7.57089C7.04313 44.9723 6.61133 44.5405 6.61133 44.0127V9.61245C6.61133 9.0847 7.04313 8.65289 7.57089 8.65289H48.429C48.9568 8.65289 49.3886 9.0847 49.3886 9.61245V44.0031C49.3886 44.5405 48.9568 44.9723 48.429 44.9723Z" fill="#F1F4F8"/>
<path d="M55.3285 60.7379C54.8871 61.1601 54.3305 61.4096 53.678 61.4096H2.32232C1.66982 61.4096 1.11327 61.1505 0.671875 60.7379L18.6828 42.7461V42.7269L26.3497 35.06C27.2517 34.158 28.7199 34.158 29.6506 35.06L37.3175 42.7269L55.3285 60.7379Z" fill="#FBD306"/>
<path d="M18.6827 42.7461L0.671693 60.7379C0.249486 60.3156 0 59.7111 0 59.0874V24.0634L18.6827 42.7461Z" fill="#F7B519"/>
<path d="M56 24.0634V59.0874C56 59.7111 55.741 60.3156 55.3284 60.7379L37.3174 42.7269L56 24.0634Z" fill="#F7B519"/>
<path d="M20.429 25.8386C20.429 26.376 20.3331 26.8462 20.1316 27.2588C19.9301 27.6618 19.6614 28.0072 19.3159 28.2759C18.9705 28.5446 18.5675 28.7557 18.1165 28.89C17.6559 29.0244 17.1665 29.0915 16.6484 29.0915C16.2933 29.0915 15.9671 29.0628 15.66 29.0052C15.353 28.9476 15.0939 28.8804 14.854 28.7941C14.6237 28.7173 14.4318 28.631 14.2687 28.535C14.1151 28.4486 14 28.3623 13.9328 28.2951C13.8656 28.2279 13.8177 28.132 13.7889 27.9976C13.7601 27.8729 13.7505 27.681 13.7505 27.4411C13.7505 27.278 13.7505 27.1436 13.7697 27.0285C13.7793 26.9229 13.7985 26.827 13.8177 26.7598C13.8368 26.6926 13.8752 26.6447 13.9136 26.6159C13.952 26.5871 14 26.5775 14.048 26.5775C14.1247 26.5775 14.2207 26.6159 14.3646 26.7118C14.4989 26.7982 14.6717 26.8941 14.8828 26.9997C15.0939 27.1053 15.3434 27.2012 15.6408 27.2876C15.9383 27.3739 16.2741 27.4219 16.658 27.4219C16.9074 27.4219 17.1377 27.3931 17.3392 27.3355C17.5408 27.278 17.7135 27.1916 17.8478 27.0765C17.9917 26.9709 18.0973 26.827 18.1645 26.6639C18.2412 26.5007 18.2796 26.3184 18.2796 26.1169C18.2796 25.8866 18.2124 25.6851 18.0877 25.522C17.963 25.3588 17.7998 25.2053 17.5887 25.0806C17.3872 24.9558 17.1569 24.8311 16.8979 24.7159C16.6388 24.6008 16.3701 24.4856 16.1014 24.3513C15.8231 24.2266 15.5641 24.0826 15.305 23.9195C15.0459 23.7564 14.8156 23.5645 14.6141 23.3438C14.4126 23.1231 14.2495 22.8544 14.1151 22.5473C13.9904 22.2403 13.9232 21.8756 13.9232 21.4438C13.9232 20.9545 14.0096 20.5227 14.1919 20.1484C14.3742 19.7742 14.6237 19.4671 14.9307 19.2273C15.2378 18.9778 15.6024 18.7954 16.0246 18.6803C16.4469 18.5556 16.8883 18.498 17.3584 18.498C17.5983 18.498 17.8478 18.5172 18.0877 18.5556C18.3276 18.5939 18.5579 18.6419 18.769 18.7091C18.9801 18.7763 19.1624 18.8434 19.3351 18.9202C19.4983 18.997 19.6038 19.0641 19.6614 19.1217C19.7094 19.1697 19.7477 19.2177 19.7669 19.256C19.7861 19.2944 19.8053 19.3424 19.8149 19.4C19.8245 19.4575 19.8341 19.5343 19.8437 19.6303C19.8437 19.7262 19.8533 19.8414 19.8533 19.9757C19.8533 20.1292 19.8533 20.2636 19.8437 20.3595C19.8341 20.4651 19.8245 20.5514 19.8053 20.6186C19.7861 20.6858 19.7573 20.7338 19.7286 20.7721C19.6902 20.8009 19.6518 20.8201 19.5942 20.8201C19.5366 20.8201 19.4407 20.7817 19.3159 20.705C19.1912 20.6282 19.0377 20.5514 18.8458 20.4651C18.6634 20.3787 18.4523 20.302 18.2029 20.2252C17.963 20.158 17.6943 20.1196 17.4064 20.1196C17.1761 20.1196 16.9842 20.1484 16.8115 20.206C16.6388 20.2636 16.5044 20.3403 16.3893 20.4363C16.2741 20.5323 16.1878 20.6474 16.1398 20.7913C16.0822 20.9257 16.0534 21.0792 16.0534 21.2231C16.0534 21.4534 16.111 21.6453 16.2358 21.8181C16.3605 21.9812 16.5236 22.1347 16.7347 22.2595C16.9458 22.3842 17.1761 22.509 17.4448 22.6241C17.7039 22.7392 17.9822 22.8544 18.2508 22.9887C18.5291 23.1135 18.7978 23.2574 19.0569 23.4205C19.3255 23.5837 19.5558 23.7756 19.7669 23.9963C19.9684 24.217 20.1412 24.4856 20.2659 24.7831C20.3619 25.071 20.429 25.4356 20.429 25.8386Z" fill="#3FACD7"/>
<path d="M33.9587 28.631C33.9587 28.6885 33.9396 28.7269 33.9108 28.7749C33.882 28.8133 33.834 28.8517 33.7572 28.8804C33.6805 28.9092 33.5749 28.9284 33.4502 28.9476C33.3254 28.9668 33.1623 28.9668 32.9704 28.9668C32.7785 28.9668 32.625 28.9572 32.5002 28.9476C32.3755 28.9284 32.2699 28.9092 32.2027 28.8804C32.126 28.8517 32.078 28.8229 32.0396 28.7749C32.0108 28.7365 31.9916 28.6885 31.9916 28.631V20.2924H31.9725L29.0074 28.6214C28.9882 28.6885 28.9498 28.7461 28.9019 28.7941C28.8539 28.8421 28.7867 28.8709 28.7099 28.8996C28.6332 28.9284 28.5276 28.938 28.4029 28.9476C28.2781 28.9572 28.1246 28.9572 27.9423 28.9572C27.76 28.9572 27.6064 28.9476 27.4817 28.938C27.357 28.9284 27.2514 28.8996 27.1746 28.8709C27.0883 28.8421 27.0307 28.8037 26.9827 28.7653C26.9348 28.7269 26.906 28.6693 26.8868 28.6118L24.0177 20.2828H23.9985V28.6214C23.9985 28.6789 23.9793 28.7173 23.9505 28.7653C23.9217 28.8037 23.8642 28.8421 23.7874 28.8709C23.7106 28.8996 23.6051 28.9188 23.4803 28.938C23.3556 28.9572 23.1925 28.9572 23.0006 28.9572C22.8086 28.9572 22.6551 28.9476 22.5208 28.938C22.396 28.9188 22.2905 28.8996 22.2137 28.8709C22.1369 28.8421 22.089 28.8133 22.0506 28.7653C22.0218 28.7269 22.0122 28.6789 22.0122 28.6214V19.4959C22.0122 19.2273 22.0794 19.0162 22.2233 18.8818C22.3672 18.7379 22.5592 18.6707 22.7895 18.6707H24.1616C24.4015 18.6707 24.6126 18.6899 24.7853 18.7283C24.9581 18.7667 25.1116 18.8338 25.2363 18.9298C25.3611 19.0258 25.4666 19.1409 25.553 19.2944C25.6393 19.448 25.7161 19.6303 25.7737 19.851L27.9999 25.9538H28.0287L30.322 19.8702C30.3892 19.6495 30.4659 19.4576 30.5523 19.304C30.6291 19.1505 30.725 19.0258 30.8402 18.9298C30.9457 18.8338 31.0801 18.7667 31.224 18.7283C31.3679 18.6899 31.5407 18.6707 31.7422 18.6707H33.1431C33.2871 18.6707 33.4118 18.6899 33.5078 18.7283C33.6133 18.7667 33.6997 18.8147 33.7572 18.8914C33.8244 18.9586 33.8724 19.0545 33.9108 19.1505C33.9492 19.256 33.9587 19.3712 33.9587 19.5055V28.631Z" fill="#3FACD7"/>
<path d="M42.2591 25.8386C42.2591 26.376 42.1632 26.8462 41.9616 27.2588C41.7601 27.6618 41.4915 28.0072 41.146 28.2759C40.8006 28.5446 40.3976 28.7557 39.9466 28.89C39.486 29.0244 38.9966 29.0915 38.4784 29.0915C38.1234 29.0915 37.7972 29.0628 37.4901 29.0052C37.183 28.9476 36.924 28.8804 36.6841 28.7941C36.4538 28.7173 36.2619 28.631 36.0987 28.535C35.9452 28.4486 35.8301 28.3623 35.7629 28.2951C35.6957 28.2279 35.6477 28.132 35.6189 27.9976C35.5902 27.8729 35.5806 27.681 35.5806 27.4411C35.5806 27.278 35.5806 27.1436 35.5998 27.0285C35.6094 26.9229 35.6285 26.827 35.6477 26.7598C35.6669 26.6926 35.7053 26.6447 35.7437 26.6159C35.7821 26.5871 35.8301 26.5775 35.878 26.5775C35.9548 26.5775 36.0507 26.6159 36.1851 26.7118C36.3194 26.7982 36.4921 26.8941 36.7033 26.9997C36.9144 27.1053 37.1638 27.2012 37.4613 27.2876C37.7588 27.3739 38.0946 27.4219 38.4784 27.4219C38.7279 27.4219 38.9582 27.3931 39.1597 27.3355C39.3612 27.278 39.534 27.1916 39.6683 27.0765C39.8122 26.9709 39.9178 26.827 39.985 26.6639C40.0617 26.5007 40.1001 26.3184 40.1001 26.1169C40.1001 25.8866 40.0329 25.6851 39.9082 25.522C39.7834 25.3588 39.6203 25.2053 39.4092 25.0806C39.2077 24.9558 38.9774 24.8311 38.7183 24.7159C38.4592 24.6008 38.1906 24.4856 37.9219 24.3513C37.6436 24.2266 37.3845 24.0826 37.1255 23.9195C36.8664 23.7564 36.6361 23.5645 36.4346 23.3438C36.2331 23.1231 36.0699 22.8544 35.9356 22.5473C35.8109 22.2403 35.7437 21.8756 35.7437 21.4438C35.7437 20.9545 35.83 20.5227 36.0124 20.1484C36.1947 19.7742 36.4442 19.4671 36.7512 19.2273C37.0583 18.9778 37.4229 18.7954 37.8451 18.6803C38.2673 18.5556 38.7087 18.498 39.1789 18.498C39.4188 18.498 39.6683 18.5172 39.9082 18.5556C40.1481 18.5939 40.3784 18.6419 40.5895 18.7091C40.8006 18.7763 40.9829 18.8434 41.1556 18.9202C41.3187 18.997 41.4243 19.0641 41.4819 19.1217C41.5298 19.1697 41.5682 19.2177 41.5874 19.256C41.6066 19.2944 41.6258 19.3424 41.6354 19.4C41.645 19.4575 41.6546 19.5343 41.6642 19.6303C41.6642 19.7262 41.6738 19.8414 41.6738 19.9757C41.6738 20.1292 41.6738 20.2636 41.6642 20.3595C41.6546 20.4651 41.645 20.5514 41.6258 20.6186C41.6066 20.6858 41.5778 20.7338 41.549 20.7721C41.5107 20.8009 41.4723 20.8201 41.4147 20.8201C41.3571 20.8201 41.2612 20.7817 41.1364 20.705C41.0117 20.6282 40.8582 20.5514 40.6662 20.4651C40.4839 20.3787 40.2728 20.302 40.0233 20.2252C39.7834 20.158 39.5148 20.1196 39.2269 20.1196C38.9966 20.1196 38.8047 20.1484 38.632 20.206C38.4593 20.2636 38.3249 20.3403 38.2098 20.4363C38.0946 20.5323 38.0083 20.6474 37.9603 20.7913C37.9027 20.9257 37.8739 21.0792 37.8739 21.2231C37.8739 21.4534 37.9315 21.6453 38.0562 21.8181C38.181 21.9812 38.3441 22.1347 38.5552 22.2595C38.7663 22.3842 38.9966 22.509 39.2653 22.6241C39.5244 22.7392 39.8026 22.8544 40.0713 22.9887C40.3496 23.1135 40.6183 23.2574 40.8773 23.4205C41.146 23.5837 41.3763 23.7756 41.5874 23.9963C41.7889 24.217 41.9616 24.4856 42.0864 24.7831C42.2015 25.071 42.2591 25.4356 42.2591 25.8386Z" fill="#3FACD7"/>
</svg>
