<svg width="35" height="32" viewBox="0 0 35 32" fill="none" xmlns="http://www.w3.org/2000/svg">
<g clip-path="url(#clip0_2120_640)">
<path d="M34.0763 3.04584V30.0962C34.0763 30.2901 33.9996 30.4762 33.8629 30.6138C33.7262 30.7514 33.5407 30.8294 33.3467 30.8307H1.4321C1.33557 30.8308 1.23997 30.8118 1.15076 30.775C1.06155 30.7381 0.980487 30.684 0.912196 30.6158C0.843905 30.5476 0.789729 30.4666 0.752766 30.3774C0.715803 30.2883 0.696777 30.1927 0.696777 30.0962V3.04584C0.696992 2.46107 0.929389 1.90031 1.34289 1.48681C1.75639 1.07331 2.31715 0.840913 2.90192 0.840698H31.872C32.4566 0.841128 33.0172 1.07362 33.4305 1.48709C33.8438 1.90057 34.0761 2.46121 34.0763 3.04584Z" fill="white"/>
<path d="M34.0737 3.04584V30.0962C34.0738 30.1927 34.0549 30.2883 34.018 30.3775C33.9812 30.4667 33.9271 30.5478 33.8589 30.6161C33.7907 30.6843 33.7096 30.7385 33.6205 30.7755C33.5313 30.8124 33.4357 30.8315 33.3392 30.8315H31.8613C31.9578 30.8316 32.0534 30.8127 32.1426 30.7758C32.2318 30.7389 32.3129 30.6848 32.3812 30.6166C32.4494 30.5484 32.5036 30.4674 32.5406 30.3782C32.5776 30.2891 32.5966 30.1935 32.5966 30.097V3.04584C32.5964 2.46135 32.3642 1.90083 31.9511 1.48738C31.5379 1.07393 30.9776 0.841343 30.3931 0.840698H31.871C32.4558 0.840913 33.0165 1.07331 33.43 1.48681C33.8435 1.90031 34.0759 2.46107 34.0761 3.04584H34.0737Z" fill="#D9DFE9"/>
<g filter="url(#filter0_d_2120_640)">
<path d="M34.2692 4.40784V14.3691H0.889648V4.40784C0.889648 2.43618 1.8771 0.840698 3.09479 0.840698H32.0649C33.2809 0.840698 34.2684 2.44105 34.2692 4.40784Z" fill="#7BD974"/>
</g>
<path d="M4.39003 17.3007H5.49343C5.60361 17.3042 5.71334 17.2855 5.81615 17.2457C5.91896 17.2059 6.01273 17.1459 6.09189 17.0692C6.17105 16.9925 6.234 16.9006 6.27698 16.7991C6.31996 16.6976 6.34212 16.5885 6.34212 16.4783C6.34212 16.368 6.31996 16.2589 6.27698 16.1574C6.234 16.0559 6.17105 15.9641 6.09189 15.8874C6.01273 15.8106 5.91896 15.7506 5.81615 15.7108C5.71334 15.6711 5.60361 15.6523 5.49343 15.6558H4.39166C4.28148 15.6523 4.17172 15.6711 4.06891 15.7108C3.96611 15.7506 3.87234 15.8106 3.79318 15.8874C3.71401 15.9641 3.65107 16.0559 3.60809 16.1574C3.5651 16.2589 3.54297 16.368 3.54297 16.4783C3.54297 16.5885 3.5651 16.6976 3.60809 16.7991C3.65107 16.9006 3.71401 16.9925 3.79318 17.0692C3.87234 17.1459 3.96611 17.2059 4.06891 17.2457C4.17172 17.2855 4.28148 17.3042 4.39166 17.3007H4.39003Z" fill="#C2C7D0"/>
<path d="M9.79891 17.3007H10.9007C11.0108 17.3042 11.1206 17.2855 11.2234 17.2457C11.3262 17.2059 11.42 17.1459 11.4991 17.0692C11.5783 16.9925 11.6412 16.9006 11.6842 16.7991C11.7272 16.6976 11.7494 16.5885 11.7494 16.4783C11.7494 16.368 11.7272 16.2589 11.6842 16.1574C11.6412 16.0559 11.5783 15.9641 11.4991 15.8874C11.42 15.8106 11.3262 15.7506 11.2234 15.7108C11.1206 15.6711 11.0108 15.6523 10.9007 15.6558H9.79891C9.68873 15.6523 9.57897 15.6711 9.47617 15.7108C9.37336 15.7506 9.27959 15.8106 9.20043 15.8874C9.12126 15.9641 9.05832 16.0559 9.01534 16.1574C8.97236 16.2589 8.9502 16.368 8.9502 16.4783C8.9502 16.5885 8.97236 16.6976 9.01534 16.7991C9.05832 16.9006 9.12126 16.9925 9.20043 17.0692C9.27959 17.1459 9.37336 17.2059 9.47617 17.2457C9.57897 17.2855 9.68873 17.3042 9.79891 17.3007Z" fill="#C2C7D0"/>
<path d="M15.2071 17.3007H16.3089C16.5225 17.294 16.7252 17.2044 16.8739 17.0509C17.0227 16.8974 17.1059 16.692 17.1059 16.4783C17.1059 16.2645 17.0227 16.0591 16.8739 15.9056C16.7252 15.7521 16.5225 15.6625 16.3089 15.6558H15.2071C15.0969 15.6523 14.9872 15.6711 14.8843 15.7108C14.7815 15.7506 14.6878 15.8106 14.6086 15.8874C14.5294 15.9641 14.4665 16.0559 14.4235 16.1574C14.3805 16.2589 14.3584 16.368 14.3584 16.4783C14.3584 16.5885 14.3805 16.6976 14.4235 16.7991C14.4665 16.9006 14.5294 16.9925 14.6086 17.0692C14.6878 17.1459 14.7815 17.2059 14.8843 17.2457C14.9872 17.2855 15.0969 17.3042 15.2071 17.3007Z" fill="#C2C7D0"/>
<path d="M20.6159 17.3016H21.7176C21.9313 17.2949 22.134 17.2053 22.2828 17.0518C22.4315 16.8982 22.5147 16.6929 22.5147 16.4791C22.5147 16.2653 22.4315 16.0599 22.2828 15.9064C22.134 15.7529 21.9313 15.6633 21.7176 15.6566H20.6159C20.4022 15.6633 20.1996 15.7529 20.0508 15.9064C19.902 16.0599 19.8188 16.2653 19.8188 16.4791C19.8188 16.6929 19.902 16.8982 20.0508 17.0518C20.1996 17.2053 20.4022 17.2949 20.6159 17.3016Z" fill="#C2C7D0"/>
<path d="M4.39003 21.5424H5.49343C5.60361 21.5459 5.71334 21.5272 5.81615 21.4874C5.91896 21.4476 6.01273 21.3876 6.09189 21.3109C6.17105 21.2342 6.234 21.1423 6.27698 21.0408C6.31996 20.9393 6.34212 20.8302 6.34212 20.72C6.34212 20.6097 6.31996 20.5006 6.27698 20.3991C6.234 20.2976 6.17105 20.2058 6.09189 20.1291C6.01273 20.0523 5.91896 19.9923 5.81615 19.9525C5.71334 19.9128 5.60361 19.894 5.49343 19.8975H4.39166C4.28148 19.894 4.17172 19.9128 4.06891 19.9525C3.96611 19.9923 3.87234 20.0523 3.79318 20.1291C3.71401 20.2058 3.65107 20.2976 3.60809 20.3991C3.5651 20.5006 3.54297 20.6097 3.54297 20.72C3.54297 20.8302 3.5651 20.9393 3.60809 21.0408C3.65107 21.1423 3.71401 21.2342 3.79318 21.3109C3.87234 21.3876 3.96611 21.4476 4.06891 21.4874C4.17172 21.5272 4.28148 21.5459 4.39166 21.5424H4.39003Z" fill="#C2C7D0"/>
<path d="M9.79989 21.5424H10.9016C11.0118 21.5459 11.1216 21.5272 11.2244 21.4874C11.3272 21.4476 11.421 21.3876 11.5001 21.3109C11.5793 21.2342 11.6422 21.1423 11.6852 21.0408C11.7282 20.9393 11.7504 20.8302 11.7504 20.72C11.7504 20.6097 11.7282 20.5006 11.6852 20.3991C11.6422 20.2976 11.5793 20.2058 11.5001 20.1291C11.421 20.0523 11.3272 19.9923 11.2244 19.9525C11.1216 19.9128 11.0118 19.894 10.9016 19.8975H9.79989C9.68971 19.894 9.57995 19.9128 9.47714 19.9525C9.37433 19.9923 9.28056 20.0523 9.2014 20.1291C9.12224 20.2058 9.0593 20.2976 9.01632 20.3991C8.97333 20.5006 8.95117 20.6097 8.95117 20.72C8.95117 20.8302 8.97333 20.9393 9.01632 21.0408C9.0593 21.1423 9.12224 21.2342 9.2014 21.3109C9.28056 21.3876 9.37433 21.4476 9.47714 21.4874C9.57995 21.5272 9.68971 21.5459 9.79989 21.5424Z" fill="#C2C7D0"/>
<path d="M15.2071 21.5424H16.3089C16.5225 21.5357 16.7252 21.4461 16.8739 21.2926C17.0227 21.1391 17.1059 20.9337 17.1059 20.72C17.1059 20.5062 17.0227 20.3008 16.8739 20.1473C16.7252 19.9938 16.5225 19.9042 16.3089 19.8975H15.2071C15.0969 19.894 14.9872 19.9128 14.8843 19.9525C14.7815 19.9923 14.6878 20.0523 14.6086 20.1291C14.5294 20.2058 14.4665 20.2976 14.4235 20.3991C14.3805 20.5006 14.3584 20.6097 14.3584 20.72C14.3584 20.8302 14.3805 20.9393 14.4235 21.0408C14.4665 21.1423 14.5294 21.2342 14.6086 21.3109C14.6878 21.3876 14.7815 21.4476 14.8843 21.4874C14.9872 21.5272 15.0969 21.5459 15.2071 21.5424Z" fill="#C2C7D0"/>
<path d="M20.6159 21.5424H21.7176C21.9313 21.5357 22.134 21.4461 22.2828 21.2926C22.4315 21.1391 22.5147 20.9337 22.5147 20.7199C22.5147 20.5062 22.4315 20.3008 22.2828 20.1473C22.134 19.9938 21.9313 19.9042 21.7176 19.8975H20.6159C20.4022 19.9042 20.1996 19.9938 20.0508 20.1473C19.902 20.3008 19.8188 20.5062 19.8188 20.7199C19.8188 20.9337 19.902 21.1391 20.0508 21.2926C20.1996 21.4461 20.4022 21.5357 20.6159 21.5424Z" fill="#C2C7D0"/>
<path d="M4.39003 25.7849H5.49343C5.60361 25.7883 5.71334 25.7696 5.81615 25.7298C5.91896 25.6901 6.01273 25.6301 6.09189 25.5533C6.17105 25.4766 6.234 25.3848 6.27698 25.2833C6.31996 25.1818 6.34212 25.0726 6.34212 24.9624C6.34212 24.8522 6.31996 24.7431 6.27698 24.6416C6.234 24.54 6.17105 24.4482 6.09189 24.3715C6.01273 24.2948 5.91896 24.2348 5.81615 24.195C5.71334 24.1552 5.60361 24.1365 5.49343 24.1399H4.39166C4.28148 24.1365 4.17172 24.1552 4.06891 24.195C3.96611 24.2348 3.87234 24.2948 3.79318 24.3715C3.71401 24.4482 3.65107 24.54 3.60809 24.6416C3.5651 24.7431 3.54297 24.8522 3.54297 24.9624C3.54297 25.0726 3.5651 25.1818 3.60809 25.2833C3.65107 25.3848 3.71401 25.4766 3.79318 25.5533C3.87234 25.6301 3.96611 25.6901 4.06891 25.7298C4.17172 25.7696 4.28148 25.7883 4.39166 25.7849H4.39003Z" fill="#C2C7D0"/>
<path d="M9.79989 25.785H10.9016C11.0118 25.7885 11.1216 25.7697 11.2244 25.73C11.3272 25.6902 11.421 25.6302 11.5001 25.5535C11.5793 25.4767 11.6422 25.3849 11.6852 25.2834C11.7282 25.1819 11.7504 25.0728 11.7504 24.9625C11.7504 24.8523 11.7282 24.7432 11.6852 24.6417C11.6422 24.5402 11.5793 24.4483 11.5001 24.3716C11.421 24.2949 11.3272 24.2349 11.2244 24.1951C11.1216 24.1553 11.0118 24.1366 10.9016 24.1401H9.79989C9.68971 24.1366 9.57995 24.1553 9.47714 24.1951C9.37433 24.2349 9.28056 24.2949 9.2014 24.3716C9.12224 24.4483 9.0593 24.5402 9.01632 24.6417C8.97333 24.7432 8.95117 24.8523 8.95117 24.9625C8.95117 25.0728 8.97333 25.1819 9.01632 25.2834C9.0593 25.3849 9.12224 25.4767 9.2014 25.5535C9.28056 25.6302 9.37433 25.6902 9.47714 25.73C9.57995 25.7697 9.68971 25.7885 9.79989 25.785Z" fill="#C2C7D0"/>
<path d="M15.2071 25.785H16.3089C16.419 25.7885 16.5288 25.7697 16.6316 25.73C16.7344 25.6902 16.8282 25.6302 16.9073 25.5535C16.9865 25.4767 17.0494 25.3849 17.0924 25.2834C17.1354 25.1819 17.1576 25.0728 17.1576 24.9625C17.1576 24.8523 17.1354 24.7432 17.0924 24.6417C17.0494 24.5402 16.9865 24.4483 16.9073 24.3716C16.8282 24.2949 16.7344 24.2349 16.6316 24.1951C16.5288 24.1553 16.419 24.1366 16.3089 24.1401H15.2071C15.0969 24.1366 14.9872 24.1553 14.8843 24.1951C14.7815 24.2349 14.6878 24.2949 14.6086 24.3716C14.5294 24.4483 14.4665 24.5402 14.4235 24.6417C14.3805 24.7432 14.3584 24.8523 14.3584 24.9625C14.3584 25.0728 14.3805 25.1819 14.4235 25.2834C14.4665 25.3849 14.5294 25.4767 14.6086 25.5535C14.6878 25.6302 14.7815 25.6902 14.8843 25.73C14.9872 25.7697 15.0969 25.7885 15.2071 25.785Z" fill="#C2C7D0"/>
<path d="M20.6158 25.7849H21.7176C21.9312 25.7782 22.1339 25.6886 22.2827 25.5351C22.4314 25.3815 22.5146 25.1762 22.5146 24.9624C22.5146 24.7486 22.4314 24.5433 22.2827 24.3897C22.1339 24.2362 21.9312 24.1466 21.7176 24.1399H20.6158C20.5056 24.1365 20.3959 24.1552 20.2931 24.195C20.1903 24.2348 20.0965 24.2948 20.0173 24.3715C19.9382 24.4482 19.8752 24.54 19.8322 24.6416C19.7892 24.7431 19.7671 24.8522 19.7671 24.9624C19.7671 25.0726 19.7892 25.1818 19.8322 25.2833C19.8752 25.3848 19.9382 25.4766 20.0173 25.5533C20.0965 25.6301 20.1903 25.6901 20.2931 25.7298C20.3959 25.7696 20.5056 25.7883 20.6158 25.7849Z" fill="#C2C7D0"/>
<path d="M4.39003 30.0306H5.49343C5.60361 30.0341 5.71334 30.0153 5.81615 29.9756C5.91896 29.9358 6.01273 29.8758 6.09189 29.799C6.17105 29.7223 6.234 29.6305 6.27698 29.529C6.31996 29.4275 6.34212 29.3184 6.34212 29.2081C6.34212 29.0979 6.31996 28.9888 6.27698 28.8873C6.234 28.7857 6.17105 28.6939 6.09189 28.6172C6.01273 28.5405 5.91896 28.4805 5.81615 28.4407C5.71334 28.4009 5.60361 28.3822 5.49343 28.3857H4.39166C4.28148 28.3822 4.17172 28.4009 4.06891 28.4407C3.96611 28.4805 3.87234 28.5405 3.79318 28.6172C3.71401 28.6939 3.65107 28.7857 3.60809 28.8873C3.5651 28.9888 3.54297 29.0979 3.54297 29.2081C3.54297 29.3184 3.5651 29.4275 3.60809 29.529C3.65107 29.6305 3.71401 29.7223 3.79318 29.799C3.87234 29.8758 3.96611 29.9358 4.06891 29.9756C4.17172 30.0153 4.28148 30.0341 4.39166 30.0306H4.39003Z" fill="#C2C7D0"/>
<path d="M9.7995 30.0306H10.9012C11.0114 30.0341 11.1212 30.0153 11.224 29.9756C11.3268 29.9358 11.4206 29.8758 11.4997 29.799C11.5789 29.7223 11.6418 29.6305 11.6848 29.529C11.7278 29.4275 11.75 29.3184 11.75 29.2081C11.75 29.0979 11.7278 28.9888 11.6848 28.8873C11.6418 28.7857 11.5789 28.6939 11.4997 28.6172C11.4206 28.5405 11.3268 28.4805 11.224 28.4407C11.1212 28.4009 11.0114 28.3822 10.9012 28.3857H9.7995C9.58584 28.3924 9.38315 28.482 9.23439 28.6355C9.08562 28.789 9.00244 28.9944 9.00244 29.2081C9.00244 29.4219 9.08562 29.6273 9.23439 29.7808C9.38315 29.9343 9.58584 30.0239 9.7995 30.0306Z" fill="#C2C7D0"/>
<path d="M15.2071 30.0307H16.3089C16.419 30.0342 16.5288 30.0155 16.6316 29.9757C16.7344 29.9359 16.8282 29.8759 16.9073 29.7992C16.9865 29.7224 17.0494 29.6306 17.0924 29.5291C17.1354 29.4276 17.1576 29.3185 17.1576 29.2082C17.1576 29.098 17.1354 28.9889 17.0924 28.8874C17.0494 28.7859 16.9865 28.694 16.9073 28.6173C16.8282 28.5406 16.7344 28.4806 16.6316 28.4408C16.5288 28.401 16.419 28.3823 16.3089 28.3858H15.2071C15.0969 28.3823 14.9872 28.401 14.8843 28.4408C14.7815 28.4806 14.6878 28.5406 14.6086 28.6173C14.5294 28.694 14.4665 28.7859 14.4235 28.8874C14.3805 28.9889 14.3584 29.098 14.3584 29.2082C14.3584 29.3185 14.3805 29.4276 14.4235 29.5291C14.4665 29.6306 14.5294 29.7224 14.6086 29.7992C14.6878 29.8759 14.7815 29.9359 14.8843 29.9757C14.9872 30.0155 15.0969 30.0342 15.2071 30.0307Z" fill="#C2C7D0"/>
<path d="M20.6159 30.0306H21.7176C21.9313 30.0238 22.134 29.9343 22.2828 29.7807C22.4315 29.6272 22.5147 29.4219 22.5147 29.2081C22.5147 28.9943 22.4315 28.7889 22.2828 28.6354C22.134 28.4819 21.9313 28.3923 21.7176 28.3856H20.6159C20.4022 28.3923 20.1996 28.4819 20.0508 28.6354C19.902 28.7889 19.8188 28.9943 19.8188 29.2081C19.8188 29.4219 19.902 29.6272 20.0508 29.7807C20.1996 29.9343 20.4022 30.0238 20.6159 30.0306Z" fill="#C2C7D0"/>
<path d="M26.0619 17.3007H27.1653C27.2755 17.3042 27.3852 17.2855 27.488 17.2457C27.5908 17.2059 27.6846 17.1459 27.7638 17.0692C27.8429 16.9925 27.9059 16.9006 27.9489 16.7991C27.9918 16.6976 28.014 16.5885 28.014 16.4783C28.014 16.368 27.9918 16.2589 27.9489 16.1574C27.9059 16.0559 27.8429 15.9641 27.7638 15.8874C27.6846 15.8106 27.5908 15.7506 27.488 15.7108C27.3852 15.6711 27.2755 15.6523 27.1653 15.6558H26.0635C25.9534 15.6523 25.8436 15.6711 25.7408 15.7108C25.638 15.7506 25.5442 15.8106 25.4651 15.8874C25.3859 15.9641 25.3229 16.0559 25.28 16.1574C25.237 16.2589 25.2148 16.368 25.2148 16.4783C25.2148 16.5885 25.237 16.6976 25.28 16.7991C25.3229 16.9006 25.3859 16.9925 25.4651 17.0692C25.5442 17.1459 25.638 17.2059 25.7408 17.2457C25.8436 17.2855 25.9534 17.3042 26.0635 17.3007H26.0619Z" fill="#C2C7D0"/>
<path d="M31.4708 17.3007H32.5725C32.6827 17.3042 32.7925 17.2855 32.8953 17.2457C32.9981 17.2059 33.0919 17.1459 33.171 17.0692C33.2502 16.9925 33.3131 16.9006 33.3561 16.7991C33.3991 16.6976 33.4212 16.5885 33.4212 16.4783C33.4212 16.368 33.3991 16.2589 33.3561 16.1574C33.3131 16.0559 33.2502 15.9641 33.171 15.8874C33.0919 15.8106 32.9981 15.7506 32.8953 15.7108C32.7925 15.6711 32.6827 15.6523 32.5725 15.6558H31.4708C31.3606 15.6523 31.2508 15.6711 31.148 15.7108C31.0452 15.7506 30.9515 15.8106 30.8723 15.8874C30.7931 15.9641 30.7302 16.0559 30.6872 16.1574C30.6442 16.2589 30.6221 16.368 30.6221 16.4783C30.6221 16.5885 30.6442 16.6976 30.6872 16.7991C30.7302 16.9006 30.7931 16.9925 30.8723 17.0692C30.9515 17.1459 31.0452 17.2059 31.148 17.2457C31.2508 17.2855 31.3606 17.3042 31.4708 17.3007Z" fill="#C2C7D0"/>
<path d="M26.0619 21.5424H27.1653C27.2755 21.5459 27.3852 21.5272 27.488 21.4874C27.5908 21.4476 27.6846 21.3876 27.7638 21.3109C27.8429 21.2342 27.9059 21.1423 27.9489 21.0408C27.9918 20.9393 28.014 20.8302 28.014 20.72C28.014 20.6097 27.9918 20.5006 27.9489 20.3991C27.9059 20.2976 27.8429 20.2058 27.7638 20.1291C27.6846 20.0523 27.5908 19.9923 27.488 19.9525C27.3852 19.9128 27.2755 19.894 27.1653 19.8975H26.0635C25.9534 19.894 25.8436 19.9128 25.7408 19.9525C25.638 19.9923 25.5442 20.0523 25.4651 20.1291C25.3859 20.2058 25.3229 20.2976 25.28 20.3991C25.237 20.5006 25.2148 20.6097 25.2148 20.72C25.2148 20.8302 25.237 20.9393 25.28 21.0408C25.3229 21.1423 25.3859 21.2342 25.4651 21.3109C25.5442 21.3876 25.638 21.4476 25.7408 21.4874C25.8436 21.5272 25.9534 21.5459 26.0635 21.5424H26.0619Z" fill="#C2C7D0"/>
<path d="M31.4713 21.5424H32.573C32.6832 21.5459 32.793 21.5272 32.8958 21.4874C32.9986 21.4476 33.0923 21.3876 33.1715 21.3109C33.2507 21.2342 33.3136 21.1423 33.3566 21.0408C33.3996 20.9393 33.4217 20.8302 33.4217 20.72C33.4217 20.6097 33.3996 20.5006 33.3566 20.3991C33.3136 20.2976 33.2507 20.2058 33.1715 20.1291C33.0923 20.0523 32.9986 19.9923 32.8958 19.9525C32.793 19.9128 32.6832 19.894 32.573 19.8975H31.4713C31.3611 19.894 31.2513 19.9128 31.1485 19.9525C31.0457 19.9923 30.952 20.0523 30.8728 20.1291C30.7936 20.2058 30.7307 20.2976 30.6877 20.3991C30.6447 20.5006 30.6226 20.6097 30.6226 20.72C30.6226 20.8302 30.6447 20.9393 30.6877 21.0408C30.7307 21.1423 30.7936 21.2342 30.8728 21.3109C30.952 21.3876 31.0457 21.4476 31.1485 21.4874C31.2513 21.5272 31.3611 21.5459 31.4713 21.5424Z" fill="#C2C7D0"/>
<path d="M26.0619 25.7849H27.1653C27.2755 25.7883 27.3852 25.7696 27.488 25.7298C27.5908 25.6901 27.6846 25.6301 27.7638 25.5533C27.8429 25.4766 27.9059 25.3848 27.9489 25.2833C27.9918 25.1818 28.014 25.0726 28.014 24.9624C28.014 24.8522 27.9918 24.7431 27.9489 24.6416C27.9059 24.54 27.8429 24.4482 27.7638 24.3715C27.6846 24.2948 27.5908 24.2348 27.488 24.195C27.3852 24.1552 27.2755 24.1365 27.1653 24.1399H26.0635C25.9534 24.1365 25.8436 24.1552 25.7408 24.195C25.638 24.2348 25.5442 24.2948 25.4651 24.3715C25.3859 24.4482 25.3229 24.54 25.28 24.6416C25.237 24.7431 25.2148 24.8522 25.2148 24.9624C25.2148 25.0726 25.237 25.1818 25.28 25.2833C25.3229 25.3848 25.3859 25.4766 25.4651 25.5533C25.5442 25.6301 25.638 25.6901 25.7408 25.7298C25.8436 25.7696 25.9534 25.7883 26.0635 25.7849H26.0619Z" fill="#C2C7D0"/>
<path d="M31.4713 25.785H32.573C32.6832 25.7885 32.793 25.7697 32.8958 25.73C32.9986 25.6902 33.0923 25.6302 33.1715 25.5535C33.2507 25.4767 33.3136 25.3849 33.3566 25.2834C33.3996 25.1819 33.4217 25.0728 33.4217 24.9625C33.4217 24.8523 33.3996 24.7432 33.3566 24.6417C33.3136 24.5402 33.2507 24.4483 33.1715 24.3716C33.0923 24.2949 32.9986 24.2349 32.8958 24.1951C32.793 24.1553 32.6832 24.1366 32.573 24.1401H31.4713C31.3611 24.1366 31.2513 24.1553 31.1485 24.1951C31.0457 24.2349 30.952 24.2949 30.8728 24.3716C30.7936 24.4483 30.7307 24.5402 30.6877 24.6417C30.6447 24.7432 30.6226 24.8523 30.6226 24.9625C30.6226 25.0728 30.6447 25.1819 30.6877 25.2834C30.7307 25.3849 30.7936 25.4767 30.8728 25.5535C30.952 25.6302 31.0457 25.6902 31.1485 25.73C31.2513 25.7697 31.3611 25.7885 31.4713 25.785Z" fill="#C2C7D0"/>
<path d="M26.0619 30.0306H27.1653C27.2755 30.0341 27.3852 30.0153 27.488 29.9756C27.5908 29.9358 27.6846 29.8758 27.7638 29.799C27.8429 29.7223 27.9059 29.6305 27.9489 29.529C27.9918 29.4275 28.014 29.3184 28.014 29.2081C28.014 29.0979 27.9918 28.9888 27.9489 28.8873C27.9059 28.7857 27.8429 28.6939 27.7638 28.6172C27.6846 28.5405 27.5908 28.4805 27.488 28.4407C27.3852 28.4009 27.2755 28.3822 27.1653 28.3857H26.0635C25.9534 28.3822 25.8436 28.4009 25.7408 28.4407C25.638 28.4805 25.5442 28.5405 25.4651 28.6172C25.3859 28.6939 25.3229 28.7857 25.28 28.8873C25.237 28.9888 25.2148 29.0979 25.2148 29.2081C25.2148 29.3184 25.237 29.4275 25.28 29.529C25.3229 29.6305 25.3859 29.7223 25.4651 29.799C25.5442 29.8758 25.638 29.9358 25.7408 29.9756C25.8436 30.0153 25.9534 30.0341 26.0635 30.0306H26.0619Z" fill="#C2C7D0"/>
<path d="M31.4709 30.0306H32.5726C32.6828 30.0341 32.7926 30.0153 32.8954 29.9756C32.9982 29.9358 33.092 29.8758 33.1711 29.799C33.2503 29.7223 33.3132 29.6305 33.3562 29.529C33.3992 29.4275 33.4213 29.3184 33.4213 29.2081C33.4213 29.0979 33.3992 28.9888 33.3562 28.8873C33.3132 28.7857 33.2503 28.6939 33.1711 28.6172C33.092 28.5405 32.9982 28.4805 32.8954 28.4407C32.7926 28.4009 32.6828 28.3822 32.5726 28.3857H31.4709C31.2572 28.3924 31.0545 28.482 30.9058 28.6355C30.757 28.789 30.6738 28.9944 30.6738 29.2081C30.6738 29.4219 30.757 29.6273 30.9058 29.7808C31.0545 29.9343 31.2572 30.0239 31.4709 30.0306Z" fill="#C2C7D0"/>
<path d="M7.15561 0.33728H2.90179C2.54603 0.337174 2.19372 0.407155 1.86501 0.543227C1.53629 0.6793 1.2376 0.878797 0.986 1.13032C0.734397 1.38185 0.534811 1.68048 0.39864 2.00916C0.26247 2.33783 0.192383 2.69011 0.192383 3.04588L0.192383 12.4907C0.197604 12.6208 0.252972 12.7439 0.346893 12.8341C0.440814 12.9244 0.566003 12.9748 0.696242 12.9748C0.826481 12.9748 0.95167 12.9244 1.04559 12.8341C1.13951 12.7439 1.19488 12.6208 1.2001 12.4907V3.04588C1.2001 2.59435 1.37947 2.16131 1.69875 1.84203C2.01803 1.52275 2.45107 1.34338 2.9026 1.34338H7.15561C7.28299 1.33452 7.40225 1.27767 7.48935 1.1843C7.57644 1.09094 7.62488 0.96801 7.62488 0.840329C7.62488 0.712648 7.57644 0.589721 7.48935 0.496357C7.40225 0.402992 7.28299 0.346142 7.15561 0.33728Z" fill="black"/>
<path d="M31.8719 0.33728H9.35026C9.22013 0.342501 9.09706 0.39787 9.00683 0.491791C8.9166 0.585712 8.86621 0.7109 8.86621 0.84114C8.86621 0.971379 8.9166 1.09657 9.00683 1.19049C9.09706 1.28441 9.22013 1.33978 9.35026 1.345H31.8727C32.3243 1.345 32.7573 1.52437 33.0766 1.84365C33.3959 2.16293 33.5752 2.59597 33.5752 3.0475V25.7897C33.5805 25.9198 33.6358 26.0429 33.7297 26.1331C33.8237 26.2233 33.9489 26.2737 34.0791 26.2737C34.2093 26.2737 34.3345 26.2233 34.4284 26.1331C34.5224 26.0429 34.5777 25.9198 34.583 25.7897V3.04588C34.583 2.69011 34.5129 2.33783 34.3767 2.00916C34.2405 1.68048 34.0409 1.38185 33.7893 1.13032C33.5377 0.878797 33.239 0.6793 32.9103 0.543227C32.5816 0.407155 32.2293 0.337174 31.8735 0.33728H31.8719Z" fill="black"/>
<path d="M34.0803 27.4792C33.9467 27.4792 33.8187 27.5323 33.7243 27.6267C33.6299 27.7211 33.5768 27.8491 33.5768 27.9827V30.0962C33.5768 30.1577 33.5524 30.2167 33.5089 30.2602C33.4654 30.3036 33.4064 30.3281 33.3449 30.3281H1.43116C1.36966 30.3281 1.31069 30.3036 1.2672 30.2602C1.22372 30.2167 1.19929 30.1577 1.19929 30.0962V14.6861C1.19199 14.5575 1.13577 14.4366 1.04215 14.3482C0.948538 14.2597 0.824628 14.2104 0.695837 14.2104C0.567045 14.2104 0.443135 14.2597 0.349521 14.3482C0.255906 14.4366 0.199683 14.5575 0.192383 14.6861L0.192383 30.0978C0.192812 30.4262 0.323463 30.7411 0.555685 30.9733C0.787907 31.2055 1.10274 31.3362 1.43116 31.3366H33.3417C33.6701 31.3362 33.985 31.2055 34.2172 30.9733C34.4494 30.7411 34.58 30.4262 34.5805 30.0978V27.9819C34.5805 27.9157 34.5674 27.8501 34.5421 27.789C34.5167 27.7279 34.4796 27.6723 34.4327 27.6256C34.3859 27.5788 34.3303 27.5417 34.2691 27.5165C34.2079 27.4912 34.1424 27.4783 34.0762 27.4784L34.0803 27.4792Z" fill="black"/>
<path d="M12.0399 11.3895H11.6036C10.9761 11.3895 10.574 11.053 10.3971 10.3799C10.2745 10.6679 10.1419 10.812 9.99928 10.812C9.73403 10.812 9.42886 10.7421 9.08376 10.6023C8.62457 10.417 8.39498 10.176 8.39498 9.87934C8.39498 9.55706 8.51191 9.23049 8.74578 8.89965C8.76575 8.87113 9.11656 8.56025 9.7982 7.96702L9.71692 7.5991L10.7137 6.59374C10.7537 6.55381 10.7865 6.53385 10.8121 6.53385C10.8435 6.53385 10.8663 6.57092 10.8806 6.64508L11.287 8.84831C11.3611 9.24761 11.518 9.44725 11.7576 9.44725H12.0399V11.3895ZM10.2175 9.49003L9.97788 8.61729C9.58145 8.91391 9.38323 9.12211 9.38323 9.2419C9.38323 9.37595 9.6613 9.45866 10.2175 9.49003ZM16.0015 9.79378C16.0015 10.0847 15.9088 10.4027 15.7234 10.7478C15.4924 11.1785 15.21 11.3938 14.8763 11.3938C14.6368 11.3938 14.2403 11.207 13.687 10.8334C13.282 11.2041 12.907 11.3895 12.5619 11.3895H11.7918V9.44725H12.2924C12.2296 9.34172 12.1982 9.21481 12.1982 9.0665C12.1982 8.69002 12.3366 8.43761 12.6132 8.30927L12.3608 8.1467L12.9341 6.85043C12.9968 6.70782 13.0653 6.63652 13.1394 6.63652C13.1793 6.63652 13.2649 6.6736 13.3961 6.74775C14.169 7.18127 14.7494 7.58912 15.1373 7.9713C15.7134 8.53886 16.0015 9.14636 16.0015 9.79378ZM15.1758 9.96063C15.1758 9.76954 14.969 9.52996 14.5555 9.2419C14.5612 9.26757 14.564 9.29609 14.564 9.32746C14.564 9.60982 14.4685 9.80376 14.2774 9.90929C14.3544 9.97203 14.4671 10.0433 14.6154 10.1232C14.7865 10.2145 14.9077 10.2601 14.979 10.2601C15.1102 10.2601 15.1758 10.1603 15.1758 9.96063ZM13.918 9.105C13.918 9.00518 13.8681 8.91676 13.7683 8.83976C13.6713 8.7599 13.5729 8.71997 13.4731 8.71997C13.3647 8.71997 13.2535 8.75134 13.1394 8.81409C13.0082 8.88824 12.9426 8.97381 12.9426 9.07078C12.9426 9.15063 13.0154 9.23477 13.1608 9.32319C13.2949 9.4059 13.4061 9.44725 13.4945 9.44725C13.5858 9.44725 13.6785 9.4116 13.7726 9.3403C13.8696 9.269 13.918 9.19056 13.918 9.105ZM18.7694 11.3852H18.3074C17.2379 11.3852 16.7031 10.8262 16.7031 9.70822C16.7031 9.23192 16.686 8.60589 16.6518 7.83012C16.6147 7.01157 16.5762 6.46968 16.5363 6.20443C16.5163 6.07324 16.5391 5.97912 16.6047 5.92208L17.8496 5.04506C17.9352 4.98517 17.9937 4.95522 18.025 4.95522C18.0621 4.95522 18.0807 4.98944 18.0807 5.05789V8.82692C18.0807 9.24333 18.2646 9.45153 18.6325 9.45153H18.7694V11.3852ZM21.9951 10.0462C21.9951 10.4198 21.8754 10.7392 21.6358 11.0045C21.3905 11.2811 21.0825 11.4195 20.7117 11.4195C20.244 11.4195 19.8632 11.1942 19.5694 10.7435C19.3727 11.1742 19.1103 11.3895 18.7823 11.3895H18.5085V9.44725H18.6496C19.009 9.44725 19.1958 9.33459 19.2101 9.10928C19.2272 8.80981 19.3113 8.54742 19.4625 8.3221C19.6907 7.97985 20.0301 7.80873 20.4807 7.80873C21.0226 7.80873 21.429 8.09394 21.7 8.66435C21.8967 9.07791 21.9951 9.53852 21.9951 10.0462ZM21.3192 9.69966C21.3192 9.51713 21.2693 9.32033 21.1695 9.10928C21.0497 8.85544 20.9099 8.72853 20.7502 8.72853C20.6646 8.72853 20.5933 8.76275 20.5363 8.8312C20.4793 8.8968 20.4507 8.97381 20.4507 9.06222C20.4507 9.27898 20.4978 9.49003 20.5919 9.69538C20.7117 9.95777 20.8743 10.089 21.0796 10.089C21.2393 10.089 21.3192 9.9592 21.3192 9.69966Z" fill="#082A20"/>
<path d="M26.1133 9.13495C26.1133 9.67399 26.0847 10.1831 26.0277 10.6622C25.9222 11.5435 25.7482 11.9842 25.5058 11.9842C25.3717 11.9842 25.2847 11.9257 25.2448 11.8088C25.2163 11.7261 25.1778 11.4594 25.1293 11.0088C25.0466 10.2473 24.9753 9.6797 24.9154 9.30607C24.8127 8.67576 24.6815 8.11961 24.5218 7.6376C24.4362 7.38092 24.3264 7.11567 24.1924 6.84187C24.0954 6.64223 24.0469 6.51531 24.0469 6.46112C24.0469 6.40408 24.1867 6.0989 24.4662 5.5456C24.7542 4.97518 24.9282 4.68998 24.9881 4.68998C25.0879 4.68998 25.2206 4.85112 25.386 5.1734C25.5828 5.55843 25.7453 6.04899 25.8737 6.64508C26.0334 7.39232 26.1133 8.22228 26.1133 9.13495Z" fill="#082A20"/>
</g>
<defs>
<filter id="filter0_d_2120_640" x="-1.44678" y="0.840698" width="38.0522" height="18.2013" filterUnits="userSpaceOnUse" color-interpolation-filters="sRGB">
<feFlood flood-opacity="0" result="BackgroundImageFix"/>
<feColorMatrix in="SourceAlpha" type="matrix" values="0 0 0 0 0 0 0 0 0 0 0 0 0 0 0 0 0 0 127 0" result="hardAlpha"/>
<feOffset dy="2.33643"/>
<feGaussianBlur stdDeviation="1.16821"/>
<feComposite in2="hardAlpha" operator="out"/>
<feColorMatrix type="matrix" values="0 0 0 0 0 0 0 0 0 0 0 0 0 0 0 0 0 0 0.25 0"/>
<feBlend mode="normal" in2="BackgroundImageFix" result="effect1_dropShadow_2120_640"/>
<feBlend mode="normal" in="SourceGraphic" in2="effect1_dropShadow_2120_640" result="shape"/>
</filter>
<clipPath id="clip0_2120_640">
<rect width="34.3897" height="31.0836" fill="white" transform="translate(0.191406 0.252197)"/>
</clipPath>
</defs>
</svg>
