<svg width="35" height="33" viewBox="0 0 35 33" fill="none" xmlns="http://www.w3.org/2000/svg">
<g clip-path="url(#clip0_2120_584)">
<path d="M34.1378 3.64812V30.893C34.1378 31.0889 34.0601 31.2768 33.9218 31.4155C33.7835 31.5543 33.5959 31.6325 33.4 31.6332H1.26004C1.16277 31.6333 1.06643 31.6142 0.976532 31.5771C0.886635 31.5399 0.804942 31.4854 0.736124 31.4167C0.667306 31.3479 0.612712 31.2663 0.575463 31.1764C0.538215 31.0866 0.519043 30.9903 0.519043 30.893V3.64812C0.519258 3.05904 0.753362 2.49416 1.1699 2.07762C1.58644 1.66108 2.15133 1.42697 2.7404 1.42676H31.9261C32.5142 1.42847 33.0777 1.66324 33.493 2.07962C33.9083 2.49599 34.1416 3.06002 34.1418 3.64812H34.1378Z" fill="white"/>
<path d="M34.1429 3.64812V30.893C34.143 30.9903 34.124 31.0866 34.0868 31.1765C34.0497 31.2664 33.9952 31.3481 33.9264 31.4169C33.8577 31.4857 33.776 31.5403 33.6862 31.5776C33.5963 31.6148 33.5 31.634 33.4028 31.634H31.9135C32.0107 31.6341 32.1071 31.615 32.197 31.5779C32.2869 31.5407 32.3686 31.4862 32.4374 31.4175C32.5062 31.3487 32.5608 31.2671 32.598 31.1772C32.6353 31.0874 32.6545 30.9911 32.6545 30.8938V3.64893C32.6545 3.05971 32.4205 2.49462 32.0039 2.0779C31.5873 1.66119 31.0223 1.42697 30.4331 1.42676H31.9248C32.5133 1.42783 33.0774 1.66231 33.4932 2.07876C33.9091 2.49521 34.1427 3.0596 34.1429 3.64812Z" fill="#D9DFE9"/>
<path d="M33.9293 5.0239V15.0549H0.310547V5.0239C0.310547 3.03765 1.30529 1.42676 2.53191 1.42676H31.7176C32.9435 1.42676 33.9374 3.03927 33.9374 5.0239H33.9293Z" fill="#7AB3FF"/>
<path d="M4.2392 18.0059H5.34906C5.5688 18.0059 5.77954 17.9186 5.93492 17.7632C6.09031 17.6078 6.17761 17.3971 6.17761 17.1773C6.17761 16.9576 6.09031 16.7468 5.93492 16.5914C5.77954 16.4361 5.5688 16.3488 5.34906 16.3488H4.2392C4.01945 16.3488 3.80871 16.4361 3.65333 16.5914C3.49795 16.7468 3.41064 16.9576 3.41064 17.1773C3.41064 17.3971 3.49795 17.6078 3.65333 17.7632C3.80871 17.9186 4.01945 18.0059 4.2392 18.0059Z" fill="#C2C7D0"/>
<path d="M9.68744 18.0059H10.7973C11.0171 18.0059 11.2278 17.9186 11.3832 17.7632C11.5386 17.6078 11.6259 17.3971 11.6259 17.1773C11.6259 16.9576 11.5386 16.7468 11.3832 16.5914C11.2278 16.4361 11.0171 16.3488 10.7973 16.3488H9.68744C9.46769 16.3488 9.25696 16.4361 9.10157 16.5914C8.94619 16.7468 8.85889 16.9576 8.85889 17.1773C8.85889 17.3971 8.94619 17.6078 9.10157 17.7632C9.25696 17.9186 9.46769 18.0059 9.68744 18.0059Z" fill="#C2C7D0"/>
<path d="M15.1357 18.0059H16.2455C16.4653 18.0059 16.676 17.9186 16.8314 17.7632C16.9868 17.6078 17.0741 17.3971 17.0741 17.1773C17.0741 16.9576 16.9868 16.7468 16.8314 16.5914C16.676 16.4361 16.4653 16.3488 16.2455 16.3488H15.1357C14.9159 16.3488 14.7052 16.4361 14.5498 16.5914C14.3944 16.7468 14.3071 16.9576 14.3071 17.1773C14.3071 17.3971 14.3944 17.6078 14.5498 17.7632C14.7052 17.9186 14.9159 18.0059 15.1357 18.0059Z" fill="#C2C7D0"/>
<path d="M20.5849 18.0059H21.6948C21.9145 18.0059 22.1252 17.9186 22.2806 17.7632C22.436 17.6078 22.5233 17.3971 22.5233 17.1773C22.5233 16.9576 22.436 16.7468 22.2806 16.5914C22.1252 16.4361 21.9145 16.3488 21.6948 16.3488H20.5849C20.3652 16.3488 20.1544 16.4361 19.999 16.5914C19.8436 16.7468 19.7563 16.9576 19.7563 17.1773C19.7563 17.3971 19.8436 17.6078 19.999 17.7632C20.1544 17.9186 20.3652 18.0059 20.5849 18.0059Z" fill="#C2C7D0"/>
<path d="M4.2392 22.2792H5.34906C5.5688 22.2792 5.77954 22.1919 5.93492 22.0365C6.09031 21.8811 6.17761 21.6704 6.17761 21.4506C6.17761 21.2309 6.09031 21.0201 5.93492 20.8647C5.77954 20.7094 5.5688 20.6221 5.34906 20.6221H4.2392C4.01945 20.6221 3.80871 20.7094 3.65333 20.8647C3.49795 21.0201 3.41064 21.2309 3.41064 21.4506C3.41064 21.6704 3.49795 21.8811 3.65333 22.0365C3.80871 22.1919 4.01945 22.2792 4.2392 22.2792Z" fill="#C2C7D0"/>
<path d="M9.68744 22.2792H10.7973C11.0171 22.2792 11.2278 22.1919 11.3832 22.0365C11.5386 21.8811 11.6259 21.6704 11.6259 21.4506C11.6259 21.2309 11.5386 21.0201 11.3832 20.8647C11.2278 20.7094 11.0171 20.6221 10.7973 20.6221H9.68744C9.46769 20.6221 9.25696 20.7094 9.10157 20.8647C8.94619 21.0201 8.85889 21.2309 8.85889 21.4506C8.85889 21.6704 8.94619 21.8811 9.10157 22.0365C9.25696 22.1919 9.46769 22.2792 9.68744 22.2792Z" fill="#C2C7D0"/>
<path d="M15.1357 22.2792H16.2455C16.4653 22.2792 16.676 22.1919 16.8314 22.0365C16.9868 21.8811 17.0741 21.6704 17.0741 21.4506C17.0741 21.2309 16.9868 21.0201 16.8314 20.8647C16.676 20.7094 16.4653 20.6221 16.2455 20.6221H15.1357C14.9159 20.6221 14.7052 20.7094 14.5498 20.8647C14.3944 21.0201 14.3071 21.2309 14.3071 21.4506C14.3071 21.6704 14.3944 21.8811 14.5498 22.0365C14.7052 22.1919 14.9159 22.2792 15.1357 22.2792Z" fill="#C2C7D0"/>
<path d="M20.5849 22.2792H21.6948C21.9145 22.2792 22.1252 22.1919 22.2806 22.0365C22.436 21.8811 22.5233 21.6704 22.5233 21.4506C22.5233 21.2309 22.436 21.0201 22.2806 20.8647C22.1252 20.7094 21.9145 20.6221 21.6948 20.6221H20.5849C20.3652 20.6221 20.1544 20.7094 19.999 20.8647C19.8436 21.0201 19.7563 21.2309 19.7563 21.4506C19.7563 21.6704 19.8436 21.8811 19.999 22.0365C20.1544 22.1919 20.3652 22.2792 20.5849 22.2792Z" fill="#C2C7D0"/>
<path d="M4.2392 26.5516H5.34906C5.5688 26.5516 5.77954 26.4643 5.93492 26.309C6.09031 26.1536 6.17761 25.9428 6.17761 25.7231C6.17761 25.5033 6.09031 25.2926 5.93492 25.1372C5.77954 24.9818 5.5688 24.8945 5.34906 24.8945H4.2392C4.01945 24.8945 3.80871 24.9818 3.65333 25.1372C3.49795 25.2926 3.41064 25.5033 3.41064 25.7231C3.41064 25.9428 3.49795 26.1536 3.65333 26.309C3.80871 26.4643 4.01945 26.5516 4.2392 26.5516Z" fill="#C2C7D0"/>
<path d="M9.68744 26.5516H10.7973C11.0171 26.5516 11.2278 26.4643 11.3832 26.309C11.5386 26.1536 11.6259 25.9428 11.6259 25.7231C11.6259 25.5033 11.5386 25.2926 11.3832 25.1372C11.2278 24.9818 11.0171 24.8945 10.7973 24.8945H9.68744C9.46769 24.8945 9.25696 24.9818 9.10157 25.1372C8.94619 25.2926 8.85889 25.5033 8.85889 25.7231C8.85889 25.9428 8.94619 26.1536 9.10157 26.309C9.25696 26.4643 9.46769 26.5516 9.68744 26.5516Z" fill="#C2C7D0"/>
<path d="M15.1357 26.5515H16.2455C16.4653 26.5515 16.676 26.4642 16.8314 26.3088C16.9868 26.1534 17.0741 25.9427 17.0741 25.723C17.0741 25.5032 16.9868 25.2925 16.8314 25.1371C16.676 24.9817 16.4653 24.8944 16.2455 24.8944H15.1357C14.9159 24.8944 14.7052 24.9817 14.5498 25.1371C14.3944 25.2925 14.3071 25.5032 14.3071 25.723C14.3071 25.9427 14.3944 26.1534 14.5498 26.3088C14.7052 26.4642 14.9159 26.5515 15.1357 26.5515Z" fill="#C2C7D0"/>
<path d="M20.5849 26.5516H21.6948C21.9145 26.5516 22.1252 26.4643 22.2806 26.309C22.436 26.1536 22.5233 25.9428 22.5233 25.7231C22.5233 25.5033 22.436 25.2926 22.2806 25.1372C22.1252 24.9818 21.9145 24.8945 21.6948 24.8945H20.5849C20.3652 24.8945 20.1544 24.9818 19.999 25.1372C19.8436 25.2926 19.7563 25.5033 19.7563 25.7231C19.7563 25.9428 19.8436 26.1536 19.999 26.309C20.1544 26.4643 20.3652 26.5516 20.5849 26.5516Z" fill="#C2C7D0"/>
<path d="M4.2392 30.8241H5.34906C5.5688 30.8241 5.77954 30.7368 5.93492 30.5814C6.09031 30.426 6.17761 30.2153 6.17761 29.9955C6.17761 29.7758 6.09031 29.565 5.93492 29.4097C5.77954 29.2543 5.5688 29.167 5.34906 29.167H4.2392C4.01945 29.167 3.80871 29.2543 3.65333 29.4097C3.49795 29.565 3.41064 29.7758 3.41064 29.9955C3.41064 30.2153 3.49795 30.426 3.65333 30.5814C3.80871 30.7368 4.01945 30.8241 4.2392 30.8241Z" fill="#C2C7D0"/>
<path d="M9.68744 30.8241H10.7973C11.0171 30.8241 11.2278 30.7368 11.3832 30.5814C11.5386 30.426 11.6259 30.2153 11.6259 29.9955C11.6259 29.7758 11.5386 29.565 11.3832 29.4097C11.2278 29.2543 11.0171 29.167 10.7973 29.167H9.68744C9.46769 29.167 9.25696 29.2543 9.10157 29.4097C8.94619 29.565 8.85889 29.7758 8.85889 29.9955C8.85889 30.2153 8.94619 30.426 9.10157 30.5814C9.25696 30.7368 9.46769 30.8241 9.68744 30.8241Z" fill="#C2C7D0"/>
<path d="M15.1357 30.824H16.2455C16.4653 30.824 16.676 30.7367 16.8314 30.5813C16.9868 30.4259 17.0741 30.2152 17.0741 29.9954C17.0741 29.7757 16.9868 29.5649 16.8314 29.4095C16.676 29.2541 16.4653 29.1669 16.2455 29.1669H15.1357C14.9159 29.1669 14.7052 29.2541 14.5498 29.4095C14.3944 29.5649 14.3071 29.7757 14.3071 29.9954C14.3071 30.2152 14.3944 30.4259 14.5498 30.5813C14.7052 30.7367 14.9159 30.824 15.1357 30.824Z" fill="#C2C7D0"/>
<path d="M20.5849 30.8241H21.6948C21.9145 30.8241 22.1252 30.7368 22.2806 30.5814C22.436 30.426 22.5233 30.2153 22.5233 29.9955C22.5233 29.7758 22.436 29.565 22.2806 29.4097C22.1252 29.2543 21.9145 29.167 21.6948 29.167H20.5849C20.3652 29.167 20.1544 29.2543 19.999 29.4097C19.8436 29.565 19.7563 29.7758 19.7563 29.9955C19.7563 30.2153 19.8436 30.426 19.999 30.5814C20.1544 30.7368 20.3652 30.8241 20.5849 30.8241Z" fill="#C2C7D0"/>
<path d="M26.0683 18.0059H27.1782C27.3979 18.0059 27.6086 17.9186 27.764 17.7632C27.9194 17.6078 28.0067 17.3971 28.0067 17.1773C28.0067 16.9576 27.9194 16.7468 27.764 16.5914C27.6086 16.4361 27.3979 16.3488 27.1782 16.3488H26.0683C25.8486 16.3488 25.6378 16.4361 25.4824 16.5914C25.327 16.7468 25.2397 16.9576 25.2397 17.1773C25.2397 17.3971 25.327 17.6078 25.4824 17.7632C25.6378 17.9186 25.8486 18.0059 26.0683 18.0059Z" fill="#C2C7D0"/>
<path d="M31.5165 18.0059H32.6264C32.8462 18.0059 33.0569 17.9186 33.2123 17.7632C33.3677 17.6078 33.455 17.3971 33.455 17.1773C33.455 16.9576 33.3677 16.7468 33.2123 16.5914C33.0569 16.4361 32.8462 16.3488 32.6264 16.3488H31.5165C31.2968 16.3488 31.0861 16.4361 30.9307 16.5914C30.7753 16.7468 30.688 16.9576 30.688 17.1773C30.688 17.3971 30.7753 17.6078 30.9307 17.7632C31.0861 17.9186 31.2968 18.0059 31.5165 18.0059Z" fill="#C2C7D0"/>
<path d="M26.0683 22.2792H27.1782C27.3979 22.2792 27.6086 22.1919 27.764 22.0365C27.9194 21.8811 28.0067 21.6704 28.0067 21.4506C28.0067 21.2309 27.9194 21.0201 27.764 20.8647C27.6086 20.7094 27.3979 20.6221 27.1782 20.6221H26.0683C25.8486 20.6221 25.6378 20.7094 25.4824 20.8647C25.327 21.0201 25.2397 21.2309 25.2397 21.4506C25.2397 21.6704 25.327 21.8811 25.4824 22.0365C25.6378 22.1919 25.8486 22.2792 26.0683 22.2792Z" fill="#C2C7D0"/>
<path d="M31.5165 22.2792H32.6264C32.8462 22.2792 33.0569 22.1919 33.2123 22.0365C33.3677 21.8811 33.455 21.6704 33.455 21.4506C33.455 21.2309 33.3677 21.0201 33.2123 20.8647C33.0569 20.7094 32.8462 20.6221 32.6264 20.6221H31.5165C31.2968 20.6221 31.0861 20.7094 30.9307 20.8647C30.7753 21.0201 30.688 21.2309 30.688 21.4506C30.688 21.6704 30.7753 21.8811 30.9307 22.0365C31.0861 22.1919 31.2968 22.2792 31.5165 22.2792Z" fill="#C2C7D0"/>
<path d="M26.0683 26.5516H27.1782C27.3979 26.5516 27.6086 26.4643 27.764 26.309C27.9194 26.1536 28.0067 25.9428 28.0067 25.7231C28.0067 25.5033 27.9194 25.2926 27.764 25.1372C27.6086 24.9818 27.3979 24.8945 27.1782 24.8945H26.0683C25.8486 24.8945 25.6378 24.9818 25.4824 25.1372C25.327 25.2926 25.2397 25.5033 25.2397 25.7231C25.2397 25.9428 25.327 26.1536 25.4824 26.309C25.6378 26.4643 25.8486 26.5516 26.0683 26.5516Z" fill="#C2C7D0"/>
<path d="M31.5165 26.5516H32.6264C32.8462 26.5516 33.0569 26.4643 33.2123 26.309C33.3677 26.1536 33.455 25.9428 33.455 25.7231C33.455 25.5033 33.3677 25.2926 33.2123 25.1372C33.0569 24.9818 32.8462 24.8945 32.6264 24.8945H31.5165C31.2968 24.8945 31.0861 24.9818 30.9307 25.1372C30.7753 25.2926 30.688 25.5033 30.688 25.7231C30.688 25.9428 30.7753 26.1536 30.9307 26.309C31.0861 26.4643 31.2968 26.5516 31.5165 26.5516Z" fill="#C2C7D0"/>
<path d="M26.0683 30.8241H27.1782C27.3979 30.8241 27.6086 30.7368 27.764 30.5814C27.9194 30.426 28.0067 30.2153 28.0067 29.9955C28.0067 29.7758 27.9194 29.565 27.764 29.4097C27.6086 29.2543 27.3979 29.167 27.1782 29.167H26.0683C25.8486 29.167 25.6378 29.2543 25.4824 29.4097C25.327 29.565 25.2397 29.7758 25.2397 29.9955C25.2397 30.2153 25.327 30.426 25.4824 30.5814C25.6378 30.7368 25.8486 30.8241 26.0683 30.8241Z" fill="#C2C7D0"/>
<path d="M31.5165 30.8241H32.6264C32.8462 30.8241 33.0569 30.7368 33.2123 30.5814C33.3677 30.426 33.455 30.2153 33.455 29.9955C33.455 29.7758 33.3677 29.565 33.2123 29.4097C33.0569 29.2543 32.8462 29.167 32.6264 29.167H31.5165C31.2968 29.167 31.0861 29.2543 30.9307 29.4097C30.7753 29.565 30.688 29.7758 30.688 29.9955C30.688 30.2153 30.7753 30.426 30.9307 30.5814C31.0861 30.7368 31.2968 30.8241 31.5165 30.8241Z" fill="#C2C7D0"/>
<path d="M7.02229 0.919312H2.74091C2.01729 0.919955 1.32348 1.20764 0.811732 1.71924C0.299981 2.23084 0.0120891 2.92456 0.0112305 3.64818L0.0112305 13.1619C0.0112305 13.2965 0.0646999 13.4256 0.159876 13.5208C0.255052 13.616 0.384139 13.6694 0.518738 13.6694C0.653337 13.6694 0.782424 13.616 0.8776 13.5208C0.972776 13.4256 1.02625 13.2965 1.02625 13.1619V3.64818C1.02689 3.19369 1.20777 2.75802 1.52922 2.43673C1.85066 2.11543 2.28642 1.93476 2.74091 1.93433H7.02229C7.15689 1.93433 7.28598 1.88086 7.38116 1.78568C7.47633 1.6905 7.5298 1.56142 7.5298 1.42682C7.5298 1.29222 7.47633 1.16313 7.38116 1.06796C7.28598 0.972781 7.15689 0.919312 7.02229 0.919312Z" fill="black"/>
<path d="M31.9218 0.919312H9.23798C9.10338 0.919312 8.97429 0.972781 8.87911 1.06796C8.78394 1.16313 8.73047 1.29222 8.73047 1.42682C8.73047 1.56142 8.78394 1.6905 8.87911 1.78568C8.97429 1.88086 9.10338 1.93433 9.23798 1.93433H31.925C32.3794 1.93497 32.8149 2.11574 33.1362 2.43701C33.4575 2.75828 33.6382 3.19383 33.6389 3.64818V26.5582C33.6389 26.6928 33.6923 26.8219 33.7875 26.917C33.8827 27.0122 34.0118 27.0657 34.1464 27.0657C34.281 27.0657 34.4101 27.0122 34.5052 26.917C34.6004 26.8219 34.6539 26.6928 34.6539 26.5582V3.64818C34.653 2.92414 34.3648 2.23005 33.8525 1.71838C33.3402 1.20671 32.6458 0.919311 31.9218 0.919312Z" fill="black"/>
<path d="M34.1423 28.2607C34.0077 28.2607 33.8786 28.3141 33.7835 28.4093C33.6883 28.5045 33.6348 28.6336 33.6348 28.7682V30.8971C33.6348 30.959 33.6102 31.0184 33.5664 31.0622C33.5227 31.106 33.4633 31.1306 33.4013 31.1306H1.25973C1.19781 31.1306 1.13842 31.106 1.09463 31.0622C1.05085 31.0184 1.02625 30.959 1.02625 30.8971V15.3727C1.02625 15.2381 0.972776 15.1091 0.8776 15.0139C0.782424 14.9187 0.653337 14.8652 0.518738 14.8652C0.384139 14.8652 0.255052 14.9187 0.159876 15.0139C0.0646999 15.1091 0.0112305 15.2381 0.0112305 15.3727L0.0112305 30.8971C0.0114452 31.2282 0.143052 31.5456 0.377145 31.7797C0.611238 32.0138 0.928674 32.1454 1.25973 32.1456H33.403C33.734 32.1454 34.0515 32.0138 34.2855 31.7797C34.5196 31.5456 34.6512 31.2282 34.6515 30.8971V28.7682C34.6515 28.6336 34.598 28.5045 34.5028 28.4093C34.4076 28.3141 34.2786 28.2607 34.144 28.2607H34.1423Z" fill="black"/>
<path d="M10.9042 11.7456H10.4678C9.84037 11.7456 9.43823 11.4091 9.2614 10.736C9.13876 11.024 9.00614 11.1681 8.86353 11.1681C8.59829 11.1681 8.29312 11.0982 7.94801 10.9584C7.48883 10.773 7.25924 10.532 7.25924 10.2354C7.25924 9.91314 7.37617 9.58657 7.61004 9.25573C7.63001 9.22721 7.98081 8.91633 8.66246 8.3231L8.58118 7.95518L9.57798 6.94982C9.61791 6.90989 9.65071 6.88993 9.67638 6.88993C9.70775 6.88993 9.73057 6.927 9.74483 7.00116L10.1512 9.20439C10.2254 9.60368 10.3823 9.80333 10.6218 9.80333H10.9042V11.7456ZM9.08172 9.84611L8.84214 8.97337C8.4457 9.26999 8.24748 9.47819 8.24748 9.59798C8.24748 9.73203 8.52556 9.81474 9.08172 9.84611ZM14.8657 10.1499C14.8657 10.4408 14.7731 10.7588 14.5877 11.1039C14.3566 11.5345 14.0743 11.7499 13.7406 11.7499C13.501 11.7499 13.1046 11.5631 12.5513 11.1894C12.1463 11.5602 11.7712 11.7456 11.4261 11.7456H10.6561V9.80333H11.1566C11.0939 9.6978 11.0625 9.57089 11.0625 9.42258C11.0625 9.0461 11.2008 8.79369 11.4775 8.66535L11.2251 8.50278L11.7983 7.20651C11.8611 7.0639 11.9295 6.9926 12.0037 6.9926C12.0436 6.9926 12.1292 7.02968 12.2604 7.10383C13.0333 7.53735 13.6137 7.9452 14.0016 8.32738C14.5777 8.89494 14.8657 9.50244 14.8657 10.1499ZM14.0401 10.3167C14.0401 10.1256 13.8333 9.88604 13.4197 9.59798C13.4254 9.62365 13.4283 9.65217 13.4283 9.68354C13.4283 9.9659 13.3327 10.1598 13.1417 10.2654C13.2187 10.3281 13.3313 10.3994 13.4796 10.4793C13.6508 10.5705 13.772 10.6162 13.8433 10.6162C13.9745 10.6162 14.0401 10.5164 14.0401 10.3167ZM12.7823 9.46108C12.7823 9.36126 12.7324 9.27284 12.6326 9.19584C12.5356 9.11598 12.4372 9.07605 12.3374 9.07605C12.229 9.07605 12.1178 9.10742 12.0037 9.17017C11.8725 9.24432 11.8069 9.32988 11.8069 9.42686C11.8069 9.50671 11.8796 9.59085 12.0251 9.67926C12.1591 9.76198 12.2703 9.80333 12.3588 9.80333C12.45 9.80333 12.5427 9.76768 12.6368 9.69638C12.7338 9.62508 12.7823 9.54664 12.7823 9.46108ZM17.6337 11.7413H17.1717C16.1021 11.7413 15.5674 11.1823 15.5674 10.0643C15.5674 9.588 15.5502 8.96197 15.516 8.1862C15.4789 7.36765 15.4404 6.82575 15.4005 6.56051C15.3805 6.42932 15.4034 6.3352 15.469 6.27815L16.7139 5.40114C16.7995 5.34124 16.8579 5.3113 16.8893 5.3113C16.9264 5.3113 16.9449 5.34552 16.9449 5.41397V9.183C16.9449 9.59941 17.1289 9.80761 17.4968 9.80761H17.6337V11.7413ZM20.8594 10.4023C20.8594 10.7759 20.7396 11.0953 20.5 11.3606C20.2548 11.6372 19.9467 11.7755 19.576 11.7755C19.1082 11.7755 18.7275 11.5502 18.4337 11.0996C18.2369 11.5303 17.9745 11.7456 17.6465 11.7456H17.3727V9.80333H17.5139C17.8733 9.80333 18.0601 9.69067 18.0743 9.46536C18.0915 9.16589 18.1756 8.9035 18.3267 8.67818C18.5549 8.33593 18.8943 8.16481 19.3449 8.16481C19.8868 8.16481 20.2933 8.45002 20.5642 9.02043C20.761 9.43399 20.8594 9.8946 20.8594 10.4023ZM20.1835 10.0557C20.1835 9.87321 20.1335 9.67641 20.0337 9.46536C19.9139 9.21152 19.7742 9.08461 19.6145 9.08461C19.5289 9.08461 19.4576 9.11883 19.4006 9.18728C19.3435 9.25288 19.315 9.32988 19.315 9.4183C19.315 9.63506 19.3621 9.84611 19.4562 10.0515C19.576 10.3139 19.7385 10.445 19.9439 10.445C20.1036 10.445 20.1835 10.3153 20.1835 10.0557Z" fill="#082A20"/>
<path d="M28.1299 5.62789C28.1299 6.28957 28.0158 6.8443 27.7876 7.29208C27.5338 7.79119 27.1858 8.04075 26.7438 8.04075C26.4928 8.04075 26.2775 7.96089 26.0978 7.80117C26.0037 7.9124 25.8083 8.03077 25.5117 8.15626C25.5801 8.7666 25.6143 9.24718 25.6143 9.59799C25.6143 10.1228 25.5587 10.6675 25.4475 11.2322C25.302 11.9709 25.111 12.3403 24.8742 12.3403C24.6746 12.3403 24.5363 12.0921 24.4593 11.5959C24.445 11.5075 24.4207 11.1852 24.3865 10.629C24.3494 10.0358 24.301 9.59656 24.2411 9.31135C24.1298 8.78372 23.9801 8.31597 23.7919 7.90813C23.6749 7.65714 23.5309 7.41186 23.3598 7.17229C23.2286 6.98976 23.163 6.87995 23.163 6.84287C23.163 6.78013 23.2756 6.51774 23.501 6.0557L23.9587 5.11451C24.01 5.00613 24.0614 4.95194 24.1127 4.95194C24.1698 4.95194 24.2297 5.01469 24.2924 5.14018C24.5748 5.69919 24.8842 5.97869 25.2208 5.97869C25.4518 5.97869 25.6158 5.89883 25.7127 5.73912C25.727 5.7163 25.7783 5.56799 25.8668 5.29419C25.9181 5.13447 26.0051 5.05462 26.1277 5.05462C26.2475 5.05462 26.3331 5.13733 26.3844 5.30275C26.4015 5.35408 26.4472 5.50667 26.5213 5.76051C26.5983 5.92593 26.7252 6.00864 26.9021 6.00864C27.096 6.00864 27.2429 5.9245 27.3427 5.75623C27.3598 5.7163 27.4197 5.56229 27.5224 5.29419C27.588 5.12592 27.675 5.04178 27.7834 5.04178C28.0144 5.04178 28.1299 5.23715 28.1299 5.62789Z" fill="#082A20"/>
</g>
<defs>
<clipPath id="clip0_2120_584">
<rect width="34.6427" height="32.0703" fill="white" transform="translate(0.0112305 0.074585)"/>
</clipPath>
</defs>
</svg>
