<svg width="34" height="31" viewBox="0 0 34 31" fill="none" xmlns="http://www.w3.org/2000/svg">
<path d="M16.8169 30.8379C26.1046 30.8379 33.6338 23.9346 33.6338 15.4189C33.6338 6.90329 26.1046 0 16.8169 0C7.52918 0 0 6.90329 0 15.4189C0 23.9346 7.52918 30.8379 16.8169 30.8379Z" fill="#E6ECFF"/>
<path d="M30.312 24.6081C28.7436 22.6828 26.707 21.1195 24.3642 20.0424C22.0213 18.9653 19.4367 18.4041 16.8158 18.4033C14.1949 18.4026 11.61 18.9623 9.26638 20.0381C6.92278 21.1139 4.88516 22.676 3.31543 24.6003C4.87717 26.5345 6.91148 28.1061 9.25521 29.1894C11.599 30.2726 14.1869 30.8372 16.8116 30.838C19.4363 30.8387 22.0246 30.2756 24.3691 29.1937C26.7136 28.1118 28.7489 26.5413 30.312 24.6081Z" fill="#4294FF"/>
<path d="M16.8154 16.4138C20.4107 16.4138 23.3252 13.7416 23.3252 10.4452C23.3252 7.1488 20.4107 4.47656 16.8154 4.47656C13.2202 4.47656 10.3057 7.1488 10.3057 10.4452C10.3057 13.7416 13.2202 16.4138 16.8154 16.4138Z" fill="#4294FF"/>
</svg>
