<svg width="22" height="22" viewBox="0 0 22 22" fill="none" xmlns="http://www.w3.org/2000/svg">
<path d="M11.0001 22.0003C17.0753 22.0003 22.0003 17.0753 22.0003 11.0001C22.0003 4.92493 17.0753 0 11.0001 0C4.92493 0 0 4.92493 0 11.0001C0 17.0753 4.92493 22.0003 11.0001 22.0003Z" fill="#E6ECFF"/>
<path d="M19.8277 17.5558C18.8018 16.1823 17.4697 15.067 15.9372 14.2986C14.4047 13.5301 12.7141 13.1297 10.9997 13.1292C9.28537 13.1287 7.59451 13.528 6.06154 14.2955C4.52856 15.063 3.19572 16.1774 2.16895 17.5503C3.1905 18.9301 4.52116 20.0514 6.05423 20.8242C7.5873 21.5969 9.28012 21.9998 10.9969 22.0003C12.7138 22.0008 14.4068 21.5991 15.9404 20.8273C17.474 20.0554 18.8053 18.935 19.8277 17.5558Z" fill="#4294FF"/>
<path d="M11.0003 11.7098C13.352 11.7098 15.2584 9.80341 15.2584 7.45172C15.2584 5.10003 13.352 3.1936 11.0003 3.1936C8.64861 3.1936 6.74219 5.10003 6.74219 7.45172C6.74219 9.80341 8.64861 11.7098 11.0003 11.7098Z" fill="#4294FF"/>
</svg>
