<svg width="34" height="46" viewBox="0 0 34 46" fill="none" xmlns="http://www.w3.org/2000/svg">
<path d="M0 5.15903H33.8313V45.8179H0V5.15903Z" fill="#FBD984"/>
<path d="M0 5.15903H33.8313V5.95272H0V5.15903Z" fill="#FFE3A4"/>
<path d="M3.5 7.72952H30.3143V42.3275H3.5V7.72952Z" fill="white"/>
<path d="M24.3183 3.68888H20.6024C20.6024 1.65053 18.9518 0 16.9135 0C14.8751 0 13.2246 1.65053 13.2246 3.68888H9.50866C8.32714 3.68888 7.37109 4.64493 7.37109 5.82645V8.91104C7.37109 9.13653 7.55148 9.31691 7.77696 9.31691H26.0681C26.2935 9.31691 26.4739 9.13653 26.4739 8.91104V5.83547C26.4649 4.64493 25.4998 3.68888 24.3183 3.68888ZM14.9563 3.68888C14.9563 2.60657 15.8312 1.7317 16.9135 1.7317C17.9958 1.7317 18.8707 2.60657 18.8707 3.68888H14.9563Z" fill="#788D9A"/>
<path d="M18.8675 4.13085C18.8675 3.97752 18.8495 3.83321 18.8134 3.6889H15.0072C14.9712 3.83321 14.9531 3.97752 14.9531 4.13085H18.8675Z" fill="#94A6AF"/>
<path d="M24.3183 3.68888H20.6024C20.6024 1.65053 18.9518 0 16.9135 0C14.8751 0 13.2246 1.65053 13.2246 3.68888H9.50866C8.32714 3.68888 7.37109 4.64493 7.37109 5.82645V6.2684C7.37109 5.08687 8.32714 4.13083 9.50866 4.13083H13.2246C13.2246 2.09247 14.8751 0.441944 16.9135 0.441944C18.9518 0.441944 20.6024 2.09247 20.6024 4.13083H24.3183C25.4998 4.13083 26.4559 5.08687 26.4559 6.2684V5.82645C26.4649 4.64493 25.4998 3.68888 24.3183 3.68888Z" fill="#94A6AF"/>
<path d="M26.0563 8.45106H7.76524C7.53976 8.45106 7.35938 8.27068 7.35938 8.0452V8.91105C7.35938 9.13653 7.53976 9.31691 7.76524 9.31691H26.0563C26.2818 9.31691 26.4622 9.13653 26.4622 8.91105V8.0452C26.4622 8.27068 26.2818 8.45106 26.0563 8.45106Z" fill="#627782"/>
<path d="M6.76172 13.3124H9.24202V15.7927H6.76172V13.3124Z" fill="#F1786B"/>
<path d="M11.9531 13.6281H27.0604V15.468H11.9531V13.6281Z" fill="#DBDFE0"/>
<path d="M6.76172 18.5526H9.24202V21.0329H6.76172V18.5526Z" fill="#5AC8AE"/>
<path d="M11.9531 18.8683H27.0604V20.7082H11.9531V18.8683Z" fill="#DBDFE0"/>
<path d="M6.76172 23.7928H9.24202V26.2731H6.76172V23.7928Z" fill="#5AC8AE"/>
<path d="M11.9531 24.1085H27.0604V25.9485H11.9531V24.1085Z" fill="#DBDFE0"/>
<path d="M6.76172 29.033H9.24202V31.5133H6.76172V29.033Z" fill="#5AC8AE"/>
<path d="M11.9531 29.3577H27.0604V31.1977H11.9531V29.3577Z" fill="#DBDFE0"/>
<path d="M6.76172 34.2732H9.24202V36.7535H6.76172V34.2732Z" fill="#5AC8AE"/>
<path d="M11.9531 34.5979H27.0604V36.4379H11.9531V34.5979Z" fill="#DBDFE0"/>
</svg>
