<svg width="11" height="11" viewBox="0 0 11 11" fill="none" xmlns="http://www.w3.org/2000/svg">
<path fill-rule="evenodd" clip-rule="evenodd" d="M9.38899 1.61101C8.39016 0.618629 7.01757 0 5.49678 0C3.98243 0 2.6034 0.618629 1.61101 1.61101C0.618629 2.6034 0 3.98243 0 5.49678C0 7.01757 0.618629 8.39016 1.61101 9.38899C2.6034 10.3814 3.98243 11 5.49678 11C7.01757 11 8.39016 10.3814 9.38899 9.38899C10.3814 8.39016 11 7.01757 11 5.49678C11 3.98243 10.3814 2.6034 9.38899 1.61101Z" fill="#FF3100"/>
<path fill-rule="evenodd" clip-rule="evenodd" d="M2.69413 4.47217H8.30046C8.584 4.47217 8.84176 4.58816 9.02864 4.76859C9.21552 4.95547 9.33151 5.21323 9.33151 5.49677C9.33151 5.78031 9.21552 6.03807 9.02864 6.22495C8.84176 6.41183 8.584 6.52782 8.30046 6.52782H2.69413C2.4106 6.52782 2.15283 6.41183 1.96596 6.22495C1.77908 6.03807 1.66309 5.78031 1.66309 5.49677C1.66309 5.21323 1.77908 4.95547 1.96596 4.76859C2.15283 4.58816 2.4106 4.47217 2.69413 4.47217Z" fill="white"/>
</svg>
