<svg width="121" height="115" viewBox="0 0 121 115" fill="none" xmlns="http://www.w3.org/2000/svg">
<path d="M114.693 42.1723C118.176 25.8318 107.722 9.76786 91.3413 6.29257C74.961 2.81728 58.858 13.2466 55.3743 29.5872C51.8905 45.9277 62.3453 61.9916 78.7256 65.4669C95.1058 68.9422 111.209 58.5129 114.693 42.1723Z" fill="#4396D9"/>
<path fill-rule="evenodd" clip-rule="evenodd" d="M83.7453 66.0697C67.5818 65.4102 54.6797 52.1315 54.6797 35.8452C54.6797 19.5588 67.5806 6.28119 83.7433 5.62064C99.9068 6.28046 112.809 19.5588 112.809 35.8452C112.809 52.1315 99.908 65.4092 83.7453 66.0697Z" fill="#36A5FF"/>
<path fill-rule="evenodd" clip-rule="evenodd" d="M87.4198 16.8894H96.3441C94.5442 12.1938 91.5774 7.34007 87.6646 5.70935C91.0565 6.00341 94.2884 6.85401 97.2681 8.16977C97.9298 9.15331 98.5537 10.2163 99.1355 11.3522C100 13.0401 100.776 14.8956 101.45 16.8897H108.639C109.846 18.3845 110.912 19.9965 111.82 21.7055H102.812C103.654 25.3378 104.183 29.2919 104.332 33.4373H115.236C115.364 35.0502 115.363 36.6401 115.236 38.2531H104.332C104.183 42.3985 103.654 46.3523 102.812 49.9849H111.82C110.913 51.6938 109.846 53.3056 108.639 54.8007H101.451C100.777 56.7948 100 58.6503 99.1355 60.3381C98.5537 61.4741 97.9298 62.5371 97.2681 63.5206C94.2884 64.8364 91.0565 65.687 87.6646 65.981C91.5779 64.3501 94.5437 59.4965 96.3438 54.8007H87.4198V66.0027C85.8019 66.1298 84.2101 66.1298 82.5922 66.0027V54.8007H73.6679C75.468 59.4965 78.4338 64.3498 82.3471 65.981C78.9552 65.687 75.7236 64.8364 72.7436 63.5209C72.0819 62.5373 71.458 61.4741 70.876 60.3384C70.0114 58.6506 69.2347 56.795 68.5609 54.801H61.3721C60.1657 53.3061 59.0992 51.6941 58.1914 49.9851H67.1993C66.3571 46.3525 65.8282 42.3987 65.6796 38.2534H54.7752C54.6477 36.6404 54.648 35.0505 54.7752 33.4375H65.6798C65.8282 29.2922 66.3571 25.3381 67.1993 21.7058H58.1914C59.0989 19.9968 60.1657 18.385 61.3721 16.8899H68.5611C69.235 14.8958 70.0114 13.0403 70.8763 11.3525C71.4583 10.2166 72.0819 9.15355 72.7438 8.17001C75.7236 6.85426 78.9554 6.00365 82.3474 5.70959C78.4346 7.34031 75.468 12.1941 73.6679 16.8897H82.5922V5.68772C84.2101 5.56061 85.8019 5.56061 87.4198 5.68772V16.8894ZM87.4198 21.7053V33.437H99.5021C99.3428 29.2329 98.7691 25.27 97.8621 21.7053H87.4198ZM87.4198 38.2529V49.9846H97.8623C98.7693 46.4199 99.3428 42.457 99.5024 38.2529H87.42H87.4198ZM82.5922 49.9846V38.2529H70.5096C70.6692 42.457 71.2424 46.4199 72.1497 49.9846H82.5922ZM82.5922 33.437V21.7053H72.1499C71.2429 25.27 70.6692 29.2329 70.5099 33.437H82.5924H82.5922Z" fill="#C4E4FF"/>
<path fill-rule="evenodd" clip-rule="evenodd" d="M22.9648 111.034C30.0673 106.269 34.6033 99.0179 34.6033 90.8949H56.896C56.896 99.0179 61.432 106.269 68.5342 111.034H22.9648Z" fill="#2E526E"/>
<path fill-rule="evenodd" clip-rule="evenodd" d="M22.9648 111.034C30.0673 106.269 34.6033 99.0179 34.6033 90.8949H54.0815C54.0815 99.0179 58.6174 106.269 65.7197 111.034H22.9648Z" fill="#345B79"/>
<path fill-rule="evenodd" clip-rule="evenodd" d="M24.9903 104.421H66.5102C71.9766 104.421 76.5547 108.224 77.4658 113.185C77.7645 114.746 77.7855 115.002 75.8292 115C55.777 114.983 35.7239 114.983 15.6718 115C13.7155 115.002 13.7365 114.746 14.0349 113.185C14.9461 108.224 19.5239 104.421 24.9903 104.421Z" fill="#3F6D91"/>
<path fill-rule="evenodd" clip-rule="evenodd" d="M24.9905 104.421H63.6956C69.162 104.421 73.7401 108.224 74.6512 113.185C74.9343 114.665 74.9677 114.971 73.3047 114.998C63.8084 114.991 54.3121 114.987 44.8158 114.987H43.8703C34.374 114.987 24.8777 114.991 15.3814 114.998C13.7187 114.971 13.752 114.665 14.0349 113.185C14.946 108.224 19.5241 104.421 24.9905 104.421Z" fill="#487CA5"/>
<path d="M86.5239 30.5792H4.98447C2.23162 30.5792 0 32.8055 0 35.5516V87.6447C0 90.3908 2.23162 92.617 4.98447 92.617H86.5239C89.2767 92.617 91.5084 90.3908 91.5084 87.6447V35.5516C91.5084 32.8055 89.2767 30.5792 86.5239 30.5792Z" fill="#3F6D91"/>
<path d="M84.8536 30.5792H4.98447C2.23162 30.5792 0 32.8055 0 35.5516V87.6447C0 90.3908 2.23162 92.617 4.98447 92.617H84.8536C87.6065 92.617 89.8381 90.3908 89.8381 87.6447V35.5516C89.8381 32.8055 87.6065 30.5792 84.8536 30.5792Z" fill="#487CA5"/>
<path d="M6.86078 35.164H84.6487C85.611 35.164 86.3923 35.9434 86.3923 36.9033V86.2929C86.3923 87.2529 85.611 88.0325 84.6484 88.0325H6.86078C5.89848 88.0325 5.11719 87.2531 5.11719 86.2932V36.9033C5.11719 35.9434 5.89848 35.164 6.86078 35.164Z" fill="#ECEFF1"/>
<path fill-rule="evenodd" clip-rule="evenodd" d="M72.9212 70.8727H20.1392C19.2678 70.8727 18.5547 70.1616 18.5547 69.2921V42.9434C18.5547 42.0738 19.2675 41.3627 20.1392 41.3627H71.3367C72.2081 41.3627 72.9212 42.074 72.9212 42.9434V70.8727Z" fill="#14A172"/>
<path fill-rule="evenodd" clip-rule="evenodd" d="M70.9715 70.8727H20.1392C19.2678 70.8727 18.5547 70.1616 18.5547 69.2921V42.9433C18.5547 42.074 19.2675 41.3629 20.1392 41.3629H69.3873C70.2587 41.3629 70.9718 42.0743 70.9718 42.9433V70.8727H70.9715Z" fill="#1BBD87"/>
<path d="M18.5547 48.5053H72.9212V55.4307H18.5547V48.5053Z" fill="#2E526E"/>
<path fill-rule="evenodd" clip-rule="evenodd" d="M25.7659 64.8806C24.8231 64.8806 24.0586 64.1182 24.0586 63.1775C24.0586 62.2367 24.8228 61.4743 25.7659 61.4743H37.5337C38.4765 61.4743 39.241 62.2367 39.241 63.1775C39.241 64.1182 38.4768 64.8806 37.5337 64.8806H25.7659Z" fill="#ECEFF1"/>
<path d="M79.0612 73.4299C80.4569 67.5399 76.8018 61.6363 70.8974 60.244C64.9931 58.8517 59.0752 62.4979 57.6795 68.3879C56.2838 74.278 59.9388 80.1815 65.8432 81.5738C71.7476 82.9662 77.6655 79.32 79.0612 73.4299Z" fill="#D62023"/>
<path fill-rule="evenodd" clip-rule="evenodd" d="M67.7218 81.8141C61.9556 81.4793 57.3828 76.7091 57.3828 70.8727C57.3828 65.0364 61.9556 60.2665 67.7218 59.9313C73.488 60.2662 78.0608 65.0364 78.0608 70.8727C78.0608 76.7091 73.488 81.479 67.7218 81.8141Z" fill="#F24C4E"/>
<path fill-rule="evenodd" clip-rule="evenodd" d="M62.0038 72.2429C61.3373 71.578 61.3373 70.4997 62.0038 69.8348C62.6704 69.1698 63.7513 69.1698 64.4178 69.8348L66.5403 71.952L72.3253 66.1811C72.9918 65.5161 74.0728 65.5161 74.7393 66.1811C75.4058 66.846 75.4058 67.9243 74.7393 68.5892L67.7472 75.5642C67.0806 76.2291 65.9997 76.2291 65.3331 75.5642L62.0036 72.2427L62.0038 72.2429Z" fill="#ECEFF1"/>
<path fill-rule="evenodd" clip-rule="evenodd" d="M46.5628 64.8806C45.6199 64.8806 44.8555 64.1182 44.8555 63.1775C44.8555 62.2367 45.6197 61.4743 46.5628 61.4743H54.3757C55.3185 61.4743 56.0829 62.2367 56.0829 63.1775C56.0829 64.1182 55.3185 64.8806 54.3757 64.8806H46.5628Z" fill="#ECEFF1"/>
<path d="M18.5547 48.5053H70.9715V55.4307H18.5547V48.5053Z" fill="#00466C"/>
</svg>
