<svg width="56" height="56" viewBox="0 0 56 56" fill="none" xmlns="http://www.w3.org/2000/svg">
<path d="M23.415 55.4017V19.1487C23.415 16.3591 25.6706 14.1035 28.4602 14.1035H37.1121C39.9016 14.1035 42.1572 16.3591 42.1572 19.1487V55.4017H23.415Z" fill="#B5100B"/>
<path d="M23.415 55.4017V19.1487C23.415 16.3591 25.6706 14.1035 28.4602 14.1035H33.9412C36.7307 14.1035 38.9863 16.3591 38.9863 19.1487V55.4017H23.415Z" fill="#DB3328"/>
<path d="M37.1119 14.1034H28.46C28.46 12.5343 29.724 11.2703 31.2931 11.2703H34.2788C35.8479 11.2703 37.1119 12.5343 37.1119 14.1034Z" fill="#747E6C"/>
<path d="M35.728 14.1034H28.46C28.46 12.5343 29.724 11.2703 31.2931 11.2703H32.8949C34.464 11.2703 35.728 12.5343 35.728 14.1034Z" fill="#C4C1AB"/>
<path d="M23.415 49.0815H42.1572V55.4016H23.415V49.0815Z" fill="#1C2617"/>
<path d="M36.0224 52.0563H23.415V49.0815H38.9972C38.9972 50.7269 37.6678 52.0563 36.0224 52.0563Z" fill="#323D2C"/>
<path d="M31.3037 8.32837H34.2894V11.2705H31.3037V8.32837Z" fill="#747E6C"/>
<path d="M33.1117 11.2702H31.292V9.30884H32.2182C32.7086 9.30884 33.1117 9.71201 33.1117 10.2024V11.2702Z" fill="#C4C1AB"/>
<path d="M35.2595 3.45752L30.3887 4.32925V8.32831H35.2595V3.45752Z" fill="#DB3328"/>
<path d="M33.876 3.69725V8.32831H35.2925V3.45752L33.876 3.69725Z" fill="#B5100B"/>
<path d="M46.7329 9.30894L35.2588 6.56299V8.32824L46.7329 11.0742V9.30894Z" fill="#B5100B"/>
<path d="M46.7336 2.30249L35.2595 5.05933L30.3887 4.32926L46.7336 0.700684V2.30249Z" fill="#DB3328"/>
<path d="M14.6969 33.75H12.5176V22.7445C12.5176 18.6037 13.9886 14.572 16.6474 11.3902L16.8435 11.1505C20.2215 7.1405 25.1577 4.84131 30.388 4.84131V7.02063C25.7897 7.02063 21.4637 9.03651 18.5107 12.5561L18.3146 12.7958C15.9827 15.5854 14.6969 19.1159 14.6969 22.7445V33.75Z" fill="#323D2C"/>
<path d="M13.1714 23.4527C13.1714 19.312 14.6642 15.2803 17.3339 12.0985L17.5409 11.8587C20.7554 8.02312 25.3756 5.75662 30.388 5.56049V4.84131C25.1577 4.84131 20.2106 7.1405 16.8435 11.1614L16.6474 11.4011C13.9886 14.572 12.5176 18.6146 12.5176 22.7554V32.9546H13.1714V23.4527Z" fill="#485143"/>
<path d="M10.2839 37.2368H16.9308L18.8486 47.7194H8.37695L10.2839 37.2368Z" fill="#323D2C"/>
<path d="M16.9308 37.2043H15.2091L15.7758 40.3317C16.277 43.0776 14.174 45.5947 11.3844 45.5947H8.75833L8.37695 47.6651H18.8595L16.9308 37.2043Z" fill="#1C2617"/>
<path d="M11.5371 32.9546H15.6778V37.237H11.5371V32.9546Z" fill="#747E6C"/>
<path d="M14.6862 32.9546H11.5371V36.2999H12.8229C13.8472 36.2999 14.6753 35.4717 14.6753 34.4474V32.9546H14.6862Z" fill="#C4C1AB"/>
<path d="M20.5811 30.4158H42.1564V33.761H20.5811V30.4158Z" fill="#1C2617"/>
<path d="M20.5811 30.4158H38.9963V33.761H20.5811V30.4158Z" fill="#323D2C"/>
<path d="M10.5566 39.2093C10.5566 38.61 11.047 38.1196 11.6463 38.1196H12.518C13.1173 38.1196 13.6077 38.61 13.6077 39.2093C13.6077 39.8086 13.1173 40.299 12.518 40.299H11.6463C11.047 40.299 10.5566 39.8086 10.5566 39.2093Z" fill="#485143"/>
<path d="M26.3018 17.8082C26.3018 17.2089 26.7921 16.7185 27.3914 16.7185H32.0225C32.6218 16.7185 33.1121 17.2089 33.1121 17.8082C33.1121 18.4075 32.6218 18.8978 32.0225 18.8978H27.3914C26.7921 18.8978 26.3018 18.4075 26.3018 17.8082Z" fill="#E67368"/>
</svg>
