<svg width="39" height="32" viewBox="0 0 39 32" fill="none" xmlns="http://www.w3.org/2000/svg">
<path fill-rule="evenodd" clip-rule="evenodd" d="M28.5713 6.92892V25.2839C28.5693 25.8587 28.3394 26.4095 27.9317 26.8161C27.524 27.2228 26.9716 27.4524 26.3949 27.4548H2.74138C2.16464 27.4524 1.61225 27.2228 1.20458 26.8161C0.796908 26.4095 0.566996 25.8587 0.564941 25.2839V6.92892L15.12 5.78198L28.5713 6.92892Z" fill="#F9F7F8"/>
<path fill-rule="evenodd" clip-rule="evenodd" d="M28.5709 6.92969V25.2846C28.5688 25.8595 28.3389 26.4103 27.9312 26.8169C27.5236 27.2236 26.9712 27.4531 26.3944 27.4556H24.5498C25.1265 27.4531 25.6789 27.2236 26.0866 26.8169C26.4943 26.4103 26.7242 25.8595 26.7262 25.2846V6.92969H28.5709Z" fill="#EBE8FA"/>
<path fill-rule="evenodd" clip-rule="evenodd" d="M26.3949 2.56445H2.74138C2.16464 2.56691 1.61225 2.79648 1.20458 3.20312C0.796908 3.60976 0.566996 4.16052 0.564941 4.73539V6.92812H28.5713V4.73617C28.5695 4.16103 28.3395 3.60995 27.9317 3.20312C27.5238 2.79629 26.9711 2.56671 26.3941 2.56445H26.3949Z" fill="#FF7D91"/>
<path fill-rule="evenodd" clip-rule="evenodd" d="M26.3945 2.56445H24.5498C25.1265 2.56691 25.6789 2.79648 26.0866 3.20312C26.4943 3.60976 26.7242 4.16052 26.7262 4.73539V6.92812H28.5709V4.73617C28.5691 4.16117 28.3392 3.6102 27.9315 3.20339C27.5238 2.79658 26.9713 2.56691 26.3945 2.56445Z" fill="#E15F78"/>
<path fill-rule="evenodd" clip-rule="evenodd" d="M5.23499 11.1136H8.8642C9.0208 11.1141 9.17088 11.1763 9.28161 11.2866C9.39235 11.397 9.45474 11.5466 9.45515 11.7027V15.3201C9.45474 15.4762 9.39235 15.6258 9.28161 15.7362C9.17088 15.8466 9.0208 15.9088 8.8642 15.9092H5.23499C5.07839 15.9088 4.92832 15.8466 4.81758 15.7362C4.70685 15.6258 4.64446 15.4762 4.64404 15.3201V11.7027C4.64446 11.5466 4.70685 11.397 4.81758 11.2866C4.92832 11.1763 5.07839 11.1141 5.23499 11.1136Z" fill="#B3E59F"/>
<path fill-rule="evenodd" clip-rule="evenodd" d="M7.01709 11.1136H8.86175C9.01835 11.1141 9.16842 11.1763 9.27916 11.2866C9.38989 11.397 9.45229 11.5466 9.4527 11.7027V15.3201C9.45229 15.4762 9.38989 15.6258 9.27916 15.7362C9.16842 15.8466 9.01835 15.9088 8.86175 15.9092H7.01709C7.17369 15.9088 7.32376 15.8466 7.4345 15.7362C7.54523 15.6258 7.60763 15.4762 7.60804 15.3201V11.7027C7.60763 11.5466 7.54523 11.397 7.4345 11.2866C7.32376 11.1763 7.17369 11.1141 7.01709 11.1136Z" fill="#95D6A4"/>
<path fill-rule="evenodd" clip-rule="evenodd" d="M5.23499 18.9462H8.8642C9.0208 18.9466 9.17088 19.0088 9.28161 19.1192C9.39235 19.2295 9.45474 19.3791 9.45515 19.5352V23.1527C9.45474 23.3088 9.39235 23.4583 9.28161 23.5687C9.17088 23.6791 9.0208 23.7413 8.8642 23.7417H5.23499C5.07839 23.7413 4.92832 23.6791 4.81758 23.5687C4.70685 23.4583 4.64446 23.3088 4.64404 23.1527V19.5352C4.64446 19.3791 4.70685 19.2295 4.81758 19.1192C4.92832 19.0088 5.07839 18.9466 5.23499 18.9462Z" fill="#B3E59F"/>
<path fill-rule="evenodd" clip-rule="evenodd" d="M12.8292 11.1136H16.4545C16.6111 11.1141 16.7612 11.1763 16.8719 11.2866C16.9827 11.397 17.0451 11.5466 17.0455 11.7027V15.3201C17.0451 15.4762 16.9827 15.6258 16.8719 15.7362C16.7612 15.8466 16.6111 15.9088 16.4545 15.9092H12.8253C12.6688 15.9084 12.519 15.846 12.4084 15.7357C12.2977 15.6255 12.2352 15.4761 12.2344 15.3201V11.7027C12.2352 11.5467 12.2977 11.3974 12.4084 11.2871C12.519 11.1768 12.6688 11.1145 12.8253 11.1136H12.8292Z" fill="#B3E59F"/>
<path fill-rule="evenodd" clip-rule="evenodd" d="M12.8292 18.9462H16.4545C16.6111 18.9466 16.7612 19.0088 16.8719 19.1192C16.9827 19.2295 17.0451 19.3791 17.0455 19.5352V23.1527C17.0451 23.3088 16.9827 23.4583 16.8719 23.5687C16.7612 23.6791 16.6111 23.7413 16.4545 23.7417H12.8253C12.6688 23.7409 12.519 23.6786 12.4084 23.5683C12.2977 23.458 12.2352 23.3086 12.2344 23.1527V19.5352C12.2352 19.3786 12.2983 19.2286 12.4098 19.1182C12.5212 19.0078 12.6721 18.946 12.8292 18.9462Z" fill="#B3E59F"/>
<path fill-rule="evenodd" clip-rule="evenodd" d="M20.6886 11.1136H24.3155C24.472 11.1143 24.6218 11.1765 24.7324 11.2869C24.843 11.3973 24.9052 11.5467 24.9056 11.7027V15.3201C24.9052 15.4761 24.843 15.6256 24.7324 15.7359C24.6218 15.8463 24.472 15.9086 24.3155 15.9092H20.6886C20.532 15.9088 20.3819 15.8466 20.2712 15.7362C20.1605 15.6258 20.0981 15.4762 20.0977 15.3201V11.7027C20.0981 11.5466 20.1605 11.397 20.2712 11.2866C20.3819 11.1763 20.532 11.1141 20.6886 11.1136Z" fill="#B3E59F"/>
<path fill-rule="evenodd" clip-rule="evenodd" d="M20.6886 18.9462H24.3155C24.472 18.9468 24.6218 19.0091 24.7324 19.1194C24.843 19.2298 24.9052 19.3793 24.9056 19.5352V23.1527C24.9052 23.3086 24.843 23.4581 24.7324 23.5685C24.6218 23.6788 24.472 23.7411 24.3155 23.7417H20.6886C20.532 23.7413 20.3819 23.6791 20.2712 23.5687C20.1605 23.4583 20.0981 23.3088 20.0977 23.1527V19.5352C20.0981 19.3791 20.1605 19.2295 20.2712 19.1192C20.3819 19.0088 20.532 18.9466 20.6886 18.9462Z" fill="#B3E59F"/>
<path fill-rule="evenodd" clip-rule="evenodd" d="M14.613 11.1136H16.4545C16.6111 11.1141 16.7612 11.1763 16.8719 11.2866C16.9827 11.397 17.0451 11.5466 17.0455 11.7027V15.3201C17.0451 15.4762 16.9827 15.6258 16.8719 15.7362C16.7612 15.8466 16.6111 15.9088 16.4545 15.9092H14.6099C14.7665 15.9088 14.9165 15.8466 15.0273 15.7362C15.138 15.6258 15.2004 15.4762 15.2008 15.3201V11.7027C15.2004 11.5466 15.138 11.397 15.0273 11.2866C14.9165 11.1763 14.7665 11.1141 14.6099 11.1136H14.613Z" fill="#95D6A4"/>
<path fill-rule="evenodd" clip-rule="evenodd" d="M22.4668 11.1136H24.3115C24.4679 11.1143 24.6178 11.1765 24.7283 11.2869C24.8389 11.3973 24.9012 11.5467 24.9016 11.7027V15.3201C24.9012 15.4761 24.8389 15.6256 24.7283 15.7359C24.6178 15.8463 24.4679 15.9086 24.3115 15.9092H22.4668C22.6234 15.9088 22.7735 15.8466 22.8842 15.7362C22.9949 15.6258 23.0573 15.4762 23.0577 15.3201V11.7027C23.0573 11.5466 22.9949 11.397 22.8842 11.2866C22.7735 11.1763 22.6234 11.1141 22.4668 11.1136Z" fill="#95D6A4"/>
<path fill-rule="evenodd" clip-rule="evenodd" d="M7.01709 18.9453H8.86175C9.01835 18.9457 9.16842 19.0079 9.27916 19.1183C9.38989 19.2287 9.45229 19.3783 9.4527 19.5344V23.1518C9.45229 23.3079 9.38989 23.4575 9.27916 23.5679C9.16842 23.6782 9.01835 23.7404 8.86175 23.7408H7.01709C7.17369 23.7404 7.32376 23.6782 7.4345 23.5679C7.54523 23.4575 7.60763 23.3079 7.60804 23.1518V19.5344C7.60763 19.3783 7.54523 19.2287 7.4345 19.1183C7.32376 19.0079 7.17369 18.9457 7.01709 18.9453Z" fill="#95D6A4"/>
<path fill-rule="evenodd" clip-rule="evenodd" d="M14.613 18.9453H16.4545C16.6111 18.9457 16.7612 19.0079 16.8719 19.1183C16.9827 19.2287 17.0451 19.3783 17.0455 19.5344V23.1518C17.0451 23.3079 16.9827 23.4575 16.8719 23.5679C16.7612 23.6782 16.6111 23.7404 16.4545 23.7408H14.6099C14.7665 23.7404 14.9165 23.6782 15.0273 23.5679C15.138 23.4575 15.2004 23.3079 15.2008 23.1518V19.5344C15.2004 19.3783 15.138 19.2287 15.0273 19.1183C14.9165 19.0079 14.7665 18.9457 14.6099 18.9453H14.613Z" fill="#95D6A4"/>
<path fill-rule="evenodd" clip-rule="evenodd" d="M14.613 18.9453H16.4545C16.6111 18.9457 16.7612 19.0079 16.8719 19.1183C16.9827 19.2287 17.0451 19.3783 17.0455 19.5344V23.1518C17.0451 23.3079 16.9827 23.4575 16.8719 23.5679C16.7612 23.6782 16.6111 23.7404 16.4545 23.7408H14.6099C14.7665 23.7404 14.9165 23.6782 15.0273 23.5679C15.138 23.4575 15.2004 23.3079 15.2008 23.1518V19.5344C15.2004 19.3783 15.138 19.2287 15.0273 19.1183C14.9165 19.0079 14.7665 18.9457 14.6099 18.9453H14.613Z" fill="black" fill-opacity="0.2"/>
<path fill-rule="evenodd" clip-rule="evenodd" d="M22.9925 30.873L28.6405 25.0753C28.7933 24.9163 28.9771 24.7902 29.1806 24.7047C29.3841 24.6192 29.6031 24.5761 29.8239 24.5781H37.6702C38.0066 24.5781 38.1385 24.3571 37.8622 24.0995L23.012 9.98688C22.7474 9.73555 22.5054 9.84604 22.5054 10.204V30.6801C22.5054 31.0543 22.7247 31.1508 22.9925 30.8761V30.873Z" fill="#CBE2FF"/>
<path fill-rule="evenodd" clip-rule="evenodd" d="M35.8255 24.5766H37.6702C38.0066 24.5766 38.1385 24.3556 37.8622 24.0981L23.012 9.98542C22.7474 9.73409 22.5054 9.84457 22.5054 10.2025V11.2592L36.0176 24.0981C36.2908 24.3556 36.1588 24.5766 35.8255 24.5766Z" fill="#BED8FB"/>
<path d="M27.6621 26.1577C27.6107 26.2135 27.5485 26.2585 27.4793 26.29C27.4101 26.3215 27.3352 26.3388 27.2592 26.3409C27.1832 26.343 27.1075 26.3298 27.0366 26.3022C26.9658 26.2746 26.9012 26.2331 26.8467 26.1802C26.7923 26.1273 26.749 26.064 26.7195 25.9941C26.6901 25.9242 26.675 25.8491 26.6752 25.7732C26.6753 25.6974 26.6908 25.6224 26.7206 25.5526C26.7504 25.4829 26.794 25.4198 26.8487 25.3671L28.7129 23.4561C28.7655 23.4011 28.8287 23.3574 28.8987 23.3274C28.9688 23.2975 29.0442 23.282 29.1204 23.2818H36.9268C32.3096 18.8953 27.6926 14.5072 23.0758 10.1176V29.2406L25.0477 27.2175C25.1533 27.1121 25.2964 27.0525 25.4458 27.0516C25.5952 27.0507 25.739 27.1085 25.8459 27.2126C25.9528 27.3167 26.0141 27.4586 26.0167 27.6075C26.0193 27.7564 25.9628 27.9004 25.8596 28.0081L22.9408 31.0046C22.8659 31.0941 22.7651 31.1585 22.6522 31.189C22.5393 31.2194 22.4197 31.2144 22.3098 31.1747C22.1998 31.135 22.1048 31.0625 22.0376 30.967C21.9705 30.8715 21.9345 30.7578 21.9345 30.6412V28.0244H2.74787C2.01959 28.0223 1.32173 27.733 0.806832 27.2196C0.291931 26.7062 0.0018539 26.0106 0 25.2846L0 24.1828C0 24.0321 0.0600808 23.8875 0.167025 23.7809C0.27397 23.6743 0.419018 23.6144 0.57026 23.6144C0.721503 23.6144 0.866551 23.6743 0.973495 23.7809C1.08044 23.8875 1.14052 24.0321 1.14052 24.1828V25.2846C1.14237 25.7091 1.31228 26.1156 1.6133 26.4158C1.91431 26.716 2.32207 26.8855 2.74787 26.8876H21.9361V24.3073H20.0992C20.0244 24.3074 19.9503 24.2928 19.8811 24.2644C19.8119 24.2359 19.749 24.1942 19.6961 24.1415C19.6431 24.0888 19.601 24.0263 19.5723 23.9574C19.5435 23.8885 19.5287 23.8147 19.5286 23.7401V18.9461C19.5287 18.8715 19.5435 18.7977 19.5723 18.7288C19.601 18.6599 19.6431 18.5974 19.6961 18.5447C19.749 18.492 19.8119 18.4503 19.8811 18.4218C19.9503 18.3934 20.0244 18.3788 20.0992 18.3789H21.9361V16.4779H20.0992C20.0244 16.478 19.9503 16.4635 19.8811 16.435C19.8119 16.4066 19.749 16.3648 19.6961 16.3121C19.6431 16.2595 19.601 16.1969 19.5723 16.128C19.5435 16.0591 19.5287 15.9853 19.5286 15.9107V11.1136C19.5287 11.039 19.5435 10.9652 19.5723 10.8963C19.601 10.8274 19.6431 10.7649 19.6961 10.7122C19.749 10.6595 19.8119 10.6178 19.8811 10.5893C19.9503 10.5609 20.0244 10.5463 20.0992 10.5464H24.9025C24.9774 10.5463 25.0515 10.5609 25.1207 10.5893C25.1899 10.6178 25.2527 10.6595 25.3057 10.7122C25.3587 10.7649 25.4008 10.8274 25.4295 10.8963C25.4582 10.9652 25.4731 11.039 25.4732 11.1136V10.8366L27.9994 13.2363V12.0785C27.9994 11.9277 28.0594 11.7832 28.1664 11.6766C28.2733 11.57 28.4184 11.5101 28.5696 11.5101C28.7209 11.5101 28.8659 11.57 28.9728 11.6766C29.0798 11.7832 29.1399 11.9277 29.1399 12.0785V14.3218L38.7074 23.4071C38.7996 23.4811 38.8663 23.5819 38.8984 23.6954C38.9306 23.8089 38.9265 23.9295 38.8868 24.0407C38.8471 24.1518 38.7737 24.2478 38.6768 24.3155C38.5799 24.3832 38.4643 24.4193 38.346 24.4186H29.3585L27.6621 26.1577ZM4.7955 1.16387C4.7905 1.08637 4.80151 1.00867 4.82783 0.935576C4.85415 0.862482 4.89523 0.795545 4.94853 0.738899C5.00182 0.682254 5.06621 0.637103 5.1377 0.606238C5.2092 0.575373 5.28628 0.559448 5.36419 0.559448C5.44211 0.559448 5.51919 0.575373 5.59068 0.606238C5.66218 0.637103 5.72656 0.682254 5.77986 0.738899C5.83316 0.795545 5.87424 0.862482 5.90056 0.935576C5.92688 1.00867 5.93789 1.08637 5.93289 1.16387V1.99567H9.39505V1.16387C9.39505 1.01311 9.45513 0.868537 9.56207 0.761939C9.66902 0.65534 9.81407 0.595454 9.96531 0.595454C10.1166 0.595454 10.2616 0.65534 10.3685 0.761939C10.4755 0.868537 10.5356 1.01311 10.5356 1.16387V1.99567H13.9977V1.16387C13.9977 1.01311 14.0578 0.868537 14.1648 0.761939C14.2717 0.65534 14.4167 0.595454 14.568 0.595454C14.7192 0.595454 14.8643 0.65534 14.9712 0.761939C15.0782 0.868537 15.1382 1.01311 15.1382 1.16387V1.99567H18.6027V1.16387C18.6027 1.01281 18.6629 0.86793 18.7701 0.761113C18.8773 0.654296 19.0226 0.594287 19.1742 0.594287C19.3257 0.594287 19.4711 0.654296 19.5782 0.761113C19.6854 0.86793 19.7456 1.01281 19.7456 1.16387V1.99567H23.2078V1.16387C23.2078 1.01311 23.2678 0.868537 23.3748 0.761939C23.4817 0.65534 23.6268 0.595454 23.778 0.595454C23.9293 0.595454 24.0743 0.65534 24.1813 0.761939C24.2882 0.868537 24.3483 1.01311 24.3483 1.16387V1.99567H26.3975C27.1256 1.99773 27.8234 2.28695 28.3382 2.80016C28.8531 3.31338 29.1433 4.00885 29.1453 4.73464V9.50137C29.1453 9.65212 29.0853 9.7967 28.9783 9.9033C28.8714 10.0099 28.7263 10.0698 28.5751 10.0698C28.4238 10.0698 28.2788 10.0099 28.1718 9.9033C28.0649 9.7967 28.0048 9.65212 28.0048 9.50137V7.49928H1.14052V21.6042C1.14052 21.7549 1.08044 21.8995 0.973495 22.0061C0.866551 22.1127 0.721503 22.1726 0.57026 22.1726C0.419018 22.1726 0.27397 22.1127 0.167025 22.0061C0.0600808 21.8995 0 21.7549 0 21.6042L0 4.73619C0.00164697 4.01027 0.291526 3.31451 0.806281 2.80099C1.32104 2.28746 2.01881 1.99793 2.74709 1.99567H4.79628V1.16387H4.7955ZM5.93289 3.13639V3.96975C5.93289 4.1205 5.87281 4.26508 5.76587 4.37168C5.65892 4.47828 5.51388 4.53816 5.36263 4.53816C5.21139 4.53816 5.06634 4.47828 4.9594 4.37168C4.85245 4.26508 4.79237 4.1205 4.79237 3.96975V3.13405H2.74552C2.32013 3.13671 1.91297 3.30655 1.61246 3.60666C1.31195 3.90678 1.14236 4.31295 1.14052 4.73697V6.3609H28.0064V4.73619C28.0043 4.31191 27.8343 3.90559 27.5333 3.60557C27.2323 3.30555 26.8247 3.1361 26.399 3.13405H24.3498V3.96742C24.3498 4.11817 24.2898 4.26275 24.1828 4.36934C24.0759 4.47594 23.9308 4.53583 23.7796 4.53583C23.6283 4.53583 23.4833 4.47594 23.3763 4.36934C23.2694 4.26275 23.2093 4.11817 23.2093 3.96742V3.13405H19.7503V3.96742C19.7503 4.11848 19.6901 4.26335 19.5829 4.37017C19.4758 4.47699 19.3304 4.537 19.1789 4.537C19.0273 4.537 18.882 4.47699 18.7748 4.37017C18.6676 4.26335 18.6074 4.11848 18.6074 3.96742V3.13405H15.1445V3.96742C15.1445 4.11817 15.0844 4.26275 14.9775 4.36934C14.8705 4.47594 14.7255 4.53583 14.5742 4.53583C14.423 4.53583 14.2779 4.47594 14.171 4.36934C14.0641 4.26275 14.004 4.11817 14.004 3.96742V3.13405H10.5387V3.96742C10.5387 4.11817 10.4786 4.26275 10.3717 4.36934C10.2647 4.47594 10.1197 4.53583 9.96843 4.53583C9.81719 4.53583 9.67214 4.47594 9.5652 4.36934C9.45825 4.26275 9.39817 4.11817 9.39817 3.96742V3.13405L5.93289 3.13639ZM21.9361 23.1713V19.5141H20.6707V23.1713H21.9361ZM21.9361 15.3388V8.79484C21.9367 8.68416 21.9697 8.57606 22.0311 8.48384C22.0925 8.39161 22.1796 8.31927 22.2817 8.27571C22.3838 8.23215 22.4964 8.21927 22.6057 8.23865C22.715 8.25802 22.8163 8.30881 22.8971 8.38477L24.3389 9.75503V11.6832H20.6699V15.3403L21.9361 15.3388ZM12.2444 18.3789H17.0493C17.1241 18.3784 17.1984 18.3927 17.2677 18.421C17.3369 18.4493 17.3999 18.4911 17.4528 18.5439C17.5058 18.5966 17.5477 18.6594 17.5761 18.7284C17.6045 18.7975 17.6189 18.8715 17.6184 18.9461V23.7409C17.6189 23.8155 17.6045 23.8895 17.5761 23.9586C17.5477 24.0276 17.5058 24.0903 17.4528 24.1431C17.3999 24.1959 17.3369 24.2377 17.2677 24.266C17.1984 24.2943 17.1241 24.3086 17.0493 24.3081H12.2444C12.1695 24.3083 12.0954 24.2938 12.0261 24.2654C11.9569 24.237 11.894 24.1952 11.841 24.1425C11.788 24.0898 11.7459 24.0272 11.7172 23.9583C11.6885 23.8894 11.6737 23.8155 11.6737 23.7409V18.9461C11.6737 18.8715 11.6885 18.7976 11.7172 18.7287C11.7459 18.6598 11.788 18.5972 11.841 18.5445C11.894 18.4918 11.9569 18.45 12.0261 18.4216C12.0954 18.3932 12.1695 18.3787 12.2444 18.3789ZM16.4841 19.5165H12.8151V23.1736H16.4841V19.5165ZM12.2444 10.5479H17.0493C17.1241 10.5474 17.1984 10.5617 17.2677 10.5901C17.3369 10.6184 17.3999 10.6601 17.4528 10.7129C17.5058 10.7657 17.5477 10.8284 17.5761 10.8975C17.6045 10.9665 17.6189 11.0405 17.6184 11.1152V15.9099C17.6189 15.9846 17.6045 16.0586 17.5761 16.1276C17.5477 16.1967 17.5058 16.2594 17.4528 16.3122C17.3999 16.365 17.3369 16.4067 17.2677 16.435C17.1984 16.4634 17.1241 16.4777 17.0493 16.4772H12.2444C12.1695 16.4774 12.0954 16.4629 12.0261 16.4344C11.9569 16.406 11.894 16.3643 11.841 16.3116C11.788 16.2589 11.7459 16.1963 11.7172 16.1274C11.6885 16.0584 11.6737 15.9845 11.6737 15.9099V11.1136C11.6737 11.039 11.6885 10.9651 11.7172 10.8962C11.7459 10.8273 11.788 10.7647 11.841 10.712C11.894 10.6593 11.9569 10.6175 12.0261 10.5891C12.0954 10.5607 12.1695 10.5462 12.2444 10.5464V10.5479ZM16.4841 11.684H12.8151V15.3411H16.4841V11.684ZM4.64873 18.3758H9.4536C9.6046 18.3758 9.74943 18.4355 9.85628 18.5419C9.96313 18.6482 10.0233 18.7925 10.0235 18.943V23.7378C10.0234 23.8124 10.0085 23.8862 9.97979 23.9551C9.95106 24.0239 9.90899 24.0865 9.856 24.1392C9.80301 24.1919 9.74014 24.2336 9.67096 24.2621C9.60178 24.2905 9.52765 24.3051 9.45282 24.305H4.64795C4.57312 24.3051 4.49899 24.2905 4.42981 24.2621C4.36064 24.2336 4.29776 24.1919 4.24477 24.1392C4.19178 24.0865 4.14971 24.0239 4.12098 23.9551C4.09225 23.8862 4.07741 23.8124 4.0773 23.7378V18.9461C4.07741 18.8715 4.09225 18.7977 4.12098 18.7288C4.14971 18.6599 4.19178 18.5974 4.24477 18.5447C4.29776 18.492 4.36064 18.4503 4.42981 18.4218C4.49899 18.3934 4.57312 18.3788 4.64795 18.3789L4.64873 18.3758ZM8.88841 19.5134H5.21938V23.1705H8.88841V19.5134ZM4.64873 10.5479H9.4536C9.6046 10.5479 9.74943 10.6077 9.85628 10.714C9.96313 10.8204 10.0233 10.9647 10.0235 11.1152V15.9099C10.0234 15.9845 10.0085 16.0584 9.97979 16.1272C9.95106 16.1961 9.90899 16.2587 9.856 16.3113C9.80301 16.364 9.74014 16.4058 9.67096 16.4342C9.60178 16.4627 9.52765 16.4773 9.45282 16.4772H4.64795C4.57312 16.4773 4.49899 16.4627 4.42981 16.4342C4.36064 16.4058 4.29776 16.364 4.24477 16.3113C4.19178 16.2587 4.14971 16.1961 4.12098 16.1272C4.09225 16.0584 4.07741 15.9845 4.0773 15.9099V11.1136C4.07741 11.039 4.09225 10.9652 4.12098 10.8963C4.14971 10.8274 4.19178 10.7649 4.24477 10.7122C4.29776 10.6595 4.36064 10.6178 4.42981 10.5893C4.49899 10.5609 4.57312 10.5463 4.64795 10.5464L4.64873 10.5479ZM8.88841 11.684H5.21938V15.3411H8.88841V11.684Z" fill="black"/>
</svg>
