<svg width="15" height="18" viewBox="0 0 15 18" fill="none" xmlns="http://www.w3.org/2000/svg">
<path fill-rule="evenodd" clip-rule="evenodd" d="M4.14648 0.492708C4.1465 0.362158 4.19836 0.236959 4.29065 0.144623C4.38294 0.0522874 4.50811 0.000369158 4.63867 0.00027729L9.56022 0C9.69078 0.000302729 9.81597 0.0523647 9.90818 0.144775C10.0005 0.237184 10.0523 0.362404 10.0525 0.492985V1.71018H4.14648V0.492708ZM12.2385 17.0414C12.226 17.2334 12.1405 17.4132 11.9997 17.5442C11.8589 17.6752 11.6733 17.7474 11.481 17.7461H2.66139C2.46911 17.7455 2.28414 17.6723 2.14363 17.541C2.00313 17.4098 1.91749 17.2303 1.9039 17.0384L1.14919 5.99825H13.044L12.2385 17.0414ZM14.1992 4.99835H0V3.85452C0.000211086 3.55116 0.120798 3.26029 0.335285 3.04575C0.549773 2.83122 0.840631 2.71056 1.14399 2.7103L13.0551 2.70991C13.3584 2.71038 13.6492 2.83114 13.8636 3.04569C14.078 3.26025 14.1986 3.55109 14.1989 3.85443L14.1992 4.99835ZM4.81332 15.1142C4.81332 15.1798 4.82626 15.2449 4.85137 15.3055C4.8765 15.3661 4.91332 15.4213 4.95974 15.4677C5.00616 15.5141 5.06126 15.5509 5.12191 15.576C5.18256 15.6012 5.24756 15.6141 5.31321 15.6141C5.37885 15.6141 5.44386 15.6012 5.50451 15.576C5.56515 15.5509 5.62026 15.5141 5.66667 15.4677C5.71309 15.4213 5.74992 15.3661 5.77504 15.3055C5.80016 15.2449 5.81309 15.1798 5.81309 15.1142V8.10412C5.81204 7.97229 5.75895 7.8462 5.66536 7.75334C5.57178 7.66047 5.4453 7.60834 5.31347 7.60829C5.18162 7.60825 5.05511 7.66029 4.96147 7.75309C4.86783 7.8459 4.81464 7.97194 4.8135 8.10378L4.81332 15.1142ZM8.37995 15.1142C8.37995 15.2468 8.43267 15.374 8.52635 15.4677C8.62011 15.5615 8.74734 15.6141 8.87995 15.6141C9.01248 15.6141 9.1397 15.5615 9.23346 15.4677C9.32715 15.374 9.37987 15.2468 9.37987 15.1142V8.10412C9.3788 7.97227 9.32568 7.84617 9.23208 7.75329C9.13856 7.66041 9.01199 7.60827 8.88019 7.60823C8.74832 7.60818 8.62175 7.66023 8.52815 7.75305C8.43446 7.84586 8.38125 7.97193 8.38011 8.10378L8.37995 15.1142Z" fill="white"/>
</svg>
