<svg width="18" height="22" viewBox="0 0 18 22" fill="none" xmlns="http://www.w3.org/2000/svg">
<path fill-rule="evenodd" clip-rule="evenodd" d="M5.0811 0.603765C5.08113 0.443789 5.14468 0.29037 5.25777 0.177221C5.37086 0.064073 5.52425 0.000452367 5.68423 0.000339791L11.7151 0C11.8751 0.000370965 12.0285 0.0641678 12.1415 0.177407C12.2546 0.290646 12.3181 0.44409 12.3183 0.604105V2.09566H5.0811V0.603765ZM14.9971 20.8826C14.9817 21.1178 14.877 21.3382 14.7044 21.4987C14.5319 21.6592 14.3045 21.7477 14.0688 21.7461H3.26127C3.02565 21.7454 2.79899 21.6557 2.62681 21.4948C2.45464 21.334 2.34969 21.114 2.33304 20.8789L1.40822 7.35026H15.9841L14.9973 20.8824L14.9971 20.8826ZM17.3997 6.12498H0V4.72334C0.000258665 4.3516 0.148026 3.99516 0.410859 3.73227C0.673692 3.46938 1.03011 3.32153 1.40185 3.3212L15.9977 3.32073C16.3694 3.3213 16.7257 3.46928 16.9885 3.73219C17.2512 3.99511 17.399 4.35151 17.3994 4.72322V6.12485L17.3997 6.12498ZM5.89825 18.521C5.89825 18.6014 5.9141 18.6811 5.94488 18.7554C5.97567 18.8297 6.02079 18.8973 6.07767 18.9541C6.13455 19.011 6.20208 19.0561 6.27639 19.0869C6.35071 19.1177 6.43037 19.1336 6.51081 19.1336C6.59125 19.1336 6.67091 19.1177 6.74523 19.0869C6.81954 19.0561 6.88707 19.011 6.94395 18.9541C7.00083 18.8973 7.04596 18.8297 7.07674 18.7554C7.10752 18.6811 7.12337 18.6014 7.12337 18.521V9.9308C7.12208 9.76925 7.05702 9.61475 6.94234 9.50095C6.82767 9.38715 6.67268 9.32327 6.51113 9.32321C6.34957 9.32316 6.19454 9.38693 6.07979 9.50065C5.96504 9.61438 5.89987 9.76883 5.89847 9.93038V18.521H5.89825ZM10.2688 18.521C10.2688 18.6835 10.3334 18.8393 10.4482 18.9542C10.5631 19.0691 10.719 19.1336 10.8815 19.1336C11.0439 19.1336 11.1998 19.0691 11.3147 18.9542C11.4295 18.8393 11.4941 18.6835 11.4941 18.521V9.9308C11.4928 9.76923 11.4277 9.61471 11.313 9.50089C11.1984 9.38708 11.0433 9.32318 10.8818 9.32313C10.7202 9.32307 10.5651 9.38686 10.4504 9.5006C10.3356 9.61433 10.2704 9.76881 10.269 9.93038L10.2688 18.521Z" fill="#FC0005"/>
</svg>
