<svg width="43" height="43" viewBox="0 0 43 43" fill="none" xmlns="http://www.w3.org/2000/svg">
<path d="M21.4167 42.8335C33.2449 42.8335 42.8335 33.2449 42.8335 21.4167C42.8335 9.58859 33.2449 -1.90735e-05 21.4167 -1.90735e-05C9.5886 -1.90735e-05 0 9.58859 0 21.4167C0 33.2449 9.5886 42.8335 21.4167 42.8335Z" fill="#F8FAFC"/>
<path d="M11.6822 4.86739H24.3375L31.152 11.6818V32.1251C31.152 32.8996 30.8443 33.6425 30.2966 34.1901C29.7489 34.7378 29.006 35.0455 28.2315 35.0455H11.6822C10.9076 35.0455 10.1648 34.7378 9.6171 34.1901C9.06941 33.6425 8.76172 32.8996 8.76172 32.1251V7.78785C8.76172 7.0133 9.06941 6.27046 9.6171 5.72277C10.1648 5.17508 10.9076 4.86739 11.6822 4.86739Z" fill="url(#paint0_linear_4963_210)"/>
<path d="M24.3398 4.86739V10.7083C24.3398 11.4829 24.6475 12.2257 25.1952 12.7734C25.7429 13.3211 26.4858 13.6288 27.2603 13.6288H33.1012" fill="white" fill-opacity="0.266667"/>
<g opacity="0.9">
<path d="M15.5742 15.5759H25.3091H15.5742ZM15.5742 21.4168H27.2561H15.5742ZM15.5742 27.2577H23.3621H15.5742Z" fill="black"/>
<path d="M15.5742 15.5759H25.3091M15.5742 21.4168H27.2561M15.5742 27.2577H23.3621" stroke="#E2E8F0" stroke-width="1.16667" stroke-linecap="round"/>
</g>
<path opacity="0.95" d="M29.2053 24.3369C34.2674 24.3369 38.7455 27.452 40.8872 31.1513C38.7455 34.8505 34.2674 37.9657 29.2053 37.9657C24.1432 37.9657 19.6651 34.8505 17.5234 31.1513C19.6651 27.452 24.1432 24.3369 29.2053 24.3369Z" fill="#FDB17D"/>
<path d="M29.2049 35.5319C31.6243 35.5319 33.5856 33.5706 33.5856 31.1512C33.5856 28.7318 31.6243 26.7705 29.2049 26.7705C26.7855 26.7705 24.8242 28.7318 24.8242 31.1512C24.8242 33.5706 26.7855 35.5319 29.2049 35.5319Z" fill="#334155"/>
<path opacity="0.9" d="M30.6682 30.859C31.3134 30.859 31.8364 30.336 31.8364 29.6908C31.8364 29.0457 31.3134 28.5227 30.6682 28.5227C30.023 28.5227 29.5 29.0457 29.5 29.6908C29.5 30.336 30.023 30.859 30.6682 30.859Z" fill="white"/>
<path opacity="0.4" d="M17.5234 31.1513C19.6651 27.452 24.1432 24.3369 29.2053 24.3369C34.2674 24.3369 38.7455 27.452 40.8872 31.1513" stroke="#FFB820" stroke-width="0.933333"/>
<defs>
<linearGradient id="paint0_linear_4963_210" x1="8.76172" y1="4.86739" x2="37.6436" y2="26.2959" gradientUnits="userSpaceOnUse">
<stop stop-color="#2563EB"/>
<stop offset="1" stop-color="#38BDF8"/>
</linearGradient>
</defs>
</svg>
