<svg width="25" height="18" viewBox="0 0 25 18" fill="none" xmlns="http://www.w3.org/2000/svg">
<path d="M20.0582 16.425L4.43677 0.803983L4.43343 0.800167C4.34885 0.716283 4.24859 0.649878 4.13835 0.604744C4.02811 0.559609 3.91006 0.53663 3.79095 0.537117C3.67183 0.537604 3.55397 0.561549 3.44411 0.607584C3.33425 0.653618 3.23452 0.720841 3.15064 0.805415C3.06676 0.889988 3.00035 0.990256 2.95522 1.10049C2.91008 1.21073 2.8871 1.32878 2.88759 1.44789C2.88857 1.68846 2.98508 1.91879 3.15589 2.0882L4.52359 3.4559C2.86494 4.59188 1.43725 6.03268 0.316489 7.70164C0.133469 7.97186 0.0356445 8.29073 0.0356445 8.6171C0.0356445 8.94347 0.133469 9.26234 0.316489 9.53256C3.17736 13.7669 7.71267 16.2475 12.248 16.2165C13.717 16.2218 15.1763 15.9773 16.5634 15.4933L18.7774 17.7073C18.9479 17.8724 19.1765 17.9639 19.4138 17.9623C19.6512 17.9607 19.8785 17.866 20.0468 17.6986C20.2151 17.5313 20.3111 17.3045 20.314 17.0672C20.3169 16.8298 20.2266 16.6008 20.0625 16.4293L20.0582 16.425ZM12.248 13.7544C11.3887 13.7541 10.5432 13.5385 9.78879 13.1272C9.03436 12.7159 8.39503 12.1221 7.92923 11.4C7.46344 10.678 7.18603 9.85067 7.12237 8.99377C7.0587 8.13687 7.21081 7.27767 7.56478 6.49471L8.99354 7.92347C8.87846 8.46578 8.9007 9.02825 9.05824 9.55977C9.21578 10.0913 9.50363 10.575 9.89564 10.9671C10.2876 11.3591 10.7714 11.6469 11.3029 11.8045C11.8344 11.962 12.3969 11.9842 12.9392 11.8691L14.368 13.2979C13.7021 13.5999 12.9792 13.7555 12.248 13.7544Z" fill="black"/>
<path d="M24.1795 7.69931C21.3186 3.46263 16.7833 0.981974 12.248 1.01298C10.7789 1.00766 9.31968 1.25222 7.93262 1.73619L10.127 3.93062C11.0793 3.49969 12.1402 3.3692 13.1685 3.55655C14.1968 3.74389 15.1435 4.24016 15.8826 4.97923C16.6217 5.7183 17.1179 6.66505 17.3053 7.69333C17.4926 8.7216 17.3621 9.78255 16.9312 10.7348L19.9719 13.7755C21.6308 12.6397 23.0587 11.1989 24.1795 9.52975C24.3624 9.25958 24.4602 8.9408 24.4602 8.61453C24.4602 8.28826 24.3624 7.96948 24.1795 7.69931Z" fill="black"/>
<path d="M12.2479 5.28784C12.0156 5.28787 11.7839 5.31217 11.5566 5.36035L15.5023 9.30555C15.6052 8.82083 15.5985 8.31924 15.4827 7.83743C15.3669 7.35561 15.145 6.90575 14.8331 6.5207C14.5212 6.13565 14.1272 5.82513 13.68 5.61183C13.2327 5.39854 12.7434 5.28784 12.2479 5.28784Z" fill="black"/>
</svg>
