<svg width="31" height="18" viewBox="0 0 31 18" fill="none" xmlns="http://www.w3.org/2000/svg">
<path d="M15.7433 0C9.97395 0 4.74197 3.15649 0.881293 8.28346C0.566262 8.7035 0.566262 9.29032 0.881293 9.71037C4.74197 14.8435 9.97395 18 15.7433 18C21.5127 18 26.7447 14.8435 30.6054 9.71654C30.9204 9.2965 30.9204 8.70968 30.6054 8.28964C26.7447 3.15649 21.5127 0 15.7433 0ZM16.1572 15.3377C12.3274 15.5786 9.16475 12.4221 9.40566 8.58614C9.60333 5.42347 12.1668 2.85999 15.3295 2.66232C19.1593 2.42141 22.3219 5.5779 22.081 9.41386C21.8772 12.5704 19.3137 15.1338 16.1572 15.3377ZM15.9657 12.4097C13.9026 12.5395 12.1977 10.8408 12.3336 8.77763C12.4386 7.07275 13.8223 5.69526 15.5271 5.58408C17.5903 5.45436 19.2952 7.15306 19.1593 9.2162C19.0481 10.9272 17.6644 12.3047 15.9657 12.4097Z" fill="black"/>
</svg>
