<svg width="35" height="41" viewBox="0 0 35 41" fill="none" xmlns="http://www.w3.org/2000/svg">
<path d="M6.63891 4.60477V17.2767H0.604762C0.444727 17.2767 0.291246 17.2131 0.178084 17.0999C0.0649214 16.9868 0.00134752 16.8333 0.00134752 16.6733V7.01847C-0.0107731 6.61897 0.0589786 6.22122 0.206311 5.84968C0.353643 5.47815 0.57544 5.14069 0.858054 4.85807C1.14067 4.57545 1.47812 4.35365 1.84965 4.20631C2.22118 4.05898 2.61893 3.98923 3.01842 4.00135H3.62184L6.63891 4.60477Z" fill="#50AD80"/>
<path d="M28.9662 7.01848V23.5221L19.6736 33.5148L17.8272 34.6795C17.7309 34.7415 17.6188 34.7745 17.5043 34.7745C17.3898 34.7745 17.2777 34.7415 17.1815 34.6795L14.967 33.2795C14.8707 33.2174 14.7587 33.1844 14.6441 33.1844C14.5296 33.1844 14.4175 33.2174 14.3213 33.2795L12.0947 34.6855C11.9986 34.7447 11.8878 34.776 11.7749 34.776C11.662 34.776 11.5513 34.7447 11.4551 34.6855L9.2285 33.2795C9.13227 33.2174 9.02018 33.1844 8.90567 33.1844C8.79116 33.1844 8.67907 33.2174 8.58284 33.2795L6.95966 34.2993C6.86898 34.3578 6.76416 34.3908 6.6563 34.3946C6.54843 34.3984 6.44154 34.373 6.34693 34.3211C6.25232 34.2692 6.17351 34.1926 6.11885 34.0995C6.06419 34.0065 6.03572 33.9003 6.03643 33.7924V7.1452C6.0487 6.3795 5.77767 5.63627 5.27537 5.05823C4.77307 4.48019 4.07494 4.1081 3.31503 4.01342C3.21883 4.00338 3.12209 3.99935 3.02539 4.00135H25.9491C26.7493 4.00135 27.5167 4.31923 28.0825 4.88505C28.6483 5.45087 28.9662 6.21829 28.9662 7.01848Z" fill="#FFE7B5"/>
<path d="M27.1569 38.9999C31.4892 38.9999 35.0013 35.4878 35.0013 31.1554C35.0013 26.823 31.4892 23.3109 27.1569 23.3109C22.8246 23.3109 19.3125 26.823 19.3125 31.1554C19.3125 35.4878 22.8246 38.9999 27.1569 38.9999Z" fill="#50AD80"/>
<path d="M25.9483 16.6732H9.05263C8.8926 16.6732 8.73912 16.6096 8.62596 16.4964C8.51279 16.3833 8.44922 16.2298 8.44922 16.0697C8.44922 15.9097 8.51279 15.7562 8.62596 15.643C8.73912 15.5299 8.8926 15.4663 9.05263 15.4663H25.9483C26.1083 15.4663 26.2618 15.5299 26.3749 15.643C26.4881 15.7562 26.5517 15.9097 26.5517 16.0697C26.5517 16.2298 26.4881 16.3833 26.3749 16.4964C26.2618 16.6096 26.1083 16.6732 25.9483 16.6732Z" fill="#505068"/>
<path d="M17.5004 28.7418H9.05263C8.8926 28.7418 8.73912 28.6782 8.62596 28.565C8.51279 28.4519 8.44922 28.2984 8.44922 28.1383C8.44922 27.9783 8.51279 27.8248 8.62596 27.7117C8.73912 27.5985 8.8926 27.5349 9.05263 27.5349H17.5004C17.6605 27.5349 17.814 27.5985 17.9271 27.7117C18.0403 27.8248 18.1039 27.9783 18.1039 28.1383C18.1039 28.2984 18.0403 28.4519 17.9271 28.565C17.814 28.6782 17.6605 28.7418 17.5004 28.7418Z" fill="#505068"/>
<path d="M10.8629 19.6902H9.05263C8.8926 19.6902 8.73912 19.6267 8.62596 19.5135C8.51279 19.4003 8.44922 19.2469 8.44922 19.0868C8.44922 18.9268 8.51279 18.7733 8.62596 18.6601C8.73912 18.547 8.8926 18.4834 9.05263 18.4834H10.8629C11.0229 18.4834 11.1764 18.547 11.2896 18.6601C11.4027 18.7733 11.4663 18.9268 11.4663 19.0868C11.4663 19.2469 11.4027 19.4003 11.2896 19.5135C11.1764 19.6267 11.0229 19.6902 10.8629 19.6902Z" fill="#B5B8BC"/>
<path d="M23.5353 19.6902H13.2772C13.1172 19.6902 12.9637 19.6267 12.8506 19.5135C12.7374 19.4003 12.6738 19.2469 12.6738 19.0868C12.6738 18.9268 12.7374 18.7733 12.8506 18.6601C12.9637 18.547 13.1172 18.4834 13.2772 18.4834H23.5353C23.6953 18.4834 23.8488 18.547 23.962 18.6601C24.0751 18.7733 24.1387 18.9268 24.1387 19.0868C24.1387 19.2469 24.0751 19.4003 23.962 19.5135C23.8488 19.6267 23.6953 19.6902 23.5353 19.6902Z" fill="#B5B8BC"/>
<path d="M10.8629 22.7075H9.05263C8.8926 22.7075 8.73912 22.6439 8.62596 22.5307C8.51279 22.4176 8.44922 22.2641 8.44922 22.104C8.44922 21.944 8.51279 21.7905 8.62596 21.6773C8.73912 21.5642 8.8926 21.5006 9.05263 21.5006H10.8629C11.0229 21.5006 11.1764 21.5642 11.2896 21.6773C11.4027 21.7905 11.4663 21.944 11.4663 22.104C11.4663 22.2641 11.4027 22.4176 11.2896 22.5307C11.1764 22.6439 11.0229 22.7075 10.8629 22.7075Z" fill="#B5B8BC"/>
<path d="M22.9319 22.7075H13.2772C13.1172 22.7075 12.9637 22.6439 12.8506 22.5307C12.7374 22.4176 12.6738 22.2641 12.6738 22.104C12.6738 21.944 12.7374 21.7905 12.8506 21.6773C12.9637 21.5642 13.1172 21.5006 13.2772 21.5006H22.9319C23.0919 21.5006 23.2454 21.5642 23.3586 21.6773C23.4717 21.7905 23.5353 21.944 23.5353 22.104C23.5353 22.2641 23.4717 22.4176 23.3586 22.5307C23.2454 22.6439 23.0919 22.7075 22.9319 22.7075Z" fill="#B5B8BC"/>
<path d="M10.8629 25.7245H9.05263C8.8926 25.7245 8.73912 25.661 8.62596 25.5478C8.51279 25.4346 8.44922 25.2812 8.44922 25.1211C8.44922 24.9611 8.51279 24.8076 8.62596 24.6944C8.73912 24.5813 8.8926 24.5177 9.05263 24.5177H10.8629C11.0229 24.5177 11.1764 24.5813 11.2896 24.6944C11.4027 24.8076 11.4663 24.9611 11.4663 25.1211C11.4663 25.2812 11.4027 25.4346 11.2896 25.5478C11.1764 25.661 11.0229 25.7245 10.8629 25.7245Z" fill="#B5B8BC"/>
<path d="M19.3114 25.7245H13.2772C13.1172 25.7245 12.9637 25.661 12.8506 25.5478C12.7374 25.4346 12.6738 25.2812 12.6738 25.1211C12.6738 24.9611 12.7374 24.8076 12.8506 24.6944C12.9637 24.5813 13.1172 24.5177 13.2772 24.5177H19.3114C19.4714 24.5177 19.6249 24.5813 19.7381 24.6944C19.8512 24.8076 19.9148 24.9611 19.9148 25.1211C19.9148 25.2812 19.8512 25.4346 19.7381 25.5478C19.6249 25.661 19.4714 25.7245 19.3114 25.7245Z" fill="#B5B8BC"/>
<path d="M12.6724 11.2424C12.6724 10.7623 12.4817 10.3019 12.1422 9.96238C11.8027 9.62289 11.3423 9.43216 10.8622 9.43216C10.7563 9.43206 10.6523 9.40409 10.5606 9.35106C10.469 9.29803 10.3929 9.22182 10.34 9.13007C10.2871 9.03832 10.2593 8.93427 10.2594 8.82837C10.2594 8.72247 10.2874 8.61845 10.3403 8.52677C10.3933 8.43509 10.4695 8.35896 10.5613 8.30605C10.653 8.25313 10.757 8.22529 10.8629 8.22531C10.9688 8.22534 11.0728 8.25323 11.1645 8.30619C11.2562 8.35915 11.3324 8.43531 11.3853 8.52702C11.4679 8.66044 11.5991 8.75647 11.7513 8.79474C11.9034 8.83302 12.0645 8.81053 12.2003 8.73205C12.3362 8.65358 12.4361 8.52527 12.479 8.37435C12.5218 8.22343 12.5042 8.06175 12.4299 7.9236C12.2114 7.55626 11.8697 7.2783 11.4656 7.13915V7.01846C11.4656 6.85843 11.402 6.70494 11.2889 6.59178C11.1757 6.47861 11.0222 6.41504 10.8622 6.41504C10.7021 6.41504 10.5487 6.47861 10.4355 6.59178C10.3223 6.70494 10.2588 6.85843 10.2588 7.01846V7.12949C9.85648 7.27119 9.51732 7.55069 9.30136 7.91849C9.08541 8.28629 9.00658 8.71866 9.07886 9.139C9.15113 9.55935 9.36984 9.94056 9.69624 10.2151C10.0226 10.4897 10.4357 10.6398 10.8622 10.639C10.9681 10.6391 11.0721 10.6671 11.1637 10.7201C11.2554 10.7731 11.3315 10.8494 11.3844 10.9411C11.4373 11.0329 11.4651 11.1369 11.465 11.2428C11.4649 11.3487 11.437 11.4527 11.384 11.5444C11.331 11.6361 11.2548 11.7122 11.1631 11.7651C11.0714 11.818 10.9673 11.8459 10.8614 11.8459C10.7555 11.8458 10.6515 11.8179 10.5598 11.765C10.4681 11.712 10.392 11.6359 10.339 11.5441C10.2565 11.4107 10.1252 11.3147 9.97308 11.2764C9.82094 11.2382 9.65987 11.2606 9.52402 11.3391C9.38818 11.4176 9.28824 11.5459 9.24539 11.6968C9.20255 11.8477 9.22016 12.0094 9.29451 12.1476C9.51328 12.5151 9.85541 12.7931 10.26 12.932V13.0527C10.26 13.2127 10.3235 13.3662 10.4367 13.4794C10.5499 13.5926 10.7034 13.6561 10.8634 13.6561C11.0234 13.6561 11.1769 13.5926 11.2901 13.4794C11.4032 13.3662 11.4668 13.2127 11.4668 13.0527V12.9417C11.8183 12.8171 12.1228 12.587 12.3386 12.2829C12.5544 11.9787 12.671 11.6154 12.6724 11.2424Z" fill="#50AD80"/>
<path d="M20.5185 10.6391H15.0878C14.9278 10.6391 14.7743 10.5755 14.6611 10.4624C14.5479 10.3492 14.4844 10.1957 14.4844 10.0357C14.4844 9.87564 14.5479 9.72215 14.6611 9.60899C14.7743 9.49583 14.9278 9.43225 15.0878 9.43225H20.5185C20.6786 9.43225 20.832 9.49583 20.9452 9.60899C21.0584 9.72215 21.1219 9.87564 21.1219 10.0357C21.1219 10.1957 21.0584 10.3492 20.9452 10.4624C20.832 10.5755 20.6786 10.6391 20.5185 10.6391Z" fill="#B5B8BC"/>
<path d="M25.9493 13.6561H15.0878C14.9278 13.6561 14.7743 13.5925 14.6611 13.4793C14.5479 13.3662 14.4844 13.2127 14.4844 13.0526C14.4844 12.8926 14.5479 12.7391 14.6611 12.626C14.7743 12.5128 14.9278 12.4492 15.0878 12.4492H25.9493C26.1093 12.4492 26.2628 12.5128 26.3759 12.626C26.4891 12.7391 26.5527 12.8926 26.5527 13.0526C26.5527 13.2127 26.4891 13.3662 26.3759 13.4793C26.2628 13.5925 26.1093 13.6561 25.9493 13.6561Z" fill="#B5B8BC"/>
<path d="M25.9473 34.776C25.7872 34.776 25.6338 34.7124 25.5206 34.5992L23.7104 32.789C23.6005 32.6751 23.5397 32.5227 23.541 32.3645C23.5424 32.2063 23.6059 32.0549 23.7178 31.9431C23.8296 31.8312 23.981 31.7677 24.1392 31.7663C24.2974 31.765 24.4498 31.8258 24.5636 31.9357L25.8652 33.2373L29.677 27.7926C29.7213 27.725 29.7787 27.6671 29.8458 27.6221C29.9129 27.5772 29.9883 27.5461 30.0676 27.5309C30.147 27.5156 30.2285 27.5164 30.3075 27.5333C30.3865 27.5502 30.4613 27.5827 30.5275 27.629C30.5937 27.6753 30.6499 27.7344 30.6928 27.8029C30.7357 27.8713 30.7645 27.9477 30.7773 28.0274C30.7902 28.1072 30.7869 28.1887 30.7677 28.2671C30.7484 28.3456 30.7136 28.4194 30.6654 28.4841L26.4415 34.5184C26.3909 34.5906 26.3252 34.6509 26.2489 34.695C26.1726 34.7391 26.0876 34.7659 25.9998 34.7736C25.9823 34.7753 25.9648 34.7761 25.9473 34.776Z" fill="white"/>
</svg>
