<svg width="38" height="36" viewBox="0 0 38 36" fill="none" xmlns="http://www.w3.org/2000/svg">
<path d="M4.13041 6H33.8696C36.1508 6 38 8.15451 38 10.8122V22.3617C38 25.0194 36.1508 27.1739 33.8696 27.1739H4.13041C1.84925 27.1739 0 25.0194 0 22.3617V10.8122C0 8.15451 1.84925 6 4.13041 6Z" fill="#E09D00"/>
<path d="M11.0777 19.1166C11.0777 20.7987 10.6182 21.9766 9.69904 22.6503C9.03869 23.1367 8.08162 23.3798 6.82785 23.3798C5.73916 23.3798 4.86687 23.159 4.21098 22.7173C3.44355 22.2041 3.05983 21.4322 3.05983 20.4016C3.05983 19.7858 3.14907 19.1545 3.32754 18.5075C3.55509 17.6821 3.84511 17.2694 4.1976 17.2694C4.48315 17.2694 4.62593 17.5125 4.62593 17.9989C4.62593 18.1193 4.59916 18.3045 4.54562 18.5544C4.49654 18.7998 4.472 18.9849 4.472 19.1099C4.472 20.0245 5.35098 20.4819 7.10894 20.4819C8.91152 20.4819 9.81281 20.1517 9.81281 19.4914C9.81281 19.3441 9.61649 19.034 9.22385 18.5611C8.84906 18.1104 8.55681 17.8159 8.3471 17.6776L9.4581 15.5025C9.52949 15.3597 9.58526 15.2883 9.62542 15.2883C9.66111 15.2883 9.74142 15.353 9.86636 15.4824C10.1341 15.7635 10.3884 16.2097 10.6293 16.8209C10.9283 17.5839 11.0777 18.3491 11.0777 19.1166ZM7.59751 14.8332C7.62875 14.8644 7.64436 14.8934 7.64436 14.9202C7.64436 14.9514 7.62652 14.9849 7.59082 15.0206L6.69399 15.9174C6.63153 15.9799 6.56683 15.9799 6.4999 15.9174L5.58969 15.034C5.51384 14.9626 5.52053 14.8823 5.60977 14.793L6.45305 13.9431C6.52444 13.8717 6.59806 13.8717 6.67391 13.9431L7.59751 14.8332ZM15.4146 19.9866H14.6918C13.0186 19.9866 12.182 19.1121 12.182 17.3631C12.182 16.6179 12.1553 15.6386 12.1017 14.4249C12.0437 13.1444 11.9835 12.2966 11.921 11.8817C11.8898 11.6765 11.9255 11.5292 12.0281 11.44L13.9757 10.068C14.1096 9.97426 14.201 9.92741 14.2501 9.92741C14.3081 9.92741 14.3371 9.98096 14.3371 10.088V15.9844C14.3371 16.6358 14.6249 16.9615 15.2005 16.9615H15.4146V19.9866ZM21.1303 10.242L21.0633 10.8644L15.9166 12.5309L16.0438 11.8081L21.1303 10.242ZM21.7794 19.9933H21.2574C20.8335 19.9933 20.3673 19.8282 19.8586 19.498C19.4214 19.2125 19.0466 18.8756 18.7342 18.4874C18.239 19.4914 17.3332 19.9933 16.017 19.9933H15.0198V16.9548H15.7292C16.3494 16.9548 16.7844 16.9124 17.0343 16.8276C17.1503 16.7875 17.2083 16.7362 17.2083 16.6737C17.2083 16.6202 17.1726 16.551 17.1012 16.4662C16.7175 16.0067 16.1977 15.4266 15.5418 14.7261L15.8497 13.0462C15.8497 13.0195 15.8698 12.986 15.9099 12.9458L20.9228 11.3396C20.9763 11.3217 21.0076 11.315 21.0165 11.3195C21.0254 11.3418 21.0276 11.3931 21.0232 11.4734L20.8893 13.3006C20.8849 13.3898 20.8759 13.4433 20.8625 13.4612C20.8447 13.4969 20.8001 13.5259 20.7287 13.5482L17.9244 14.4049L19.6043 16.3859C20.0103 16.7652 20.5011 16.9548 21.0767 16.9548H21.7794V19.9933ZM24.7109 16.4796C24.7109 17.72 24.5346 18.5945 24.1821 19.1032C23.7717 19.6966 23.0131 19.9933 21.9066 19.9933H21.3846V16.9548H22.8971C23.1604 16.9548 23.292 16.8812 23.292 16.7339C23.292 16.6581 23.2541 16.5711 23.1782 16.4729C22.9016 16.116 22.5447 15.7434 22.1074 15.3552C22.0405 15.2928 22.0405 15.2125 22.1074 15.1143L23.3522 13.3073C23.4192 13.2091 23.4683 13.16 23.4995 13.16C23.5396 13.16 23.5954 13.2046 23.6668 13.2939C24.3628 14.1505 24.7109 15.2125 24.7109 16.4796ZM25.2128 21.961C25.2753 22.0101 25.2731 22.0658 25.2061 22.1283L24.4097 22.9113C24.3517 22.9693 24.2937 22.9693 24.2357 22.9113L23.4861 22.1818L22.7499 22.9113C22.6919 22.9693 22.6339 22.9693 22.5759 22.9113L21.7794 22.135C21.7125 22.0725 21.7192 22.0011 21.7995 21.9208L22.5357 21.1779C22.6027 21.111 22.6696 21.111 22.7365 21.1779L23.4861 21.9007L24.1955 21.1779C24.2625 21.111 24.3316 21.111 24.403 21.1779L25.2128 21.961ZM28.76 16.5064C28.76 16.899 28.6997 17.3965 28.5793 17.9989C28.4543 18.6324 28.316 19.1121 28.1643 19.4378C27.9769 19.8305 27.8007 20.0268 27.6356 20.0268C27.4571 20.0268 27.3032 19.7881 27.1738 19.3106C26.9909 18.6369 26.6027 16.3145 26.0093 12.3435L28.0305 10.1416C28.1554 10.0033 28.2402 9.93411 28.2848 9.93411C28.3205 9.93411 28.3517 9.99657 28.3785 10.1215C28.5748 11.0094 28.6953 12.0691 28.7399 13.3006C28.7533 13.6754 28.76 14.744 28.76 16.5064ZM34.75 19.4378C34.75 21.1021 34.3127 22.3982 33.4382 23.3263C33.3356 23.4334 33.1995 23.4869 33.03 23.4869H29.8911C29.5207 23.4869 29.3356 23.3352 29.3356 23.0318C29.3356 22.8667 29.4136 22.7463 29.5698 22.6704C30.1588 22.3893 30.886 21.9521 31.7516 21.3586C32.876 20.5912 33.4382 20.0446 33.4382 19.7189C33.4382 19.4512 32.9363 18.8488 31.9323 17.9119L33.0032 15.7033C33.0657 15.5783 33.1482 15.5627 33.2508 15.6564C33.7952 16.1472 34.1744 16.6469 34.3886 17.1556C34.6295 17.7312 34.75 18.4919 34.75 19.4378Z" fill="white"/>
</svg>
