<svg width="20" height="24" viewBox="0 0 20 24" fill="none" xmlns="http://www.w3.org/2000/svg">
<path fill-rule="evenodd" clip-rule="evenodd" d="M13.0293 16.0484C12.9981 15.4976 12.5624 14.9641 11.5862 14.9383C10.0319 14.8972 9.4819 14.8498 7.91973 14.6587C6.92211 14.5366 6.09867 15.1558 5.34182 15.8171C4.06318 16.9343 3.31273 17.4138 1.85254 18.2802L5.1225 22.0225C6.73528 20.3328 7.70583 20.1817 9.33885 20.2131C10.8738 20.2426 11.0575 20.3559 12.554 19.7136L19.1668 16.6154C20.8397 15.8316 19.6967 14.1988 18.3406 14.8026C16.7032 15.5314 13.9717 16.3749 12.9497 16.5411C13.0111 16.3987 13.04 16.2353 13.0293 16.0483V16.0484Z" fill="#FDD7AD"/>
<path fill-rule="evenodd" clip-rule="evenodd" d="M13.0287 16.0484C13.0038 15.6107 12.7236 15.184 12.1196 15.0142C12.2957 15.2213 12.3874 15.4915 12.4008 15.7278C12.4132 15.9406 12.3554 16.1033 12.2191 16.2391C11.5789 16.8774 9.56551 16.7561 8.59844 16.6974C8.43447 16.6874 8.29311 16.6792 8.175 16.6743C7.96488 16.6665 7.78813 16.8303 7.77975 17.0408C7.77191 17.2509 7.93588 17.4284 8.14624 17.4361C8.25529 17.4404 8.3934 17.4486 8.55263 17.4582C10.1595 17.5554 11.9427 17.5912 12.7575 16.7789C12.831 16.7054 12.8951 16.6266 12.949 16.5412C13.0104 16.3988 13.0393 16.2355 13.0286 16.0484H13.0287ZM4.30664 21.1314L4.77347 20.6678C6.27767 19.2653 7.61166 19.305 9.05611 19.3335C10.3167 19.3559 10.8858 19.5656 12.1502 19.0237L18.9959 15.8646C19.4854 15.6353 19.7057 15.3087 19.5701 15.0121C19.5259 14.9153 19.4232 14.8074 19.2831 14.7231C20.0933 14.9683 20.4172 16.0293 19.1661 16.6154L12.5532 19.7136C11.0568 20.356 10.8731 20.2426 9.33815 20.2132C7.70508 20.1818 6.73457 20.3329 5.12179 22.0226L4.30664 21.1314Z" fill="#E6B17C"/>
<path fill-rule="evenodd" clip-rule="evenodd" d="M0.15074 19.8247L3.3794 23.5197C3.60128 23.7737 3.99068 23.7999 4.24467 23.578L5.22941 22.7175C5.48336 22.4956 5.50956 22.1062 5.28767 21.8523L2.05901 18.1572C1.83713 17.9032 1.44773 17.8771 1.19379 18.0989L0.208997 18.9594C-0.0449491 19.1813 -0.0711959 19.5707 0.150692 19.8246L0.15074 19.8247Z" fill="#2A92FA"/>
<path fill-rule="evenodd" clip-rule="evenodd" d="M2.69922 22.7409L3.37975 23.5198C3.60164 23.7737 3.99103 23.7999 4.24502 23.578L5.22977 22.7175C5.48371 22.4956 5.50991 22.1062 5.28802 21.8523L4.49519 20.9449L2.69922 22.7409Z" fill="#0E82F5"/>
<path fill-rule="evenodd" clip-rule="evenodd" d="M17.9823 1.80547H16.1768V0L17.9823 1.80547Z" fill="#BCBEE2"/>
<path fill-rule="evenodd" clip-rule="evenodd" d="M12.8212 6.4695C12.6875 6.4695 12.5791 6.36107 12.5791 6.22737C12.5791 6.09366 12.6875 5.98524 12.8212 5.98524H16.7544C16.8881 5.98524 16.9965 6.09366 16.9965 6.22737C16.9965 6.36107 16.8881 6.4695 16.7544 6.4695H12.8212ZM12.8212 9.47292C12.6875 9.47292 12.5791 9.3645 12.5791 9.23079C12.5791 9.09709 12.6875 8.98867 12.8212 8.98867H16.7544C16.8881 8.98867 16.9965 9.09709 16.9965 9.23079C16.9965 9.3645 16.8881 9.47292 16.7544 9.47292H12.8212ZM12.8212 7.97124C12.6875 7.97124 12.5791 7.86281 12.5791 7.72911C12.5791 7.5954 12.6875 7.48698 12.8212 7.48698H16.7544C16.8881 7.48698 16.9965 7.5954 16.9965 7.72911C16.9965 7.86281 16.8881 7.97124 16.7544 7.97124H12.8212ZM12.8212 4.96781C12.6875 4.96781 12.5791 4.85938 12.5791 4.72568C12.5791 4.59197 12.6875 4.48355 12.8212 4.48355H16.7544C16.8881 4.48355 16.9965 4.59197 16.9965 4.72568C16.9965 4.85938 16.8881 4.96781 16.7544 4.96781H12.8212ZM12.8212 3.46607C12.6875 3.46607 12.5791 3.35765 12.5791 3.22394C12.5791 3.09024 12.6875 2.98181 12.8212 2.98181H16.7544C16.8881 2.98181 16.9965 3.09024 16.9965 3.22394C16.9965 3.35765 16.8881 3.46607 16.7544 3.46607H12.8212Z" fill="#5D689E"/>
<path fill-rule="evenodd" clip-rule="evenodd" d="M12.9309 12.1046C12.8124 12.1652 12.6671 12.1182 12.6065 11.9996C12.5459 11.8811 12.593 11.7358 12.7115 11.6752C13.5447 11.2495 13.7439 11.2959 14.7597 11.5329L14.7717 11.5357C14.8578 11.5558 14.9395 11.5648 15.0166 11.5645C15.0988 11.5641 15.1793 11.5533 15.2569 11.534C15.2932 11.525 15.3285 11.5141 15.3627 11.5017C15.3551 11.481 15.3482 11.4602 15.3418 11.4391C15.3002 11.3021 15.2841 11.1589 15.2889 11.0238C15.302 10.648 15.4415 10.4152 15.6137 10.3024C15.6209 10.2971 15.6285 10.292 15.6365 10.2873C15.7336 10.2306 15.8394 10.2095 15.9428 10.22C16.0453 10.2304 16.1424 10.2716 16.2234 10.3394C16.3813 10.4717 16.4813 10.7074 16.4243 11.0049C16.385 11.2101 16.2614 11.4306 16.0731 11.6141C16.1297 11.6366 16.1964 11.6505 16.2744 11.6532C16.3887 11.6572 16.5245 11.6382 16.6845 11.5896C16.8119 11.551 16.9466 11.623 16.9852 11.7504C17.0239 11.8779 16.9519 12.0125 16.8245 12.0512C16.6106 12.1161 16.4229 12.1413 16.2593 12.1356C16.0004 12.1265 15.7988 12.0424 15.6462 11.9141L15.6408 11.9094C15.5566 11.9478 15.4669 11.9797 15.3724 12.0032C15.2611 12.0308 15.1429 12.0463 15.0186 12.0469C14.9017 12.0474 14.7824 12.0348 14.6621 12.0068L14.6501 12.004C13.7764 11.8002 13.6051 11.7602 12.931 12.1047L12.9309 12.1046ZM15.7838 11.2181C15.8734 11.1176 15.9311 11.0102 15.9495 10.9141C15.9693 10.8103 15.9494 10.7405 15.9131 10.7101C15.9061 10.7043 15.9 10.701 15.8955 10.7005C15.8918 10.7002 15.8867 10.7017 15.8804 10.7054C15.8775 10.7071 15.8746 10.7087 15.8715 10.7103C15.8202 10.7481 15.7777 10.8502 15.7712 11.039C15.7691 11.0982 15.773 11.1589 15.7838 11.2181L15.7838 11.2181Z" fill="#5D689E"/>
</svg>
