<svg width="27" height="25" viewBox="0 0 27 25" fill="none" xmlns="http://www.w3.org/2000/svg">
<path d="M18.4302 24.962C23.1421 24.962 26.9619 21.1422 26.9619 16.4302C26.9619 11.7183 23.1421 7.89853 18.4302 7.89853C13.7182 7.89853 9.89844 11.7183 9.89844 16.4302C9.89844 21.1422 13.7182 24.962 18.4302 24.962Z" fill="#FFA929"/>
<path d="M21.5887 20.3795C21.3461 20.3795 21.1034 20.2866 20.9176 20.1027L18.0737 17.2588C17.8974 17.0806 17.7969 16.8398 17.7969 16.5876V12.7958C17.7969 12.2725 18.2216 11.8478 18.7448 11.8478C19.2681 11.8478 19.6928 12.2725 19.6928 12.7958V16.1952L22.2599 18.7623C22.6296 19.132 22.6296 19.733 22.2599 20.1027C22.0741 20.2866 21.8314 20.3795 21.5887 20.3795Z" fill="#FAFAFA"/>
<path d="M14.7262 0H1.76715C0.791184 0 0 0.695244 0 1.55286C0 2.41047 0.791184 3.10572 1.76715 3.10572H14.7262C15.7022 3.10572 16.4934 2.41047 16.4934 1.55286C16.4934 0.695244 15.7021 0 14.7262 0Z" fill="#5E5E5E"/>
<path d="M14.7278 22.7752H1.76875C1.44343 22.7752 1.17969 22.5435 1.17969 22.2576V17.9251C1.17963 16.5816 1.83966 15.3034 2.9904 14.4188L5.07917 12.8121C5.32381 12.6237 5.34827 12.2966 5.13384 12.0817C5.11683 12.0646 5.09855 12.0486 5.07917 12.0336L2.9904 10.4269C1.83966 9.54231 1.17963 8.26416 1.17969 6.92059V2.58812C1.17969 2.30224 1.44343 2.07048 1.76875 2.07048H14.7278C15.0532 2.07048 15.3169 2.30224 15.3169 2.58812V6.92059C15.317 8.26416 14.6569 9.54231 13.5062 10.4269L11.4174 12.0336C11.1728 12.2221 11.1483 12.5491 11.3628 12.7641C11.3798 12.7811 11.398 12.7971 11.4174 12.8121L13.5062 14.4188C14.6569 15.3034 15.317 16.5816 15.3169 17.9251V22.2576C15.3168 22.5435 15.0531 22.7752 14.7278 22.7752Z" fill="#5E5E5E"/>
<path d="M2.36328 21.74H14.1442V17.9252C14.1428 16.8796 13.6274 15.8855 12.7305 15.1984L10.6417 13.5917C9.90717 13.027 9.83262 12.046 10.4752 11.4005C10.5269 11.3485 10.5826 11.2996 10.6417 11.2541L12.7305 9.64747C13.6274 8.96038 14.1428 7.96626 14.1442 6.92065V3.10571H2.36328V6.92056C2.36472 7.96616 2.88012 8.96028 3.777 9.64738L5.86576 11.2541C6.60001 11.819 6.67401 12.8001 6.0311 13.4453C5.97969 13.4969 5.92447 13.5454 5.86576 13.5906L3.777 15.1984C2.88012 15.8855 2.36472 16.8796 2.36328 17.9252V21.74Z" fill="#ECEFF1"/>
<path d="M11.7358 8.60183C11.6447 8.40826 11.4299 8.28199 11.1915 8.28195H5.30105C4.97573 8.28141 4.71155 8.51279 4.71094 8.79866C4.71066 8.93648 4.77295 9.06871 4.88401 9.16606L7.82923 11.7541C8.05924 11.9562 8.4321 11.9562 8.66216 11.7541L11.6074 9.16606C11.7761 9.0181 11.8268 8.79541 11.7358 8.60183Z" fill="#8E8E8E"/>
<path d="M14.7262 21.74H1.76715C0.791184 21.74 0 22.4353 0 23.2929C0 24.1505 0.791184 24.8457 1.76715 24.8457H14.7262C15.7022 24.8457 16.4934 24.1505 16.4934 23.2929C16.4934 22.4353 15.7021 21.74 14.7262 21.74Z" fill="#5E5E5E"/>
<path d="M8.64962 16.1808C8.41691 15.9957 8.05995 16.0034 7.8379 16.1984L2.36328 21.0081V21.74H14.1442V20.5702L8.64962 16.1808Z" fill="#8E8E8E"/>
</svg>
