<svg width="121" height="115" viewBox="0 0 121 115" fill="none" xmlns="http://www.w3.org/2000/svg">
<path d="M98.7498 77.3154L63.3349 56.7345C62.9538 56.513 62.5978 56.2477 62.2695 55.94L97.6844 76.521C98.0127 76.8286 98.3687 77.0939 98.7498 77.3154Z" fill="#FFD69A"/>
<path d="M80.4842 27.1792L115.899 47.7602C113.702 46.4834 110.664 46.6631 107.317 48.5955C106.63 48.9924 105.942 49.4679 105.278 49.983L69.8633 29.4022C70.5275 28.887 71.2148 28.4115 71.9022 28.0146C75.2493 26.0822 78.2872 25.9025 80.4842 27.1792Z" fill="#56707B"/>
<path d="M95.9774 48.8756L60.5625 28.2947C64.8382 30.7795 67.9606 30.2767 69.8604 29.4022L105.275 49.9831C103.376 50.8575 100.253 51.3603 95.9774 48.8756Z" fill="#56707B"/>
<path d="M41.0179 112.922L5.62865 92.3558C5.4133 92.2121 5.26983 92.0684 5.16205 91.816C4.40846 90.1301 3.61873 87.3664 3.54688 87.1876L38.972 107.789C39.008 107.932 39.8336 110.733 40.5872 112.419C40.695 112.634 40.8385 112.813 41.0179 112.922Z" fill="#40545D"/>
<path d="M119.15 58.7248C118.217 64.6834 114.34 71.2519 109.603 74.948C108.849 75.5228 108.095 76.0608 107.378 76.4551C105.439 77.568 103.645 78.106 102.029 78.1428C100.307 78.1428 98.8353 77.603 97.6867 76.527C89.7546 77.3892 82.5762 80.1512 76.4029 83.7053C62.5485 91.7459 53.5399 103.698 51.4581 106.713C51.135 107.179 50.7402 107.538 50.3454 107.825L42.7005 112.706C41.7313 113.281 40.9059 113.137 40.5828 112.419C39.8292 110.733 39.0035 107.932 38.9676 107.789C37.2089 108.795 36.6707 107.789 36.6348 107.754C33.5481 103.087 37.173 95.5489 37.3527 95.1196C69.404 64.7552 93.8822 49.2138 95.1743 48.3884C99.8761 51.4378 103.25 50.8998 105.26 49.9674C105.942 49.4645 106.624 48.9983 107.306 48.6039C114.843 44.2594 120.801 48.7459 119.15 58.7248Z" fill="#485F69"/>
<path d="M36.996 108.076L1.57089 87.5101C1.35554 87.3664 1.24799 87.1876 1.24799 87.1876C-1.83888 82.4856 1.75029 74.948 1.92995 74.5536L37.3551 95.1196C37.1755 95.5489 33.5506 103.087 36.6372 107.754C36.6731 107.789 36.7448 107.967 36.996 108.076Z" fill="#56707B"/>
<path d="M37.3564 95.1369L1.94141 74.556C33.9898 44.1833 58.4769 28.6183 59.7657 27.7991L95.1806 48.38C93.8918 49.1992 69.4047 64.7642 37.3564 95.1369Z" fill="#778C95"/>
<path d="M86.9929 49.5731C85.342 50.721 83.4396 52.0845 81.2503 53.7003C76.5485 57.0739 70.6622 61.5254 63.9145 67.016L44.1024 56.4273L35.4883 51.8339C36.4933 51.0435 37.4623 50.2548 38.4314 49.5363C40.6567 47.7417 42.7385 46.1276 44.6766 44.6555C46.0405 43.6496 47.3325 42.6822 48.517 41.7849C53.7573 37.9083 57.6694 35.2514 59.8587 33.8161L70.734 40.1322L74.718 42.4298L81.4297 46.3415L86.9929 49.5731Z" fill="#4BB5E7"/>
<path d="M33.5843 99.4974V102.584L2.39453 84.5676V81.4797L3.32752 82.0194L33.5843 99.4974Z" fill="#485F69"/>
<path d="M33.5849 99.4974V101.329L3.32812 83.8491V82.0194L33.5849 99.4974Z" fill="#35484F"/>
<path d="M41.133 58.2428L41.3631 59.8963L36.5816 63.5915L36.3516 61.938L41.133 58.2428Z" fill="#40545D"/>
<path d="M36.3547 61.938L36.5847 63.5915L27.2183 58.7386L26.9883 57.0852L36.3547 61.938Z" fill="#485F69"/>
<path d="M41.1361 58.2428L36.3547 61.938L26.9883 57.0852L31.7698 53.39L41.1361 58.2428Z" fill="#56707B"/>
<path d="M51.8088 63.7711L52.0389 65.4246L47.2574 69.1198L47.0273 67.4663L51.8088 63.7711Z" fill="#40545D"/>
<path d="M47.0226 67.4663L47.2527 69.1198L37.8863 64.2669L37.6562 62.6134L47.0226 67.4663Z" fill="#485F69"/>
<path d="M51.8041 63.7711L47.0226 67.4663L37.6562 62.6134L42.4377 58.9183L51.8041 63.7711Z" fill="#56707B"/>
<path d="M62.4768 69.2994L62.7068 70.9529L57.9254 74.648L57.6953 72.9945L62.4768 69.2994Z" fill="#40545D"/>
<path d="M57.6984 72.9946L57.9285 74.648L48.5621 69.7952L48.332 68.1417L57.6984 72.9946Z" fill="#485F69"/>
<path d="M62.4799 69.2994L57.6984 72.9945L48.332 68.1417L53.1135 64.4465L62.4799 69.2994Z" fill="#56707B"/>
<path d="M34.4033 63.4489L34.6334 65.1023L29.8512 68.7981L29.6211 67.1446L34.4033 63.4489Z" fill="#40545D"/>
<path d="M29.6164 67.1446L29.8464 68.798L20.48 63.9452L20.25 62.2917L29.6164 67.1446Z" fill="#485F69"/>
<path d="M34.3986 63.4489L29.6164 67.1446L20.25 62.2917L25.0322 58.596L34.3986 63.4489Z" fill="#56707B"/>
<path d="M45.0674 68.9771L45.2974 70.6306L40.5152 74.3263L40.2852 72.6729L45.0674 68.9771Z" fill="#40545D"/>
<path d="M40.2882 72.6728L40.5183 74.3263L31.1519 69.4735L30.9219 67.82L40.2882 72.6728Z" fill="#485F69"/>
<path d="M45.0704 68.9771L40.2882 72.6728L30.9219 67.82L35.7041 64.1243L45.0704 68.9771Z" fill="#56707B"/>
<path d="M55.7431 74.5054L55.9732 76.1589L51.191 79.8546L50.9609 78.2011L55.7431 74.5054Z" fill="#40545D"/>
<path d="M50.9562 78.2011L51.1863 79.8546L41.8199 75.0018L41.5898 73.3483L50.9562 78.2011Z" fill="#485F69"/>
<path d="M55.7384 74.5054L50.9562 78.2011L41.5898 73.3483L46.372 69.6526L55.7384 74.5054Z" fill="#56707B"/>
<path d="M27.6448 68.6654L27.8748 70.3189L23.0933 74.014L22.8633 72.3606L27.6448 68.6654Z" fill="#40545D"/>
<path d="M22.8703 72.3605L23.1003 74.014L13.734 69.1612L13.5039 67.5077L22.8703 72.3605Z" fill="#485F69"/>
<path d="M27.6518 68.6654L22.8703 72.3605L13.5039 67.5077L18.2854 63.8125L27.6518 68.6654Z" fill="#56707B"/>
<path d="M38.3205 74.1937L38.5506 75.8472L33.7691 79.5423L33.5391 77.8888L38.3205 74.1937Z" fill="#40545D"/>
<path d="M33.5343 77.8888L33.7644 79.5423L24.398 74.6895L24.168 73.036L33.5343 77.8888Z" fill="#485F69"/>
<path d="M38.3158 74.1937L33.5343 77.8888L24.168 73.036L28.9495 69.3408L38.3158 74.1937Z" fill="#56707B"/>
<path d="M48.9885 79.7219L49.2186 81.3754L44.4371 85.0706L44.207 83.4171L48.9885 79.7219Z" fill="#40545D"/>
<path d="M44.2101 83.4171L44.4402 85.0706L35.0738 80.2178L34.8438 78.5643L44.2101 83.4171Z" fill="#485F69"/>
<path d="M48.9916 79.7219L44.2101 83.4171L34.8438 78.5643L39.6252 74.8691L48.9916 79.7219Z" fill="#56707B"/>
<path d="M20.915 73.8714L21.1451 75.5249L16.3629 79.2206L16.1328 77.5671L20.915 73.8714Z" fill="#CB4844"/>
<path d="M16.1281 77.5671L16.3582 79.2206L6.99179 74.3678L6.76172 72.7143L16.1281 77.5671Z" fill="#EE5550"/>
<path d="M20.9103 73.8714L16.1281 77.5671L6.76172 72.7143L11.5439 69.0186L20.9103 73.8714Z" fill="#F17572"/>
<path d="M31.5791 79.3997L31.8091 81.0532L27.0269 84.7489L26.7969 83.0954L31.5791 79.3997Z" fill="#269DD6"/>
<path d="M26.8039 83.0954L27.0339 84.7489L17.6675 79.896L17.4375 78.2426L26.8039 83.0954Z" fill="#4BB5E7"/>
<path d="M31.586 79.3997L26.8039 83.0954L17.4375 78.2426L22.2197 74.5468L31.586 79.3997Z" fill="#78CFE2"/>
<path d="M42.2548 84.928L42.4849 86.5814L37.7027 90.2772L37.4727 88.6237L42.2548 84.928Z" fill="#D8B441"/>
<path d="M37.4679 88.6237L37.698 90.2772L28.3316 85.4243L28.1016 83.7708L37.4679 88.6237Z" fill="#FED44C"/>
<path d="M42.2501 84.928L37.4679 88.6237L28.1016 83.7708L32.8837 80.0751L42.2501 84.928Z" fill="#FEE182"/>
<path d="M106.728 48.1873L107.113 47.9949C110.116 46.2596 113.119 46.1762 115.406 47.4716L80.7474 27.332C78.4607 26.0096 75.4578 26.1199 72.4547 27.8553L72.0689 28.0476C72.0487 28.0597 71.9756 28.1122 71.9297 28.1431L106.603 48.2761C106.642 48.2478 106.709 48.1994 106.728 48.1873Z" fill="#485F69"/>
<path d="M105.984 45.5977C105.488 45.9555 104.331 46.838 104.331 46.838L74.8789 29.7292C74.9065 29.7009 75.43 29.2597 75.4575 29.2597C75.5125 29.2058 75.8155 28.9852 76.5043 28.4888L105.984 45.5977Z" fill="#40545D"/>
<path d="M104.888 45.915L76.422 29.1962C76.3937 19.2213 83.4354 7.01612 92.1235 2.00002L120.59 18.7188C111.901 23.7349 104.86 35.9401 104.888 45.915Z" fill="#DDE4E7"/>
<path d="M120.588 18.7188L120.589 18.9573C112.019 23.9049 105.066 35.9482 105.094 45.7951L104.887 45.915C104.859 35.9401 111.9 23.7349 120.588 18.7188Z" fill="#CFD8DD"/>
<path d="M34.1289 51.1066L35.4805 51.8287C47.3467 42.337 56.1003 36.3083 59.8573 33.8197V32.0216C55.9555 34.6065 46.7013 40.9682 34.1289 51.1066Z" fill="#485F69"/>
<path d="M59.8594 32.0216V33.8197L86.9806 49.5819C87.4654 49.2454 87.9596 48.9002 88.3934 48.604L59.8594 32.0216Z" fill="#56707B"/>
<path d="M74.7172 42.4298L44.6758 44.6555C46.0397 43.6496 47.3317 42.6822 48.5162 41.7849L70.7333 40.1322L74.7172 42.4298Z" fill="#61C4F0"/>
<path d="M86.9929 49.5731C85.342 50.721 83.4396 52.0845 81.2503 53.7003L44.1024 56.4273L35.4883 51.8339C36.4933 51.0435 37.4623 50.2549 38.4314 49.5363L81.4297 46.3415L86.9929 49.5731Z" fill="#61C4F0"/>
<path d="M97.9972 76.7131C90.0354 77.5631 82.8302 80.2859 76.6338 83.7896C62.7277 91.7161 53.6853 103.499 51.5958 106.47C51.2714 106.93 50.8752 107.284 50.479 107.567L42.8054 112.379C41.8327 112.946 41.0041 112.804 40.6798 112.096C39.9234 110.434 39.0947 107.673 39.0586 107.531C39.0586 107.531 65.2135 67.7621 97.9972 76.7131Z" fill="#778C95"/>
</svg>
