<svg width="21" height="21" viewBox="0 0 21 21" fill="none" xmlns="http://www.w3.org/2000/svg">
<path d="M18.8253 2.30345C16.2367 -0.285096 12.0251 -0.285056 9.43652 2.30349C7.6684 4.07161 7.05426 6.67725 7.81984 9.04125L0.343336 16.5178C0.230155 16.631 0.166504 16.7842 0.166504 16.9445V20.3588C0.166504 20.6924 0.436439 20.9623 0.770026 20.9623H4.18427C4.34456 20.9623 4.49782 20.8986 4.61096 20.7855L5.46438 19.9314C5.59462 19.8012 5.65827 19.6185 5.63707 19.4352L5.53097 18.5181L6.80166 18.3985C7.09047 18.3713 7.31856 18.1432 7.34568 17.8544L7.46534 16.5837L8.38241 16.6904C8.55272 16.7134 8.72424 16.6562 8.85332 16.5419C8.98178 16.427 9.05545 16.2631 9.05545 16.091V14.9673H10.1588C10.3191 14.9673 10.4723 14.9037 10.5855 14.7905L12.1332 13.2632C14.4966 14.0294 17.0571 13.4616 18.8253 11.6922C21.4138 9.10373 21.4138 4.892 18.8253 2.30345ZM17.1179 6.57115C16.4118 7.27723 15.2637 7.27723 14.5576 6.57115C13.8516 5.86507 13.8516 4.71697 14.5576 4.01089C15.2637 3.30481 16.4118 3.30481 17.1179 4.01089C17.824 4.71697 17.8239 5.86507 17.1179 6.57115Z" fill="black"/>
</svg>
