<svg width="55" height="55" viewBox="0 0 55 55" fill="none" xmlns="http://www.w3.org/2000/svg">
<path fill-rule="evenodd" clip-rule="evenodd" d="M43.7504 0.876226C48.5102 0.876226 52.3691 4.71409 52.3691 9.44863C52.3691 13.42 49.6528 16.7606 45.9674 17.733C45.2599 17.9201 44.5167 18.02 43.7504 18.02C40.5821 18.02 37.8144 16.3202 36.3165 13.7868C35.5638 12.5139 35.1328 11.0317 35.1328 9.44861C35.1328 7.00672 36.1588 4.80345 37.806 3.24138C39.3523 1.77601 41.4452 0.876226 43.7504 0.876226Z" fill="#FCAA17"/>
<path fill-rule="evenodd" clip-rule="evenodd" d="M36.3167 13.7866C37.8146 16.32 40.5824 18.0198 43.7506 18.0198C44.5169 18.0198 45.2601 17.9199 45.9676 17.7328V48.1802C45.9676 51.0826 43.6014 53.4351 40.6822 53.4351H40.3805C36.7224 53.1208 33.8538 50.044 33.8538 46.3249L33.8537 40.5897H9.08789V4.76227C9.08789 3.92238 9.77326 3.24121 10.6174 3.24121H37.8062C36.159 4.80328 35.133 7.00655 35.133 9.44844C35.133 11.0315 35.564 12.5137 36.3167 13.7866ZM17.1368 8.36886C17.1368 7.42804 16.3705 6.66595 15.4245 6.66595C14.4784 6.66595 13.7121 7.42804 13.7121 8.36886C13.7121 9.30968 14.4784 10.0728 15.4245 10.0728C16.3705 10.0728 17.1368 9.30965 17.1368 8.36886ZM17.1368 13.7877C17.1368 12.8469 16.3705 12.0837 15.4245 12.0837C14.4784 12.0837 13.7121 12.8469 13.7121 13.7877C13.7121 14.7285 14.4784 15.4906 15.4245 15.4906C16.3705 15.4906 17.1368 14.7285 17.1368 13.7877ZM17.1368 19.2065C17.1368 18.2657 16.3705 17.5026 15.4245 17.5026C14.4784 17.5026 13.7121 18.2657 13.7121 19.2065C13.7121 20.1463 14.4784 20.9094 15.4245 20.9094C16.3705 20.9094 17.1368 20.1463 17.1368 19.2065ZM17.1368 24.6243C17.1368 23.6835 16.3705 22.9214 15.4245 22.9214C14.4784 22.9214 13.7121 23.6835 13.7121 24.6243C13.7121 25.5652 14.4784 26.3283 15.4245 26.3283C16.3705 26.3283 17.1368 25.5652 17.1368 24.6243ZM17.1368 30.0432C17.1368 29.1023 16.3705 28.3392 15.4245 28.3392C14.4784 28.3392 13.7121 29.1024 13.7121 30.0432C13.7121 30.984 14.4784 31.7461 15.4245 31.7461C16.3705 31.7461 17.1368 30.984 17.1368 30.0432ZM17.1368 35.461C17.1368 34.5202 16.3705 33.7581 15.4245 33.7581C14.4784 33.7581 13.7121 34.5202 13.7121 35.461C13.7121 36.4018 14.4784 37.1649 15.4245 37.1649C16.3705 37.1649 17.1368 36.4018 17.1368 35.461Z" fill="#F5EFCA"/>
<path fill-rule="evenodd" clip-rule="evenodd" d="M40.3795 53.4353H8.77786C4.83171 53.4353 1.63086 50.2523 1.63086 46.3251V40.5898H9.08797H33.8538V46.3251C33.8538 50.0442 36.7214 53.121 40.3795 53.4353Z" fill="#E2DAB0"/>
<path fill-rule="evenodd" clip-rule="evenodd" d="M15.4243 6.66577C16.3703 6.66577 17.1366 7.42787 17.1366 8.36869C17.1366 9.30951 16.3703 10.0726 15.4243 10.0726C14.4782 10.0726 13.7119 9.30948 13.7119 8.36869C13.7119 7.4279 14.4782 6.66577 15.4243 6.66577Z" fill="#F4DECB"/>
<path fill-rule="evenodd" clip-rule="evenodd" d="M15.4243 12.084C16.3703 12.084 17.1366 12.8472 17.1366 13.7879C17.1366 14.7287 16.3703 15.4909 15.4243 15.4909C14.4782 15.4909 13.7119 14.7288 13.7119 13.7879C13.7119 12.8471 14.4782 12.084 15.4243 12.084Z" fill="#F4DECB"/>
<path fill-rule="evenodd" clip-rule="evenodd" d="M15.4243 17.5027C16.3703 17.5027 17.1366 18.2659 17.1366 19.2066C17.1366 20.1464 16.3703 20.9096 15.4243 20.9096C14.4782 20.9096 13.7119 20.1464 13.7119 19.2066C13.7119 18.2659 14.4782 17.5027 15.4243 17.5027Z" fill="#F4DECB"/>
<path fill-rule="evenodd" clip-rule="evenodd" d="M15.4243 22.9216C16.3703 22.9216 17.1366 23.6837 17.1366 24.6245C17.1366 25.5654 16.3703 26.3285 15.4243 26.3285C14.4782 26.3285 13.7119 25.5653 13.7119 24.6245C13.7119 23.6838 14.4782 22.9216 15.4243 22.9216Z" fill="#F4DECB"/>
<path fill-rule="evenodd" clip-rule="evenodd" d="M15.4243 28.3391C16.3703 28.3391 17.1366 29.1023 17.1366 30.0431C17.1366 30.9839 16.3703 31.746 15.4243 31.746C14.4782 31.746 13.7119 30.9839 13.7119 30.0431C13.7119 29.1023 14.4782 28.3391 15.4243 28.3391Z" fill="#F4DECB"/>
<path fill-rule="evenodd" clip-rule="evenodd" d="M15.4243 33.7581C16.3703 33.7581 17.1366 34.5202 17.1366 35.461C17.1366 36.4018 16.3703 37.1649 15.4243 37.1649C14.4782 37.1649 13.7119 36.4018 13.7119 35.461C13.7119 34.5202 14.4782 33.7581 15.4243 33.7581Z" fill="#F4DECB"/>
<path fill-rule="evenodd" clip-rule="evenodd" d="M9.08677 41.2207C8.73841 41.2207 8.45605 40.9383 8.45605 40.59V4.76262C8.45605 3.57615 9.42515 2.61084 10.6162 2.61084H37.8051C38.1533 2.61084 38.4358 2.89329 38.4358 3.24156C38.4358 3.58992 38.1533 3.87228 37.8051 3.87228L10.6162 3.87225C10.1206 3.87225 9.71749 4.27171 9.71749 4.76259L9.71746 40.5901C9.71746 40.9383 9.43501 41.2207 9.08677 41.2207Z" fill="black"/>
<path fill-rule="evenodd" clip-rule="evenodd" d="M40.6821 54.0658H40.3804C40.3797 54.0657 40.3805 54.0657 40.3804 54.0658H8.77771C4.4891 54.0658 1 50.5933 1 46.3249V40.5896C1 40.2413 1.28236 39.9589 1.63072 39.9589H33.8538C34.202 39.9589 34.4845 40.2413 34.4845 40.5896V46.325C34.4845 49.6643 37.0839 52.5052 40.4073 52.8045H40.6822C43.2488 52.8045 45.3367 50.7301 45.3367 48.1803L45.3368 17.7337C45.3368 17.3855 45.6192 17.103 45.9675 17.103C46.3158 17.103 46.5982 17.3855 46.5982 17.7337V48.1802C46.5981 51.4255 43.9441 54.0658 40.6821 54.0658ZM2.26137 41.2203V46.325C2.26137 49.8977 5.1846 52.8045 8.77765 52.8045H36.7124C36.1929 52.4603 35.7119 52.0517 35.2811 51.5845C33.9539 50.1452 33.223 48.2774 33.223 46.3251L33.223 41.2203H2.26137Z" fill="black"/>
<path fill-rule="evenodd" clip-rule="evenodd" d="M7.79923 51.4528C7.75519 51.4528 7.71052 51.4482 7.66562 51.4385C5.26545 50.9209 3.52344 48.7704 3.52344 46.325V43.099C3.52344 42.7507 3.80589 42.4683 4.15416 42.4683C4.50243 42.4683 4.78488 42.7507 4.78488 43.099V46.325C4.78488 48.1803 6.1082 49.8122 7.93159 50.2054C8.27206 50.2787 8.48862 50.6144 8.41523 50.9549C8.35144 51.2507 8.0899 51.4528 7.79923 51.4528Z" fill="black"/>
<path fill-rule="evenodd" clip-rule="evenodd" d="M13.2948 51.5556H12.7167C12.3684 51.5556 12.0859 51.2732 12.0859 50.9249C12.0859 50.5766 12.3684 50.2942 12.7167 50.2942H13.2948C13.6431 50.2942 13.9255 50.5766 13.9255 50.9249C13.9255 51.2732 13.6431 51.5556 13.2948 51.5556Z" fill="black"/>
<path fill-rule="evenodd" clip-rule="evenodd" d="M15.4232 10.7037C14.1311 10.7037 13.0801 9.65643 13.0801 8.36904C13.0801 7.08227 14.1313 6.0354 15.4232 6.0354C16.7151 6.0354 17.7662 7.08218 17.7662 8.36904C17.7662 9.6564 16.7151 10.7037 15.4232 10.7037ZM15.4232 7.29681C14.8267 7.29681 14.3415 7.77783 14.3415 8.369C14.3415 8.96081 14.8267 9.44227 15.4232 9.44227C16.0196 9.44227 16.5048 8.96072 16.5048 8.369C16.5048 7.77782 16.0196 7.29681 15.4232 7.29681Z" fill="black"/>
<path fill-rule="evenodd" clip-rule="evenodd" d="M35.2003 8.99972H19.7743C19.426 8.99972 19.1436 8.71727 19.1436 8.369C19.1436 8.02073 19.426 7.73828 19.7743 7.73828L35.2003 7.73831C35.5486 7.73831 35.8311 8.02076 35.8311 8.36903C35.8311 8.7173 35.5486 8.99972 35.2003 8.99972Z" fill="black"/>
<path fill-rule="evenodd" clip-rule="evenodd" d="M15.4232 26.9591C14.1311 26.9591 13.0801 25.9118 13.0801 24.6244C13.0801 23.3376 14.1313 22.2908 15.4232 22.2908C16.7151 22.2908 17.7662 23.3376 17.7662 24.6244C17.7662 25.9118 16.7151 26.9591 15.4232 26.9591ZM15.4232 23.5522C14.8267 23.5522 14.3415 24.0332 14.3415 24.6244C14.3415 25.2162 14.8267 25.6977 15.4232 25.6977C16.0196 25.6977 16.5048 25.2162 16.5048 24.6244C16.5048 24.0332 16.0196 23.5522 15.4232 23.5522Z" fill="black"/>
<path fill-rule="evenodd" clip-rule="evenodd" d="M41.3434 25.2551H19.7753C19.427 25.2551 19.1445 24.9726 19.1445 24.6244C19.1445 24.2761 19.427 23.9937 19.7753 23.9937H41.3434C41.6917 23.9937 41.9741 24.2761 41.9741 24.6244C41.9741 24.9726 41.6918 25.2551 41.3434 25.2551Z" fill="black"/>
<path fill-rule="evenodd" clip-rule="evenodd" d="M15.4232 16.1214C14.1311 16.1214 13.0801 15.0746 13.0801 13.7878C13.0801 12.5004 14.1313 11.4531 15.4232 11.4531C16.7151 11.4531 17.7662 12.5004 17.7662 13.7878C17.7662 15.0746 16.7151 16.1214 15.4232 16.1214ZM15.4232 12.7146C14.8267 12.7146 14.3415 13.196 14.3415 13.7878C14.3415 14.379 14.8267 14.86 15.4232 14.86C16.0196 14.86 16.5048 14.379 16.5048 13.7878C16.5048 13.196 16.0196 12.7146 15.4232 12.7146Z" fill="black"/>
<path fill-rule="evenodd" clip-rule="evenodd" d="M36.3167 14.4174H19.7743C19.426 14.4174 19.1436 14.135 19.1436 13.7867C19.1436 13.4385 19.426 13.156 19.7743 13.156L36.3167 13.156C36.665 13.156 36.9474 13.4385 36.9474 13.7868C36.9474 14.135 36.6649 14.4174 36.3167 14.4174Z" fill="black"/>
<path fill-rule="evenodd" clip-rule="evenodd" d="M15.4232 32.377C14.1311 32.377 13.0801 31.3302 13.0801 30.0434C13.0801 28.756 14.1313 27.7087 15.4232 27.7087C16.7151 27.7087 17.7662 28.756 17.7662 30.0434C17.7662 31.3302 16.7151 32.377 15.4232 32.377ZM15.4232 28.9701C14.8267 28.9701 14.3415 29.4516 14.3415 30.0434C14.3415 30.6346 14.8267 31.1156 15.4232 31.1156C16.0196 31.1156 16.5048 30.6346 16.5048 30.0434C16.5048 29.4516 16.0196 28.9701 15.4232 28.9701Z" fill="black"/>
<path fill-rule="evenodd" clip-rule="evenodd" d="M41.3434 30.674H19.7753C19.427 30.674 19.1445 30.3916 19.1445 30.0433C19.1445 29.695 19.427 29.4126 19.7753 29.4126H41.3434C41.6917 29.4126 41.9741 29.695 41.9741 30.0433C41.9741 30.3916 41.6918 30.674 41.3434 30.674Z" fill="black"/>
<path fill-rule="evenodd" clip-rule="evenodd" d="M15.4232 21.5404C14.1311 21.5404 13.0801 20.4935 13.0801 19.2067C13.0801 17.9194 14.1313 16.8721 15.4232 16.8721C16.7151 16.8721 17.7662 17.9194 17.7662 19.2067C17.7662 20.4935 16.7151 21.5404 15.4232 21.5404ZM15.4232 18.1335C14.8267 18.1335 14.3415 18.6149 14.3415 19.2068C14.3415 19.7981 14.8267 20.279 15.4232 20.279C16.0196 20.279 16.5048 19.798 16.5048 19.2068C16.5048 18.6149 16.0196 18.1335 15.4232 18.1335Z" fill="black"/>
<path fill-rule="evenodd" clip-rule="evenodd" d="M41.3434 19.8374H19.7753C19.427 19.8374 19.1445 19.5549 19.1445 19.2066C19.1445 18.8584 19.427 18.5759 19.7753 18.5759L41.3434 18.576C41.6917 18.576 41.9741 18.8584 41.9741 19.2067C41.9741 19.5549 41.6918 19.8374 41.3434 19.8374Z" fill="black"/>
<path fill-rule="evenodd" clip-rule="evenodd" d="M15.4232 37.7955C14.1311 37.7955 13.0801 36.7482 13.0801 35.4608C13.0801 34.1741 14.1313 33.1272 15.4232 33.1272C16.7151 33.1272 17.7662 34.1741 17.7662 35.4608C17.7662 36.7482 16.7151 37.7955 15.4232 37.7955ZM15.4232 34.3886C14.8267 34.3886 14.3415 34.8696 14.3415 35.4608C14.3415 36.0526 14.8267 36.5341 15.4232 36.5341C16.0196 36.5341 16.5048 36.0526 16.5048 35.4608C16.5048 34.8696 16.0196 34.3886 15.4232 34.3886Z" fill="black"/>
<path fill-rule="evenodd" clip-rule="evenodd" d="M41.3434 36.0918H19.7753C19.427 36.0918 19.1445 35.8093 19.1445 35.461C19.1445 35.1128 19.427 34.8303 19.7753 34.8303L41.3434 34.8304C41.6917 34.8304 41.9741 35.1128 41.9741 35.4611C41.9741 35.8093 41.6918 36.0918 41.3434 36.0918Z" fill="black"/>
<path fill-rule="evenodd" clip-rule="evenodd" d="M43.7503 18.6508C40.4868 18.6508 37.4302 16.91 35.7733 14.108C34.9416 12.7013 34.502 11.0902 34.502 9.44874C34.502 6.90584 35.5211 4.53889 37.3718 2.78392C37.3717 2.78392 37.3719 2.78392 37.3718 2.78392C39.0988 1.14712 41.3642 0.245605 43.7502 0.245605C48.8504 0.245605 52.9996 4.37411 52.9996 9.4487C52.9996 13.6181 50.1739 17.2755 46.128 18.3428C45.356 18.5471 44.5559 18.6508 43.7503 18.6508ZM38.2397 3.69924C36.643 5.21357 35.7634 7.25549 35.7634 9.44869C35.7634 10.8643 36.1422 12.2535 36.8592 13.4659C38.2901 15.8859 40.9306 17.3894 43.7503 17.3894C44.4471 17.3894 45.1387 17.2998 45.8059 17.1234C49.2989 16.2018 51.7383 13.0459 51.7383 9.44871C51.7383 5.06969 48.1549 1.50699 43.7503 1.50699C41.6884 1.50696 39.7314 2.2855 38.2397 3.69924Z" fill="black"/>
<path fill-rule="evenodd" clip-rule="evenodd" d="M43.7501 13.8602H41.8496C41.5013 13.8602 41.2188 13.5777 41.2188 13.2295C41.2188 12.8812 41.5013 12.5987 41.8496 12.5987H43.7501C44.4503 12.5987 45.0199 12.0333 45.0199 11.3384C45.0199 11.0024 44.8885 10.6867 44.6499 10.4497C44.4094 10.2107 44.0898 10.079 43.75 10.079C43.0738 10.079 42.4385 9.81688 41.9613 9.34099C41.4827 8.86543 41.2188 8.23166 41.2188 7.55736C41.2188 6.88364 41.4828 6.2502 41.962 5.77393C42.4385 5.29869 43.0738 5.03662 43.75 5.03662L45.6505 5.03665C45.9988 5.03665 46.2813 5.3191 46.2813 5.66737C46.2813 6.01564 45.9988 6.29809 45.6505 6.29809L43.75 6.29806C43.4102 6.29806 43.0911 6.42947 42.852 6.66796C42.612 6.90658 42.4802 7.22213 42.4802 7.55739C42.4802 7.89335 42.612 8.20932 42.8512 8.4471C43.0911 8.68634 43.41 8.81775 43.75 8.81775C44.4252 8.81775 45.0606 9.07961 45.5391 9.55506C46.0177 10.0306 46.2813 10.6641 46.2813 11.3385C46.2813 12.7289 45.1458 13.8602 43.7501 13.8602Z" fill="black"/>
<path fill-rule="evenodd" clip-rule="evenodd" d="M43.7499 14.8936C43.4016 14.8936 43.1191 14.6112 43.1191 14.2629V13.2296C43.1191 12.8813 43.4016 12.5989 43.7499 12.5989C44.0981 12.5989 44.3806 12.8813 44.3806 13.2296V14.2629C44.3806 14.6113 44.0981 14.8936 43.7499 14.8936Z" fill="black"/>
<path fill-rule="evenodd" clip-rule="evenodd" d="M43.7499 6.29823C43.4016 6.29823 43.1191 6.01578 43.1191 5.66751V4.63316C43.1191 4.28489 43.4016 4.00244 43.7499 4.00244C44.0981 4.00244 44.3806 4.28489 44.3806 4.63316V5.66751C44.3806 6.0159 44.0981 6.29823 43.7499 6.29823Z" fill="black"/>
</svg>
