<svg width="55" height="55" viewBox="0 0 55 55" fill="none" xmlns="http://www.w3.org/2000/svg">
<path d="M51.7198 51.1332C48.2113 51.5357 45.7002 51.8332 42.6904 52.1656C41.7892 52.2619 40.8442 52.3669 39.8118 52.4719C33.0222 53.1718 25.9964 53.8368 19.5305 51.6844C19.4868 51.6669 19.4518 51.6582 19.4168 51.6407C13.5109 49.637 9.17991 44.5448 7.93748 38.429L7.20253 34.8329L0.666675 2.66989C0.447939 1.59371 1.28789 0.596268 2.38157 0.631266L40.8617 2.15367C41.6842 2.17117 42.3666 2.79238 42.4891 3.61483C44.6852 18.9964 48.2988 34.1592 53.1372 48.9196C53.4697 49.9433 52.7873 51.0107 51.7198 51.1332Z" fill="#1E1D26"/>
<path d="M29.794 53.7758C26.2768 53.7758 22.7157 53.4083 19.3297 52.2796C19.3122 52.2709 19.3034 52.2709 19.2859 52.2621C19.2684 52.2534 19.2509 52.2534 19.2334 52.2446C13.1788 50.1885 8.62033 44.9476 7.31666 38.5517L0.0458548 2.79264C-0.0941367 2.09268 0.0896022 1.37523 0.553324 0.82401C1.01705 0.281543 1.68201 -0.0246882 2.39946 0.00156015L40.8884 1.52397C42.0083 1.55022 42.9532 2.39017 43.1107 3.51885C45.2631 18.5592 48.8329 33.7658 53.7326 48.7186C53.9513 49.3923 53.8638 50.1185 53.4789 50.7047C53.1026 51.2909 52.4902 51.6759 51.7902 51.7547L49.3054 52.0434C46.9867 52.3146 45.0094 52.5421 42.7608 52.7871C41.8596 52.8833 40.9146 52.9883 39.8734 53.0933C36.6624 53.4258 33.2413 53.7758 29.794 53.7758ZM19.7497 51.0897C26.198 53.2246 33.3988 52.4896 39.7509 51.8422C40.7834 51.7372 41.7283 51.6409 42.6295 51.5359C44.8781 51.2909 46.8468 51.0635 49.1654 50.7922L51.659 50.5035C51.9739 50.4685 52.2539 50.2935 52.4289 50.0223C52.6039 49.751 52.6477 49.4186 52.5427 49.1036C47.6167 34.0895 44.0294 18.8042 41.8683 3.69384C41.7896 3.17762 41.3608 2.79264 40.8446 2.77514L2.35571 1.26148C2.03198 1.24398 1.72575 1.39273 1.51577 1.63771C1.29703 1.89145 1.21828 2.22392 1.27953 2.54766L8.55034 38.3067C9.75776 44.2651 14.0013 49.1473 19.6184 51.046C19.6447 51.0547 19.6972 51.0722 19.7497 51.0897Z" fill="#1E1D26"/>
<path d="M51.7212 51.9733C48.2127 52.3757 45.7016 52.6732 42.6917 53.0057C41.7905 53.102 40.8456 53.2069 39.8132 53.3032C33.0236 54.0032 25.9978 54.6769 19.5319 52.5157C19.4882 52.4982 19.4532 52.4895 19.4182 52.4807C13.5123 50.4771 9.18128 45.3849 7.93885 39.269L7.21265 35.6818L7.1514 35.393L0.659296 3.50997C0.449309 2.44254 1.28926 1.43635 2.38294 1.47135L36.8383 2.83626L40.8543 2.99375C41.6768 3.01125 42.3593 3.63246 42.4818 4.45491C44.6779 19.8365 48.2914 34.9993 53.1299 49.7597C53.4711 50.7833 52.7886 51.8595 51.7212 51.9733Z" fill="white"/>
<path d="M16.4947 39.2256C13.3536 31.8848 11.0962 23.0916 9.70508 12.8547C19.137 13.371 28.4377 13.7559 37.8696 14.2722C39.567 22.6016 41.7369 31.1149 44.1517 39.2694L16.4947 39.2256Z" fill="#95CBFC"/>
<path d="M29.794 54.6158C26.2768 54.6158 22.7157 54.2483 19.3297 53.1196C19.3122 53.1109 19.3034 53.1109 19.2859 53.1021C19.2684 53.0934 19.2509 53.0934 19.2334 53.0846C13.1788 51.0285 8.62033 45.7876 7.31666 39.3917L0.0458548 3.63263C-0.0941367 2.93267 0.0896022 2.21521 0.553324 1.67275C1.01705 1.13028 1.68201 0.815299 2.39946 0.850297L40.8884 2.36395C42.0083 2.3902 42.9532 3.23015 43.1107 4.35883C45.2631 19.3992 48.8329 34.6057 53.7326 49.5586C53.9513 50.2323 53.8638 50.9585 53.4789 51.5447C53.1026 52.1309 52.4902 52.5159 51.7902 52.5947L49.3054 52.8834C46.9867 53.1546 45.0094 53.3821 42.7608 53.6271C41.8596 53.7233 40.9146 53.8283 39.8734 53.9333C36.6624 54.2658 33.2413 54.6158 29.794 54.6158ZM19.7497 51.9297C26.198 54.0646 33.3988 53.3296 39.7509 52.6821C40.7834 52.5772 41.7283 52.4809 42.6295 52.3759C44.8781 52.1309 46.8468 51.9034 49.1654 51.6322L51.659 51.3435C51.9739 51.3085 52.2539 51.1335 52.4289 50.8623C52.6039 50.591 52.6477 50.2585 52.5427 49.9436C47.6167 34.9295 44.0294 19.6442 41.8683 4.53382C41.7896 4.0176 41.3608 3.63263 40.8446 3.61513L2.35571 2.10147C2.03198 2.09272 1.72575 2.23271 1.51577 2.48645C1.29703 2.73143 1.21828 3.06391 1.27953 3.38764L8.55034 39.1467C9.75776 45.1051 14.0013 49.9873 19.6184 51.8859C19.6447 51.8947 19.6972 51.9122 19.7497 51.9297Z" fill="#1E1D26"/>
<path d="M29.7932 54.6156C26.2759 54.6156 22.7149 54.2481 19.3288 53.1194C19.3113 53.1107 19.3026 53.1107 19.2851 53.1019C19.2676 53.0932 19.2501 53.0932 19.2326 53.0844C13.178 51.0283 8.6195 45.7874 7.31583 39.3915L6.58962 35.7955C6.51963 35.463 6.72961 35.1305 7.06209 35.0605C7.39457 34.9818 7.72705 35.183 7.81455 35.5155C8.567 38.3328 10.5794 42.0951 13.7729 43.4075C16.039 44.3349 18.6376 43.9587 21.4987 42.2701C22.1112 41.9113 22.8374 41.8501 23.5023 42.0951C24.1498 42.3313 24.6485 42.83 24.8673 43.4687C27.7283 51.5095 37.2478 52.4894 42.6987 52.3495C42.9437 52.3495 43.1799 52.4894 43.2849 52.7169C43.3899 52.9444 43.3549 53.2157 43.1886 53.3994L43.1711 53.4169C43.0662 53.5306 42.9262 53.6094 42.7687 53.6269C41.8675 53.7231 40.9225 53.8281 39.8813 53.9331C36.6615 54.2656 33.2405 54.6156 29.7932 54.6156ZM19.7488 51.9295C24.8585 53.6269 30.4494 53.5131 35.7079 53.0669C30.8256 52.1132 25.7335 49.6721 23.6773 43.8887C23.5723 43.6 23.3536 43.3812 23.0649 43.2763C22.7586 43.1625 22.4174 43.1975 22.1287 43.3637C18.9089 45.2536 15.9341 45.6649 13.2917 44.5799C11.5681 43.8712 10.1594 42.585 9.06572 41.0889C10.7194 46.1548 14.6216 50.1971 19.6176 51.8945C19.6438 51.8945 19.6963 51.912 19.7488 51.9295Z" fill="#1E1D26"/>
<path d="M42.7075 52.9883L42.69 53.0058C41.7888 53.1021 40.8439 53.2071 39.8114 53.3121C33.0218 54.012 25.996 54.677 19.5301 52.5246C19.4864 52.5071 19.4514 52.4984 19.4164 52.4809C13.5105 50.4772 9.17953 45.385 7.9371 39.2692L7.20215 35.6819C8.39208 40.1616 12.9593 48.0274 21.8138 42.8215C22.7325 42.2877 23.9224 42.6902 24.2724 43.6876C27.0022 51.3872 35.5854 53.1633 42.7075 52.9883Z" fill="#1E1D26"/>
<path d="M44.1422 39.899L16.4852 39.8552C16.2314 39.8552 16.0039 39.7065 15.9077 39.4702C12.7666 32.1207 10.4655 23.1962 9.07436 12.9419C9.04811 12.7581 9.10936 12.5656 9.23185 12.4344C9.36309 12.2944 9.54683 12.2244 9.73057 12.2332C14.4465 12.4869 19.2062 12.7231 23.8085 12.9419C28.4107 13.1606 33.1791 13.3968 37.8951 13.6506C38.1838 13.6681 38.4201 13.8693 38.4813 14.158C40.135 22.2425 42.2436 30.642 44.7459 39.1028C44.7984 39.2953 44.7634 39.4965 44.6497 39.6627C44.5272 39.8027 44.3435 39.899 44.1422 39.899ZM16.9051 38.5953L43.3023 38.639C40.9399 30.5808 38.9363 22.5925 37.3439 14.8755C32.7942 14.6305 28.2007 14.4118 23.756 14.193C19.3987 13.983 14.9015 13.7643 10.4305 13.5281C11.7954 23.1787 13.9653 31.6045 16.9051 38.5953Z" fill="#1E1D26"/>
<path d="M23.7666 39.8552C23.5216 39.8552 23.2854 39.7152 23.1891 39.4702C19.9518 31.902 17.7207 23.345 16.3558 13.3181C16.312 12.9769 16.5483 12.6531 16.8983 12.6094C17.2395 12.5569 17.5632 12.8019 17.607 13.1518C18.9544 23.0737 21.1593 31.517 24.3441 38.9803C24.484 39.304 24.3353 39.6715 24.0116 39.8027C23.9328 39.8377 23.8541 39.8552 23.7666 39.8552Z" fill="#1E1D26"/>
<path d="M39.0331 20.6329C39.0243 20.6329 39.0068 20.6329 38.9981 20.6329C34.2821 20.3792 29.6099 20.1517 25.0777 19.9417C20.5542 19.7317 15.8732 19.5042 11.1485 19.2505C10.7985 19.233 10.5361 18.9355 10.5536 18.5855C10.5711 18.2356 10.8598 17.9731 11.2185 17.9906C15.9345 18.2443 20.6067 18.4718 25.1389 18.6818C29.6624 18.8918 34.3434 19.1193 39.0681 19.373C39.4181 19.3905 39.6805 19.688 39.663 20.0379C39.6368 20.3704 39.3656 20.6329 39.0331 20.6329Z" fill="#1E1D26"/>
<path d="M39.9968 26.9149C39.9881 26.9149 39.9706 26.9149 39.9618 26.9149C35.2459 26.6612 30.5124 26.4425 25.9189 26.2412C21.3342 26.04 16.5832 25.8213 11.8673 25.5675C11.5173 25.55 11.2548 25.2525 11.2723 24.9026C11.2898 24.5526 11.5785 24.2988 11.9373 24.3076C16.6532 24.5613 21.3867 24.7801 25.9802 24.9813C30.5649 25.1825 35.3158 25.4013 40.0318 25.655C40.3818 25.6725 40.6443 25.97 40.6268 26.32C40.6005 26.6612 40.3293 26.9149 39.9968 26.9149Z" fill="#1E1D26"/>
<path d="M41.9196 33.2054C41.9108 33.2054 41.8933 33.2054 41.8846 33.2054C37.1686 32.9516 32.3739 32.7329 27.7279 32.5229C23.082 32.3129 18.2785 32.0942 13.5538 31.8405C13.2038 31.823 12.9413 31.5255 12.9588 31.1755C12.9763 30.8255 13.2651 30.5718 13.6238 30.5805C18.3398 30.8343 23.1345 31.053 27.7804 31.263C32.4264 31.473 37.2299 31.6917 41.9546 31.9455C42.3045 31.963 42.567 32.2604 42.5495 32.6104C42.5233 32.9429 42.2521 33.2054 41.9196 33.2054Z" fill="#1E1D26"/>
<path d="M10.747 10.4046C10.7382 10.4046 10.7208 10.4046 10.712 10.4046C10.362 10.3871 10.0995 10.0897 10.117 9.73968L10.3008 6.44113C10.3183 6.09115 10.6158 5.83742 10.9657 5.84617C11.3157 5.86367 11.5782 6.16115 11.5607 6.51113L11.377 9.80968C11.3595 10.1509 11.0795 10.4046 10.747 10.4046Z" fill="#1E1D26"/>
<path d="M27.2304 11.0171C27.2216 11.0171 27.2042 11.0171 27.1954 11.0171C26.8454 10.9996 26.5829 10.7021 26.6004 10.3521L26.7842 7.05355C26.8017 6.70358 27.0992 6.44109 27.4491 6.45859C27.7991 6.47609 28.0616 6.77357 28.0441 7.12355L27.8604 10.4221C27.8429 10.7633 27.5629 11.0171 27.2304 11.0171Z" fill="#1E1D26"/>
<path d="M15.777 10.6758C15.5758 10.6758 15.3745 10.5795 15.2608 10.4045C14.832 9.79208 14.3946 9.18837 13.9659 8.58466C13.8521 8.42717 13.7384 8.27842 13.6334 8.12093L13.4409 10.0896C13.4059 10.4395 13.0997 10.6845 12.7497 10.6583C12.3997 10.6233 12.146 10.317 12.181 9.96707L12.5309 6.30979C12.5572 6.04731 12.7409 5.82857 13.0034 5.75858C13.2571 5.68858 13.5284 5.79357 13.6771 6.01231C14.1058 6.63352 14.5433 7.23724 14.9808 7.8497C15.112 8.03344 15.2433 8.20843 15.3745 8.39217C15.3833 8.35717 15.3833 8.32217 15.392 8.28717C15.4708 7.76221 15.5583 7.21974 15.6195 6.65102C15.6545 6.30104 15.9695 6.05606 16.3195 6.09106C16.6694 6.12605 16.9144 6.44104 16.8794 6.79101C16.8094 7.38598 16.7219 7.94594 16.6432 8.47966C16.5644 9.00463 16.4769 9.5471 16.4157 10.1158C16.3895 10.3783 16.197 10.597 15.9432 10.6583C15.882 10.667 15.8295 10.6758 15.777 10.6758Z" fill="#1E1D26"/>
<path d="M18.6915 11.0785C18.6477 11.0785 18.604 11.0698 18.5602 11.061C18.324 11.0085 18.1315 10.8248 18.079 10.5886L17.2128 6.80878C17.1341 6.46755 17.3441 6.13507 17.6853 6.05633C18.0265 5.97758 18.359 6.18757 18.4377 6.5288L18.9715 8.87365C19.3827 8.1387 19.7064 7.35125 19.9339 6.5463C20.0301 6.21382 20.3714 6.01258 20.7126 6.10882C21.0451 6.20507 21.2463 6.5463 21.1501 6.88752C20.7476 8.32244 20.0914 9.65236 19.1902 10.8423C19.0765 10.991 18.884 11.0785 18.6915 11.0785Z" fill="#1E1D26"/>
<path d="M23.345 11.253C23.1088 11.253 22.8813 11.218 22.6626 11.1305C21.7089 10.7805 21.1052 9.71305 21.2276 8.59312C21.3326 7.70068 21.9626 6.30951 23.0388 6.02078C24.2812 5.69705 25.3224 6.63324 25.6199 7.71818C25.8649 8.62812 25.7161 9.58181 25.2349 10.2643C24.7887 10.8942 24.0625 11.253 23.345 11.253ZM22.4788 8.73311C22.4176 9.25808 22.6976 9.80055 23.0913 9.94929C23.4588 10.0805 23.9487 9.89679 24.2112 9.52932C24.4824 9.15309 24.5524 8.59312 24.4037 8.04191C24.29 7.62193 23.8962 7.08821 23.3625 7.23696C22.9688 7.34195 22.5401 8.1644 22.4788 8.73311Z" fill="#1E1D26"/>
<path d="M31.1149 11.4544C30.5899 11.4544 30.0475 11.2182 29.6887 10.7807C29.2688 10.282 29.085 9.58203 29.1463 8.75958C29.1988 8.05962 29.4262 7.48215 29.8025 7.06218C30.3187 6.48471 31.1499 6.26598 31.8061 6.52846C32.1298 6.6597 32.2873 7.02718 32.1561 7.35091C32.0248 7.67464 31.6574 7.83213 31.3336 7.70089C31.1674 7.63089 30.9049 7.72714 30.7387 7.91088C30.5024 8.17336 30.4237 8.57584 30.4062 8.86457C30.3799 9.14455 30.3887 9.65202 30.6599 9.97575C30.8262 10.1682 31.1411 10.2645 31.2986 10.1507C31.5786 9.9495 31.9723 10.0195 32.1736 10.2995C32.3748 10.5795 32.3048 10.9732 32.0248 11.1744C31.7536 11.3669 31.4386 11.4544 31.1149 11.4544Z" fill="#1E1D26"/>
<path d="M33.4424 11.7431C33.2586 11.7431 33.0749 11.6731 32.9524 11.5418C32.8299 11.4106 32.7686 11.2444 32.7861 11.0694L33.0836 6.88712C33.1099 6.53714 33.4161 6.2834 33.7573 6.3009C34.1073 6.32715 34.3698 6.62463 34.3435 6.97461L34.0898 10.4744C34.1948 10.4744 34.2998 10.4744 34.4135 10.4656C34.7635 10.4569 35.1135 10.4569 35.4372 10.4569C35.7872 10.4569 36.0672 10.7369 36.0672 11.0869C36.0672 11.4368 35.7872 11.7168 35.4372 11.7168C35.4285 11.7168 35.4197 11.7168 35.411 11.7168C35.1048 11.7168 34.7723 11.7256 34.4398 11.7256C34.0986 11.7431 33.7573 11.7431 33.4424 11.7431Z" fill="#1E1D26"/>
<path d="M33.7753 7.56962C33.4078 7.56962 33.1104 7.29839 33.1104 6.93966C33.1104 6.58968 33.3903 6.3097 33.7403 6.3097C34.134 6.3097 34.3703 6.3097 34.7728 6.30095L35.7527 6.28345H35.7614C36.1027 6.28345 36.3827 6.56343 36.3914 6.90466C36.4002 7.25464 36.1202 7.53462 35.7702 7.54337L34.7903 7.56087C34.3965 7.56087 34.1603 7.56962 33.7753 7.56962Z" fill="#1E1D26"/>
<path d="M33.7224 9.78324C33.7049 9.78324 33.6787 9.78324 33.6524 9.78324C33.3024 9.78324 33.0225 9.50326 33.0225 9.15328C33.0225 8.8033 33.3024 8.52332 33.6524 8.52332H33.7137C34.0724 8.52332 34.2999 8.52332 34.6761 8.51457L35.656 8.49707H35.6648C36.006 8.49707 36.286 8.77705 36.2948 9.11828C36.3035 9.46826 36.0235 9.74824 35.6735 9.75699L34.6936 9.77449C34.3174 9.77449 34.0899 9.78324 33.7224 9.78324Z" fill="#1E1D26"/>
<g opacity="0.1">
<path d="M51.7202 51.9732C48.2116 52.3757 45.7006 52.6731 42.6907 53.0056C41.7895 53.1019 40.8446 53.2069 39.8122 53.3031C33.0226 54.0031 25.9967 54.6768 19.5309 52.5157C19.4871 52.4982 19.4521 52.4894 19.4171 52.4807C13.5113 50.477 9.18027 45.3848 7.93784 39.269L7.21164 35.6817L7.15039 35.393C8.90903 36.9241 10.7552 38.359 12.6626 39.6889C14.5874 41.0364 16.6786 42.3138 19.0147 42.5413C21.3508 42.7688 23.9756 41.6488 24.7631 39.4352C25.8918 36.2854 23.0307 32.4094 24.9031 29.6358C26.0755 27.9034 28.4641 27.6409 30.5465 27.3784C32.6201 27.116 35.0524 26.3548 35.6212 24.3424C36.4961 21.2713 32.2701 18.9702 31.9551 15.7941C31.7101 13.3005 33.88 11.3319 35.2012 9.20579C36.3824 7.28966 36.8811 5.08479 36.8461 2.83618L40.8621 2.99367C41.6845 3.01117 42.367 3.63238 42.4895 4.45483C44.6856 19.8364 48.2991 34.9992 53.1376 49.7596C53.4701 50.7833 52.7876 51.8594 51.7202 51.9732Z" fill="#1E1D26"/>
</g>
<path d="M34.5105 24.1151C31.1157 27.2824 30.0133 32.7071 31.8419 37.073C35.4554 45.7175 45.5173 46.5312 51.1782 39.8729C55.553 34.7282 52.5781 25.235 47.171 22.4264C43.1025 20.3178 37.8178 21.0353 34.5105 24.1151Z" fill="#1E1D26"/>
<path d="M36.6983 21.9978C39.9881 20.3441 44.1091 20.2654 47.4077 21.9803C50.3562 23.5115 52.7536 27.0637 53.5323 31.0272C54.2235 34.5795 53.506 37.9218 51.5637 40.2054C48.6413 43.6352 44.4416 45.3064 40.3293 44.6677C36.3483 44.0465 33.0848 41.3516 31.3786 37.2744C29.4713 32.7159 30.6524 27.0287 34.1697 23.7477C34.9222 23.0477 35.7709 22.4615 36.6983 21.9978ZM46.9264 42.6203C48.3526 41.9028 49.6738 40.8704 50.7937 39.5492C52.5348 37.5019 53.1736 34.4658 52.5348 31.2197C51.8174 27.545 49.6213 24.2727 46.9352 22.8727C43.0854 20.8691 38.002 21.5428 34.8522 24.4826C31.6324 27.4837 30.5562 32.6984 32.3061 36.8806C33.8722 40.6254 36.8558 43.1015 40.4781 43.6702C42.6829 44.0115 44.9141 43.6352 46.9264 42.6203Z" fill="#1E1D26"/>
<path d="M52.2729 39.2869C49.4731 42.5855 45.5883 44.0466 41.9485 43.6354C38.2387 43.2242 34.7652 40.8531 32.9366 36.4871C32.7353 36.0146 32.5778 35.5334 32.4553 35.0347C31.3792 30.9749 32.5778 26.3552 35.6051 23.5291C38.4662 20.8606 42.806 19.9594 46.5595 21.1405C47.1457 21.3243 47.7144 21.5605 48.2656 21.8405C51.3017 23.4154 53.5678 27.0989 54.1978 30.9312C54.6965 33.9235 54.189 37.0208 52.2729 39.2869Z" fill="#FFC94D"/>
<path d="M43.1637 44.3788C42.5775 44.3788 41.9912 44.335 41.405 44.2388C37.3803 43.6088 34.0817 40.8877 32.3581 36.7667C30.4332 32.1645 31.6231 26.4161 35.1754 23.1C38.6664 19.8452 44.2924 19.0928 48.5533 21.3152C51.5282 22.8638 53.9605 26.4511 54.7392 30.4496C55.4392 34.0369 54.713 37.4229 52.7443 39.7328C50.2157 42.7164 46.7335 44.3788 43.1637 44.3788ZM36.0329 24.0275C32.848 27.0023 31.7894 32.1557 33.513 36.2855C35.0617 39.9953 38.0102 42.4364 41.5888 42.9963C45.3073 43.5738 49.1221 42.0514 51.7819 38.9191C53.4968 36.898 54.1268 33.8969 53.4968 30.6946C52.7881 27.0636 50.6095 23.8175 47.9584 22.4351C44.1699 20.4577 39.1477 21.1227 36.0329 24.0275Z" fill="#1E1D26"/>
<path d="M44.5119 38.3767C43.5757 38.3767 42.6308 38.0005 41.9746 37.3092C41.7383 37.0555 41.7471 36.6618 42.0008 36.4168C42.2546 36.1806 42.6483 36.1893 42.8933 36.443C43.5145 37.0905 44.5819 37.3092 45.3694 36.933C46.1656 36.5655 46.6818 35.6118 46.5855 34.7194C46.4806 33.8182 45.7543 32.987 44.8881 32.7858C44.4157 32.672 43.882 32.7158 43.3307 32.7595C42.6395 32.812 41.9221 32.8733 41.1959 32.6545C39.9097 32.2608 38.9298 31.0009 38.886 29.6447C38.8335 28.2798 39.7172 26.9674 40.9859 26.5211C42.2458 26.0749 43.7682 26.5299 44.5994 27.6148C44.8094 27.8948 44.7569 28.2885 44.4857 28.4985C44.2144 28.7085 43.812 28.656 43.602 28.3848C43.1033 27.7373 42.1671 27.4486 41.4146 27.7111C40.6622 27.9736 40.1284 28.7873 40.1547 29.601C40.1897 30.4234 40.7934 31.2196 41.5721 31.4559C42.0708 31.6046 42.6395 31.5608 43.2345 31.5083C43.8645 31.4558 44.5207 31.4034 45.1944 31.5608C46.5768 31.8933 47.6967 33.162 47.8542 34.5794C48.0205 36.0056 47.2068 37.4755 45.9206 38.0704C45.4569 38.2804 44.9844 38.3767 44.5119 38.3767Z" fill="#1E1D26"/>
<path d="M46.3126 39.1555C46.0852 39.1555 45.8577 39.033 45.7527 38.8055L45.2277 37.7556C45.0702 37.4406 45.1927 37.0644 45.5077 36.9069C45.8227 36.7494 46.1989 36.8719 46.3564 37.1869L46.8814 38.2368C47.0389 38.5518 46.9164 38.928 46.6014 39.0855C46.5051 39.1293 46.4089 39.1555 46.3126 39.1555Z" fill="#1E1D26"/>
<path d="M40.6974 28C40.4699 28 40.2424 27.8775 40.1374 27.65L39.3937 26.1714C39.2362 25.8564 39.3587 25.4802 39.6737 25.3227C39.9887 25.1652 40.3649 25.2877 40.5224 25.6027L41.2661 27.0813C41.4236 27.3963 41.3011 27.7725 40.9861 27.93C40.8899 27.9738 40.7936 28 40.6974 28Z" fill="#1E1D26"/>
<g opacity="0.1">
<path d="M52.2716 39.2868C49.4718 42.5853 45.5871 44.0465 41.9473 43.6353C38.2375 43.224 34.764 40.8529 32.9353 36.4869C32.7341 36.0145 32.5766 35.5333 32.4541 35.0345C35.7876 37.1607 39.6637 38.3681 43.5659 38.4993C44.9483 38.5431 46.392 38.4381 47.5907 37.7469C48.7806 37.0557 49.6293 35.612 49.2881 34.2558C48.9818 33.0397 47.8182 32.086 47.7832 30.8348C47.7569 29.9161 48.3606 29.1199 48.6931 28.2712C49.3231 26.6525 48.9293 24.7452 48.0719 23.214C47.6519 22.4615 47.127 21.7791 46.5582 21.1404C47.1445 21.3241 47.7132 21.5604 48.2644 21.8403C51.3005 23.4152 53.5666 27.0988 54.1965 30.931C54.6952 33.9234 54.1878 37.0207 52.2716 39.2868Z" fill="#1E1D26"/>
</g>
<path d="M50.2676 36.8282C50.1713 36.8282 50.0838 36.802 49.9963 36.7495C49.7513 36.6007 49.6726 36.277 49.8213 36.032C50.5563 34.8159 50.6788 33.241 50.1451 31.9198C50.0401 31.6486 50.1626 31.3423 50.4338 31.2373C50.705 31.1323 51.0113 31.2548 51.1163 31.5261C51.7725 33.1447 51.615 35.0783 50.7138 36.5745C50.6175 36.732 50.4425 36.8282 50.2676 36.8282Z" fill="white"/>
<path d="M49.0606 38.4644C48.9644 38.4644 48.8681 38.4381 48.7806 38.3856C48.5357 38.2281 48.4657 37.9044 48.6232 37.6594L48.7107 37.5194C48.8681 37.2744 49.1919 37.2044 49.4369 37.3619C49.6818 37.5194 49.7518 37.8431 49.5943 38.0881L49.5069 38.2281C49.4019 38.3769 49.2356 38.4644 49.0606 38.4644Z" fill="white"/>
</svg>
