<svg width="512" height="450" viewBox="0 0 512 450" fill="none" xmlns="http://www.w3.org/2000/svg">
<path d="M225.998 450C250.851 450 270.998 429.853 270.998 405C270.998 380.147 250.851 360 225.998 360C201.145 360 180.998 380.147 180.998 405C180.998 429.853 201.145 450 225.998 450Z" fill="white"/>
<path d="M376.998 450C401.851 450 421.998 429.853 421.998 405C421.998 380.147 401.851 360 376.998 360C352.145 360 331.998 380.147 331.998 405C331.998 429.853 352.145 450 376.998 450Z" fill="white"/>
<path d="M14.9999 30.0018H77.5525L149.97 283.513L144.29 294.873C129.334 324.753 151.045 360 184.544 360H436.997C445.288 360 451.997 353.291 451.997 345C451.997 336.709 445.288 330 436.997 330H184.544C173.405 330 166.125 318.271 171.126 308.291L175.272 300H436.997C443.691 300 449.58 295.562 451.426 289.116L511.426 79.1175C512.715 74.5915 511.807 69.7276 508.98 65.9636C506.138 62.2136 501.7 60.0016 496.998 60.0016H117.322L103.289 10.8849C101.443 4.43995 95.5554 0.000976562 88.8605 0.000976562H14.9999C6.70896 0.000976562 0 6.70994 0 15.0009C0 23.2918 6.70896 30.0018 14.9999 30.0018Z" fill="white"/>
</svg>
