<svg width="38" height="36" viewBox="0 0 38 36" fill="none" xmlns="http://www.w3.org/2000/svg">
<path d="M11.2812 19.2266L27.2224 3.28538L37.7028 13.7658L21.7616 29.7069L11.2812 19.2266Z" fill="#73C2E5"/>
<g opacity="0.1">
<path d="M37.7093 13.7662L28.2524 23.2231C28.3348 23.052 28.4203 22.8809 28.509 22.7162C28.8512 22.0857 29.244 21.4775 29.7509 20.9737C30.1628 20.5682 30.6412 20.2324 31.0815 19.8585C31.6645 19.3548 32.1745 18.775 32.6846 18.1921C34.0818 16.6017 35.4757 15.0081 36.8697 13.4145C35.3712 12.0903 33.8695 10.7692 32.371 9.44487C32.051 9.16607 31.7342 8.88094 31.4427 8.56729C30.2895 7.30004 29.6685 5.51955 28.2207 4.59762C28.3189 4.59128 28.4171 4.58494 28.5185 4.57544L37.7093 13.7662Z" fill="black"/>
</g>
<g opacity="0.15">
<path d="M21.2667 29.2109L11.2871 19.2281L26.7318 3.78027L21.2667 29.2109Z" fill="white"/>
</g>
<path d="M21.7668 30.0028C21.6908 30.0028 21.6179 29.9743 21.5609 29.9173L11.0807 19.4371C11.0268 19.3832 10.9951 19.3072 10.9951 19.2312C10.9951 19.152 11.0268 19.0791 11.0807 19.0252L27.0227 3.08316C27.1336 2.97228 27.3269 2.97228 27.4346 3.08316L37.9148 13.5634C38.0288 13.6774 38.0288 13.8612 37.9148 13.9752L21.9727 29.9173C21.9157 29.9712 21.8428 30.0028 21.7668 30.0028ZM11.7016 19.228L21.7668 29.2932L37.297 13.763L27.2318 3.69778L11.7016 19.228Z" fill="#65271C"/>
<path d="M35.2246 13.7632L31.5176 17.4702L27.8106 13.7632L31.5176 10.0562L35.2246 13.7632Z" fill="#F6BE2F"/>
<g opacity="0.25">
<path d="M31.5118 17.473L31.1348 17.096L34.4645 13.7663L31.1348 10.4366L31.5118 10.0596L35.2185 13.7663L31.5118 17.473Z" fill="white"/>
</g>
<path d="M31.5119 17.7645C31.4327 17.7645 31.3598 17.7328 31.3059 17.679L27.5992 13.9723C27.5454 13.9184 27.5137 13.8424 27.5137 13.7663C27.5137 13.6903 27.5454 13.6143 27.5992 13.5604L31.3059 9.85367C31.4168 9.74279 31.6101 9.74279 31.7178 9.85367L35.4245 13.5604C35.5386 13.6744 35.5386 13.8582 35.4245 13.9723L31.7178 17.679C31.6639 17.736 31.5879 17.7645 31.5119 17.7645ZM28.217 13.7663L31.5119 17.0612L34.8036 13.7663L31.5119 10.4746L28.217 13.7663Z" fill="#65271C"/>
<path d="M32.7397 16.139C32.5338 16.139 32.3057 16.101 32.0649 16.0218C31.4946 15.8348 30.8895 15.442 30.3636 14.9161C29.8377 14.3902 29.4449 13.7851 29.2579 13.2116C29.0488 12.5748 29.1185 12.0394 29.4544 11.7036C30.0975 11.0573 31.5073 11.4596 32.6637 12.6128C33.1896 13.1388 33.5825 13.7439 33.7694 14.3141C33.9785 14.9509 33.9088 15.4863 33.5729 15.8222C33.367 16.0344 33.0819 16.139 32.7397 16.139ZM30.2908 11.9761C30.107 11.9761 29.9613 12.0236 29.8662 12.1186C29.6983 12.2865 29.6793 12.6192 29.8124 13.031C29.9708 13.5158 30.3129 14.0385 30.7755 14.5011C31.238 14.9636 31.7608 15.3058 32.2455 15.4642C32.6574 15.5972 32.99 15.5782 33.1579 15.4103C33.3258 15.2424 33.3448 14.9097 33.2118 14.4979C33.0534 14.0132 32.7112 13.4904 32.2487 13.0279C31.5422 12.3214 30.785 11.9761 30.2908 11.9761Z" fill="#65271C"/>
<path d="M30.4975 16.7538C30.4215 16.7538 30.3486 16.7253 30.2916 16.6682C30.1775 16.5542 30.1775 16.3704 30.2916 16.2564L33.9983 12.5497C34.1124 12.4356 34.2961 12.4356 34.4102 12.5497C34.5242 12.6637 34.5242 12.8475 34.4102 12.9615L30.7035 16.6682C30.6496 16.7253 30.5736 16.7538 30.4975 16.7538Z" fill="#65271C"/>
<path d="M28.8169 15.0714C28.7408 15.0714 28.668 15.0429 28.6109 14.9859C28.4969 14.8718 28.4969 14.6881 28.6109 14.574L32.3177 10.8673C32.4317 10.7532 32.6155 10.7532 32.7295 10.8673C32.8436 10.9813 32.8436 11.1651 32.7295 11.2791L29.0228 14.9859C28.9658 15.0429 28.8929 15.0714 28.8169 15.0714Z" fill="#65271C"/>
<path d="M26.1704 7.78481C26.0943 7.78481 26.0215 7.7563 25.9644 7.69927C25.8504 7.58522 25.8504 7.40147 25.9644 7.28742L27.4756 5.77621C27.5897 5.66216 27.7735 5.66216 27.8875 5.77621C28.0016 5.89027 28.0016 6.07402 27.8875 6.18807L26.3763 7.69927C26.3224 7.7563 26.2464 7.78481 26.1704 7.78481Z" fill="#65271C"/>
<path d="M23.7348 10.224C23.6588 10.224 23.5859 10.1955 23.5289 10.1385C23.4148 10.0244 23.4148 9.84068 23.5289 9.72662L25.0401 8.21542C25.1542 8.10137 25.3379 8.10137 25.452 8.21542C25.566 8.32948 25.566 8.51323 25.452 8.62728L23.9408 10.1385C23.8837 10.1955 23.8077 10.224 23.7348 10.224Z" fill="#65271C"/>
<path d="M21.2944 12.6608C21.2184 12.6608 21.1455 12.6323 21.0885 12.5753C20.9744 12.4612 20.9744 12.2774 21.0885 12.1634L22.5997 10.6522C22.7137 10.5381 22.8975 10.5381 23.0115 10.6522C23.1256 10.7662 23.1256 10.95 23.0115 11.064L21.5003 12.5753C21.4465 12.6323 21.3704 12.6608 21.2944 12.6608Z" fill="#65271C"/>
<path d="M18.8579 15.0966C18.7818 15.0966 18.709 15.0681 18.6519 15.011C18.5379 14.897 18.5379 14.7132 18.6519 14.5992L20.1631 13.088C20.2772 12.9739 20.461 12.9739 20.575 13.088C20.6891 13.202 20.6891 13.3858 20.575 13.4998L19.0638 15.011C19.0068 15.0681 18.9307 15.0966 18.8579 15.0966Z" fill="#65271C"/>
<path d="M16.4184 17.5363C16.3424 17.5363 16.2695 17.5078 16.2125 17.4507C16.0984 17.3367 16.0984 17.1529 16.2125 17.0389L17.7237 15.5277C17.8377 15.4136 18.0215 15.4136 18.1356 15.5277C18.2496 15.6417 18.2496 15.8255 18.1356 15.9395L16.6244 17.4507C16.5705 17.5078 16.4945 17.5363 16.4184 17.5363Z" fill="#65271C"/>
<path d="M13.9829 19.9723C13.9068 19.9723 13.834 19.9438 13.7769 19.8868C13.6629 19.7727 13.6629 19.589 13.7769 19.4749L15.2881 17.9637C15.4022 17.8497 15.586 17.8497 15.7 17.9637C15.8141 18.0778 15.8141 18.2615 15.7 18.3756L14.1888 19.8868C14.1318 19.9438 14.0557 19.9723 13.9829 19.9723Z" fill="#65271C"/>
<path d="M18.4755 24.7977C18.3963 24.8769 18.3234 24.9497 18.2347 25.0194C16.638 26.5623 14.7466 27.7757 12.6651 28.5867L12.6525 28.5899C11.7749 28.9352 10.9702 29.4612 10.2954 30.1328L9.56986 30.8583L3.87988 25.1747L5.29287 23.7617C5.97085 23.0837 6.49993 22.2758 6.84526 21.3792L7.04168 20.8692C8.37864 17.4064 10.571 14.3301 13.4096 11.9382L13.8722 11.5453C14.4741 11.0384 15.244 10.766 16.036 10.7977L19.6002 10.9149L14.284 15.8287L14.1668 19.472C14.1447 20.1247 14.4773 20.7614 15.0634 21.0497C15.7192 21.3729 16.4764 21.2303 16.9611 20.7424L16.9991 20.7044L17.8767 19.773C18.7194 18.8669 19.7713 18.1667 20.9466 17.7961C21.9731 17.4761 23.1295 17.3715 23.8645 18.1065C23.8645 18.1065 24.4379 18.2681 23.8297 19.3675L19.4038 23.7934C19.2073 24.0246 19.0046 24.2527 18.7955 24.4713L18.7606 24.5062C18.6688 24.6076 18.5737 24.7026 18.4755 24.7977Z" fill="#F6BE2F"/>
<g opacity="0.25">
<path d="M6.53161 25.0004L5.11862 26.4134L3.87988 25.1747L5.29287 23.7617C5.97085 23.0837 6.49993 22.2758 6.84526 21.3792L7.04168 20.8692C8.37864 17.4064 10.571 14.3301 13.4096 11.9382L13.8722 11.5453C14.4741 11.0384 15.244 10.766 16.036 10.7977L19.6002 10.9149L18.3488 12.0681L17.2716 12.0332C16.4796 12.0015 15.7097 12.274 15.1078 12.7809L14.6452 13.1738C11.8066 15.5657 9.61738 18.6388 8.27726 22.1047L8.08083 22.6148C7.73868 23.5146 7.20643 24.3224 6.53161 25.0004Z" fill="white"/>
</g>
<path d="M23.6909 19.5067L20.7509 22.4467C20.3295 21.6262 20.4657 20.5965 21.1532 19.909C21.8407 19.2247 22.8672 19.0885 23.6909 19.5067Z" fill="white"/>
<g opacity="0.15">
<path d="M18.237 25.0222C16.6402 26.5651 14.7489 27.7785 12.6674 28.5895L12.6547 28.5927C11.7771 28.938 10.9724 29.4639 10.2976 30.1356L9.57212 30.8611L7.04395 28.3329C7.18968 27.3666 7.516 26.451 8.29536 25.903C8.45377 25.7889 8.62801 25.6939 8.82127 25.6844C9.04938 25.6654 9.27115 25.7762 9.47391 25.8903C10.1487 26.2736 10.7823 26.8027 11.5522 26.9358C12.2682 27.0498 12.9937 26.8059 13.6717 26.5461C15.1607 25.9695 16.6687 25.301 18.237 25.0222Z" fill="black"/>
</g>
<path d="M9.56617 31.1559C9.48696 31.1559 9.4141 31.1242 9.36024 31.0703L3.67343 25.3835C3.55938 25.2695 3.55938 25.0857 3.67343 24.9717L5.08325 23.5618C5.73589 22.9092 6.23645 22.1425 6.56911 21.2808L6.7687 20.7675C8.1215 17.2667 10.3519 14.1398 13.219 11.7193L13.6847 11.3265C14.3437 10.7689 15.1896 10.4711 16.045 10.5091L19.6092 10.6295C19.7264 10.6327 19.8278 10.7055 19.8721 10.8132C19.9165 10.921 19.888 11.0445 19.8056 11.1269L14.7651 16.1642L14.4578 19.4971C14.4419 20.0484 14.7302 20.5648 15.1991 20.7897C15.7314 21.0463 16.346 20.9481 16.7578 20.5363L17.6671 19.5731C18.5668 18.6069 19.6725 17.8972 20.8637 17.5202C22.2451 17.0862 23.3412 17.2034 24.0382 17.8592C24.1269 17.9035 24.2632 18.0018 24.3455 18.195C24.4786 18.515 24.3931 18.9585 24.0889 19.5066C24.0762 19.532 24.0604 19.551 24.0414 19.5731L19.606 23.999C19.324 24.3349 19.0072 24.677 18.6841 25.0002C16.9923 26.692 14.9995 27.9909 12.766 28.8621C11.9106 29.1948 11.1471 29.6953 10.4976 30.3448L9.7721 31.0703C9.71824 31.1242 9.64537 31.1559 9.56617 31.1559ZM4.29439 25.1744L9.56934 30.4494L10.0857 29.9298C10.7922 29.2233 11.6255 28.6815 12.5537 28.3172C14.7112 27.4777 16.6343 26.2231 18.269 24.5883C18.5859 24.2715 18.8837 23.9483 19.1751 23.603L23.5883 19.1866C23.8513 18.6987 23.8165 18.4865 23.8006 18.4326C23.7879 18.3914 23.7689 18.3819 23.7658 18.3788C23.7182 18.3661 23.6929 18.3471 23.658 18.3122C23.1226 17.7768 22.2387 17.6944 21.0348 18.0746C19.9387 18.4231 18.9217 19.0757 18.0885 19.9692L17.2141 20.9006C17.2109 20.9038 17.1697 20.9449 17.1697 20.9481C16.5899 21.5311 15.6933 21.6768 14.9425 21.3156C14.2677 20.9893 13.8463 20.2606 13.8717 19.4623L14.1885 16.0058C14.1948 15.9393 14.2233 15.8728 14.274 15.8252L18.9153 11.1839L16.0228 11.0857C15.291 11.0604 14.6067 11.3011 14.0586 11.7669L13.5929 12.1597C10.8017 14.5168 8.63157 17.5645 7.31362 20.9735L7.11403 21.4867C6.74969 22.4245 6.20477 23.2609 5.49511 23.9705L4.29439 25.1744Z" fill="#65271C"/>
<path d="M9.32533 33.1836L0.292969 26.8156L4.52243 22.5862L12.221 30.2848L9.32533 33.1836Z" fill="#E64D3C"/>
<g opacity="0.25">
<path d="M12.2242 30.2816L11.2516 31.2542L4.52243 24.5219L1.25925 27.7851L0.292969 26.8188L4.5256 22.5862L12.2242 30.2816Z" fill="white"/>
</g>
<path d="M9.32549 33.4753C9.2653 33.4753 9.20827 33.4594 9.15758 33.4214L0.125217 27.0566C0.0555184 27.0059 0.0111643 26.9299 0.00165989 26.8444C-0.00784453 26.7588 0.023837 26.6733 0.0871998 26.6131L4.31983 22.3836C4.43389 22.2696 4.61764 22.2696 4.73169 22.3836L12.4303 30.0822C12.5443 30.1963 12.5443 30.38 12.4303 30.4941L9.53459 33.3898C9.47439 33.4468 9.40153 33.4753 9.32549 33.4753ZM0.743005 26.7778L9.29064 32.8036L11.8061 30.2881L4.51943 23.0014L0.743005 26.7778Z" fill="#65271C"/>
</svg>
