<svg width="30" height="30" viewBox="0 0 30 30" fill="none" xmlns="http://www.w3.org/2000/svg">
<path d="M26.2711 3.81007L22.5422 0.230469L18.1919 4.40669L21.2994 12.1624L26.2711 3.81007Z" fill="#FF3E3A"/>
<path d="M26.2712 3.81006L19.4349 10.3726L25.6497 11.5658L30.0001 7.38966L26.2712 3.81006Z" fill="#CC3245"/>
<path d="M2.00484 23.0952L0 29.0292L6.57913 25.0999L2.00484 23.0952Z" fill="#373E9F"/>
<path d="M0.00012207 29.0292L6.18158 27.1046L5.33619 23.9067L0.00012207 29.0292Z" fill="#340D66"/>
<path d="M11.0376 20.82L3.57982 18.4336L2.00488 23.0951L4.09322 25.0998L11.0376 20.82Z" fill="#FFE7B5"/>
<path d="M4.09314 25.1L6.18154 27.1047L11.0374 25.5929L9.79448 19.627L4.09314 25.1Z" fill="#FFD06A"/>
<path d="M7.30859 22.0132L11.0374 25.5927L25.6496 11.5656L21.9207 7.98608L12.1843 12.5599L7.30859 22.0132Z" fill="#FF9A27"/>
<path d="M3.57837 18.4329L18.1883 4.4079L21.9166 7.98692L7.30667 22.0119L3.57837 18.4329Z" fill="#FFB820"/>
</svg>
