<svg width="15" height="26" viewBox="0 0 15 26" fill="none" xmlns="http://www.w3.org/2000/svg">
<path d="M12.4544 0.741455H1.92972C0.922469 0.741455 0.109375 1.5582 0.109375 2.56362V23.9356C0.109375 24.9401 0.922469 25.7559 1.92972 25.7559H12.4544C13.4598 25.7559 14.2747 24.9401 14.2747 23.9356V2.56362C14.2747 1.5582 13.4598 0.741455 12.4544 0.741455ZM4.59507 1.84807H9.79085C9.92211 1.84807 10.0288 2.04405 10.0288 2.28652C10.0288 2.52899 9.92211 2.72588 9.79085 2.72588H4.59507C4.46289 2.72588 4.35807 2.52899 4.35807 2.28652C4.35807 2.04405 4.46289 1.84807 4.59507 1.84807ZM7.19296 23.9575C6.55214 23.9575 6.03074 23.4361 6.03074 22.7944C6.03074 22.1526 6.55214 21.6331 7.19296 21.6331C7.83195 21.6331 8.35335 22.1526 8.35335 22.7944C8.35335 23.4361 7.83195 23.9575 7.19296 23.9575ZM12.9111 19.975H1.47395V3.81608H12.9111V19.975Z" fill="black"/>
</svg>
