<svg width="25" height="25" viewBox="0 0 25 25" fill="none" xmlns="http://www.w3.org/2000/svg">
<path fill-rule="evenodd" clip-rule="evenodd" d="M12.5058 0C5.61453 0 0.0117188 5.60282 0.0117188 12.4941C0.0117188 19.3853 5.61453 24.9882 12.5058 24.9882C19.3971 24.9882 24.9999 19.3853 24.9999 12.4941C24.9999 5.60282 19.3971 0 12.5058 0Z" fill="#00A611"/>
<path d="M5.67285 13.6459V11.3374C5.67285 11.1031 5.86319 10.9079 6.10234 10.9079H10.9292V6.08598C10.9292 5.85171 11.1195 5.65649 11.3586 5.65649H13.6671C13.9014 5.65649 14.0917 5.84683 14.0917 6.08598V10.9128H18.9137C19.1479 10.9128 19.3431 11.1031 19.3431 11.3423V13.6508C19.3431 13.885 19.1528 14.0754 18.9137 14.0754H14.0868V18.8973C14.0868 19.1316 13.8965 19.3268 13.6622 19.3268H11.3538C11.1195 19.3268 10.9243 19.1364 10.9243 18.8973V14.0705H6.10234C5.86319 14.0754 5.67285 13.8801 5.67285 13.6459Z" fill="white"/>
</svg>
