<svg width="24" height="24" viewBox="0 0 24 24" fill="none" xmlns="http://www.w3.org/2000/svg">
<path d="M4.92188 9.84375H2.10938C1.72073 9.84375 1.40625 9.52927 1.40625 9.14062V6.32812C1.40625 5.16497 2.35247 4.21875 3.51562 4.21875H4.92188C5.31052 4.21875 5.625 4.53323 5.625 4.92188V9.14062C5.625 9.52927 5.31052 9.84375 4.92188 9.84375Z" fill="#57555C"/>
<path d="M22.5938 9.14062C22.5938 9.52927 22.2793 9.84375 21.8906 9.84375H19.0781C18.6895 9.84375 18.375 9.52927 18.375 9.14062L16.9688 4.92188C16.9688 4.53323 17.2832 4.21875 17.6719 4.21875H20.4844C21.6475 4.21875 22.5938 5.16497 22.5938 6.32812V9.14062Z" fill="#3C3A41"/>
<path d="M19.7812 5.625V9.14062C19.7812 9.53433 19.4719 9.84375 19.0781 9.84375H4.92188C4.52808 9.84375 4.21875 9.53433 4.21875 9.14062V0.703125C4.21875 0.309328 4.52808 0 4.92188 0H14.1562L15.5625 4.21875L19.7812 5.625Z" fill="#E5E5E5"/>
<path d="M19.0781 9.84375H12V0H14.1562L15.5625 4.21875L19.7812 5.625V9.14062C19.7812 9.53433 19.4719 9.84375 19.0781 9.84375Z" fill="#D9D9D9"/>
<path d="M21.8906 8.4375H2.10938C0.942141 8.4375 0 9.37964 0 10.5469V19.0781C0 20.2453 0.942141 21.1875 2.10938 21.1875H21.8906C23.0579 21.1875 24 20.2453 24 19.0781V10.5469C24 9.37964 23.0579 8.4375 21.8906 8.4375Z" fill="#1BA9EF"/>
<path d="M14.1562 4.92188C14.1562 5.31558 14.4656 5.625 14.8594 5.625H19.7812L14.1562 0V4.92188Z" fill="#FE9923"/>
<path d="M24 10.5469V19.0781C24 20.2453 23.0579 21.1875 21.8906 21.1875H12V8.4375H21.8906C23.0579 8.4375 24 9.37964 24 10.5469Z" fill="#1689FC"/>
<path d="M4.92188 12.6562H3.51562C3.12698 12.6562 2.8125 12.3418 2.8125 11.9531C2.8125 11.5645 3.12698 11.25 3.51562 11.25H4.92188C5.31052 11.25 5.625 11.5645 5.625 11.9531C5.625 12.3418 5.31052 12.6562 4.92188 12.6562Z" fill="#E1E4FB"/>
<path d="M19.7812 14.9999V23.2968C19.7812 23.6905 19.4719 23.9999 19.0781 23.9999H4.92188C4.52808 23.9999 4.21875 23.6905 4.21875 23.2968V14.9999H19.7812Z" fill="#E5E5E5"/>
<path d="M19.7812 14.9999V23.2968C19.7812 23.6905 19.4719 23.9999 19.0781 23.9999H12V14.9999H19.7812Z" fill="#D9D9D9"/>
<path d="M16.9688 17.6719C16.9688 18.0656 16.6594 18.375 16.2656 18.375H7.73438C7.34058 18.375 7.03125 18.0656 7.03125 17.6719C7.03125 17.2781 7.34058 16.9688 7.73438 16.9688H16.2656C16.6594 16.9688 16.9688 17.2781 16.9688 17.6719Z" fill="#AEADB3"/>
<path d="M16.9688 20.4844C16.9688 20.8781 16.6594 21.1875 16.2656 21.1875H7.73438C7.34058 21.1875 7.03125 20.8781 7.03125 20.4844C7.03125 20.0906 7.34058 19.7812 7.73438 19.7812H16.2656C16.6594 19.7812 16.9688 20.0906 16.9688 20.4844Z" fill="#AEADB3"/>
<path d="M16.9688 20.4844C16.9688 20.8781 16.6594 21.1875 16.2656 21.1875H12V19.7812H16.2656C16.6594 19.7812 16.9688 20.0906 16.9688 20.4844Z" fill="#8B8892"/>
<path d="M16.9688 17.6719C16.9688 18.0656 16.6594 18.375 16.2656 18.375H12V16.9688H16.2656C16.6594 16.9688 16.9688 17.2781 16.9688 17.6719Z" fill="#8B8892"/>
<path d="M21.1875 14.8594C21.1875 15.2531 20.8782 15.5625 20.4844 15.5625H3.51562C3.12183 15.5625 2.8125 15.2531 2.8125 14.8594C2.8125 14.4656 3.12183 14.1562 3.51562 14.1562H20.4844C20.8782 14.1562 21.1875 14.4656 21.1875 14.8594Z" fill="#57555C"/>
<path d="M21.1875 14.8594C21.1875 15.2531 20.8782 15.5625 20.4844 15.5625H12V14.1562H20.4844C20.8782 14.1562 21.1875 14.4656 21.1875 14.8594Z" fill="#3C3A41"/>
</svg>
