<svg width="20" height="19" viewBox="0 0 20 19" fill="none" xmlns="http://www.w3.org/2000/svg">
<path d="M18.8041 16.3436L14.3761 11.9152C15.1284 10.7174 15.5651 9.30169 15.5651 7.78238C15.5651 3.48404 12.0806 0 7.78238 0C3.4842 0 0 3.48404 0 7.78238C0 12.0809 3.48404 15.5646 7.78238 15.5646C9.43579 15.5646 10.9673 15.0477 12.2275 14.1693L16.6028 18.545C16.9068 18.8487 17.3054 19 17.7035 19C18.102 19 18.5001 18.8487 18.8046 18.545C19.4122 17.9368 19.4122 16.9516 18.8041 16.3436ZM7.78238 13.0432C4.8772 13.0432 2.52186 10.688 2.52186 7.78271C2.52186 4.87737 4.8772 2.52203 7.78238 2.52203C10.6877 2.52203 13.0429 4.87737 13.0429 7.78271C13.0429 10.688 10.6877 13.0432 7.78238 13.0432Z" fill="black"/>
</svg>
