<svg width="15" height="15" viewBox="0 0 15 15" fill="none" xmlns="http://www.w3.org/2000/svg">
<path d="M13.7198 12.6059L10.4935 9.37941C11.0416 8.50671 11.3598 7.47522 11.3598 6.36825C11.3598 3.23648 8.82095 0.697998 5.6893 0.697998C2.55764 0.697998 0.019043 3.23648 0.019043 6.36825C0.019043 9.50015 2.55752 12.0384 5.6893 12.0384C6.89397 12.0384 8.00981 11.6618 8.92799 11.0218L12.1159 14.2099C12.3374 14.4312 12.6278 14.5414 12.9178 14.5414C13.2082 14.5414 13.4982 14.4312 13.7201 14.2099C14.1628 13.7668 14.1628 13.049 13.7198 12.6059ZM5.6893 10.2013C3.57258 10.2013 1.85648 8.48532 1.85648 6.36849C1.85648 4.25165 3.57258 2.53555 5.6893 2.53555C7.80613 2.53555 9.52212 4.25165 9.52212 6.36849C9.52212 8.48532 7.80613 10.2013 5.6893 10.2013Z" fill="black"/>
</svg>
