<svg width="38" height="36" viewBox="0 0 38 36" fill="none" xmlns="http://www.w3.org/2000/svg">
<path d="M19 3C10.716 3 4 9.71367 4 18C4 26.2863 10.716 33 19 33C27.284 33 34 26.2822 34 18C34 9.71777 27.284 3 19 3Z" fill="#64C840"/>
<path d="M4.00001 18C3.99663 20.4794 4.6106 22.9206 5.78654 25.1033C7.28471 25.5432 8.83821 25.766 10.3996 25.7649C19.4172 25.7649 26.7274 18.4547 26.7274 9.43713C26.7287 7.85096 26.4989 6.27306 26.0453 4.75315C23.8769 3.5981 21.4569 2.99593 19 3.00002C10.716 3.00002 4.00001 9.71369 4.00001 18Z" fill="#7BC951"/>
<path d="M27.5544 15.5146L18.5385 24.9827C18.2928 25.2405 17.9976 25.446 17.6706 25.587C17.3436 25.7279 16.9915 25.8014 16.6354 25.8031H16.6237C16.2696 25.8032 15.9191 25.7321 15.5929 25.5941C15.2668 25.4561 14.9717 25.254 14.7253 24.9997L9.94107 20.072C9.69388 19.8239 9.49843 19.5291 9.36607 19.2049C9.23371 18.8806 9.16707 18.5332 9.17002 18.183C9.17297 17.8328 9.24545 17.4866 9.38326 17.1646C9.52106 16.8426 9.72145 16.5512 9.97279 16.3073C10.2241 16.0634 10.5214 15.8718 10.8474 15.7437C11.1734 15.6155 11.5215 15.5535 11.8717 15.561C12.2219 15.5685 12.5671 15.6455 12.8872 15.7875C13.2074 15.9295 13.4962 16.1337 13.7368 16.3882L16.6049 19.3425L23.7235 11.8671C23.962 11.6114 24.2488 11.4055 24.5673 11.2614C24.8858 11.1172 25.2298 11.0377 25.5793 11.0273C25.9288 11.0169 26.2768 11.0759 26.6034 11.2009C26.9299 11.3259 27.2284 11.5144 27.4816 11.7555C27.7348 11.9966 27.9377 12.2855 28.0786 12.6055C28.2194 12.9255 28.2955 13.2703 28.3022 13.6199C28.309 13.9694 28.2464 14.3169 28.118 14.6421C27.9896 14.9673 27.7981 15.2639 27.5544 15.5146Z" fill="white"/>
</svg>
