<svg width="28" height="28" viewBox="0 0 28 28" fill="none" xmlns="http://www.w3.org/2000/svg">
<path d="M8.20312 28H19.7969C24.3273 28 28 24.3273 28 19.7969V8.20312C28 3.67266 24.3273 0 19.7969 0H8.20312C3.67266 0 0 3.67266 0 8.20312V19.7969C0 24.3273 3.67266 28 8.20312 28Z" fill="#C4C4C4"/>
<path d="M17.9663 12.5116L15.367 9.91227V16.9948C15.367 17.7501 14.755 18.362 13.9998 18.362C13.2445 18.362 12.6326 17.7501 12.6326 16.9948V9.91227L10.0333 12.5116C9.49953 13.0453 8.63383 13.0453 8.09953 12.5116C7.56578 11.9778 7.56578 11.1121 8.09953 10.5778L13.0329 5.64445C13.5666 5.1107 14.4323 5.1107 14.9666 5.64445L19.9 10.5778C20.4338 11.1116 20.4338 11.9773 19.9 12.5116C19.3663 13.0453 18.5005 13.0453 17.9663 12.5116Z" fill="white"/>
<path d="M6.33984 14.8251C5.58461 14.8251 4.97266 15.437 4.97266 16.1923V20.0204C4.97266 21.5303 6.19711 22.7548 7.70703 22.7548H20.2852C21.7951 22.7548 23.0195 21.5303 23.0195 20.0204V16.1923C23.0195 15.437 22.4076 14.8251 21.6523 14.8251C20.8971 14.8251 20.2852 15.437 20.2852 16.1923V19.3368C20.2852 19.7141 19.9789 20.0204 19.6016 20.0204H8.39062C8.01328 20.0204 7.70703 19.7141 7.70703 19.3368V16.1923C7.70703 15.437 7.09508 14.8251 6.33984 14.8251Z" fill="white"/>
</svg>
